<?xml version="1.0" encoding="UTF-8" standalone="no"?>
<!DOCTYPE svg PUBLIC "-//W3C//DTD SVG 1.1//EN"
 "http://www.w3.org/Graphics/SVG/1.1/DTD/svg11.dtd">
<!-- Generated by graphviz version 14.0.2 (20251019.1705)
 -->
<!-- Pages: 1 -->
<svg width="224pt" height="132pt"
 viewBox="0.00 0.00 224.00 132.00" xmlns="http://www.w3.org/2000/svg" xmlns:xlink="http://www.w3.org/1999/xlink">
<g id="graph0" class="graph" transform="scale(1 1) rotate(0) translate(4 128)">
<polygon fill="white" stroke="none" points="-4,4 -4,-128 220.25,-128 220.25,4 -4,4"/>
<g id="clust2" class="cluster">
<title>cluster_associated</title>
</g>
<!-- AreaUnit -->
<g id="node1" class="node">
<title>AreaUnit</title>
<g id="a_node1"><a xlink:href="../AreaUnit.md" xlink:title="&lt;TABLE&gt;">
<polygon fill="lightgray" stroke="none" points="75.12,-25.88 75.12,-42.12 124.38,-42.12 124.38,-25.88 75.12,-25.88"/>
<text xml:space="preserve" text-anchor="start" x="76.12" y="-29.73" font-family="Arial" font-size="12.00">AreaUnit</text>
<polygon fill="none" stroke="black" points="74.12,-24.88 74.12,-43.12 125.38,-43.12 125.38,-24.88 74.12,-24.88"/>
</a>
</g>
</g>
<!-- CityUnitsThing -->
<g id="node3" class="node">
<title>CityUnitsThing</title>
<g id="a_node3"><a xlink:href="../CityUnitsThing.md" xlink:title="&lt;TABLE&gt;">
<polygon fill="lightgray" stroke="none" points="1,-97.88 1,-114.12 82.5,-114.12 82.5,-97.88 1,-97.88"/>
<text xml:space="preserve" text-anchor="start" x="2" y="-101.72" font-family="Arial" font-size="12.00">CityUnitsThing</text>
<polygon fill="none" stroke="black" points="0,-96.88 0,-115.12 83.5,-115.12 83.5,-96.88 0,-96.88"/>
</a>
</g>
</g>
<!-- AreaUnit&#45;&gt;CityUnitsThing -->
<g id="edge1" class="edge">
<title>AreaUnit&#45;&gt;CityUnitsThing</title>
<path fill="none" stroke="black" d="M85.84,-51.79C79.02,-60.02 70.66,-70.11 63.05,-79.29"/>
<polygon fill="none" stroke="black" points="60.44,-76.96 56.76,-86.89 65.83,-81.42 60.44,-76.96"/>
</g>
<!-- i72_Unit_of_measure -->
<g id="node4" class="node">
<title>i72_Unit_of_measure</title>
<polygon fill="lightgray" stroke="none" points="102.25,-97.88 102.25,-114.12 215.25,-114.12 215.25,-97.88 102.25,-97.88"/>
<text xml:space="preserve" text-anchor="start" x="103.25" y="-101.72" font-family="Arial" font-size="12.00">i72:Unit_of_measure</text>
<polygon fill="none" stroke="black" points="101.25,-96.88 101.25,-115.12 216.25,-115.12 216.25,-96.88 101.25,-96.88"/>
</g>
<!-- AreaUnit&#45;&gt;i72_Unit_of_measure -->
<g id="edge2" class="edge">
<title>AreaUnit&#45;&gt;i72_Unit_of_measure</title>
<path fill="none" stroke="black" d="M113.9,-51.79C120.84,-60.02 129.35,-70.11 137.08,-79.29"/>
<polygon fill="none" stroke="black" points="134.37,-81.51 143.49,-86.9 139.72,-77 134.37,-81.51"/>
</g>
<!-- Invis -->
</g>
</svg>
