<?xml version="1.0" encoding="UTF-8" standalone="no"?>
<!DOCTYPE svg PUBLIC "-//W3C//DTD SVG 1.1//EN"
 "http://www.w3.org/Graphics/SVG/1.1/DTD/svg11.dtd">
<!-- Generated by graphviz version 14.0.2 (20251019.1705)
 -->
<!-- Pages: 1 -->
<svg width="630pt" height="305pt"
 viewBox="0.00 0.00 630.00 305.00" xmlns="http://www.w3.org/2000/svg" xmlns:xlink="http://www.w3.org/1999/xlink">
<g id="graph0" class="graph" transform="scale(1 1) rotate(0) translate(4 301)">
<polygon fill="white" stroke="none" points="-4,4 -4,-301 625.77,-301 625.77,4 -4,4"/>
<g id="clust2" class="cluster">
<title>cluster_associated</title>
</g>
<!-- AtomicAgreement -->
<g id="node1" class="node">
<title>AtomicAgreement</title>
<g id="a_node1"><a xlink:href="../AtomicAgreement.md" xlink:title="&lt;TABLE&gt;">
<polygon fill="lightgray" stroke="none" points="299.89,-9.88 299.89,-26.12 397.14,-26.12 397.14,-9.88 299.89,-9.88"/>
<text xml:space="preserve" text-anchor="start" x="300.89" y="-13.72" font-family="Arial" font-size="12.00">AtomicAgreement</text>
<polygon fill="none" stroke="black" points="298.89,-8.88 298.89,-27.12 398.14,-27.12 398.14,-8.88 298.89,-8.88"/>
</a>
</g>
</g>
<!-- Invis -->
<!-- AtomicAgreement&#45;&gt;Invis -->
<!-- Activity -->
<g id="node3" class="node">
<title>Activity</title>
<g id="a_node3"><a xlink:href="../Activity.md" xlink:title="&lt;TABLE&gt;">
<polygon fill="lightgray" stroke="none" points="286.39,-181.88 286.39,-198.12 326.64,-198.12 326.64,-181.88 286.39,-181.88"/>
<text xml:space="preserve" text-anchor="start" x="287.39" y="-185.72" font-family="Arial" font-size="12.00">Activity</text>
<polygon fill="none" stroke="black" points="285.39,-180.88 285.39,-199.12 327.64,-199.12 327.64,-180.88 285.39,-180.88"/>
</a>
</g>
</g>
<!-- AtomicAgreement&#45;&gt;Activity -->
<g id="edge5" class="edge">
<title>AtomicAgreement&#45;&gt;Activity</title>
<path fill="none" stroke="black" d="M397.66,-25.37C415.08,-30.25 432.96,-38.86 443.52,-54 450.38,-63.84 449.44,-70.56 443.52,-81 439.24,-88.54 433.87,-86.03 426.77,-91 393.51,-114.29 357.73,-144.13 333.92,-164.73"/>
<polygon fill="black" stroke="black" points="331.8,-161.94 326.56,-171.15 336.39,-167.22 331.8,-161.94"/>
<text xml:space="preserve" text-anchor="middle" x="472.14" y="-120.05" font-family="Arial" font-size="11.00"> commitsToActivity </text>
<text xml:space="preserve" text-anchor="middle" x="472.14" y="-106.55" font-family="Arial" font-size="11.00"> «some» &#160;</text>
</g>
<!-- Agreement -->
<g id="node5" class="node">
<title>Agreement</title>
<g id="a_node5"><a xlink:href="../Agreement.md" xlink:title="&lt;TABLE&gt;">
<polygon fill="lightgray" stroke="none" points="560.27,-108.88 560.27,-125.12 620.77,-125.12 620.77,-108.88 560.27,-108.88"/>
<text xml:space="preserve" text-anchor="start" x="561.27" y="-112.72" font-family="Arial" font-size="12.00">Agreement</text>
<polygon fill="none" stroke="black" points="559.27,-107.88 559.27,-126.12 621.77,-126.12 621.77,-107.88 559.27,-107.88"/>
</a>
</g>
</g>
<!-- AtomicAgreement&#45;&gt;Agreement -->
<g id="edge1" class="edge">
<title>AtomicAgreement&#45;&gt;Agreement</title>
<path fill="none" stroke="black" d="M398.12,-23.55C448.22,-28.89 521.52,-38.98 545.52,-54 559.13,-62.52 569.91,-76.79 577.5,-89.5"/>
<polygon fill="none" stroke="black" points="574.25,-90.85 582.16,-97.89 580.36,-87.45 574.25,-90.85"/>
</g>
<!-- Invis&#45;&gt;Activity -->
<!-- Agent -->
<g id="node4" class="node">
<title>Agent</title>
<g id="a_node4"><a xlink:href="../Agent.md" xlink:title="&lt;TABLE&gt;">
<polygon fill="lightgray" stroke="none" points="289.77,-108.88 289.77,-125.12 323.27,-125.12 323.27,-108.88 289.77,-108.88"/>
<text xml:space="preserve" text-anchor="start" x="290.77" y="-112.72" font-family="Arial" font-size="12.00">Agent</text>
<polygon fill="none" stroke="black" points="288.77,-107.88 288.77,-126.12 324.27,-126.12 324.27,-107.88 288.77,-107.88"/>
</a>
</g>
</g>
<!-- Activity&#45;&gt;Agent -->
<!-- Agent&#45;&gt;AtomicAgreement -->
<g id="edge6" class="edge">
<title>Agent&#45;&gt;AtomicAgreement</title>
<path fill="none" stroke="black" d="M279.69,-114.88C209.41,-111.66 24.09,-101.3 6.02,-81 -1.96,-72.04 -2.03,-62.91 6.02,-54 24.55,-33.47 195.37,-24.33 288.54,-20.84"/>
<polygon fill="black" stroke="black" points="298.59,-23.98 288.46,-20.85 298.33,-16.98 298.59,-23.98"/>
<text xml:space="preserve" text-anchor="middle" x="50.27" y="-70.55" font-family="Arial" font-size="11.00"> inverse hasClaim </text>
<text xml:space="preserve" text-anchor="middle" x="50.27" y="-57.05" font-family="Arial" font-size="11.00"> «only» &#160;</text>
</g>
<!-- Agent&#45;&gt;AtomicAgreement -->
<g id="edge7" class="edge">
<title>Agent&#45;&gt;AtomicAgreement</title>
<path fill="none" stroke="black" d="M279.66,-115.97C217.32,-115.02 71.5,-107.21 117.27,-54 138.98,-28.75 227.79,-21.49 288.81,-19.53"/>
<polygon fill="black" stroke="black" points="298.7,-22.75 288.61,-19.54 298.5,-15.76 298.7,-22.75"/>
<text xml:space="preserve" text-anchor="middle" x="158.89" y="-70.55" font-family="Arial" font-size="11.00"> inverse hasDuty </text>
<text xml:space="preserve" text-anchor="middle" x="158.89" y="-57.05" font-family="Arial" font-size="11.00"> «only» &#160;</text>
</g>
<!-- Agent&#45;&gt;AtomicAgreement -->
<g id="edge8" class="edge">
<title>Agent&#45;&gt;AtomicAgreement</title>
<path fill="none" stroke="black" d="M279.58,-112.43C260.47,-108.33 236.09,-99.59 223.77,-81 217.14,-71 216.52,-63.56 223.77,-54 232.09,-43.02 260.99,-34.54 288.89,-28.68"/>
<polygon fill="black" stroke="black" points="299.28,-30.16 288.78,-28.7 297.9,-23.3 299.28,-30.16"/>
<text xml:space="preserve" text-anchor="middle" x="275.14" y="-70.55" font-family="Arial" font-size="11.00"> inverse hasNoClaim </text>
<text xml:space="preserve" text-anchor="middle" x="275.14" y="-57.05" font-family="Arial" font-size="11.00"> «only» &#160;</text>
</g>
<!-- Agent&#45;&gt;AtomicAgreement -->
<g id="edge9" class="edge">
<title>Agent&#45;&gt;AtomicAgreement</title>
<path fill="none" stroke="black" d="M316.91,-99.23C320.2,-93.56 323.71,-87.11 326.52,-81 331.68,-69.75 336.41,-56.91 340.15,-45.85"/>
<polygon fill="black" stroke="black" points="346.59,-37.47 340.15,-45.87 339.94,-35.28 346.59,-37.47"/>
<text xml:space="preserve" text-anchor="middle" x="388.24" y="-70.55" font-family="Arial" font-size="11.00"> inverse hasPrivilege </text>
<text xml:space="preserve" text-anchor="middle" x="388.24" y="-57.05" font-family="Arial" font-size="11.00"> «only» &#160;</text>
</g>
</g>
</svg>
