<?xml version="1.0" encoding="UTF-8" standalone="no"?>
<!DOCTYPE svg PUBLIC "-//W3C//DTD SVG 1.1//EN"
 "http://www.w3.org/Graphics/SVG/1.1/DTD/svg11.dtd">
<!-- Generated by graphviz version 14.0.2 (20251019.1705)
 -->
<!-- Pages: 1 -->
<svg width="255pt" height="132pt"
 viewBox="0.00 0.00 255.00 132.00" xmlns="http://www.w3.org/2000/svg" xmlns:xlink="http://www.w3.org/1999/xlink">
<g id="graph0" class="graph" transform="scale(1 1) rotate(0) translate(4 128)">
<polygon fill="white" stroke="none" points="-4,4 -4,-128 250.75,-128 250.75,4 -4,4"/>
<g id="clust2" class="cluster">
<title>cluster_associated</title>
</g>
<!-- CardinalityUnitPerTime -->
<g id="node1" class="node">
<title>CardinalityUnitPerTime</title>
<g id="a_node1"><a xlink:href="../CardinalityUnitPerTime.md" xlink:title="&lt;TABLE&gt;">
<polygon fill="lightgray" stroke="none" points="31.5,-25.88 31.5,-42.12 158,-42.12 158,-25.88 31.5,-25.88"/>
<text xml:space="preserve" text-anchor="start" x="32.5" y="-29.73" font-family="Arial" font-size="12.00">CardinalityUnitPerTime</text>
<polygon fill="none" stroke="black" points="30.5,-24.88 30.5,-43.12 159,-43.12 159,-24.88 30.5,-24.88"/>
</a>
</g>
</g>
<!-- CityUnitsThing -->
<g id="node3" class="node">
<title>CityUnitsThing</title>
<g id="a_node3"><a xlink:href="../CityUnitsThing.md" xlink:title="&lt;TABLE&gt;">
<polygon fill="lightgray" stroke="none" points="1,-97.88 1,-114.12 82.5,-114.12 82.5,-97.88 1,-97.88"/>
<text xml:space="preserve" text-anchor="start" x="2" y="-101.72" font-family="Arial" font-size="12.00">CityUnitsThing</text>
<polygon fill="none" stroke="black" points="0,-96.88 0,-115.12 83.5,-115.12 83.5,-96.88 0,-96.88"/>
</a>
</g>
</g>
<!-- CardinalityUnitPerTime&#45;&gt;CityUnitsThing -->
<g id="edge1" class="edge">
<title>CardinalityUnitPerTime&#45;&gt;CityUnitsThing</title>
<path fill="none" stroke="black" d="M82.04,-51.79C75.87,-59.93 68.32,-69.9 61.43,-79"/>
<polygon fill="none" stroke="black" points="58.74,-76.76 55.49,-86.85 64.32,-80.99 58.74,-76.76"/>
</g>
<!-- i72_Unit_division -->
<g id="node4" class="node">
<title>i72_Unit_division</title>
<polygon fill="lightgray" stroke="none" points="102.12,-97.88 102.12,-114.12 193.38,-114.12 193.38,-97.88 102.12,-97.88"/>
<text xml:space="preserve" text-anchor="start" x="103.12" y="-101.72" font-family="Arial" font-size="12.00">i72:Unit_division</text>
<polygon fill="none" stroke="black" points="101.12,-96.88 101.12,-115.12 194.38,-115.12 194.38,-96.88 101.12,-96.88"/>
</g>
<!-- CardinalityUnitPerTime&#45;&gt;i72_Unit_division -->
<g id="edge2" class="edge">
<title>CardinalityUnitPerTime&#45;&gt;i72_Unit_division</title>
<path fill="none" stroke="black" d="M107.46,-51.79C113.63,-59.93 121.18,-69.9 128.07,-79"/>
<polygon fill="none" stroke="black" points="125.18,-80.99 134.01,-86.85 130.76,-76.76 125.18,-80.99"/>
</g>
<!-- Invis -->
</g>
</svg>
