<?xml version="1.0" encoding="UTF-8" standalone="no"?>
<!DOCTYPE svg PUBLIC "-//W3C//DTD SVG 1.1//EN"
 "http://www.w3.org/Graphics/SVG/1.1/DTD/svg11.dtd">
<!-- Generated by graphviz version 14.0.2 (20251019.1705)
 -->
<!-- Pages: 1 -->
<svg width="203pt" height="132pt"
 viewBox="0.00 0.00 203.00 132.00" xmlns="http://www.w3.org/2000/svg" xmlns:xlink="http://www.w3.org/1999/xlink">
<g id="graph0" class="graph" transform="scale(1 1) rotate(0) translate(4 128)">
<polygon fill="white" stroke="none" points="-4,4 -4,-128 198.62,-128 198.62,4 -4,4"/>
<g id="clust2" class="cluster">
<title>cluster_associated</title>
</g>
<!-- ConsumeState -->
<g id="node1" class="node">
<title>ConsumeState</title>
<g id="a_node1"><a xlink:href="../ConsumeState.md" xlink:title="&lt;TABLE&gt;">
<polygon fill="lightgray" stroke="none" points="23.88,-25.88 23.88,-42.12 105.38,-42.12 105.38,-25.88 23.88,-25.88"/>
<text xml:space="preserve" text-anchor="start" x="24.88" y="-29.73" font-family="Arial" font-size="12.00">ConsumeState</text>
<polygon fill="none" stroke="black" points="22.88,-24.88 22.88,-43.12 106.38,-43.12 106.38,-24.88 22.88,-24.88"/>
</a>
</g>
</g>
<!-- TerminalResourceState -->
<g id="node3" class="node">
<title>TerminalResourceState</title>
<g id="a_node3"><a xlink:href="../TerminalResourceState.md" xlink:title="&lt;TABLE&gt;">
<polygon fill="lightgray" stroke="none" points="1,-97.88 1,-114.12 128.25,-114.12 128.25,-97.88 1,-97.88"/>
<text xml:space="preserve" text-anchor="start" x="2" y="-101.72" font-family="Arial" font-size="12.00">TerminalResourceState</text>
<polygon fill="none" stroke="black" points="0,-96.88 0,-115.12 129.25,-115.12 129.25,-96.88 0,-96.88"/>
</a>
</g>
</g>
<!-- ConsumeState&#45;&gt;TerminalResourceState -->
<g id="edge1" class="edge">
<title>ConsumeState&#45;&gt;TerminalResourceState</title>
<path fill="none" stroke="black" d="M64.62,-51.79C64.62,-59.25 64.62,-68.24 64.62,-76.69"/>
<polygon fill="none" stroke="black" points="61.13,-76.54 64.63,-86.54 68.13,-76.54 61.13,-76.54"/>
</g>
<!-- Invis -->
</g>
</svg>
