<?xml version="1.0" encoding="UTF-8" standalone="no"?>
<!DOCTYPE svg PUBLIC "-//W3C//DTD SVG 1.1//EN"
 "http://www.w3.org/Graphics/SVG/1.1/DTD/svg11.dtd">
<!-- Generated by graphviz version 14.0.2 (20251019.1705)
 -->
<!-- Pages: 1 -->
<svg width="192pt" height="132pt"
 viewBox="0.00 0.00 192.00 132.00" xmlns="http://www.w3.org/2000/svg" xmlns:xlink="http://www.w3.org/1999/xlink">
<g id="graph0" class="graph" transform="scale(1 1) rotate(0) translate(4 128)">
<polygon fill="white" stroke="none" points="-4,4 -4,-128 188,-128 188,4 -4,4"/>
<g id="clust2" class="cluster">
<title>cluster_associated</title>
</g>
<!-- DisjunctiveState -->
<g id="node1" class="node">
<title>DisjunctiveState</title>
<g id="a_node1"><a xlink:href="../DisjunctiveState.md" xlink:title="&lt;TABLE&gt;">
<polygon fill="lightgray" stroke="none" points="5.5,-25.88 5.5,-42.12 94.5,-42.12 94.5,-25.88 5.5,-25.88"/>
<text xml:space="preserve" text-anchor="start" x="6.5" y="-29.73" font-family="Arial" font-size="12.00">DisjunctiveState</text>
<polygon fill="none" stroke="black" points="4.5,-24.88 4.5,-43.12 95.5,-43.12 95.5,-24.88 4.5,-24.88"/>
</a>
</g>
</g>
<!-- NonTerminalState -->
<g id="node3" class="node">
<title>NonTerminalState</title>
<g id="a_node3"><a xlink:href="../NonTerminalState.md" xlink:title="&lt;TABLE&gt;">
<polygon fill="lightgray" stroke="none" points="1,-97.88 1,-114.12 99,-114.12 99,-97.88 1,-97.88"/>
<text xml:space="preserve" text-anchor="start" x="2" y="-101.72" font-family="Arial" font-size="12.00">NonTerminalState</text>
<polygon fill="none" stroke="black" points="0,-96.88 0,-115.12 100,-115.12 100,-96.88 0,-96.88"/>
</a>
</g>
</g>
<!-- DisjunctiveState&#45;&gt;NonTerminalState -->
<g id="edge1" class="edge">
<title>DisjunctiveState&#45;&gt;NonTerminalState</title>
<path fill="none" stroke="black" d="M50,-51.79C50,-59.25 50,-68.24 50,-76.69"/>
<polygon fill="none" stroke="black" points="46.5,-76.54 50,-86.54 53.5,-76.54 46.5,-76.54"/>
</g>
<!-- Invis -->
</g>
</svg>
