<?xml version="1.0" encoding="UTF-8" standalone="no"?>
<!DOCTYPE svg PUBLIC "-//W3C//DTD SVG 1.1//EN"
 "http://www.w3.org/Graphics/SVG/1.1/DTD/svg11.dtd">
<!-- Generated by graphviz version 14.0.2 (20251019.1705)
 -->
<!-- Pages: 1 -->
<svg width="320pt" height="132pt"
 viewBox="0.00 0.00 320.00 132.00" xmlns="http://www.w3.org/2000/svg" xmlns:xlink="http://www.w3.org/1999/xlink">
<g id="graph0" class="graph" transform="scale(1 1) rotate(0) translate(4 128)">
<polygon fill="white" stroke="none" points="-4,4 -4,-128 316.12,-128 316.12,4 -4,4"/>
<g id="clust2" class="cluster">
<title>cluster_associated</title>
</g>
<!-- Duration -->
<g id="node1" class="node">
<title>Duration</title>
<g id="a_node1"><a xlink:href="../Duration.md" xlink:title="&lt;TABLE&gt;">
<polygon fill="lightgray" stroke="none" points="111.88,-25.88 111.88,-42.12 159.62,-42.12 159.62,-25.88 111.88,-25.88"/>
<text xml:space="preserve" text-anchor="start" x="112.88" y="-29.73" font-family="Arial" font-size="12.00">Duration</text>
<polygon fill="none" stroke="black" points="110.88,-24.88 110.88,-43.12 160.62,-43.12 160.62,-24.88 110.88,-24.88"/>
</a>
</g>
</g>
<!-- CityUnitsThing -->
<g id="node3" class="node">
<title>CityUnitsThing</title>
<g id="a_node3"><a xlink:href="../CityUnitsThing.md" xlink:title="&lt;TABLE&gt;">
<polygon fill="lightgray" stroke="none" points="1,-97.88 1,-114.12 82.5,-114.12 82.5,-97.88 1,-97.88"/>
<text xml:space="preserve" text-anchor="start" x="2" y="-101.72" font-family="Arial" font-size="12.00">CityUnitsThing</text>
<polygon fill="none" stroke="black" points="0,-96.88 0,-115.12 83.5,-115.12 83.5,-96.88 0,-96.88"/>
</a>
</g>
</g>
<!-- Duration&#45;&gt;CityUnitsThing -->
<g id="edge1" class="edge">
<title>Duration&#45;&gt;CityUnitsThing</title>
<path fill="none" stroke="black" d="M113.2,-51.79C101.35,-60.62 86.61,-71.6 73.6,-81.28"/>
<polygon fill="none" stroke="black" points="71.65,-78.37 65.72,-87.15 75.83,-83.99 71.65,-78.37"/>
</g>
<!-- i72_Quantity -->
<g id="node4" class="node">
<title>i72_Quantity</title>
<polygon fill="lightgray" stroke="none" points="102.88,-97.88 102.88,-114.12 168.62,-114.12 168.62,-97.88 102.88,-97.88"/>
<text xml:space="preserve" text-anchor="start" x="103.88" y="-101.72" font-family="Arial" font-size="12.00">i72:Quantity</text>
<polygon fill="none" stroke="black" points="101.88,-96.88 101.88,-115.12 169.62,-115.12 169.62,-96.88 101.88,-96.88"/>
</g>
<!-- Duration&#45;&gt;i72_Quantity -->
<g id="edge2" class="edge">
<title>Duration&#45;&gt;i72_Quantity</title>
<path fill="none" stroke="black" d="M135.75,-51.79C135.75,-59.25 135.75,-68.24 135.75,-76.69"/>
<polygon fill="none" stroke="black" points="132.25,-76.54 135.75,-86.54 139.25,-76.54 132.25,-76.54"/>
</g>
<!-- time_TemporalDuration -->
<g id="node5" class="node">
<title>time_TemporalDuration</title>
<polygon fill="lightgray" stroke="none" points="188.38,-97.88 188.38,-114.12 311.12,-114.12 311.12,-97.88 188.38,-97.88"/>
<text xml:space="preserve" text-anchor="start" x="189.38" y="-101.72" font-family="Arial" font-size="12.00">time:TemporalDuration</text>
<polygon fill="none" stroke="black" points="187.38,-96.88 187.38,-115.12 312.12,-115.12 312.12,-96.88 187.38,-96.88"/>
</g>
<!-- Duration&#45;&gt;time_TemporalDuration -->
<g id="edge3" class="edge">
<title>Duration&#45;&gt;time_TemporalDuration</title>
<path fill="none" stroke="black" d="M157.09,-51.85C160.91,-54.67 164.9,-57.49 168.75,-60 180.87,-67.9 194.48,-75.81 207.02,-82.74"/>
<polygon fill="none" stroke="black" points="205.03,-85.64 215.48,-87.34 208.37,-79.49 205.03,-85.64"/>
</g>
<!-- Invis -->
</g>
</svg>
