<?xml version="1.0" encoding="UTF-8" standalone="no"?>
<!DOCTYPE svg PUBLIC "-//W3C//DTD SVG 1.1//EN"
 "http://www.w3.org/Graphics/SVG/1.1/DTD/svg11.dtd">
<!-- Generated by graphviz version 14.0.2 (20251019.1705)
 -->
<!-- Pages: 1 -->
<svg width="382pt" height="232pt"
 viewBox="0.00 0.00 382.00 232.00" xmlns="http://www.w3.org/2000/svg" xmlns:xlink="http://www.w3.org/1999/xlink">
<g id="graph0" class="graph" transform="scale(1 1) rotate(0) translate(4 228)">
<polygon fill="white" stroke="none" points="-4,4 -4,-228 378.25,-228 378.25,4 -4,4"/>
<g id="clust2" class="cluster">
<title>cluster_associated</title>
</g>
<!-- ExceptionDay -->
<g id="node1" class="node">
<title>ExceptionDay</title>
<g id="a_node1"><a xlink:href="../ExceptionDay.md" xlink:title="&lt;TABLE&gt;">
<polygon fill="lightgray" stroke="none" points="216.75,-133 216.75,-149.25 373.25,-149.25 373.25,-133 216.75,-133"/>
<text xml:space="preserve" text-anchor="start" x="257.5" y="-136.85" font-family="Arial" font-size="12.00">ExceptionDay</text>
<text xml:space="preserve" text-anchor="start" x="217.75" y="-120.6" font-family="Arial" font-size="12.00">«some» hasName: xsd:string</text>
<polygon fill="black" stroke="black" points="215.75,-133 215.75,-133 374.25,-133 374.25,-133 215.75,-133"/>
<polygon fill="none" stroke="black" points="215.75,-115.75 215.75,-150.25 374.25,-150.25 374.25,-115.75 215.75,-115.75"/>
</a>
</g>
</g>
<!-- Invis -->
<!-- ExceptionDay&#45;&gt;Invis -->
<!-- time_GeneralDateTimeDescription -->
<g id="node3" class="node">
<title>time_GeneralDateTimeDescription</title>
<polygon fill="lightgray" stroke="none" points="16.62,-25.88 16.62,-42.12 199.38,-42.12 199.38,-25.88 16.62,-25.88"/>
<text xml:space="preserve" text-anchor="start" x="17.62" y="-29.73" font-family="Arial" font-size="12.00">time:GeneralDateTimeDescription</text>
<polygon fill="none" stroke="black" points="15.62,-24.88 15.62,-43.12 200.38,-43.12 200.38,-24.88 15.62,-24.88"/>
</g>
<!-- ExceptionDay&#45;&gt;time_GeneralDateTimeDescription -->
<g id="edge4" class="edge">
<title>ExceptionDay&#45;&gt;time_GeneralDateTimeDescription</title>
<path fill="none" stroke="black" d="M262.43,-115.1C231.42,-99.02 184.57,-74.72 150.61,-57.1"/>
<polygon fill="black" stroke="black" points="152.34,-54.06 141.86,-52.56 149.12,-60.27 152.34,-54.06"/>
<text xml:space="preserve" text-anchor="middle" x="283" y="-86.55" font-family="Arial" font-size="11.00"> onDateTimeDescription </text>
<text xml:space="preserve" text-anchor="middle" x="283" y="-73.05" font-family="Arial" font-size="11.00"> «some» &#160;</text>
</g>
<!-- RecurringEventThing -->
<g id="node4" class="node">
<title>RecurringEventThing</title>
<g id="a_node4"><a xlink:href="../RecurringEventThing.md" xlink:title="&lt;TABLE&gt;">
<polygon fill="lightgray" stroke="none" points="237,-197.88 237,-214.12 353,-214.12 353,-197.88 237,-197.88"/>
<text xml:space="preserve" text-anchor="start" x="238" y="-201.72" font-family="Arial" font-size="12.00">RecurringEventThing</text>
<polygon fill="none" stroke="black" points="236,-196.88 236,-215.12 354,-215.12 354,-196.88 236,-196.88"/>
</a>
</g>
</g>
<!-- ExceptionDay&#45;&gt;RecurringEventThing -->
<g id="edge1" class="edge">
<title>ExceptionDay&#45;&gt;RecurringEventThing</title>
<path fill="none" stroke="black" d="M295,-150.71C295,-158.47 295,-167.92 295,-176.74"/>
<polygon fill="none" stroke="black" points="291.5,-176.66 295,-186.66 298.5,-176.66 291.5,-176.66"/>
</g>
<!-- Invis&#45;&gt;time_GeneralDateTimeDescription -->
</g>
</svg>
