<?xml version="1.0" encoding="UTF-8" standalone="no"?>
<!DOCTYPE svg PUBLIC "-//W3C//DTD SVG 1.1//EN"
 "http://www.w3.org/Graphics/SVG/1.1/DTD/svg11.dtd">
<!-- Generated by graphviz version 14.0.2 (20251019.1705)
 -->
<!-- Pages: 1 -->
<svg width="214pt" height="132pt"
 viewBox="0.00 0.00 214.00 132.00" xmlns="http://www.w3.org/2000/svg" xmlns:xlink="http://www.w3.org/1999/xlink">
<g id="graph0" class="graph" transform="scale(1 1) rotate(0) translate(4 128)">
<polygon fill="white" stroke="none" points="-4,4 -4,-128 209.5,-128 209.5,4 -4,4"/>
<g id="clust2" class="cluster">
<title>cluster_associated</title>
</g>
<!-- Location -->
<g id="node1" class="node">
<title>Location</title>
<g id="a_node1"><a xlink:href="../Location.md" xlink:title="&lt;TABLE&gt;">
<polygon fill="lightgray" stroke="none" points="66.62,-25.88 66.62,-42.12 114.38,-42.12 114.38,-25.88 66.62,-25.88"/>
<text xml:space="preserve" text-anchor="start" x="67.62" y="-29.73" font-family="Arial" font-size="12.00">Location</text>
<polygon fill="none" stroke="black" points="65.62,-24.88 65.62,-43.12 115.38,-43.12 115.38,-24.88 65.62,-24.88"/>
</a>
</g>
</g>
<!-- geo_Geometry -->
<g id="node3" class="node">
<title>geo_Geometry</title>
<polygon fill="lightgray" stroke="none" points="1,-97.88 1,-114.12 78,-114.12 78,-97.88 1,-97.88"/>
<text xml:space="preserve" text-anchor="start" x="2" y="-101.72" font-family="Arial" font-size="12.00">geo:Geometry</text>
<polygon fill="none" stroke="black" points="0,-96.88 0,-115.12 79,-115.12 79,-96.88 0,-96.88"/>
</g>
<!-- Location&#45;&gt;geo_Geometry -->
<g id="edge1" class="edge">
<title>Location&#45;&gt;geo_Geometry</title>
<path fill="none" stroke="black" d="M78.27,-51.79C72.33,-59.93 65.07,-69.9 58.44,-79"/>
<polygon fill="none" stroke="black" points="55.8,-76.69 52.74,-86.83 61.45,-80.81 55.8,-76.69"/>
</g>
<!-- SpatialLocThing -->
<g id="node4" class="node">
<title>SpatialLocThing</title>
<g id="a_node4"><a xlink:href="../SpatialLocThing.md" xlink:title="&lt;TABLE&gt;">
<polygon fill="lightgray" stroke="none" points="97.62,-97.88 97.62,-114.12 187.38,-114.12 187.38,-97.88 97.62,-97.88"/>
<text xml:space="preserve" text-anchor="start" x="98.62" y="-101.72" font-family="Arial" font-size="12.00">SpatialLocThing</text>
<polygon fill="none" stroke="black" points="96.62,-96.88 96.62,-115.12 188.38,-115.12 188.38,-96.88 96.62,-96.88"/>
</a>
</g>
</g>
<!-- Location&#45;&gt;SpatialLocThing -->
<g id="edge2" class="edge">
<title>Location&#45;&gt;SpatialLocThing</title>
<path fill="none" stroke="black" d="M102.97,-51.79C109.02,-59.93 116.43,-69.9 123.19,-79"/>
<polygon fill="none" stroke="black" points="120.24,-80.9 129.01,-86.84 125.86,-76.73 120.24,-80.9"/>
</g>
<!-- Invis -->
</g>
</svg>
