<?xml version="1.0" encoding="UTF-8" standalone="no"?>
<!DOCTYPE svg PUBLIC "-//W3C//DTD SVG 1.1//EN"
 "http://www.w3.org/Graphics/SVG/1.1/DTD/svg11.dtd">
<!-- Generated by graphviz version 14.0.2 (20251019.1705)
 -->
<!-- Pages: 1 -->
<svg width="310pt" height="132pt"
 viewBox="0.00 0.00 310.00 132.00" xmlns="http://www.w3.org/2000/svg" xmlns:xlink="http://www.w3.org/1999/xlink">
<g id="graph0" class="graph" transform="scale(1 1) rotate(0) translate(4 128)">
<polygon fill="white" stroke="none" points="-4,4 -4,-128 306,-128 306,4 -4,4"/>
<g id="clust2" class="cluster">
<title>cluster_associated</title>
</g>
<!-- MonetaryValue -->
<g id="node1" class="node">
<title>MonetaryValue</title>
<g id="a_node1"><a xlink:href="../MonetaryValue.md" xlink:title="&lt;TABLE&gt;">
<polygon fill="lightgray" stroke="none" points="1,-34 1,-50.25 213,-50.25 213,-34 1,-34"/>
<text xml:space="preserve" text-anchor="start" x="67.25" y="-37.85" font-family="Arial" font-size="12.00">MonetaryValue</text>
<text xml:space="preserve" text-anchor="start" x="2" y="-21.6" font-family="Arial" font-size="12.00">«exactly 1» hasRelativeYear: xsd:gYear</text>
<polygon fill="black" stroke="black" points="0,-34 0,-34 214,-34 214,-34 0,-34"/>
<polygon fill="none" stroke="black" points="0,-16.75 0,-51.25 214,-51.25 214,-16.75 0,-16.75"/>
</a>
</g>
</g>
<!-- i72_Measure -->
<g id="node3" class="node">
<title>i72_Measure</title>
<polygon fill="lightgray" stroke="none" points="73,-97.88 73,-114.12 141,-114.12 141,-97.88 73,-97.88"/>
<text xml:space="preserve" text-anchor="start" x="74" y="-101.72" font-family="Arial" font-size="12.00">i72:Measure</text>
<polygon fill="none" stroke="black" points="72,-96.88 72,-115.12 142,-115.12 142,-96.88 72,-96.88"/>
</g>
<!-- MonetaryValue&#45;&gt;i72_Measure -->
<g id="edge1" class="edge">
<title>MonetaryValue&#45;&gt;i72_Measure</title>
<path fill="none" stroke="black" d="M107,-51.79C107,-59.25 107,-68.24 107,-76.69"/>
<polygon fill="none" stroke="black" points="103.5,-76.54 107,-86.54 110.5,-76.54 103.5,-76.54"/>
</g>
<!-- Invis -->
</g>
</svg>
