<?xml version="1.0" encoding="UTF-8" standalone="no"?>
<!DOCTYPE svg PUBLIC "-//W3C//DTD SVG 1.1//EN"
 "http://www.w3.org/Graphics/SVG/1.1/DTD/svg11.dtd">
<!-- Generated by graphviz version 14.0.2 (20251019.1705)
 -->
<!-- Pages: 1 -->
<svg width="401pt" height="232pt"
 viewBox="0.00 0.00 401.00 232.00" xmlns="http://www.w3.org/2000/svg" xmlns:xlink="http://www.w3.org/1999/xlink">
<g id="graph0" class="graph" transform="scale(1 1) rotate(0) translate(4 228)">
<polygon fill="white" stroke="none" points="-4,4 -4,-228 396.83,-228 396.83,4 -4,4"/>
<g id="clust2" class="cluster">
<title>cluster_associated</title>
</g>
<!-- MonthlyRecurringEvent -->
<g id="node1" class="node">
<title>MonthlyRecurringEvent</title>
<g id="a_node1"><a xlink:href="../MonthlyRecurringEvent.md" xlink:title="&lt;TABLE&gt;">
<polygon fill="lightgray" stroke="none" points="217.38,-124.88 217.38,-141.12 344.62,-141.12 344.62,-124.88 217.38,-124.88"/>
<text xml:space="preserve" text-anchor="start" x="218.38" y="-128.72" font-family="Arial" font-size="12.00">MonthlyRecurringEvent</text>
<polygon fill="none" stroke="black" points="216.38,-123.88 216.38,-142.12 345.62,-142.12 345.62,-123.88 216.38,-123.88"/>
</a>
</g>
</g>
<!-- Invis -->
<!-- MonthlyRecurringEvent&#45;&gt;Invis -->
<!-- time_GeneralDateTimeDescription -->
<g id="node3" class="node">
<title>time_GeneralDateTimeDescription</title>
<polygon fill="lightgray" stroke="none" points="16.62,-25.88 16.62,-42.12 199.38,-42.12 199.38,-25.88 16.62,-25.88"/>
<text xml:space="preserve" text-anchor="start" x="17.62" y="-29.73" font-family="Arial" font-size="12.00">time:GeneralDateTimeDescription</text>
<polygon fill="none" stroke="black" points="15.62,-24.88 15.62,-43.12 200.38,-43.12 200.38,-24.88 15.62,-24.88"/>
</g>
<!-- MonthlyRecurringEvent&#45;&gt;time_GeneralDateTimeDescription -->
<g id="edge4" class="edge">
<title>MonthlyRecurringEvent&#45;&gt;time_GeneralDateTimeDescription</title>
<path fill="none" stroke="black" stroke-dasharray="5,2" d="M250.87,-115.1C222.3,-99.09 179.21,-74.93 147.82,-57.33"/>
<polygon fill="black" stroke="black" points="149.83,-54.44 139.4,-52.61 146.41,-60.55 149.83,-54.44"/>
<text xml:space="preserve" text-anchor="middle" x="303.96" y="-86.55" font-family="Arial" font-size="11.00"> onProperty: onDateTimeDescription </text>
<text xml:space="preserve" text-anchor="middle" x="303.96" y="-73.05" font-family="Arial" font-size="11.00"> «exactly 1» &#160;</text>
</g>
<!-- RecurringEvent -->
<g id="node4" class="node">
<title>RecurringEvent</title>
<g id="a_node4"><a xlink:href="../RecurringEvent.md" xlink:title="&lt;TABLE&gt;">
<polygon fill="lightgray" stroke="none" points="238.38,-197.88 238.38,-214.12 323.62,-214.12 323.62,-197.88 238.38,-197.88"/>
<text xml:space="preserve" text-anchor="start" x="239.38" y="-201.72" font-family="Arial" font-size="12.00">RecurringEvent</text>
<polygon fill="none" stroke="black" points="237.38,-196.88 237.38,-215.12 324.62,-215.12 324.62,-196.88 237.38,-196.88"/>
</a>
</g>
</g>
<!-- MonthlyRecurringEvent&#45;&gt;RecurringEvent -->
<g id="edge1" class="edge">
<title>MonthlyRecurringEvent&#45;&gt;RecurringEvent</title>
<path fill="none" stroke="black" d="M281,-150.71C281,-158.47 281,-167.92 281,-176.74"/>
<polygon fill="none" stroke="black" points="277.5,-176.66 281,-186.66 284.5,-176.66 277.5,-176.66"/>
</g>
<!-- Invis&#45;&gt;time_GeneralDateTimeDescription -->
</g>
</svg>
