<?xml version="1.0" encoding="UTF-8" standalone="no"?>
<!DOCTYPE svg PUBLIC "-//W3C//DTD SVG 1.1//EN"
 "http://www.w3.org/Graphics/SVG/1.1/DTD/svg11.dtd">
<!-- Generated by graphviz version 14.0.2 (20251019.1705)
 -->
<!-- Pages: 1 -->
<svg width="294pt" height="132pt"
 viewBox="0.00 0.00 294.00 132.00" xmlns="http://www.w3.org/2000/svg" xmlns:xlink="http://www.w3.org/1999/xlink">
<g id="graph0" class="graph" transform="scale(1 1) rotate(0) translate(4 128)">
<polygon fill="white" stroke="none" points="-4,4 -4,-128 289.5,-128 289.5,4 -4,4"/>
<g id="clust2" class="cluster">
<title>cluster_associated</title>
</g>
<!-- Organization -->
<g id="node1" class="node">
<title>Organization</title>
<g id="a_node1"><a xlink:href="../Organization.md" xlink:title="&lt;TABLE&gt;">
<polygon fill="lightgray" stroke="none" points="82.88,-25.88 82.88,-42.12 153.12,-42.12 153.12,-25.88 82.88,-25.88"/>
<text xml:space="preserve" text-anchor="start" x="83.88" y="-29.73" font-family="Arial" font-size="12.00">Organization</text>
<polygon fill="none" stroke="black" points="81.88,-24.88 81.88,-43.12 154.12,-43.12 154.12,-24.88 81.88,-24.88"/>
</a>
</g>
</g>
<!-- Agent -->
<g id="node3" class="node">
<title>Agent</title>
<g id="a_node3"><a xlink:href="../Agent.md" xlink:title="&lt;TABLE&gt;">
<polygon fill="lightgray" stroke="none" points="10.25,-97.88 10.25,-114.12 43.75,-114.12 43.75,-97.88 10.25,-97.88"/>
<text xml:space="preserve" text-anchor="start" x="11.25" y="-101.72" font-family="Arial" font-size="12.00">Agent</text>
<polygon fill="none" stroke="black" points="9.25,-96.88 9.25,-115.12 44.75,-115.12 44.75,-96.88 9.25,-96.88"/>
</a>
</g>
</g>
<!-- Organization&#45;&gt;Agent -->
<g id="edge1" class="edge">
<title>Organization&#45;&gt;Agent</title>
<path fill="none" stroke="black" d="M96.17,-51.79C84.69,-60.62 70.43,-71.6 57.84,-81.28"/>
<polygon fill="none" stroke="black" points="56.02,-78.26 50.23,-87.13 60.29,-83.81 56.02,-78.26"/>
</g>
<!-- org_Organization -->
<g id="node4" class="node">
<title>org_Organization</title>
<polygon fill="lightgray" stroke="none" points="72.75,-97.88 72.75,-114.12 163.25,-114.12 163.25,-97.88 72.75,-97.88"/>
<text xml:space="preserve" text-anchor="start" x="73.75" y="-101.72" font-family="Arial" font-size="12.00">org:Organization</text>
<polygon fill="none" stroke="black" points="71.75,-96.88 71.75,-115.12 164.25,-115.12 164.25,-96.88 71.75,-96.88"/>
</g>
<!-- Organization&#45;&gt;org_Organization -->
<g id="edge2" class="edge">
<title>Organization&#45;&gt;org_Organization</title>
<path fill="none" stroke="black" d="M118,-51.79C118,-59.25 118,-68.24 118,-76.69"/>
<polygon fill="none" stroke="black" points="114.5,-76.54 118,-86.54 121.5,-76.54 114.5,-76.54"/>
</g>
<!-- OrganizationThing -->
<g id="node5" class="node">
<title>OrganizationThing</title>
<g id="a_node5"><a xlink:href="../OrganizationThing.md" xlink:title="&lt;TABLE&gt;">
<polygon fill="lightgray" stroke="none" points="183.5,-97.88 183.5,-114.12 284.5,-114.12 284.5,-97.88 183.5,-97.88"/>
<text xml:space="preserve" text-anchor="start" x="184.5" y="-101.72" font-family="Arial" font-size="12.00">OrganizationThing</text>
<polygon fill="none" stroke="black" points="182.5,-96.88 182.5,-115.12 285.5,-115.12 285.5,-96.88 182.5,-96.88"/>
</a>
</g>
</g>
<!-- Organization&#45;&gt;OrganizationThing -->
<g id="edge3" class="edge">
<title>Organization&#45;&gt;OrganizationThing</title>
<path fill="none" stroke="black" d="M145.82,-51.79C160.88,-60.88 179.71,-72.24 196.09,-82.12"/>
<polygon fill="none" stroke="black" points="194.25,-85.1 204.62,-87.27 197.87,-79.11 194.25,-85.1"/>
</g>
<!-- Invis -->
</g>
</svg>
