<?xml version="1.0" encoding="UTF-8" standalone="no"?>
<!DOCTYPE svg PUBLIC "-//W3C//DTD SVG 1.1//EN"
 "http://www.w3.org/Graphics/SVG/1.1/DTD/svg11.dtd">
<!-- Generated by graphviz version 14.0.2 (20251019.1705)
 -->
<!-- Pages: 1 -->
<svg width="185pt" height="132pt"
 viewBox="0.00 0.00 185.00 132.00" xmlns="http://www.w3.org/2000/svg" xmlns:xlink="http://www.w3.org/1999/xlink">
<g id="graph0" class="graph" transform="scale(1 1) rotate(0) translate(4 128)">
<polygon fill="white" stroke="none" points="-4,4 -4,-128 180.5,-128 180.5,4 -4,4"/>
<g id="clust2" class="cluster">
<title>cluster_associated</title>
</g>
<!-- SpeedUnit -->
<g id="node1" class="node">
<title>SpeedUnit</title>
<g id="a_node1"><a xlink:href="../SpeedUnit.md" xlink:title="&lt;TABLE&gt;">
<polygon fill="lightgray" stroke="none" points="28,-25.88 28,-42.12 87,-42.12 87,-25.88 28,-25.88"/>
<text xml:space="preserve" text-anchor="start" x="29" y="-29.73" font-family="Arial" font-size="12.00">SpeedUnit</text>
<polygon fill="none" stroke="black" points="27,-24.88 27,-43.12 88,-43.12 88,-24.88 27,-24.88"/>
</a>
</g>
</g>
<!-- i72_Unit_of_measure -->
<g id="node3" class="node">
<title>i72_Unit_of_measure</title>
<polygon fill="lightgray" stroke="none" points="1,-97.88 1,-114.12 114,-114.12 114,-97.88 1,-97.88"/>
<text xml:space="preserve" text-anchor="start" x="2" y="-101.72" font-family="Arial" font-size="12.00">i72:Unit_of_measure</text>
<polygon fill="none" stroke="black" points="0,-96.88 0,-115.12 115,-115.12 115,-96.88 0,-96.88"/>
</g>
<!-- SpeedUnit&#45;&gt;i72_Unit_of_measure -->
<g id="edge1" class="edge">
<title>SpeedUnit&#45;&gt;i72_Unit_of_measure</title>
<path fill="none" stroke="black" d="M57.5,-51.79C57.5,-59.25 57.5,-68.24 57.5,-76.69"/>
<polygon fill="none" stroke="black" points="54,-76.54 57.5,-86.54 61,-76.54 54,-76.54"/>
</g>
<!-- Invis -->
</g>
</svg>
