<?xml version="1.0" encoding="UTF-8" standalone="no"?>
<!DOCTYPE svg PUBLIC "-//W3C//DTD SVG 1.1//EN"
 "http://www.w3.org/Graphics/SVG/1.1/DTD/svg11.dtd">
<!-- Generated by graphviz version 14.0.2 (20251019.1705)
 -->
<!-- Pages: 1 -->
<svg width="648pt" height="477pt"
 viewBox="0.00 0.00 648.00 477.00" xmlns="http://www.w3.org/2000/svg" xmlns:xlink="http://www.w3.org/1999/xlink">
<g id="graph0" class="graph" transform="scale(1 1) rotate(0) translate(4 473)">
<polygon fill="white" stroke="none" points="-4,4 -4,-473 644.25,-473 644.25,4 -4,4"/>
<g id="clust2" class="cluster">
<title>cluster_associated</title>
</g>
<!-- State -->
<g id="node1" class="node">
<title>State</title>
<g id="a_node1"><a xlink:href="../State.md" xlink:title="&lt;TABLE&gt;">
<polygon fill="lightgray" stroke="none" points="281.12,-369.88 281.12,-386.12 310.88,-386.12 310.88,-369.88 281.12,-369.88"/>
<text xml:space="preserve" text-anchor="start" x="282.12" y="-373.73" font-family="Arial" font-size="12.00">State</text>
<polygon fill="none" stroke="black" points="280.12,-368.88 280.12,-387.12 311.88,-387.12 311.88,-368.88 280.12,-368.88"/>
</a>
</g>
</g>
<!-- Invis -->
<!-- State&#45;&gt;Invis -->
<!-- Activity -->
<g id="node3" class="node">
<title>Activity</title>
<g id="a_node3"><a xlink:href="../Activity.md" xlink:title="&lt;TABLE&gt;">
<polygon fill="lightgray" stroke="none" points="76.88,-270.88 76.88,-287.12 117.12,-287.12 117.12,-270.88 76.88,-270.88"/>
<text xml:space="preserve" text-anchor="start" x="77.88" y="-274.73" font-family="Arial" font-size="12.00">Activity</text>
<polygon fill="none" stroke="black" points="75.88,-269.88 75.88,-288.12 118.12,-288.12 118.12,-269.88 75.88,-269.88"/>
</a>
</g>
</g>
<!-- State&#45;&gt;Activity -->
<g id="edge7" class="edge">
<title>State&#45;&gt;Activity</title>
<path fill="none" stroke="black" d="M269.3,-374.26C205.64,-367.61 49.68,-350.53 42.25,-342 34.37,-332.95 36.49,-325.53 42.25,-315 46.52,-307.21 53.34,-300.9 60.74,-295.89"/>
<polygon fill="black" stroke="black" points="62.16,-299.12 68.98,-291.02 58.59,-293.1 62.16,-299.12"/>
<text xml:space="preserve" text-anchor="middle" x="80.12" y="-331.55" font-family="Arial" font-size="11.00"> preconditionOf </text>
<text xml:space="preserve" text-anchor="middle" x="80.12" y="-318.05" font-family="Arial" font-size="11.00"> «only» &#160;</text>
</g>
<!-- State&#45;&gt;Activity -->
<g id="edge8" class="edge">
<title>State&#45;&gt;Activity</title>
<path fill="none" stroke="black" d="M269.01,-376.67C236.11,-375.05 180.04,-368.25 140.75,-342 133.59,-337.21 122.32,-321.13 113.01,-306.54"/>
<polygon fill="black" stroke="black" points="116.02,-304.76 107.76,-298.13 110.09,-308.46 116.02,-304.76"/>
<text xml:space="preserve" text-anchor="middle" x="179.38" y="-331.55" font-family="Arial" font-size="11.00"> enablesActivity </text>
<text xml:space="preserve" text-anchor="middle" x="179.38" y="-318.05" font-family="Arial" font-size="11.00"> «only» &#160;</text>
</g>
<!-- StateStatus -->
<g id="node4" class="node">
<title>StateStatus</title>
<g id="a_node4"><a xlink:href="../StateStatus.md" xlink:title="&lt;TABLE&gt;">
<polygon fill="lightgray" stroke="none" points="61.25,-171.88 61.25,-188.12 124.75,-188.12 124.75,-171.88 61.25,-171.88"/>
<text xml:space="preserve" text-anchor="start" x="62.25" y="-175.72" font-family="Arial" font-size="12.00">StateStatus</text>
<polygon fill="none" stroke="black" points="60.25,-170.88 60.25,-189.12 125.75,-189.12 125.75,-170.88 60.25,-170.88"/>
</a>
</g>
</g>
<!-- State&#45;&gt;StateStatus -->
<g id="edge13" class="edge">
<title>State&#45;&gt;StateStatus</title>
<path fill="none" stroke="black" d="M322.68,-375.56C372.29,-371.82 471.06,-358.79 441,-315 422.9,-288.64 225.5,-223.17 136.31,-194.64"/>
<polygon fill="black" stroke="black" points="137.51,-191.35 126.92,-191.65 135.39,-198.02 137.51,-191.35"/>
<text xml:space="preserve" text-anchor="middle" x="445.38" y="-282.05" font-family="Arial" font-size="11.00"> hasStatus </text>
<text xml:space="preserve" text-anchor="middle" x="445.38" y="-268.55" font-family="Arial" font-size="11.00"> «exactly 1» &#160;</text>
</g>
<!-- time_Interval -->
<g id="node5" class="node">
<title>time_Interval</title>
<polygon fill="lightgray" stroke="none" points="58.75,-98.88 58.75,-115.12 125.25,-115.12 125.25,-98.88 58.75,-98.88"/>
<text xml:space="preserve" text-anchor="start" x="59.75" y="-102.72" font-family="Arial" font-size="12.00">time:Interval</text>
<polygon fill="none" stroke="black" points="57.75,-97.88 57.75,-116.12 126.25,-116.12 126.25,-97.88 57.75,-97.88"/>
</g>
<!-- State&#45;&gt;time_Interval -->
<g id="edge11" class="edge">
<title>State&#45;&gt;time_Interval</title>
<path fill="none" stroke="black" d="M323,-377.92C357.73,-377.72 418.31,-372.52 458,-342 487.67,-319.19 502.07,-291.93 481,-261 402.37,-145.58 222.12,-117.23 137.48,-110.27"/>
<polygon fill="black" stroke="black" points="137.93,-106.79 127.7,-109.53 137.41,-113.77 137.93,-106.79"/>
<text xml:space="preserve" text-anchor="middle" x="501.04" y="-232.55" font-family="Arial" font-size="11.00"> scheduledFor </text>
<text xml:space="preserve" text-anchor="middle" x="501.04" y="-219.05" font-family="Arial" font-size="11.00"> «max 1» &#160;</text>
</g>
<!-- time_TemporalEntity -->
<g id="node6" class="node">
<title>time_TemporalEntity</title>
<polygon fill="lightgray" stroke="none" points="17.5,-25.88 17.5,-42.12 124.5,-42.12 124.5,-25.88 17.5,-25.88"/>
<text xml:space="preserve" text-anchor="start" x="18.5" y="-29.73" font-family="Arial" font-size="12.00">time:TemporalEntity</text>
<polygon fill="none" stroke="black" points="16.5,-24.88 16.5,-43.12 125.5,-43.12 125.5,-24.88 16.5,-24.88"/>
</g>
<!-- State&#45;&gt;time_TemporalEntity -->
<g id="edge12" class="edge">
<title>State&#45;&gt;time_TemporalEntity</title>
<path fill="none" stroke="black" d="M322.89,-375.32C360.38,-372.24 429.96,-363.88 485,-342 532.2,-323.24 581,-330.79 581,-280 581,-280 581,-280 581,-106 581,-61.6 273.86,-43.35 136.29,-37.41"/>
<polygon fill="black" stroke="black" points="136.75,-33.92 126.61,-37 136.45,-40.92 136.75,-33.92"/>
<text xml:space="preserve" text-anchor="middle" x="610.62" y="-183.05" font-family="Arial" font-size="11.00"> achievedAt </text>
<text xml:space="preserve" text-anchor="middle" x="610.62" y="-169.55" font-family="Arial" font-size="11.00"> «only» &#160;</text>
</g>
<!-- ActivityThing -->
<g id="node7" class="node">
<title>ActivityThing</title>
<g id="a_node7"><a xlink:href="../ActivityThing.md" xlink:title="&lt;TABLE&gt;">
<polygon fill="lightgray" stroke="none" points="260.5,-442.88 260.5,-459.12 331.5,-459.12 331.5,-442.88 260.5,-442.88"/>
<text xml:space="preserve" text-anchor="start" x="261.5" y="-446.73" font-family="Arial" font-size="12.00">ActivityThing</text>
<polygon fill="none" stroke="black" points="259.5,-441.88 259.5,-460.12 332.5,-460.12 332.5,-441.88 259.5,-441.88"/>
</a>
</g>
</g>
<!-- State&#45;&gt;ActivityThing -->
<g id="edge1" class="edge">
<title>State&#45;&gt;ActivityThing</title>
<path fill="none" stroke="black" d="M296,-395.71C296,-403.47 296,-412.92 296,-421.74"/>
<polygon fill="none" stroke="black" points="292.5,-421.66 296,-431.66 299.5,-421.66 292.5,-421.66"/>
</g>
<!-- Invis&#45;&gt;Activity -->
<!-- Activity&#45;&gt;State -->
<g id="edge9" class="edge">
<title>Activity&#45;&gt;State</title>
<path fill="none" stroke="black" d="M123.82,-283.29C149.61,-287.44 188.88,-296.41 218,-315 231.41,-323.56 229.46,-331.6 241.5,-342 247.29,-347 253.85,-351.82 260.37,-356.2"/>
<polygon fill="black" stroke="black" points="266.83,-364.54 260.33,-356.17 270.63,-358.66 266.83,-364.54"/>
<text xml:space="preserve" text-anchor="middle" x="285.75" y="-331.55" font-family="Arial" font-size="11.00"> inverse hasEffect </text>
<text xml:space="preserve" text-anchor="middle" x="285.75" y="-318.05" font-family="Arial" font-size="11.00"> «only» &#160;</text>
</g>
<!-- Activity&#45;&gt;State -->
<g id="edge10" class="edge">
<title>Activity&#45;&gt;State</title>
<path fill="none" stroke="black" d="M123.81,-279.85C179.28,-280.18 303.64,-284.39 330,-315 339.59,-326.14 332.77,-340.43 322.79,-352.48"/>
<polygon fill="black" stroke="black" points="313.67,-357.29 322.99,-352.26 318.84,-362.01 313.67,-357.29"/>
<text xml:space="preserve" text-anchor="middle" x="385.99" y="-331.55" font-family="Arial" font-size="11.00"> inverse causesState </text>
<text xml:space="preserve" text-anchor="middle" x="385.99" y="-318.05" font-family="Arial" font-size="11.00"> «only» &#160;</text>
</g>
<!-- Activity&#45;&gt;StateStatus -->
<!-- StateStatus&#45;&gt;time_Interval -->
<!-- time_Interval&#45;&gt;time_TemporalEntity -->
</g>
</svg>
