<?xml version="1.0" encoding="UTF-8" standalone="no"?>
<!DOCTYPE svg PUBLIC "-//W3C//DTD SVG 1.1//EN"
 "http://www.w3.org/Graphics/SVG/1.1/DTD/svg11.dtd">
<!-- Generated by graphviz version 14.0.2 (20251019.1705)
 -->
<!-- Pages: 1 -->
<svg width="166pt" height="132pt"
 viewBox="0.00 0.00 166.00 132.00" xmlns="http://www.w3.org/2000/svg" xmlns:xlink="http://www.w3.org/1999/xlink">
<g id="graph0" class="graph" transform="scale(1 1) rotate(0) translate(4 128)">
<polygon fill="white" stroke="none" points="-4,4 -4,-128 161.5,-128 161.5,4 -4,4"/>
<g id="clust2" class="cluster">
<title>cluster_associated</title>
</g>
<!-- StateStatus -->
<g id="node1" class="node">
<title>StateStatus</title>
<g id="a_node1"><a xlink:href="../StateStatus.md" xlink:title="&lt;TABLE&gt;">
<polygon fill="lightgray" stroke="none" points="4.75,-25.88 4.75,-42.12 68.25,-42.12 68.25,-25.88 4.75,-25.88"/>
<text xml:space="preserve" text-anchor="start" x="5.75" y="-29.73" font-family="Arial" font-size="12.00">StateStatus</text>
<polygon fill="none" stroke="black" points="3.75,-24.88 3.75,-43.12 69.25,-43.12 69.25,-24.88 3.75,-24.88"/>
</a>
</g>
</g>
<!-- ActivityThing -->
<g id="node3" class="node">
<title>ActivityThing</title>
<g id="a_node3"><a xlink:href="../ActivityThing.md" xlink:title="&lt;TABLE&gt;">
<polygon fill="lightgray" stroke="none" points="1,-97.88 1,-114.12 72,-114.12 72,-97.88 1,-97.88"/>
<text xml:space="preserve" text-anchor="start" x="2" y="-101.72" font-family="Arial" font-size="12.00">ActivityThing</text>
<polygon fill="none" stroke="black" points="0,-96.88 0,-115.12 73,-115.12 73,-96.88 0,-96.88"/>
</a>
</g>
</g>
<!-- StateStatus&#45;&gt;ActivityThing -->
<g id="edge1" class="edge">
<title>StateStatus&#45;&gt;ActivityThing</title>
<path fill="none" stroke="black" d="M36.5,-51.79C36.5,-59.25 36.5,-68.24 36.5,-76.69"/>
<polygon fill="none" stroke="black" points="33,-76.54 36.5,-86.54 40,-76.54 33,-76.54"/>
</g>
<!-- Invis -->
</g>
</svg>
