<?xml version="1.0" encoding="UTF-8" standalone="no"?>
<!DOCTYPE svg PUBLIC "-//W3C//DTD SVG 1.1//EN"
 "http://www.w3.org/Graphics/SVG/1.1/DTD/svg11.dtd">
<!-- Generated by graphviz version 14.0.2 (20251019.1705)
 -->
<!-- Pages: 1 -->
<svg width="398pt" height="232pt"
 viewBox="0.00 0.00 398.00 232.00" xmlns="http://www.w3.org/2000/svg" xmlns:xlink="http://www.w3.org/1999/xlink">
<g id="graph0" class="graph" transform="scale(1 1) rotate(0) translate(4 228)">
<polygon fill="white" stroke="none" points="-4,4 -4,-228 393.74,-228 393.74,4 -4,4"/>
<g id="clust2" class="cluster">
<title>cluster_associated</title>
</g>
<!-- YearlyRecurringEvent -->
<g id="node1" class="node">
<title>YearlyRecurringEvent</title>
<g id="a_node1"><a xlink:href="../YearlyRecurringEvent.md" xlink:title="&lt;TABLE&gt;">
<polygon fill="lightgray" stroke="none" points="216.88,-124.88 216.88,-141.12 335.12,-141.12 335.12,-124.88 216.88,-124.88"/>
<text xml:space="preserve" text-anchor="start" x="217.88" y="-128.72" font-family="Arial" font-size="12.00">YearlyRecurringEvent</text>
<polygon fill="none" stroke="black" points="215.88,-123.88 215.88,-142.12 336.12,-142.12 336.12,-123.88 215.88,-123.88"/>
</a>
</g>
</g>
<!-- Invis -->
<!-- YearlyRecurringEvent&#45;&gt;Invis -->
<!-- time_GeneralDateTimeDescription -->
<g id="node3" class="node">
<title>time_GeneralDateTimeDescription</title>
<polygon fill="lightgray" stroke="none" points="16.62,-25.88 16.62,-42.12 199.38,-42.12 199.38,-25.88 16.62,-25.88"/>
<text xml:space="preserve" text-anchor="start" x="17.62" y="-29.73" font-family="Arial" font-size="12.00">time:GeneralDateTimeDescription</text>
<polygon fill="none" stroke="black" points="15.62,-24.88 15.62,-43.12 200.38,-43.12 200.38,-24.88 15.62,-24.88"/>
</g>
<!-- YearlyRecurringEvent&#45;&gt;time_GeneralDateTimeDescription -->
<g id="edge4" class="edge">
<title>YearlyRecurringEvent&#45;&gt;time_GeneralDateTimeDescription</title>
<path fill="none" stroke="black" stroke-dasharray="5,2" d="M246.74,-115.1C219.12,-99.16 177.51,-75.14 147.07,-57.56"/>
<polygon fill="black" stroke="black" points="148.93,-54.59 138.52,-52.62 145.43,-60.65 148.93,-54.59"/>
<text xml:space="preserve" text-anchor="middle" x="300.86" y="-86.55" font-family="Arial" font-size="11.00"> onProperty: onDateTimeDescription </text>
<text xml:space="preserve" text-anchor="middle" x="300.86" y="-73.05" font-family="Arial" font-size="11.00"> «exactly 1» &#160;</text>
</g>
<!-- RecurringEvent -->
<g id="node4" class="node">
<title>RecurringEvent</title>
<g id="a_node4"><a xlink:href="../RecurringEvent.md" xlink:title="&lt;TABLE&gt;">
<polygon fill="lightgray" stroke="none" points="233.38,-197.88 233.38,-214.12 318.62,-214.12 318.62,-197.88 233.38,-197.88"/>
<text xml:space="preserve" text-anchor="start" x="234.38" y="-201.72" font-family="Arial" font-size="12.00">RecurringEvent</text>
<polygon fill="none" stroke="black" points="232.38,-196.88 232.38,-215.12 319.62,-215.12 319.62,-196.88 232.38,-196.88"/>
</a>
</g>
</g>
<!-- YearlyRecurringEvent&#45;&gt;RecurringEvent -->
<g id="edge1" class="edge">
<title>YearlyRecurringEvent&#45;&gt;RecurringEvent</title>
<path fill="none" stroke="black" d="M276,-150.71C276,-158.47 276,-167.92 276,-176.74"/>
<polygon fill="none" stroke="black" points="272.5,-176.66 276,-186.66 279.5,-176.66 272.5,-176.66"/>
</g>
<!-- Invis&#45;&gt;time_GeneralDateTimeDescription -->
</g>
</svg>
