<?xml version="1.0" encoding="UTF-8" standalone="no"?>
<!DOCTYPE svg PUBLIC "-//W3C//DTD SVG 1.1//EN"
 "http://www.w3.org/Graphics/SVG/1.1/DTD/svg11.dtd">
<!-- Generated by graphviz version 14.0.2 (20251019.1705)
 -->
<!-- Pages: 1 -->
<svg width="266pt" height="232pt"
 viewBox="0.00 0.00 266.00 232.00" xmlns="http://www.w3.org/2000/svg" xmlns:xlink="http://www.w3.org/1999/xlink">
<g id="graph0" class="graph" transform="scale(1 1) rotate(0) translate(4 228)">
<polygon fill="white" stroke="none" points="-4,4 -4,-228 261.5,-228 261.5,4 -4,4"/>
<g id="clust2" class="cluster">
<title>cluster_associated</title>
</g>
<!-- ManifestationState -->
<g id="node1" class="node">
<title>ManifestationState</title>
<g id="a_node1"><a xlink:href="../classes/Activity__ManifestationState.md" xlink:title="&lt;TABLE&gt;">
<polygon fill="lightgray" stroke="none" points="155.5,-124.88 155.5,-141.12 256.5,-141.12 256.5,-124.88 155.5,-124.88"/>
<text xml:space="preserve" text-anchor="start" x="156.5" y="-128.72" font-family="Arial" font-size="12.00">ManifestationState</text>
<polygon fill="none" stroke="black" points="154.5,-123.88 154.5,-142.12 257.5,-142.12 257.5,-123.88 154.5,-123.88"/>
</a>
</g>
</g>
<!-- TerminalState -->
<g id="node2" class="node">
<title>TerminalState</title>
<g id="a_node2"><a xlink:href="../_counters/Activity__TerminalState.md" xlink:title="&lt;TABLE&gt;">
<polygon fill="lightgray" stroke="none" points="168.25,-197.88 168.25,-214.12 243.75,-214.12 243.75,-197.88 168.25,-197.88"/>
<text xml:space="preserve" text-anchor="start" x="169.25" y="-201.72" font-family="Arial" font-size="12.00">TerminalState</text>
<polygon fill="none" stroke="black" points="167.25,-196.88 167.25,-215.12 244.75,-215.12 244.75,-196.88 167.25,-196.88"/>
</a>
</g>
</g>
<!-- ManifestationState&#45;&gt;TerminalState -->
<g id="edge1" class="edge">
<title>ManifestationState&#45;&gt;TerminalState</title>
<path fill="none" stroke="black" d="M206,-150.71C206,-158.47 206,-167.92 206,-176.74"/>
<polygon fill="none" stroke="black" points="202.5,-176.66 206,-186.66 209.5,-176.66 202.5,-176.66"/>
</g>
<!-- Invis -->
<!-- ManifestationState&#45;&gt;Invis -->
<!-- change__Manifestation -->
<g id="node4" class="node">
<title>change__Manifestation</title>
<polygon fill="lightgray" stroke="none" points="17.5,-25.88 17.5,-42.12 136.5,-42.12 136.5,-25.88 17.5,-25.88"/>
<text xml:space="preserve" text-anchor="start" x="18.5" y="-29.73" font-family="Arial" font-size="12.00">change::Manifestation</text>
<polygon fill="none" stroke="black" points="16.5,-24.88 16.5,-43.12 137.5,-43.12 137.5,-24.88 16.5,-24.88"/>
</g>
<!-- ManifestationState&#45;&gt;change__Manifestation -->
<g id="edge4" class="edge">
<title>ManifestationState&#45;&gt;change__Manifestation</title>
<path fill="none" stroke="black" d="M183.53,-115.1C162.72,-99.46 131.57,-76.03 108.32,-58.55"/>
<polygon fill="black" stroke="black" points="110.52,-55.82 100.42,-52.61 106.31,-61.42 110.52,-55.82"/>
<text xml:space="preserve" text-anchor="middle" x="185.72" y="-86.55" font-family="Arial" font-size="11.00"> satisfiedBy </text>
<text xml:space="preserve" text-anchor="middle" x="185.72" y="-73.05" font-family="Arial" font-size="11.00"> «only» &#160;</text>
</g>
<!-- Invis&#45;&gt;change__Manifestation -->
</g>
</svg>
