<?xml version="1.0" encoding="UTF-8" standalone="no"?>
<!DOCTYPE svg PUBLIC "-//W3C//DTD SVG 1.1//EN"
 "http://www.w3.org/Graphics/SVG/1.1/DTD/svg11.dtd">
<!-- Generated by graphviz version 14.0.2 (20251019.1705)
 -->
<!-- Pages: 1 -->
<svg width="576pt" height="420pt"
 viewBox="0.00 0.00 576.00 420.00" xmlns="http://www.w3.org/2000/svg" xmlns:xlink="http://www.w3.org/1999/xlink">
<g id="graph0" class="graph" transform="scale(1 1) rotate(0) translate(4 416)">
<polygon fill="white" stroke="none" points="-4,4 -4,-416 571.5,-416 571.5,4 -4,4"/>
<g id="clust2" class="cluster">
<title>cluster_associated</title>
</g>
<!-- Activity -->
<g id="node1" class="node">
<title>Activity</title>
<g id="a_node1"><a xlink:href="../_counters/Activity__Activity.md" xlink:title="&lt;TABLE&gt;">
<polygon fill="lightgray" stroke="none" points="215.88,-296.88 215.88,-313.12 256.12,-313.12 256.12,-296.88 215.88,-296.88"/>
<text xml:space="preserve" text-anchor="start" x="216.88" y="-300.73" font-family="Arial" font-size="12.00">Activity</text>
<polygon fill="none" stroke="black" points="214.88,-295.88 214.88,-314.12 257.12,-314.12 257.12,-295.88 214.88,-295.88"/>
</a>
</g>
</g>
<!-- Activity&#45;&gt;Activity -->
<g id="edge13" class="edge">
<title>Activity&#45;&gt;Activity</title>
<path fill="none" stroke="black" d="M262.79,-307.28C272.78,-307.35 281,-306.59 281,-305 281,-304.08 278.25,-303.44 274.01,-303.07"/>
<polygon fill="black" stroke="black" points="274.41,-299.59 264.31,-302.77 274.19,-306.58 274.41,-299.59"/>
<text xml:space="preserve" text-anchor="middle" x="318.5" y="-308.05" font-family="Arial" font-size="11.00"> hasSubactivity </text>
<text xml:space="preserve" text-anchor="middle" x="318.5" y="-294.55" font-family="Arial" font-size="11.00"> «only» &#160;</text>
</g>
<!-- Activity&#45;&gt;Activity -->
<g id="edge14" class="edge">
<title>Activity&#45;&gt;Activity</title>
<path fill="none" stroke="black" d="M262.75,-308.37C299.44,-310.72 356,-309.6 356,-305 356,-300.85 309.95,-299.53 274,-301.04"/>
<polygon fill="black" stroke="black" points="274.07,-297.53 264.26,-301.55 274.43,-304.52 274.07,-297.53"/>
<text xml:space="preserve" text-anchor="middle" x="390.88" y="-308.05" font-family="Arial" font-size="11.00"> occursBefore </text>
<text xml:space="preserve" text-anchor="middle" x="390.88" y="-294.55" font-family="Arial" font-size="11.00"> «only» &#160;</text>
</g>
<!-- Activity&#45;&gt;Activity -->
<g id="edge15" class="edge">
<title>Activity&#45;&gt;Activity</title>
<path fill="none" stroke="black" d="M262.75,-309.1C317.27,-313.82 425.75,-312.45 425.75,-305 425.75,-298.03 330.81,-296.38 273.92,-300.06"/>
<polygon fill="black" stroke="black" points="273.97,-296.55 264.26,-300.78 274.49,-303.53 273.97,-296.55"/>
<text xml:space="preserve" text-anchor="middle" x="478.62" y="-308.05" font-family="Arial" font-size="11.00"> occursDirectlyBefore </text>
<text xml:space="preserve" text-anchor="middle" x="478.62" y="-294.55" font-family="Arial" font-size="11.00"> «only» &#160;</text>
</g>
<!-- ActivityOntologyThing -->
<g id="node2" class="node">
<title>ActivityOntologyThing</title>
<g id="a_node2"><a xlink:href="../_counters/Activity__ActivityOntologyThing.md" xlink:title="&lt;TABLE&gt;">
<polygon fill="lightgray" stroke="none" points="176.5,-369.88 176.5,-386.12 295.5,-386.12 295.5,-369.88 176.5,-369.88"/>
<text xml:space="preserve" text-anchor="start" x="177.5" y="-373.73" font-family="Arial" font-size="12.00">ActivityOntologyThing</text>
<polygon fill="none" stroke="black" points="175.5,-368.88 175.5,-387.12 296.5,-387.12 296.5,-368.88 175.5,-368.88"/>
</a>
</g>
</g>
<!-- Activity&#45;&gt;ActivityOntologyThing -->
<g id="edge1" class="edge">
<title>Activity&#45;&gt;ActivityOntologyThing</title>
<path fill="none" stroke="black" d="M236,-322.71C236,-330.47 236,-339.92 236,-348.74"/>
<polygon fill="none" stroke="black" points="232.5,-348.66 236,-358.66 239.5,-348.66 232.5,-348.66"/>
</g>
<!-- Invis -->
<!-- Activity&#45;&gt;Invis -->
<!-- ActivityStatus -->
<g id="node4" class="node">
<title>ActivityStatus</title>
<g id="a_node4"><a xlink:href="../_counters/Activity__ActivityStatus.md" xlink:title="&lt;TABLE&gt;">
<polygon fill="lightgray" stroke="none" points="51,-296.88 51,-313.12 125,-313.12 125,-296.88 51,-296.88"/>
<text xml:space="preserve" text-anchor="start" x="52" y="-300.73" font-family="Arial" font-size="12.00">ActivityStatus</text>
<polygon fill="none" stroke="black" points="50,-295.88 50,-314.12 126,-314.12 126,-295.88 50,-295.88"/>
</a>
</g>
</g>
<!-- Activity&#45;&gt;ActivityStatus -->
<g id="edge16" class="edge">
<title>Activity&#45;&gt;ActivityStatus</title>
<path fill="none" stroke="black" d="M209.08,-305C189.04,-305 161.11,-305 137.13,-305"/>
<polygon fill="black" stroke="black" points="137.24,-301.5 127.24,-305 137.24,-308.5 137.24,-301.5"/>
<text xml:space="preserve" text-anchor="middle" x="167.5" y="-324.55" font-family="Arial" font-size="11.00"> hasStatus </text>
<text xml:space="preserve" text-anchor="middle" x="167.5" y="-311.05" font-family="Arial" font-size="11.00"> «exactly 1» &#160;</text>
</g>
<!-- spatialLoc__Location -->
<g id="node5" class="node">
<title>spatialLoc__Location</title>
<polygon fill="lightgray" stroke="none" points="16.75,-197.88 16.75,-214.12 125.25,-214.12 125.25,-197.88 16.75,-197.88"/>
<text xml:space="preserve" text-anchor="start" x="17.75" y="-201.72" font-family="Arial" font-size="12.00">spatialLoc::Location</text>
<polygon fill="none" stroke="black" points="15.75,-196.88 15.75,-215.12 126.25,-215.12 126.25,-196.88 15.75,-196.88"/>
</g>
<!-- Activity&#45;&gt;spatialLoc__Location -->
<g id="edge8" class="edge">
<title>Activity&#45;&gt;spatialLoc__Location</title>
<path fill="none" stroke="black" d="M209.36,-299.25C157.9,-290.05 49.79,-270.55 48.5,-269 40.04,-258.82 43.81,-245.18 50.49,-233.29"/>
<polygon fill="black" stroke="black" points="53.29,-235.41 55.76,-225.11 47.41,-231.62 53.29,-235.41"/>
<text xml:space="preserve" text-anchor="middle" x="124.25" y="-258.55" font-family="Arial" font-size="11.00"> spatialLoc::associatedLocation </text>
<text xml:space="preserve" text-anchor="middle" x="124.25" y="-245.05" font-family="Arial" font-size="11.00"> «only» &#160;</text>
</g>
<!-- State -->
<g id="node6" class="node">
<title>State</title>
<g id="a_node6"><a xlink:href="../_counters/Activity__State.md" xlink:title="&lt;TABLE&gt;">
<polygon fill="lightgray" stroke="none" points="84.12,-98.88 84.12,-115.12 113.88,-115.12 113.88,-98.88 84.12,-98.88"/>
<text xml:space="preserve" text-anchor="start" x="85.12" y="-102.72" font-family="Arial" font-size="12.00">State</text>
<polygon fill="none" stroke="black" points="83.12,-97.88 83.12,-116.12 114.88,-116.12 114.88,-97.88 83.12,-97.88"/>
</a>
</g>
</g>
<!-- Activity&#45;&gt;State -->
<g id="edge9" class="edge">
<title>Activity&#45;&gt;State</title>
<path fill="none" stroke="black" d="M228.42,-287.05C222.03,-273.89 212,-255.64 200,-242 191.31,-232.12 185.5,-233.6 176.5,-224 150.7,-196.48 127.61,-159.51 113.48,-134.77"/>
<polygon fill="black" stroke="black" points="116.67,-133.31 108.73,-126.3 110.57,-136.74 116.67,-133.31"/>
<text xml:space="preserve" text-anchor="middle" x="196.75" y="-209.05" font-family="Arial" font-size="11.00"> causes </text>
<text xml:space="preserve" text-anchor="middle" x="196.75" y="-195.55" font-family="Arial" font-size="11.00"> «only» &#160;</text>
</g>
<!-- Activity&#45;&gt;State -->
<g id="edge11" class="edge">
<title>Activity&#45;&gt;State</title>
<path fill="none" stroke="black" d="M237.22,-287.18C238.12,-263.23 236.67,-218.78 217,-188 197.82,-157.99 162.92,-136.44 136.03,-123.32"/>
<polygon fill="black" stroke="black" points="137.72,-120.25 127.17,-119.18 134.75,-126.59 137.72,-120.25"/>
<text xml:space="preserve" text-anchor="middle" x="257.13" y="-209.05" font-family="Arial" font-size="11.00"> hasEffect </text>
<text xml:space="preserve" text-anchor="middle" x="257.13" y="-195.55" font-family="Arial" font-size="11.00"> «only» &#160;</text>
</g>
<!-- time__Interval -->
<g id="node7" class="node">
<title>time__Interval</title>
<polygon fill="lightgray" stroke="none" points="55.25,-25.88 55.25,-42.12 124.75,-42.12 124.75,-25.88 55.25,-25.88"/>
<text xml:space="preserve" text-anchor="start" x="56.25" y="-29.73" font-family="Arial" font-size="12.00">time::Interval</text>
<polygon fill="none" stroke="black" points="54.25,-24.88 54.25,-43.12 125.75,-43.12 125.75,-24.88 54.25,-24.88"/>
</g>
<!-- Activity&#45;&gt;time__Interval -->
<g id="edge7" class="edge">
<title>Activity&#45;&gt;time__Interval</title>
<path fill="none" stroke="black" d="M262.95,-302.74C342.64,-297.99 567.81,-276.6 506,-188 420.77,-65.85 226.61,-40.94 136.96,-36.06"/>
<polygon fill="black" stroke="black" points="137.2,-32.57 127.05,-35.59 136.87,-39.56 137.2,-32.57"/>
<text xml:space="preserve" text-anchor="middle" x="514.71" y="-159.55" font-family="Arial" font-size="11.00"> occursAt </text>
<text xml:space="preserve" text-anchor="middle" x="514.71" y="-146.05" font-family="Arial" font-size="11.00"> «some» &#160;</text>
</g>
<!-- Invis&#45;&gt;ActivityStatus -->
<!-- ActivityStatus&#45;&gt;spatialLoc__Location -->
<!-- spatialLoc__Location&#45;&gt;State -->
<!-- State&#45;&gt;Activity -->
<g id="edge10" class="edge">
<title>State&#45;&gt;Activity</title>
<path fill="none" stroke="black" d="M125.82,-108.27C173.14,-110.44 268.83,-123 294,-188 306.66,-220.68 282.48,-256.5 261.58,-279.57"/>
<polygon fill="black" stroke="black" points="252.2,-284.4 261.61,-279.54 257.28,-289.21 252.2,-284.4"/>
<text xml:space="preserve" text-anchor="middle" x="337.99" y="-209.05" font-family="Arial" font-size="11.00"> inverse enables </text>
<text xml:space="preserve" text-anchor="middle" x="337.99" y="-195.55" font-family="Arial" font-size="11.00"> «only» &#160;</text>
</g>
<!-- State&#45;&gt;Activity -->
<g id="edge12" class="edge">
<title>State&#45;&gt;Activity</title>
<path fill="none" stroke="black" d="M125.82,-111.13C190.91,-119.37 353.98,-144.1 382,-188 413.91,-237.99 325.39,-275.83 272.45,-293.32"/>
<polygon fill="black" stroke="black" points="262.11,-292.96 272.7,-293.24 264.25,-299.62 262.11,-292.96"/>
<text xml:space="preserve" text-anchor="middle" x="445.37" y="-209.05" font-family="Arial" font-size="11.00"> inverse preconditionOf </text>
<text xml:space="preserve" text-anchor="middle" x="445.37" y="-195.55" font-family="Arial" font-size="11.00"> «only» &#160;</text>
</g>
<!-- State&#45;&gt;time__Interval -->
</g>
</svg>
