<?xml version="1.0" encoding="UTF-8" standalone="no"?>
<!DOCTYPE svg PUBLIC "-//W3C//DTD SVG 1.1//EN"
 "http://www.w3.org/Graphics/SVG/1.1/DTD/svg11.dtd">
<!-- Generated by graphviz version 14.1.3 (20260303.0454)
 -->
<!-- Pages: 1 -->
<svg width="795pt" height="466pt"
 viewBox="0.00 0.00 795.00 466.00" xmlns="http://www.w3.org/2000/svg" xmlns:xlink="http://www.w3.org/1999/xlink">
<g id="graph0" class="graph" transform="scale(1 1) rotate(0) translate(4 462)">
<polygon fill="white" stroke="none" points="-4,4 -4,-462 791,-462 791,4 -4,4"/>
<g id="clust3" class="cluster">
<title>cluster_associated</title>
</g>
<!-- ActivityThing -->
<g id="node1" class="node">
<title>ActivityThing</title>
<g id="a_node1"><a xlink:href="../ActivityThing" xlink:title="&lt;TABLE&gt;">
<polygon fill="lightgray" stroke="none" points="201.5,-415.88 201.5,-432.12 272.5,-432.12 272.5,-415.88 201.5,-415.88"/>
<text xml:space="preserve" text-anchor="start" x="202.5" y="-419.88" font-family="Arial" font-size="12.00">ActivityThing</text>
<polygon fill="none" stroke="black" points="200.5,-414.88 200.5,-433.12 273.5,-433.12 273.5,-414.88 200.5,-414.88"/>
</a>
</g>
</g>
<!-- prov_Activity -->
<g id="node2" class="node">
<title>prov_Activity</title>
<g id="a_node2"><a xlink:href="https://w3id.org/citydata/imported/prov/latest/Activity" xlink:title="&lt;TABLE&gt;">
<polygon fill="lightgray" stroke="none" points="292.75,-415.88 292.75,-432.12 359.25,-432.12 359.25,-415.88 292.75,-415.88"/>
<text xml:space="preserve" text-anchor="start" x="293.75" y="-419.88" font-family="Arial" font-size="12.00">prov:Activity</text>
<polygon fill="none" stroke="black" points="291.75,-414.88 291.75,-433.12 360.25,-433.12 360.25,-414.88 291.75,-414.88"/>
</a>
</g>
</g>
<!-- Activity -->
<g id="node3" class="node">
<title>Activity</title>
<g id="a_node3"><a xlink:href="../Activity" xlink:title="&lt;TABLE&gt;">
<polygon fill="lightgray" stroke="none" points="261.88,-342.88 261.88,-359.12 302.12,-359.12 302.12,-342.88 261.88,-342.88"/>
<text xml:space="preserve" text-anchor="start" x="262.88" y="-346.88" font-family="Arial" font-size="12.00">Activity</text>
<polygon fill="none" stroke="black" points="260.88,-341.88 260.88,-360.12 303.12,-360.12 303.12,-341.88 260.88,-341.88"/>
</a>
</g>
</g>
<!-- Activity&#45;&gt;ActivityThing -->
<g id="edge1" class="edge">
<title>Activity&#45;&gt;ActivityThing</title>
<path fill="none" stroke="black" d="M271.41,-368.71C266.16,-377 259.68,-387.21 253.77,-396.54"/>
<polygon fill="none" stroke="black" points="250.87,-394.58 248.47,-404.9 256.78,-398.32 250.87,-394.58"/>
</g>
<!-- Activity&#45;&gt;prov_Activity -->
<g id="edge2" class="edge">
<title>Activity&#45;&gt;prov_Activity</title>
<path fill="none" stroke="black" d="M292.35,-368.71C297.49,-377 303.82,-387.21 309.6,-396.54"/>
<polygon fill="none" stroke="black" points="306.53,-398.23 314.78,-404.89 312.48,-394.54 306.53,-398.23"/>
</g>
<!-- Activity&#45;&gt;Activity -->
<g id="edge9" class="edge">
<title>Activity&#45;&gt;Activity</title>
<path fill="none" stroke="black" d="M308.79,-353.28C318.78,-353.35 327,-352.59 327,-351 327,-350.08 324.25,-349.44 320.01,-349.07"/>
<polygon fill="black" stroke="black" points="320.41,-345.59 310.31,-348.77 320.19,-352.58 320.41,-345.59"/>
<text xml:space="preserve" text-anchor="middle" x="361.5" y="-347.3" font-family="Arial" font-size="11.00">hasSubactivity</text>
</g>
<!-- Activity&#45;&gt;Activity -->
<g id="edge20" class="edge">
<title>Activity&#45;&gt;Activity</title>
<path fill="none" stroke="black" d="M308.95,-354.44C343.96,-356.7 396,-355.55 396,-351 396,-346.91 353.99,-345.57 320.07,-346.98"/>
<polygon fill="black" stroke="black" points="320.26,-343.46 310.46,-347.48 320.63,-350.45 320.26,-343.46"/>
<text xml:space="preserve" text-anchor="middle" x="427.88" y="-347.3" font-family="Arial" font-size="11.00">occursBefore</text>
</g>
<!-- Activity&#45;&gt;Activity -->
<g id="edge21" class="edge">
<title>Activity&#45;&gt;Activity</title>
<path fill="none" stroke="black" d="M308.8,-355.2C360.71,-359.8 459.75,-358.4 459.75,-351 459.75,-344.11 373.79,-342.42 320.06,-345.94"/>
<polygon fill="black" stroke="black" points="320.02,-342.43 310.31,-346.68 320.55,-349.41 320.02,-342.43"/>
<text xml:space="preserve" text-anchor="middle" x="509.62" y="-347.3" font-family="Arial" font-size="11.00">occursDirectlyBefore</text>
</g>
<!-- Invis -->
<!-- Activity&#45;&gt;Invis -->
<!-- ActivityStatus -->
<g id="node5" class="node">
<title>ActivityStatus</title>
<g id="a_node5"><a xlink:href="../ActivityStatus" xlink:title="&lt;TABLE&gt;">
<polygon fill="lightgray" stroke="none" points="17,-342.88 17,-359.12 91,-359.12 91,-342.88 17,-342.88"/>
<text xml:space="preserve" text-anchor="start" x="18" y="-346.88" font-family="Arial" font-size="12.00">ActivityStatus</text>
<polygon fill="none" stroke="black" points="16,-341.88 16,-360.12 92,-360.12 92,-341.88 16,-341.88"/>
</a>
</g>
</g>
<!-- Activity&#45;&gt;ActivityStatus -->
<g id="edge10" class="edge">
<title>Activity&#45;&gt;ActivityStatus</title>
<path fill="none" stroke="black" d="M255.09,-351C217.79,-351 149.75,-351 103.24,-351"/>
<polygon fill="black" stroke="black" points="103.42,-347.5 93.42,-351 103.42,-354.5 103.42,-347.5"/>
<text xml:space="preserve" text-anchor="middle" x="173.5" y="-370.55" font-family="Arial" font-size="11.00">hasStatus</text>
<text xml:space="preserve" text-anchor="middle" x="173.5" y="-357.05" font-family="Arial" font-size="11.00">1</text>
</g>
<!-- Location -->
<g id="node6" class="node">
<title>Location</title>
<g id="a_node6"><a xlink:href="../Location" xlink:title="&lt;TABLE&gt;">
<polygon fill="lightgray" stroke="none" points="19.12,-257.38 19.12,-273.62 66.88,-273.62 66.88,-257.38 19.12,-257.38"/>
<text xml:space="preserve" text-anchor="start" x="20.12" y="-261.38" font-family="Arial" font-size="12.00">Location</text>
<polygon fill="none" stroke="black" points="18.12,-256.38 18.12,-274.62 67.88,-274.62 67.88,-256.38 18.12,-256.38"/>
</a>
</g>
</g>
<!-- Activity&#45;&gt;Location -->
<g id="edge19" class="edge">
<title>Activity&#45;&gt;Location</title>
<path fill="none" stroke="black" d="M255.31,-347.98C196.21,-343.23 58.4,-330.6 44.5,-315 39.57,-309.47 37.85,-302.01 37.72,-294.61"/>
<polygon fill="black" stroke="black" points="41.2,-295.05 38.47,-284.81 34.22,-294.52 41.2,-295.05"/>
<text xml:space="preserve" text-anchor="middle" x="90.25" y="-304.55" font-family="Arial" font-size="11.00">associatedLocation</text>
</g>
<!-- State -->
<g id="node7" class="node">
<title>State</title>
<g id="a_node7"><a xlink:href="../State" xlink:title="&lt;TABLE&gt;">
<polygon fill="lightgray" stroke="none" points="50.12,-171.88 50.12,-188.12 79.88,-188.12 79.88,-171.88 50.12,-171.88"/>
<text xml:space="preserve" text-anchor="start" x="51.12" y="-175.88" font-family="Arial" font-size="12.00">State</text>
<polygon fill="none" stroke="black" points="49.12,-170.88 49.12,-189.12 80.88,-189.12 80.88,-170.88 49.12,-170.88"/>
</a>
</g>
</g>
<!-- Activity&#45;&gt;State -->
<g id="edge13" class="edge">
<title>Activity&#45;&gt;State</title>
<path fill="none" stroke="black" d="M255.27,-345.9C219.69,-339.09 157,-322.15 120,-283.5 99.21,-261.78 84.01,-230.67 74.92,-208.42"/>
<polygon fill="black" stroke="black" points="78.29,-207.44 71.39,-199.41 71.77,-210 78.29,-207.44"/>
<text xml:space="preserve" text-anchor="middle" x="142.5" y="-261.8" font-family="Arial" font-size="11.00">hasEffect</text>
</g>
<!-- Activity&#45;&gt;State -->
<g id="edge14" class="edge">
<title>Activity&#45;&gt;State</title>
<path fill="none" stroke="black" d="M255.08,-335.38C234.64,-323.35 206.73,-304.85 186.75,-283.5 173.98,-269.85 177.93,-261 165,-247.5 146.74,-228.43 122.09,-211.96 101.82,-200.18"/>
<polygon fill="black" stroke="black" points="103.73,-197.24 93.3,-195.36 100.29,-203.33 103.73,-197.24"/>
<text xml:space="preserve" text-anchor="middle" x="216.38" y="-261.8" font-family="Arial" font-size="11.00">causesState</text>
</g>
<!-- time_Instant -->
<g id="node8" class="node">
<title>time_Instant</title>
<g id="a_node8"><a xlink:href="https://w3id.org/citydata/imported/time/latest/Instant" xlink:title="&lt;TABLE&gt;">
<polygon fill="lightgray" stroke="none" points="28.62,-98.88 28.62,-115.12 91.38,-115.12 91.38,-98.88 28.62,-98.88"/>
<text xml:space="preserve" text-anchor="start" x="29.62" y="-102.88" font-family="Arial" font-size="12.00">time:Instant</text>
<polygon fill="none" stroke="black" points="27.62,-97.88 27.62,-116.12 92.38,-116.12 92.38,-97.88 27.62,-97.88"/>
</a>
</g>
</g>
<!-- Activity&#45;&gt;time_Instant -->
<g id="edge17" class="edge">
<title>Activity&#45;&gt;time_Instant</title>
<path fill="none" stroke="black" d="M308.52,-347.85C377.04,-341.26 551.14,-317.36 500,-247.5 452.09,-182.05 204.79,-132.87 103.42,-115.17"/>
<polygon fill="black" stroke="black" points="104.31,-111.77 93.86,-113.52 103.12,-118.67 104.31,-111.77"/>
<text xml:space="preserve" text-anchor="middle" x="499.43" y="-219.05" font-family="Arial" font-size="11.00">beginOf</text>
</g>
<!-- Activity&#45;&gt;time_Instant -->
<g id="edge18" class="edge">
<title>Activity&#45;&gt;time_Instant</title>
<path fill="none" stroke="black" d="M308.79,-347.9C358.33,-343.64 462.03,-332.84 493,-315 532.73,-292.12 547.8,-253.9 522,-216 474.7,-146.51 209.16,-119.18 103.44,-110.95"/>
<polygon fill="black" stroke="black" points="103.98,-107.48 93.75,-110.22 103.46,-114.46 103.98,-107.48"/>
<text xml:space="preserve" text-anchor="middle" x="543.95" y="-219.05" font-family="Arial" font-size="11.00">endOf</text>
</g>
<!-- time_Interval -->
<g id="node9" class="node">
<title>time_Interval</title>
<g id="a_node9"><a xlink:href="https://w3id.org/citydata/imported/time/latest/Interval" xlink:title="&lt;TABLE&gt;">
<polygon fill="lightgray" stroke="none" points="24.75,-25.88 24.75,-42.12 91.25,-42.12 91.25,-25.88 24.75,-25.88"/>
<text xml:space="preserve" text-anchor="start" x="25.75" y="-29.88" font-family="Arial" font-size="12.00">time:Interval</text>
<polygon fill="none" stroke="black" points="23.75,-24.88 23.75,-43.12 92.25,-43.12 92.25,-24.88 23.75,-24.88"/>
</a>
</g>
</g>
<!-- Activity&#45;&gt;time_Interval -->
<g id="edge15" class="edge">
<title>Activity&#45;&gt;time_Interval</title>
<path fill="none" stroke="black" d="M308.91,-349.55C392.81,-347.41 644,-335.27 644,-266.5 644,-266.5 644,-266.5 644,-106 644,-51.61 240.94,-38.6 103.37,-35.75"/>
<polygon fill="black" stroke="black" points="103.62,-32.25 93.55,-35.55 103.48,-39.25 103.62,-32.25"/>
<text xml:space="preserve" text-anchor="middle" x="676.62" y="-183.05" font-family="Arial" font-size="11.00">scheduledFor</text>
<text xml:space="preserve" text-anchor="middle" x="676.62" y="-169.55" font-family="Arial" font-size="11.00">1</text>
</g>
<!-- Activity&#45;&gt;time_Interval -->
<g id="edge16" class="edge">
<title>Activity&#45;&gt;time_Interval</title>
<path fill="none" stroke="black" d="M308.8,-349.5C365.99,-347.93 503.94,-341.48 616,-315 675.61,-300.92 745,-327.75 745,-266.5 745,-266.5 745,-266.5 745,-106 745,-41.29 256.48,-35.23 103.34,-34.92"/>
<polygon fill="black" stroke="black" points="103.59,-31.42 93.58,-34.91 103.58,-38.42 103.59,-31.42"/>
<text xml:space="preserve" text-anchor="middle" x="766" y="-176.3" font-family="Arial" font-size="11.00">occursAt</text>
</g>
<!-- Invis&#45;&gt;ActivityStatus -->
<!-- ActivityStatus&#45;&gt;Location -->
<!-- Location&#45;&gt;State -->
<!-- State&#45;&gt;Activity -->
<g id="edge11" class="edge">
<title>State&#45;&gt;Activity</title>
<path fill="none" stroke="black" d="M91.98,-181.99C133.45,-185.11 212.05,-197.68 250,-247.5 266.82,-269.57 274.9,-300.63 278.71,-322.76"/>
<polygon fill="black" stroke="black" points="276.77,-333.17 278.71,-322.75 283.69,-332.1 276.77,-333.17"/>
<text xml:space="preserve" text-anchor="middle" x="322.23" y="-261.8" font-family="Arial" font-size="11.00">inverse preconditionOf</text>
</g>
<!-- State&#45;&gt;Activity -->
<g id="edge12" class="edge">
<title>State&#45;&gt;Activity</title>
<path fill="none" stroke="black" d="M91.98,-182.46C161.51,-186.86 343.92,-202.55 380,-247.5 405.85,-279.72 355.72,-313.73 318.1,-333.35"/>
<polygon fill="black" stroke="black" points="307.73,-334.67 318.23,-333.28 310.89,-340.92 307.73,-334.67"/>
<text xml:space="preserve" text-anchor="middle" x="441.49" y="-261.8" font-family="Arial" font-size="11.00">inverse enablesActivity</text>
</g>
<!-- State&#45;&gt;time_Instant -->
<!-- time_Instant&#45;&gt;time_Interval -->
</g>
</svg>
