<?xml version="1.0" encoding="UTF-8" standalone="no"?>
<!DOCTYPE svg PUBLIC "-//W3C//DTD SVG 1.1//EN"
 "http://www.w3.org/Graphics/SVG/1.1/DTD/svg11.dtd">
<!-- Generated by graphviz version 14.0.2 (20251019.1705)
 -->
<!-- Pages: 1 -->
<svg width="196pt" height="159pt"
 viewBox="0.00 0.00 196.00 159.00" xmlns="http://www.w3.org/2000/svg" xmlns:xlink="http://www.w3.org/1999/xlink">
<g id="graph0" class="graph" transform="scale(1 1) rotate(0) translate(4 155)">
<polygon fill="white" stroke="none" points="-4,4 -4,-155 192,-155 192,4 -4,4"/>
<g id="clust2" class="cluster">
<title>cluster_associated</title>
</g>
<!-- NonTerminalState -->
<g id="node1" class="node">
<title>NonTerminalState</title>
<g id="a_node1"><a xlink:href="../classes/Activity__NonTerminalState.md" xlink:title="&lt;TABLE&gt;">
<polygon fill="lightgray" stroke="none" points="1,-25.88 1,-42.12 99,-42.12 99,-25.88 1,-25.88"/>
<text xml:space="preserve" text-anchor="start" x="2" y="-29.73" font-family="Arial" font-size="12.00">NonTerminalState</text>
<polygon fill="none" stroke="black" points="0,-24.88 0,-43.12 100,-43.12 100,-24.88 0,-24.88"/>
</a>
</g>
</g>
<!-- State -->
<g id="node2" class="node">
<title>State</title>
<g id="a_node2"><a xlink:href="../_counters/Activity__State.md" xlink:title="&lt;TABLE&gt;">
<polygon fill="lightgray" stroke="none" points="35.12,-124.88 35.12,-141.12 64.88,-141.12 64.88,-124.88 35.12,-124.88"/>
<text xml:space="preserve" text-anchor="start" x="36.12" y="-128.72" font-family="Arial" font-size="12.00">State</text>
<polygon fill="none" stroke="black" points="34.12,-123.88 34.12,-142.12 65.88,-142.12 65.88,-123.88 34.12,-123.88"/>
</a>
</g>
</g>
<!-- NonTerminalState&#45;&gt;State -->
<g id="edge1" class="edge">
<title>NonTerminalState&#45;&gt;State</title>
<path fill="none" stroke="black" d="M48.85,-51.73C48.5,-57.51 48.17,-64.04 48,-70 47.66,-82 47.66,-85 48,-97 48.06,-99.24 48.15,-101.55 48.25,-103.88"/>
<polygon fill="none" stroke="black" points="44.75,-103.96 48.77,-113.76 51.74,-103.59 44.75,-103.96"/>
</g>
<!-- NonTerminalState&#45;&gt;State -->
<g id="edge2" class="edge">
<title>NonTerminalState&#45;&gt;State</title>
<path fill="none" stroke="black" d="M50,-51.7C50,-65.97 50,-86.8 50,-103.67"/>
<polygon fill="black" stroke="black" points="46.5,-103.59 50,-113.59 53.5,-103.59 46.5,-103.59"/>
<text xml:space="preserve" text-anchor="middle" x="83" y="-86.55" font-family="Arial" font-size="11.00"> hasSubstate </text>
<text xml:space="preserve" text-anchor="middle" x="83" y="-73.05" font-family="Arial" font-size="11.00"> «only» &#160;</text>
</g>
<!-- Invis -->
</g>
</svg>
