<?xml version="1.0" encoding="UTF-8" standalone="no"?>
<!DOCTYPE svg PUBLIC "-//W3C//DTD SVG 1.1//EN"
 "http://www.w3.org/Graphics/SVG/1.1/DTD/svg11.dtd">
<!-- Generated by graphviz version 14.0.2 (20251019.1705)
 -->
<!-- Pages: 1 -->
<svg width="849pt" height="493pt"
 viewBox="0.00 0.00 849.00 493.00" xmlns="http://www.w3.org/2000/svg" xmlns:xlink="http://www.w3.org/1999/xlink">
<g id="graph0" class="graph" transform="scale(1 1) rotate(0) translate(4 489)">
<polygon fill="white" stroke="none" points="-4,4 -4,-489 845,-489 845,4 -4,4"/>
<g id="clust2" class="cluster">
<title>cluster_associated</title>
</g>
<!-- Activity -->
<g id="node1" class="node">
<title>Activity</title>
<g id="a_node1"><a xlink:href="../Activity.md" xlink:title="&lt;TABLE&gt;">
<polygon fill="lightgray" stroke="none" points="273.88,-369.88 273.88,-386.12 314.12,-386.12 314.12,-369.88 273.88,-369.88"/>
<text xml:space="preserve" text-anchor="start" x="274.88" y="-373.73" font-family="Arial" font-size="12.00">Activity</text>
<polygon fill="none" stroke="black" points="272.88,-368.88 272.88,-387.12 315.12,-387.12 315.12,-368.88 272.88,-368.88"/>
</a>
</g>
</g>
<!-- Activity&#45;&gt;Activity -->
<g id="edge9" class="edge">
<title>Activity&#45;&gt;Activity</title>
<path fill="none" stroke="black" d="M320.79,-380.28C330.78,-380.35 339,-379.59 339,-378 339,-377.08 336.25,-376.44 332.01,-376.07"/>
<polygon fill="black" stroke="black" points="332.41,-372.59 322.31,-375.77 332.19,-379.58 332.41,-372.59"/>
<text xml:space="preserve" text-anchor="middle" x="376.5" y="-381.05" font-family="Arial" font-size="11.00"> hasSubactivity </text>
<text xml:space="preserve" text-anchor="middle" x="376.5" y="-367.55" font-family="Arial" font-size="11.00"> «only» &#160;</text>
</g>
<!-- Activity&#45;&gt;Activity -->
<g id="edge20" class="edge">
<title>Activity&#45;&gt;Activity</title>
<path fill="none" stroke="black" d="M320.75,-381.37C357.44,-383.72 414,-382.6 414,-378 414,-373.85 367.95,-372.53 332,-374.04"/>
<polygon fill="black" stroke="black" points="332.07,-370.53 322.26,-374.55 332.43,-377.52 332.07,-370.53"/>
<text xml:space="preserve" text-anchor="middle" x="448.88" y="-381.05" font-family="Arial" font-size="11.00"> occursBefore </text>
<text xml:space="preserve" text-anchor="middle" x="448.88" y="-367.55" font-family="Arial" font-size="11.00"> «only» &#160;</text>
</g>
<!-- Activity&#45;&gt;Activity -->
<g id="edge21" class="edge">
<title>Activity&#45;&gt;Activity</title>
<path fill="none" stroke="black" d="M320.75,-382.1C375.27,-386.82 483.75,-385.45 483.75,-378 483.75,-371.03 388.81,-369.38 331.92,-373.06"/>
<polygon fill="black" stroke="black" points="331.97,-369.55 322.26,-373.78 332.49,-376.53 331.97,-369.55"/>
<text xml:space="preserve" text-anchor="middle" x="536.62" y="-381.05" font-family="Arial" font-size="11.00"> occursDirectlyBefore </text>
<text xml:space="preserve" text-anchor="middle" x="536.62" y="-367.55" font-family="Arial" font-size="11.00"> «only» &#160;</text>
</g>
<!-- Invis -->
<!-- Activity&#45;&gt;Invis -->
<!-- ActivityStatus -->
<g id="node3" class="node">
<title>ActivityStatus</title>
<g id="a_node3"><a xlink:href="../ActivityStatus.md" xlink:title="&lt;TABLE&gt;">
<polygon fill="lightgray" stroke="none" points="17,-369.88 17,-386.12 91,-386.12 91,-369.88 17,-369.88"/>
<text xml:space="preserve" text-anchor="start" x="18" y="-373.73" font-family="Arial" font-size="12.00">ActivityStatus</text>
<polygon fill="none" stroke="black" points="16,-368.88 16,-387.12 92,-387.12 92,-368.88 16,-368.88"/>
</a>
</g>
</g>
<!-- Activity&#45;&gt;ActivityStatus -->
<g id="edge10" class="edge">
<title>Activity&#45;&gt;ActivityStatus</title>
<path fill="none" stroke="black" d="M267.23,-378C227.64,-378 152.83,-378 103.19,-378"/>
<polygon fill="black" stroke="black" points="103.28,-374.5 93.28,-378 103.28,-381.5 103.28,-374.5"/>
<text xml:space="preserve" text-anchor="middle" x="179.5" y="-397.55" font-family="Arial" font-size="11.00"> hasStatus </text>
<text xml:space="preserve" text-anchor="middle" x="179.5" y="-384.05" font-family="Arial" font-size="11.00"> «exactly 1» &#160;</text>
</g>
<!-- Location -->
<g id="node4" class="node">
<title>Location</title>
<g id="a_node4"><a xlink:href="../Location.md" xlink:title="&lt;TABLE&gt;">
<polygon fill="lightgray" stroke="none" points="19.12,-270.88 19.12,-287.12 66.88,-287.12 66.88,-270.88 19.12,-270.88"/>
<text xml:space="preserve" text-anchor="start" x="20.12" y="-274.73" font-family="Arial" font-size="12.00">Location</text>
<polygon fill="none" stroke="black" points="18.12,-269.88 18.12,-288.12 67.88,-288.12 67.88,-269.88 18.12,-269.88"/>
</a>
</g>
</g>
<!-- Activity&#45;&gt;Location -->
<g id="edge19" class="edge">
<title>Activity&#45;&gt;Location</title>
<path fill="none" stroke="black" d="M267.34,-375.19C206.04,-370.75 59.19,-358.49 44.5,-342 36.44,-332.96 35.18,-319.89 36.29,-308.08"/>
<polygon fill="black" stroke="black" points="39.72,-308.8 37.8,-298.38 32.8,-307.72 39.72,-308.8"/>
<text xml:space="preserve" text-anchor="middle" x="93.25" y="-331.55" font-family="Arial" font-size="11.00"> associatedLocation </text>
<text xml:space="preserve" text-anchor="middle" x="93.25" y="-318.05" font-family="Arial" font-size="11.00"> «only» &#160;</text>
</g>
<!-- State -->
<g id="node5" class="node">
<title>State</title>
<g id="a_node5"><a xlink:href="../State.md" xlink:title="&lt;TABLE&gt;">
<polygon fill="lightgray" stroke="none" points="50.12,-171.88 50.12,-188.12 79.88,-188.12 79.88,-171.88 50.12,-171.88"/>
<text xml:space="preserve" text-anchor="start" x="51.12" y="-175.72" font-family="Arial" font-size="12.00">State</text>
<polygon fill="none" stroke="black" points="49.12,-170.88 49.12,-189.12 80.88,-189.12 80.88,-170.88 49.12,-170.88"/>
</a>
</g>
</g>
<!-- Activity&#45;&gt;State -->
<g id="edge13" class="edge">
<title>Activity&#45;&gt;State</title>
<path fill="none" stroke="black" d="M267.4,-371.74C243.41,-366.34 207.6,-356.66 179,-342 175.33,-340.12 122.6,-300.2 120,-297 98.32,-270.24 82.77,-233.52 73.85,-208.62"/>
<polygon fill="black" stroke="black" points="77.17,-207.51 70.61,-199.19 70.55,-209.78 77.17,-207.51"/>
<text xml:space="preserve" text-anchor="middle" x="145.5" y="-282.05" font-family="Arial" font-size="11.00"> hasEffect </text>
<text xml:space="preserve" text-anchor="middle" x="145.5" y="-268.55" font-family="Arial" font-size="11.00"> «only» &#160;</text>
</g>
<!-- Activity&#45;&gt;State -->
<g id="edge14" class="edge">
<title>Activity&#45;&gt;State</title>
<path fill="none" stroke="black" d="M267.73,-360.17C245.92,-345.34 214.98,-322.2 192.75,-297 180.38,-282.98 183.52,-274.88 171,-261 150.65,-238.43 123.15,-217.9 101.26,-203.28"/>
<polygon fill="black" stroke="black" points="103.2,-200.37 92.91,-197.83 99.37,-206.23 103.2,-200.37"/>
<text xml:space="preserve" text-anchor="middle" x="225.38" y="-282.05" font-family="Arial" font-size="11.00"> causesState </text>
<text xml:space="preserve" text-anchor="middle" x="225.38" y="-268.55" font-family="Arial" font-size="11.00"> «only» &#160;</text>
</g>
<!-- time_Instant -->
<g id="node6" class="node">
<title>time_Instant</title>
<polygon fill="lightgray" stroke="none" points="28.62,-98.88 28.62,-115.12 91.38,-115.12 91.38,-98.88 28.62,-98.88"/>
<text xml:space="preserve" text-anchor="start" x="29.62" y="-102.72" font-family="Arial" font-size="12.00">time:Instant</text>
<polygon fill="none" stroke="black" points="27.62,-97.88 27.62,-116.12 92.38,-116.12 92.38,-97.88 27.62,-97.88"/>
</g>
<!-- Activity&#45;&gt;time_Instant -->
<g id="edge17" class="edge">
<title>Activity&#45;&gt;time_Instant</title>
<path fill="none" stroke="black" d="M320.75,-374.19C391.77,-365.66 576.09,-335.89 522,-261 423.44,-124.54 198.47,-107.81 103.54,-107.1"/>
<polygon fill="black" stroke="black" points="103.61,-103.6 93.61,-107.09 103.61,-110.6 103.61,-103.6"/>
<text xml:space="preserve" text-anchor="middle" x="530.12" y="-232.55" font-family="Arial" font-size="11.00"> beginOf </text>
<text xml:space="preserve" text-anchor="middle" x="530.12" y="-219.05" font-family="Arial" font-size="11.00"> «some» &#160;</text>
</g>
<!-- Activity&#45;&gt;time_Instant -->
<g id="edge18" class="edge">
<title>Activity&#45;&gt;time_Instant</title>
<path fill="none" stroke="black" d="M320.88,-375.13C371.12,-371.24 477.03,-360.99 508,-342 559.36,-310.5 590.71,-266.59 558,-216 508.42,-139.32 214.95,-116.08 103.18,-109.95"/>
<polygon fill="black" stroke="black" points="103.7,-106.48 93.53,-109.45 103.33,-113.47 103.7,-106.48"/>
<text xml:space="preserve" text-anchor="middle" x="593.22" y="-232.55" font-family="Arial" font-size="11.00"> endOf </text>
<text xml:space="preserve" text-anchor="middle" x="593.22" y="-219.05" font-family="Arial" font-size="11.00"> «some» &#160;</text>
</g>
<!-- time_Interval -->
<g id="node7" class="node">
<title>time_Interval</title>
<polygon fill="lightgray" stroke="none" points="24.75,-25.88 24.75,-42.12 91.25,-42.12 91.25,-25.88 24.75,-25.88"/>
<text xml:space="preserve" text-anchor="start" x="25.75" y="-29.73" font-family="Arial" font-size="12.00">time:Interval</text>
<polygon fill="none" stroke="black" points="23.75,-24.88 23.75,-43.12 92.25,-43.12 92.25,-24.88 23.75,-24.88"/>
</g>
<!-- Activity&#45;&gt;time_Interval -->
<g id="edge15" class="edge">
<title>Activity&#45;&gt;time_Interval</title>
<path fill="none" stroke="black" d="M320.94,-376.13C409.51,-372.56 686,-355.37 686,-280 686,-280 686,-280 686,-106 686,-47.37 248.22,-37.15 103.69,-35.37"/>
<polygon fill="black" stroke="black" points="103.76,-31.87 93.72,-35.26 103.68,-38.87 103.76,-31.87"/>
<text xml:space="preserve" text-anchor="middle" x="721.62" y="-183.05" font-family="Arial" font-size="11.00"> scheduledFor </text>
<text xml:space="preserve" text-anchor="middle" x="721.62" y="-169.55" font-family="Arial" font-size="11.00"> «exactly 1» &#160;</text>
</g>
<!-- Activity&#45;&gt;time_Interval -->
<g id="edge16" class="edge">
<title>Activity&#45;&gt;time_Interval</title>
<path fill="none" stroke="black" d="M320.83,-377.54C424.48,-378.94 793,-377.08 793,-280 793,-280 793,-280 793,-106 793,-36.35 263.37,-33.79 103.29,-34.6"/>
<polygon fill="black" stroke="black" points="103.47,-31.1 93.49,-34.66 103.51,-38.1 103.47,-31.1"/>
<text xml:space="preserve" text-anchor="middle" x="817" y="-183.05" font-family="Arial" font-size="11.00"> occursAt </text>
<text xml:space="preserve" text-anchor="middle" x="817" y="-169.55" font-family="Arial" font-size="11.00"> «some» &#160;</text>
</g>
<!-- ActivityThing -->
<g id="node8" class="node">
<title>ActivityThing</title>
<g id="a_node8"><a xlink:href="../ActivityThing.md" xlink:title="&lt;TABLE&gt;">
<polygon fill="lightgray" stroke="none" points="213.5,-442.88 213.5,-459.12 284.5,-459.12 284.5,-442.88 213.5,-442.88"/>
<text xml:space="preserve" text-anchor="start" x="214.5" y="-446.73" font-family="Arial" font-size="12.00">ActivityThing</text>
<polygon fill="none" stroke="black" points="212.5,-441.88 212.5,-460.12 285.5,-460.12 285.5,-441.88 212.5,-441.88"/>
</a>
</g>
</g>
<!-- Activity&#45;&gt;ActivityThing -->
<g id="edge1" class="edge">
<title>Activity&#45;&gt;ActivityThing</title>
<path fill="none" stroke="black" d="M283.41,-395.71C278.16,-404 271.68,-414.21 265.77,-423.54"/>
<polygon fill="none" stroke="black" points="262.87,-421.58 260.47,-431.9 268.78,-425.32 262.87,-421.58"/>
</g>
<!-- prov_Activity -->
<g id="node9" class="node">
<title>prov_Activity</title>
<polygon fill="lightgray" stroke="none" points="304.75,-442.88 304.75,-459.12 371.25,-459.12 371.25,-442.88 304.75,-442.88"/>
<text xml:space="preserve" text-anchor="start" x="305.75" y="-446.73" font-family="Arial" font-size="12.00">prov:Activity</text>
<polygon fill="none" stroke="black" points="303.75,-441.88 303.75,-460.12 372.25,-460.12 372.25,-441.88 303.75,-441.88"/>
</g>
<!-- Activity&#45;&gt;prov_Activity -->
<g id="edge2" class="edge">
<title>Activity&#45;&gt;prov_Activity</title>
<path fill="none" stroke="black" d="M304.35,-395.71C309.49,-404 315.82,-414.21 321.6,-423.54"/>
<polygon fill="none" stroke="black" points="318.53,-425.23 326.78,-431.89 324.48,-421.54 318.53,-425.23"/>
</g>
<!-- Invis&#45;&gt;ActivityStatus -->
<!-- ActivityStatus&#45;&gt;Location -->
<!-- Location&#45;&gt;State -->
<!-- State&#45;&gt;Activity -->
<g id="edge11" class="edge">
<title>State&#45;&gt;Activity</title>
<path fill="none" stroke="black" d="M91.65,-182.66C136.11,-187.04 224.24,-203 262,-261 279.69,-288.18 287.7,-325.04 291.25,-349.86"/>
<polygon fill="black" stroke="black" points="289.06,-360.28 291.26,-349.92 296,-359.39 289.06,-360.28"/>
<text xml:space="preserve" text-anchor="middle" x="335.04" y="-282.05" font-family="Arial" font-size="11.00"> inverse preconditionOf </text>
<text xml:space="preserve" text-anchor="middle" x="335.04" y="-268.55" font-family="Arial" font-size="11.00"> «only» &#160;</text>
</g>
<!-- State&#45;&gt;Activity -->
<g id="edge12" class="edge">
<title>State&#45;&gt;Activity</title>
<path fill="none" stroke="black" d="M91.93,-183.21C164.16,-189.77 359.25,-211.8 396,-261 423.26,-297.5 369.42,-336.64 330.12,-358.84"/>
<polygon fill="black" stroke="black" points="319.75,-360.54 330.2,-358.8 323.12,-366.67 319.75,-360.54"/>
<text xml:space="preserve" text-anchor="middle" x="460.78" y="-282.05" font-family="Arial" font-size="11.00"> inverse enablesActivity </text>
<text xml:space="preserve" text-anchor="middle" x="460.78" y="-268.55" font-family="Arial" font-size="11.00"> «only» &#160;</text>
</g>
<!-- State&#45;&gt;time_Instant -->
<!-- time_Instant&#45;&gt;time_Interval -->
</g>
</svg>
