<?xml version="1.0" encoding="UTF-8" standalone="no"?>
<!DOCTYPE svg PUBLIC "-//W3C//DTD SVG 1.1//EN"
 "http://www.w3.org/Graphics/SVG/1.1/DTD/svg11.dtd">
<!-- Generated by graphviz version 14.0.2 (20251019.1705)
 -->
<!-- Pages: 1 -->
<svg width="174pt" height="132pt"
 viewBox="0.00 0.00 174.00 132.00" xmlns="http://www.w3.org/2000/svg" xmlns:xlink="http://www.w3.org/1999/xlink">
<g id="graph0" class="graph" transform="scale(1 1) rotate(0) translate(4 128)">
<polygon fill="white" stroke="none" points="-4,4 -4,-128 169.75,-128 169.75,4 -4,4"/>
<g id="clust2" class="cluster">
<title>cluster_associated</title>
</g>
<!-- TerminalState -->
<g id="node1" class="node">
<title>TerminalState</title>
<g id="a_node1"><a xlink:href="../classes/Activity__TerminalState.md" xlink:title="&lt;TABLE&gt;">
<polygon fill="lightgray" stroke="none" points="1,-25.88 1,-42.12 76.5,-42.12 76.5,-25.88 1,-25.88"/>
<text xml:space="preserve" text-anchor="start" x="2" y="-29.73" font-family="Arial" font-size="12.00">TerminalState</text>
<polygon fill="none" stroke="black" points="0,-24.88 0,-43.12 77.5,-43.12 77.5,-24.88 0,-24.88"/>
</a>
</g>
</g>
<!-- State -->
<g id="node2" class="node">
<title>State</title>
<g id="a_node2"><a xlink:href="../_counters/Activity__State.md" xlink:title="&lt;TABLE&gt;">
<polygon fill="lightgray" stroke="none" points="23.88,-97.88 23.88,-114.12 53.62,-114.12 53.62,-97.88 23.88,-97.88"/>
<text xml:space="preserve" text-anchor="start" x="24.88" y="-101.72" font-family="Arial" font-size="12.00">State</text>
<polygon fill="none" stroke="black" points="22.88,-96.88 22.88,-115.12 54.62,-115.12 54.62,-96.88 22.88,-96.88"/>
</a>
</g>
</g>
<!-- TerminalState&#45;&gt;State -->
<g id="edge1" class="edge">
<title>TerminalState&#45;&gt;State</title>
<path fill="none" stroke="black" d="M38.75,-51.79C38.75,-59.25 38.75,-68.24 38.75,-76.69"/>
<polygon fill="none" stroke="black" points="35.25,-76.54 38.75,-86.54 42.25,-76.54 35.25,-76.54"/>
</g>
<!-- Invis -->
</g>
</svg>
