<?xml version="1.0" encoding="UTF-8" standalone="no"?>
<!DOCTYPE svg PUBLIC "-//W3C//DTD SVG 1.1//EN"
 "http://www.w3.org/Graphics/SVG/1.1/DTD/svg11.dtd">
<!-- Generated by graphviz version 14.0.2 (20251019.1705)
 -->
<!-- Pages: 1 -->
<svg width="425pt" height="305pt"
 viewBox="0.00 0.00 425.00 305.00" xmlns="http://www.w3.org/2000/svg" xmlns:xlink="http://www.w3.org/1999/xlink">
<g id="graph0" class="graph" transform="scale(1 1) rotate(0) translate(4 301)">
<polygon fill="white" stroke="none" points="-4,4 -4,-301 421.08,-301 421.08,4 -4,4"/>
<g id="clust2" class="cluster">
<title>cluster_associated</title>
</g>
<!-- State -->
<g id="node1" class="node">
<title>State</title>
<g id="a_node1"><a xlink:href="../classes/Activity__State.md" xlink:title="&lt;TABLE&gt;">
<polygon fill="lightgray" stroke="none" points="158.12,-197.88 158.12,-214.12 187.88,-214.12 187.88,-197.88 158.12,-197.88"/>
<text xml:space="preserve" text-anchor="start" x="159.12" y="-201.72" font-family="Arial" font-size="12.00">State</text>
<polygon fill="none" stroke="black" points="157.12,-196.88 157.12,-215.12 188.88,-215.12 188.88,-196.88 157.12,-196.88"/>
</a>
</g>
</g>
<!-- ActivityOntologyThing -->
<g id="node2" class="node">
<title>ActivityOntologyThing</title>
<g id="a_node2"><a xlink:href="../_counters/Activity__ActivityOntologyThing.md" xlink:title="&lt;TABLE&gt;">
<polygon fill="lightgray" stroke="none" points="113.5,-270.88 113.5,-287.12 232.5,-287.12 232.5,-270.88 113.5,-270.88"/>
<text xml:space="preserve" text-anchor="start" x="114.5" y="-274.73" font-family="Arial" font-size="12.00">ActivityOntologyThing</text>
<polygon fill="none" stroke="black" points="112.5,-269.88 112.5,-288.12 233.5,-288.12 233.5,-269.88 112.5,-269.88"/>
</a>
</g>
</g>
<!-- State&#45;&gt;ActivityOntologyThing -->
<g id="edge1" class="edge">
<title>State&#45;&gt;ActivityOntologyThing</title>
<path fill="none" stroke="black" d="M173,-223.71C173,-231.47 173,-240.92 173,-249.74"/>
<polygon fill="none" stroke="black" points="169.5,-249.66 173,-259.66 176.5,-249.66 169.5,-249.66"/>
</g>
<!-- Invis -->
<!-- State&#45;&gt;Invis -->
<!-- Activity -->
<g id="node4" class="node">
<title>Activity</title>
<g id="a_node4"><a xlink:href="../_counters/Activity__Activity.md" xlink:title="&lt;TABLE&gt;">
<polygon fill="lightgray" stroke="none" points="32.88,-98.88 32.88,-115.12 73.12,-115.12 73.12,-98.88 32.88,-98.88"/>
<text xml:space="preserve" text-anchor="start" x="33.88" y="-102.72" font-family="Arial" font-size="12.00">Activity</text>
<polygon fill="none" stroke="black" points="31.88,-97.88 31.88,-116.12 74.12,-116.12 74.12,-97.88 31.88,-97.88"/>
</a>
</g>
</g>
<!-- State&#45;&gt;Activity -->
<g id="edge7" class="edge">
<title>State&#45;&gt;Activity</title>
<path fill="none" stroke="black" d="M146.11,-199.6C109.8,-192.04 48.87,-178.31 42.5,-170 35.05,-160.29 36.14,-147.18 39.72,-135.52"/>
<polygon fill="black" stroke="black" points="42.92,-136.96 43.18,-126.36 36.37,-134.48 42.92,-136.96"/>
<text xml:space="preserve" text-anchor="middle" x="64.25" y="-159.55" font-family="Arial" font-size="11.00"> enables </text>
<text xml:space="preserve" text-anchor="middle" x="64.25" y="-146.05" font-family="Arial" font-size="11.00"> «only» &#160;</text>
</g>
<!-- State&#45;&gt;Activity -->
<g id="edge8" class="edge">
<title>State&#45;&gt;Activity</title>
<path fill="none" stroke="black" d="M146.12,-194.67C132.89,-188.75 117.26,-180.41 105.25,-170 94.11,-160.35 95.35,-154.39 86,-143 83.3,-139.71 80.36,-136.34 77.39,-133.05"/>
<polygon fill="black" stroke="black" points="80,-130.72 70.63,-125.77 74.87,-135.48 80,-130.72"/>
<text xml:space="preserve" text-anchor="middle" x="143.12" y="-159.55" font-family="Arial" font-size="11.00"> preconditionOf </text>
<text xml:space="preserve" text-anchor="middle" x="143.12" y="-146.05" font-family="Arial" font-size="11.00"> «only» &#160;</text>
</g>
<!-- StateStatus -->
<g id="node5" class="node">
<title>StateStatus</title>
<g id="a_node5"><a xlink:href="../_counters/Activity__StateStatus.md" xlink:title="&lt;TABLE&gt;">
<polygon fill="lightgray" stroke="none" points="17.25,-25.88 17.25,-42.12 80.75,-42.12 80.75,-25.88 17.25,-25.88"/>
<text xml:space="preserve" text-anchor="start" x="18.25" y="-29.73" font-family="Arial" font-size="12.00">StateStatus</text>
<polygon fill="none" stroke="black" points="16.25,-24.88 16.25,-43.12 81.75,-43.12 81.75,-24.88 16.25,-24.88"/>
</a>
</g>
</g>
<!-- State&#45;&gt;StateStatus -->
<g id="edge9" class="edge">
<title>State&#45;&gt;StateStatus</title>
<path fill="none" stroke="black" d="M199.83,-205.72C262.98,-206.48 412.58,-202.25 370,-143 305.97,-53.9 164.72,-37.31 92.85,-34.86"/>
<polygon fill="black" stroke="black" points="93.12,-31.37 83.03,-34.61 92.94,-38.37 93.12,-31.37"/>
<text xml:space="preserve" text-anchor="middle" x="385.58" y="-110.05" font-family="Arial" font-size="11.00"> hasStatus </text>
<text xml:space="preserve" text-anchor="middle" x="385.58" y="-96.55" font-family="Arial" font-size="11.00"> «exactly 1» &#160;</text>
</g>
<!-- Invis&#45;&gt;Activity -->
<!-- Activity&#45;&gt;State -->
<g id="edge5" class="edge">
<title>Activity&#45;&gt;State</title>
<path fill="none" stroke="black" d="M79.89,-111.27C114.66,-116.12 172.28,-126.46 185,-143 192.73,-153.05 191.03,-166.67 186.84,-178.58"/>
<polygon fill="black" stroke="black" points="179.85,-186.27 186.92,-178.38 186.31,-188.96 179.85,-186.27"/>
<text xml:space="preserve" text-anchor="middle" x="229.01" y="-159.55" font-family="Arial" font-size="11.00"> inverse causes </text>
<text xml:space="preserve" text-anchor="middle" x="229.01" y="-146.05" font-family="Arial" font-size="11.00"> «only» &#160;</text>
</g>
<!-- Activity&#45;&gt;State -->
<g id="edge6" class="edge">
<title>Activity&#45;&gt;State</title>
<path fill="none" stroke="black" d="M79.82,-108.14C132.74,-109.05 247.58,-114.36 272,-143 279.79,-152.13 278.93,-160.2 272,-170 258.07,-189.7 232.08,-198.38 210.23,-202.18"/>
<polygon fill="black" stroke="black" points="199.9,-200.14 210.3,-202.17 200.9,-207.07 199.9,-200.14"/>
<text xml:space="preserve" text-anchor="middle" x="321.77" y="-159.55" font-family="Arial" font-size="11.00"> inverse hasEffect </text>
<text xml:space="preserve" text-anchor="middle" x="321.77" y="-146.05" font-family="Arial" font-size="11.00"> «only» &#160;</text>
</g>
<!-- Activity&#45;&gt;StateStatus -->
</g>
</svg>
