<?xml version="1.0" encoding="UTF-8" standalone="no"?>
<!DOCTYPE svg PUBLIC "-//W3C//DTD SVG 1.1//EN"
 "http://www.w3.org/Graphics/SVG/1.1/DTD/svg11.dtd">
<!-- Generated by graphviz version 14.1.3 (20260303.0454)
 -->
<!-- Pages: 1 -->
<svg width="1093pt" height="511pt"
 viewBox="0.00 0.00 1093.00 511.00" xmlns="http://www.w3.org/2000/svg" xmlns:xlink="http://www.w3.org/1999/xlink">
<g id="graph0" class="graph" transform="scale(1 1) rotate(0) translate(4 506.5)">
<polygon fill="white" stroke="none" points="-4,4 -4,-506.5 1089,-506.5 1089,4 -4,4"/>
<g id="clust3" class="cluster">
<title>cluster_associated</title>
</g>
<!-- ActivityThing -->
<g id="node1" class="node">
<title>ActivityThing</title>
<g id="a_node1"><a xlink:href="../ActivityThing" xlink:title="&lt;TABLE&gt;">
<polygon fill="lightgray" stroke="none" points="338.5,-460.38 338.5,-476.62 409.5,-476.62 409.5,-460.38 338.5,-460.38"/>
<text xml:space="preserve" text-anchor="start" x="339.5" y="-464.38" font-family="Arial" font-size="12.00">ActivityThing</text>
<polygon fill="none" stroke="black" points="337.5,-459.38 337.5,-477.62 410.5,-477.62 410.5,-459.38 337.5,-459.38"/>
</a>
</g>
</g>
<!-- prov_Activity -->
<g id="node2" class="node">
<title>prov_Activity</title>
<g id="a_node2"><a xlink:href="https://w3id.org/citydata/imported/prov/latest/Activity" xlink:title="&lt;TABLE&gt;">
<polygon fill="lightgray" stroke="none" points="429.75,-460.38 429.75,-476.62 496.25,-476.62 496.25,-460.38 429.75,-460.38"/>
<text xml:space="preserve" text-anchor="start" x="430.75" y="-464.38" font-family="Arial" font-size="12.00">prov:Activity</text>
<polygon fill="none" stroke="black" points="428.75,-459.38 428.75,-477.62 497.25,-477.62 497.25,-459.38 428.75,-459.38"/>
</a>
</g>
</g>
<!-- Activity -->
<g id="node3" class="node">
<title>Activity</title>
<g id="a_node3"><a xlink:href="../Activity" xlink:title="&lt;TABLE&gt;">
<polygon fill="lightgray" stroke="none" points="398.88,-387.38 398.88,-403.62 439.12,-403.62 439.12,-387.38 398.88,-387.38"/>
<text xml:space="preserve" text-anchor="start" x="399.88" y="-391.38" font-family="Arial" font-size="12.00">Activity</text>
<polygon fill="none" stroke="black" points="397.88,-386.38 397.88,-404.62 440.12,-404.62 440.12,-386.38 397.88,-386.38"/>
</a>
</g>
</g>
<!-- Activity&#45;&gt;ActivityThing -->
<g id="edge1" class="edge">
<title>Activity&#45;&gt;ActivityThing</title>
<path fill="none" stroke="black" d="M408.41,-413.21C403.16,-421.5 396.68,-431.71 390.77,-441.04"/>
<polygon fill="none" stroke="black" points="387.87,-439.08 385.47,-449.4 393.78,-442.82 387.87,-439.08"/>
</g>
<!-- Activity&#45;&gt;prov_Activity -->
<g id="edge2" class="edge">
<title>Activity&#45;&gt;prov_Activity</title>
<path fill="none" stroke="black" d="M429.35,-413.21C434.49,-421.5 440.82,-431.71 446.6,-441.04"/>
<polygon fill="none" stroke="black" points="443.53,-442.73 451.78,-449.39 449.48,-439.04 443.53,-442.73"/>
</g>
<!-- Activity&#45;&gt;Activity -->
<g id="edge15" class="edge">
<title>Activity&#45;&gt;Activity</title>
<path fill="none" stroke="black" d="M445.79,-397.78C455.78,-397.85 464,-397.09 464,-395.5 464,-394.58 461.25,-393.94 457.01,-393.57"/>
<polygon fill="black" stroke="black" points="457.41,-390.09 447.31,-393.27 457.19,-397.08 457.41,-390.09"/>
<polygon fill="white" stroke="none" points="464,-384.75 464,-406.25 571.75,-406.25 571.75,-384.75 464,-384.75"/>
<text xml:space="preserve" text-anchor="start" x="468" y="-391.75" font-family="Arial" font-size="11.00">occursDirectlyBefore</text>
</g>
<!-- Activity&#45;&gt;Activity -->
<g id="edge16" class="edge">
<title>Activity&#45;&gt;Activity</title>
<path fill="none" stroke="black" d="M445.8,-398.6C490.93,-401.3 571.75,-400.26 571.75,-395.5 571.75,-391.12 503.36,-389.89 457.27,-391.82"/>
<polygon fill="black" stroke="black" points="457.13,-388.33 447.31,-392.33 457.48,-395.32 457.13,-388.33"/>
<polygon fill="white" stroke="none" points="571.75,-384.75 571.75,-406.25 643.5,-406.25 643.5,-384.75 571.75,-384.75"/>
<text xml:space="preserve" text-anchor="start" x="575.75" y="-391.75" font-family="Arial" font-size="11.00">occursBefore</text>
</g>
<!-- Activity&#45;&gt;Activity -->
<g id="edge18" class="edge">
<title>Activity&#45;&gt;Activity</title>
<path fill="none" stroke="black" d="M445.73,-399.36C507.42,-404.36 643.5,-403.07 643.5,-395.5 643.5,-388.35 522.4,-386.8 456.89,-390.85"/>
<polygon fill="black" stroke="black" points="456.96,-387.34 447.24,-391.53 457.46,-394.32 456.96,-387.34"/>
<polygon fill="white" stroke="none" points="643.5,-384.75 643.5,-406.25 720.5,-406.25 720.5,-384.75 643.5,-384.75"/>
<text xml:space="preserve" text-anchor="start" x="647.5" y="-391.75" font-family="Arial" font-size="11.00">hasSubactivity</text>
</g>
<!-- Invis -->
<!-- Activity&#45;&gt;Invis -->
<!-- ActivityStatus -->
<g id="node5" class="node">
<title>ActivityStatus</title>
<g id="a_node5"><a xlink:href="../ActivityStatus" xlink:title="&lt;TABLE&gt;">
<polygon fill="lightgray" stroke="none" points="17,-387.38 17,-403.62 91,-403.62 91,-387.38 17,-387.38"/>
<text xml:space="preserve" text-anchor="start" x="18" y="-391.38" font-family="Arial" font-size="12.00">ActivityStatus</text>
<polygon fill="none" stroke="black" points="16,-386.38 16,-404.62 92,-404.62 92,-386.38 16,-386.38"/>
</a>
</g>
</g>
<!-- Activity&#45;&gt;ActivityStatus -->
<g id="edge12" class="edge">
<title>Activity&#45;&gt;ActivityStatus</title>
<path fill="none" stroke="black" d="M392.23,-395.5C331.25,-395.5 181.27,-395.5 103.13,-395.5"/>
<polygon fill="black" stroke="black" points="103.2,-392 93.2,-395.5 103.2,-399 103.2,-392"/>
<polygon fill="white" stroke="none" points="214,-398.5 214,-441.5 270,-441.5 270,-398.5 214,-398.5"/>
<text xml:space="preserve" text-anchor="start" x="218" y="-427" font-family="Arial" font-size="11.00">hasStatus</text>
<text xml:space="preserve" text-anchor="start" x="239" y="-405.5" font-family="Arial" font-size="11.00">1</text>
</g>
<!-- Location -->
<g id="node6" class="node">
<title>Location</title>
<g id="a_node6"><a xlink:href="../Location" xlink:title="&lt;TABLE&gt;">
<polygon fill="lightgray" stroke="none" points="19.12,-293.88 19.12,-310.12 66.88,-310.12 66.88,-293.88 19.12,-293.88"/>
<text xml:space="preserve" text-anchor="start" x="20.12" y="-297.88" font-family="Arial" font-size="12.00">Location</text>
<polygon fill="none" stroke="black" points="18.12,-292.88 18.12,-311.12 67.88,-311.12 67.88,-292.88 18.12,-292.88"/>
</a>
</g>
</g>
<!-- Activity&#45;&gt;Location -->
<g id="edge10" class="edge">
<title>Activity&#45;&gt;Location</title>
<path fill="none" stroke="black" d="M392.29,-394.01C310.6,-392.23 68.2,-384.83 44.5,-359.5 37.51,-352.03 35.97,-341.28 36.59,-331.16"/>
<polygon fill="black" stroke="black" points="40.05,-331.67 37.92,-321.29 33.11,-330.74 40.05,-331.67"/>
<polygon fill="white" stroke="none" points="44.5,-338 44.5,-359.5 144,-359.5 144,-338 44.5,-338"/>
<text xml:space="preserve" text-anchor="start" x="48.5" y="-345" font-family="Arial" font-size="11.00">associatedLocation</text>
</g>
<!-- State -->
<g id="node7" class="node">
<title>State</title>
<g id="a_node7"><a xlink:href="../State" xlink:title="&lt;TABLE&gt;">
<polygon fill="lightgray" stroke="none" points="50.12,-175.38 50.12,-191.62 79.88,-191.62 79.88,-175.38 50.12,-175.38"/>
<text xml:space="preserve" text-anchor="start" x="51.12" y="-179.38" font-family="Arial" font-size="12.00">State</text>
<polygon fill="none" stroke="black" points="49.12,-174.38 49.12,-192.62 80.88,-192.62 80.88,-174.38 49.12,-174.38"/>
</a>
</g>
</g>
<!-- Activity&#45;&gt;State -->
<g id="edge13" class="edge">
<title>Activity&#45;&gt;State</title>
<path fill="none" stroke="black" d="M392.02,-394.23C346.89,-392.99 253.89,-386.96 181,-359.5 173.44,-356.65 125.15,-326.22 120,-320 93.55,-288.01 78.46,-241.62 71,-212.27"/>
<polygon fill="black" stroke="black" points="74.43,-211.57 68.69,-202.66 67.62,-213.2 74.43,-211.57"/>
<polygon fill="white" stroke="none" points="120,-291.25 120,-312.75 173,-312.75 173,-291.25 120,-291.25"/>
<text xml:space="preserve" text-anchor="start" x="124" y="-298.25" font-family="Arial" font-size="11.00">hasEffect</text>
</g>
<!-- Activity&#45;&gt;State -->
<g id="edge14" class="edge">
<title>Activity&#45;&gt;State</title>
<path fill="none" stroke="black" d="M392.05,-389.42C364.38,-383.77 320.36,-373.54 284,-359.5 248.76,-345.89 239.13,-342.44 208.75,-320 190.61,-306.6 189.24,-299.64 173,-284 145.89,-257.88 114.12,-228.79 92.09,-208.85"/>
<polygon fill="black" stroke="black" points="94.47,-206.28 84.7,-202.17 89.77,-211.47 94.47,-206.28"/>
<polygon fill="white" stroke="none" points="208.75,-291.25 208.75,-312.75 276,-312.75 276,-291.25 208.75,-291.25"/>
<text xml:space="preserve" text-anchor="start" x="212.75" y="-298.25" font-family="Arial" font-size="11.00">causesState</text>
</g>
<!-- Activity&#45;&gt;State -->
<g id="edge22" class="edge">
<title>Activity&#45;&gt;State</title>
<path fill="none" stroke="black" d="M392.28,-377.61C370.17,-363.22 338.33,-341.52 312.5,-320 294.99,-305.42 294.68,-297.04 276,-284 220.1,-244.97 146.47,-214.24 102.61,-197.78"/>
<polygon fill="black" stroke="black" points="103.88,-194.51 93.28,-194.33 101.45,-201.08 103.88,-194.51"/>
<polygon fill="white" stroke="none" points="312.5,-291.25 312.5,-312.75 397,-312.75 397,-291.25 312.5,-291.25"/>
<text xml:space="preserve" text-anchor="start" x="316.5" y="-298.25" font-family="Arial" font-size="11.00">enabledByState</text>
</g>
<!-- Activity&#45;&gt;State -->
<g id="edge23" class="edge">
<title>Activity&#45;&gt;State</title>
<path fill="none" stroke="black" d="M420.48,-377.68C421.61,-353.89 420.03,-310.38 397,-284 321.25,-197.23 173.15,-184.59 103.26,-183.74"/>
<polygon fill="black" stroke="black" points="103.47,-180.24 93.45,-183.7 103.44,-187.24 103.47,-180.24"/>
<polygon fill="white" stroke="none" points="415.03,-291.25 415.03,-312.75 500.28,-312.75 500.28,-291.25 415.03,-291.25"/>
<text xml:space="preserve" text-anchor="start" x="419.03" y="-298.25" font-family="Arial" font-size="11.00">hasPrecondition</text>
</g>
<!-- time_Instant -->
<g id="node8" class="node">
<title>time_Instant</title>
<g id="a_node8"><a xlink:href="https://w3id.org/citydata/imported/time/latest/Instant" xlink:title="&lt;TABLE&gt;">
<polygon fill="lightgray" stroke="none" points="28.62,-98.88 28.62,-115.12 91.38,-115.12 91.38,-98.88 28.62,-98.88"/>
<text xml:space="preserve" text-anchor="start" x="29.62" y="-102.88" font-family="Arial" font-size="12.00">time:Instant</text>
<polygon fill="none" stroke="black" points="27.62,-97.88 27.62,-116.12 92.38,-116.12 92.38,-97.88 27.62,-97.88"/>
</a>
</g>
</g>
<!-- Activity&#45;&gt;time_Instant -->
<g id="edge11" class="edge">
<title>Activity&#45;&gt;time_Instant</title>
<path fill="none" stroke="black" d="M445.9,-393.02C520.06,-388.31 724.51,-370.86 763,-320 772.66,-307.24 772.34,-296.99 763,-284 684.2,-174.48 244.02,-124.94 103.28,-111.75"/>
<polygon fill="black" stroke="black" points="103.92,-108.29 93.64,-110.86 103.28,-115.26 103.92,-108.29"/>
<polygon fill="white" stroke="none" points="743.5,-223 743.5,-266 789,-266 789,-223 743.5,-223"/>
<text xml:space="preserve" text-anchor="start" x="747.5" y="-251.5" font-family="Arial" font-size="11.00">beginOf</text>
<text xml:space="preserve" text-anchor="start" x="758" y="-230" font-family="Arial" font-size="11.00">1..*</text>
</g>
<!-- Activity&#45;&gt;time_Instant -->
<g id="edge19" class="edge">
<title>Activity&#45;&gt;time_Instant</title>
<path fill="none" stroke="black" d="M445.54,-393.19C510.31,-389.73 674.95,-379.19 726,-359.5 789.05,-335.18 834.43,-276.39 793,-223 708.03,-113.5 247.94,-106.83 103.45,-107.49"/>
<polygon fill="black" stroke="black" points="103.51,-103.99 93.54,-107.55 103.56,-110.99 103.51,-103.99"/>
<polygon fill="white" stroke="none" points="808.93,-223 808.93,-266 846.18,-266 846.18,-223 808.93,-223"/>
<text xml:space="preserve" text-anchor="start" x="812.93" y="-251.5" font-family="Arial" font-size="11.00">endOf</text>
<text xml:space="preserve" text-anchor="start" x="819.31" y="-230" font-family="Arial" font-size="11.00">1..*</text>
</g>
<!-- time_Interval -->
<g id="node9" class="node">
<title>time_Interval</title>
<g id="a_node9"><a xlink:href="https://w3id.org/citydata/imported/time/latest/Interval" xlink:title="&lt;TABLE&gt;">
<polygon fill="lightgray" stroke="none" points="24.75,-25.88 24.75,-42.12 91.25,-42.12 91.25,-25.88 24.75,-25.88"/>
<text xml:space="preserve" text-anchor="start" x="25.75" y="-29.88" font-family="Arial" font-size="12.00">time:Interval</text>
<polygon fill="none" stroke="black" points="23.75,-24.88 23.75,-43.12 92.25,-43.12 92.25,-24.88 23.75,-24.88"/>
</a>
</g>
</g>
<!-- Activity&#45;&gt;time_Interval -->
<g id="edge9" class="edge">
<title>Activity&#45;&gt;time_Interval</title>
<path fill="none" stroke="black" d="M445.77,-393.77C503.59,-391.76 644.2,-384.5 759,-359.5 835.56,-342.83 926,-381.36 926,-303 926,-303 926,-303 926,-106 926,-64.32 281.78,-41.76 103.34,-36.31"/>
<polygon fill="black" stroke="black" points="103.64,-32.82 93.54,-36.01 103.43,-39.81 103.64,-32.82"/>
<polygon fill="white" stroke="none" points="926,-162 926,-205 999.25,-205 999.25,-162 926,-162"/>
<text xml:space="preserve" text-anchor="start" x="930" y="-190.5" font-family="Arial" font-size="11.00">scheduledFor</text>
<text xml:space="preserve" text-anchor="start" x="959.62" y="-169" font-family="Arial" font-size="11.00">1</text>
</g>
<!-- Activity&#45;&gt;time_Interval -->
<g id="edge17" class="edge">
<title>Activity&#45;&gt;time_Interval</title>
<path fill="none" stroke="black" d="M445.86,-393.39C564.43,-388.14 1035,-363.48 1035,-303 1035,-303 1035,-303 1035,-106 1035,-58.68 296.37,-39.97 103.58,-35.89"/>
<polygon fill="black" stroke="black" points="103.78,-32.4 93.71,-35.69 103.64,-39.4 103.78,-32.4"/>
<polygon fill="white" stroke="none" points="1035,-162 1035,-205 1085,-205 1085,-162 1035,-162"/>
<text xml:space="preserve" text-anchor="start" x="1039" y="-190.5" font-family="Arial" font-size="11.00">occursAt</text>
<text xml:space="preserve" text-anchor="start" x="1051.75" y="-169" font-family="Arial" font-size="11.00">1..*</text>
</g>
<!-- Invis&#45;&gt;ActivityStatus -->
<!-- ActivityStatus&#45;&gt;Location -->
<!-- Location&#45;&gt;State -->
<!-- State&#45;&gt;Activity -->
<g id="edge20" class="edge">
<title>State&#45;&gt;Activity</title>
<path fill="none" stroke="black" d="M91.92,-185.33C165.94,-187.93 371.15,-197.32 433,-223 483.33,-243.9 531.06,-270.62 508,-320 496.98,-343.59 474.41,-362.35 454.76,-375.14"/>
<polygon fill="black" stroke="black" points="444.57,-377.36 454.91,-375.05 448.26,-383.3 444.57,-377.36"/>
<polygon fill="white" stroke="none" points="513.97,-291.25 513.97,-312.75 630.72,-312.75 630.72,-291.25 513.97,-291.25"/>
<text xml:space="preserve" text-anchor="start" x="517.97" y="-298.25" font-family="Arial" font-size="11.00">inverse enablesActivity</text>
</g>
<!-- State&#45;&gt;Activity -->
<g id="edge21" class="edge">
<title>State&#45;&gt;Activity</title>
<path fill="none" stroke="black" d="M91.96,-184.43C196.57,-184.81 572.9,-192.6 635,-284 681.59,-352.57 528.87,-381.02 455.76,-390.51"/>
<polygon fill="black" stroke="black" points="445.65,-388.24 456.01,-390.48 446.52,-395.18 445.65,-388.24"/>
<polygon fill="white" stroke="none" points="643.68,-291.25 643.68,-312.75 758.93,-312.75 758.93,-291.25 643.68,-291.25"/>
<text xml:space="preserve" text-anchor="start" x="647.68" y="-298.25" font-family="Arial" font-size="11.00">inverse preconditionOf</text>
</g>
<!-- State&#45;&gt;time_Instant -->
<!-- time_Instant&#45;&gt;time_Interval -->
</g>
</svg>
