<?xml version="1.0" encoding="UTF-8" standalone="no"?>
<!DOCTYPE svg PUBLIC "-//W3C//DTD SVG 1.1//EN"
 "http://www.w3.org/Graphics/SVG/1.1/DTD/svg11.dtd">
<!-- Generated by graphviz version 14.0.2 (20251019.1705)
 -->
<!-- Pages: 1 -->
<svg width="961pt" height="493pt"
 viewBox="0.00 0.00 961.00 493.00" xmlns="http://www.w3.org/2000/svg" xmlns:xlink="http://www.w3.org/1999/xlink">
<g id="graph0" class="graph" transform="scale(1 1) rotate(0) translate(4 489)">
<polygon fill="white" stroke="none" points="-4,4 -4,-489 957.25,-489 957.25,4 -4,4"/>
<g id="clust2" class="cluster">
<title>cluster_associated</title>
</g>
<!-- Activity -->
<g id="node1" class="node">
<title>Activity</title>
<g id="a_node1"><a xlink:href="../Activity" xlink:title="&lt;TABLE&gt;">
<polygon fill="lightgray" stroke="none" points="422.88,-369.88 422.88,-386.12 463.12,-386.12 463.12,-369.88 422.88,-369.88"/>
<text xml:space="preserve" text-anchor="start" x="423.88" y="-373.73" font-family="Arial" font-size="12.00">Activity</text>
<polygon fill="none" stroke="black" points="421.88,-368.88 421.88,-387.12 464.12,-387.12 464.12,-368.88 421.88,-368.88"/>
</a>
</g>
</g>
<!-- Activity&#45;&gt;Activity -->
<g id="edge9" class="edge">
<title>Activity&#45;&gt;Activity</title>
<path fill="none" stroke="black" d="M469.79,-380.28C479.78,-380.35 488,-379.59 488,-378 488,-377.08 485.25,-376.44 481.01,-376.07"/>
<polygon fill="black" stroke="black" points="481.41,-372.59 471.31,-375.77 481.19,-379.58 481.41,-372.59"/>
<text xml:space="preserve" text-anchor="middle" x="525.5" y="-381.05" font-family="Arial" font-size="11.00"> hasSubactivity </text>
<text xml:space="preserve" text-anchor="middle" x="525.5" y="-367.55" font-family="Arial" font-size="11.00"> «only» &#160;</text>
</g>
<!-- Activity&#45;&gt;Activity -->
<g id="edge20" class="edge">
<title>Activity&#45;&gt;Activity</title>
<path fill="none" stroke="black" d="M469.75,-381.37C506.44,-383.72 563,-382.6 563,-378 563,-373.85 516.95,-372.53 481,-374.04"/>
<polygon fill="black" stroke="black" points="481.07,-370.53 471.26,-374.55 481.43,-377.52 481.07,-370.53"/>
<text xml:space="preserve" text-anchor="middle" x="597.88" y="-381.05" font-family="Arial" font-size="11.00"> occursBefore </text>
<text xml:space="preserve" text-anchor="middle" x="597.88" y="-367.55" font-family="Arial" font-size="11.00"> «only» &#160;</text>
</g>
<!-- Activity&#45;&gt;Activity -->
<g id="edge21" class="edge">
<title>Activity&#45;&gt;Activity</title>
<path fill="none" stroke="black" d="M469.75,-382.1C524.27,-386.82 632.75,-385.45 632.75,-378 632.75,-371.03 537.81,-369.38 480.92,-373.06"/>
<polygon fill="black" stroke="black" points="480.97,-369.55 471.26,-373.78 481.49,-376.53 480.97,-369.55"/>
<text xml:space="preserve" text-anchor="middle" x="685.62" y="-381.05" font-family="Arial" font-size="11.00"> occursDirectlyBefore </text>
<text xml:space="preserve" text-anchor="middle" x="685.62" y="-367.55" font-family="Arial" font-size="11.00"> «only» &#160;</text>
</g>
<!-- Invis -->
<!-- Activity&#45;&gt;Invis -->
<!-- ActivityStatus -->
<g id="node3" class="node">
<title>ActivityStatus</title>
<g id="a_node3"><a xlink:href="../ActivityStatus" xlink:title="&lt;TABLE&gt;">
<polygon fill="lightgray" stroke="none" points="17,-369.88 17,-386.12 91,-386.12 91,-369.88 17,-369.88"/>
<text xml:space="preserve" text-anchor="start" x="18" y="-373.73" font-family="Arial" font-size="12.00">ActivityStatus</text>
<polygon fill="none" stroke="black" points="16,-368.88 16,-387.12 92,-387.12 92,-368.88 16,-368.88"/>
</a>
</g>
</g>
<!-- Activity&#45;&gt;ActivityStatus -->
<g id="edge10" class="edge">
<title>Activity&#45;&gt;ActivityStatus</title>
<path fill="none" stroke="black" d="M416.03,-378C351.22,-378 185.96,-378 103.03,-378"/>
<polygon fill="black" stroke="black" points="103.17,-374.5 93.17,-378 103.17,-381.5 103.17,-374.5"/>
<text xml:space="preserve" text-anchor="middle" x="254" y="-397.55" font-family="Arial" font-size="11.00"> hasStatus </text>
<text xml:space="preserve" text-anchor="middle" x="254" y="-384.05" font-family="Arial" font-size="11.00"> «exactly 1» &#160;</text>
</g>
<!-- Location -->
<g id="node4" class="node">
<title>Location</title>
<g id="a_node4"><a xlink:href="../Location" xlink:title="&lt;TABLE&gt;">
<polygon fill="lightgray" stroke="none" points="19.12,-270.88 19.12,-287.12 66.88,-287.12 66.88,-270.88 19.12,-270.88"/>
<text xml:space="preserve" text-anchor="start" x="20.12" y="-274.73" font-family="Arial" font-size="12.00">Location</text>
<polygon fill="none" stroke="black" points="18.12,-269.88 18.12,-288.12 67.88,-288.12 67.88,-269.88 18.12,-269.88"/>
</a>
</g>
</g>
<!-- Activity&#45;&gt;Location -->
<g id="edge19" class="edge">
<title>Activity&#45;&gt;Location</title>
<path fill="none" stroke="black" d="M416.1,-376.67C330.7,-375.33 69.9,-369.06 44.5,-342 36.16,-333.11 34.9,-319.95 36.1,-308.04"/>
<polygon fill="black" stroke="black" points="39.54,-308.68 37.69,-298.25 32.63,-307.55 39.54,-308.68"/>
<text xml:space="preserve" text-anchor="middle" x="93.25" y="-331.55" font-family="Arial" font-size="11.00"> associatedLocation </text>
<text xml:space="preserve" text-anchor="middle" x="93.25" y="-318.05" font-family="Arial" font-size="11.00"> «only» &#160;</text>
</g>
<!-- State -->
<g id="node5" class="node">
<title>State</title>
<g id="a_node5"><a xlink:href="../State" xlink:title="&lt;TABLE&gt;">
<polygon fill="lightgray" stroke="none" points="50.12,-171.88 50.12,-188.12 79.88,-188.12 79.88,-171.88 50.12,-171.88"/>
<text xml:space="preserve" text-anchor="start" x="51.12" y="-175.72" font-family="Arial" font-size="12.00">State</text>
<polygon fill="none" stroke="black" points="49.12,-170.88 49.12,-189.12 80.88,-189.12 80.88,-170.88 49.12,-170.88"/>
</a>
</g>
</g>
<!-- Activity&#45;&gt;State -->
<g id="edge13" class="edge">
<title>Activity&#45;&gt;State</title>
<path fill="none" stroke="black" d="M416.37,-377.9C367.4,-378.6 260.62,-375.71 179,-342 175.19,-340.43 122.6,-300.2 120,-297 98.32,-270.24 82.77,-233.52 73.85,-208.62"/>
<polygon fill="black" stroke="black" points="77.17,-207.51 70.61,-199.19 70.55,-209.78 77.17,-207.51"/>
<text xml:space="preserve" text-anchor="middle" x="145.5" y="-282.05" font-family="Arial" font-size="11.00"> hasEffect </text>
<text xml:space="preserve" text-anchor="middle" x="145.5" y="-268.55" font-family="Arial" font-size="11.00"> «only» &#160;</text>
</g>
<!-- Activity&#45;&gt;State -->
<g id="edge14" class="edge">
<title>Activity&#45;&gt;State</title>
<path fill="none" stroke="black" d="M416.24,-373.75C368.36,-366.83 266.63,-346.97 197.75,-297 181.61,-285.3 185.04,-275.15 171,-261 149.73,-239.57 122.49,-219.13 100.95,-204.28"/>
<polygon fill="black" stroke="black" points="102.98,-201.43 92.74,-198.71 99.05,-207.23 102.98,-201.43"/>
<text xml:space="preserve" text-anchor="middle" x="230.38" y="-282.05" font-family="Arial" font-size="11.00"> causesState </text>
<text xml:space="preserve" text-anchor="middle" x="230.38" y="-268.55" font-family="Arial" font-size="11.00"> «only» &#160;</text>
</g>
<!-- time_Instant -->
<g id="node6" class="node">
<title>time_Instant</title>
<g id="a_node6"><a xlink:href="https://w3id.org/citydata/imported/time/latest/Instant" xlink:title="&lt;TABLE&gt;">
<polygon fill="lightgray" stroke="none" points="28.62,-98.88 28.62,-115.12 91.38,-115.12 91.38,-98.88 28.62,-98.88"/>
<text xml:space="preserve" text-anchor="start" x="29.62" y="-102.72" font-family="Arial" font-size="12.00">time:Instant</text>
<polygon fill="none" stroke="black" points="27.62,-97.88 27.62,-116.12 92.38,-116.12 92.38,-97.88 27.62,-97.88"/>
</a>
</g>
</g>
<!-- Activity&#45;&gt;time_Instant -->
<g id="edge17" class="edge">
<title>Activity&#45;&gt;time_Instant</title>
<path fill="none" stroke="black" d="M469.94,-365.91C513.35,-346.43 590.83,-304.05 559,-261 503.53,-185.97 214.32,-132.63 103.38,-114.65"/>
<polygon fill="black" stroke="black" points="104.22,-111.24 93.79,-113.11 103.11,-118.15 104.22,-111.24"/>
<text xml:space="preserve" text-anchor="middle" x="563.37" y="-232.55" font-family="Arial" font-size="11.00"> beginOf </text>
<text xml:space="preserve" text-anchor="middle" x="563.37" y="-219.05" font-family="Arial" font-size="11.00"> «some» &#160;</text>
</g>
<!-- Activity&#45;&gt;time_Instant -->
<g id="edge18" class="edge">
<title>Activity&#45;&gt;time_Instant</title>
<path fill="none" stroke="black" d="M469.61,-372.99C492.08,-368.53 524.16,-359.49 547,-342 593.97,-306.02 625.39,-263.42 590,-216 531.69,-137.88 219.36,-115.44 103.39,-109.74"/>
<polygon fill="black" stroke="black" points="103.82,-106.26 93.66,-109.29 103.49,-113.25 103.82,-106.26"/>
<text xml:space="preserve" text-anchor="middle" x="627" y="-232.55" font-family="Arial" font-size="11.00"> endOf </text>
<text xml:space="preserve" text-anchor="middle" x="627" y="-219.05" font-family="Arial" font-size="11.00"> «some» &#160;</text>
</g>
<!-- time_Interval -->
<g id="node7" class="node">
<title>time_Interval</title>
<g id="a_node7"><a xlink:href="https://w3id.org/citydata/imported/time/latest/Interval" xlink:title="&lt;TABLE&gt;">
<polygon fill="lightgray" stroke="none" points="24.75,-25.88 24.75,-42.12 91.25,-42.12 91.25,-25.88 24.75,-25.88"/>
<text xml:space="preserve" text-anchor="start" x="25.75" y="-29.73" font-family="Arial" font-size="12.00">time:Interval</text>
<polygon fill="none" stroke="black" points="23.75,-24.88 23.75,-43.12 92.25,-43.12 92.25,-24.88 23.75,-24.88"/>
</a>
</g>
</g>
<!-- Activity&#45;&gt;time_Interval -->
<g id="edge15" class="edge">
<title>Activity&#45;&gt;time_Interval</title>
<path fill="none" stroke="black" d="M469.93,-374.81C498.27,-371.45 543.23,-363 576,-342 631.65,-306.33 689.85,-272.16 655,-216 595.12,-119.51 232.75,-59.65 103.64,-41.15"/>
<polygon fill="black" stroke="black" points="104.13,-37.69 93.74,-39.75 103.15,-44.62 104.13,-37.69"/>
<text xml:space="preserve" text-anchor="middle" x="675.37" y="-183.05" font-family="Arial" font-size="11.00"> scheduledFor </text>
<text xml:space="preserve" text-anchor="middle" x="675.37" y="-169.55" font-family="Arial" font-size="11.00"> «exactly 1» &#160;</text>
</g>
<!-- Activity&#45;&gt;time_Interval -->
<g id="edge16" class="edge">
<title>Activity&#45;&gt;time_Interval</title>
<path fill="none" stroke="black" d="M469.9,-374.72C547.29,-367.43 765,-341.45 765,-280 765,-280 765,-280 765,-106 765,-39.27 259.98,-34.62 103.6,-34.78"/>
<polygon fill="black" stroke="black" points="103.61,-31.28 93.61,-34.8 103.62,-38.28 103.61,-31.28"/>
<text xml:space="preserve" text-anchor="middle" x="789" y="-183.05" font-family="Arial" font-size="11.00"> occursAt </text>
<text xml:space="preserve" text-anchor="middle" x="789" y="-169.55" font-family="Arial" font-size="11.00"> «some» &#160;</text>
</g>
<!-- ActivityThing -->
<g id="node8" class="node">
<title>ActivityThing</title>
<g id="a_node8"><a xlink:href="../ActivityThing" xlink:title="&lt;TABLE&gt;">
<polygon fill="lightgray" stroke="none" points="794.5,-270.88 794.5,-287.12 865.5,-287.12 865.5,-270.88 794.5,-270.88"/>
<text xml:space="preserve" text-anchor="start" x="795.5" y="-274.73" font-family="Arial" font-size="12.00">ActivityThing</text>
<polygon fill="none" stroke="black" points="793.5,-269.88 793.5,-288.12 866.5,-288.12 866.5,-269.88 793.5,-269.88"/>
</a>
</g>
</g>
<!-- Activity&#45;&gt;ActivityThing -->
<g id="edge1" class="edge">
<title>Activity&#45;&gt;ActivityThing</title>
<path fill="none" stroke="black" d="M469.85,-376.8C539.75,-375.86 725.66,-370.67 779,-342 794.07,-333.9 806.41,-319.32 815.17,-306.33"/>
<polygon fill="none" stroke="black" points="817.98,-308.45 820.36,-298.13 812.06,-304.71 817.98,-308.45"/>
</g>
<!-- prov_Activity -->
<g id="node9" class="node">
<title>prov_Activity</title>
<g id="a_node9"><a xlink:href="https://w3id.org/citydata/imported/prov/latest/Activity" xlink:title="&lt;TABLE&gt;">
<polygon fill="lightgray" stroke="none" points="885.75,-270.88 885.75,-287.12 952.25,-287.12 952.25,-270.88 885.75,-270.88"/>
<text xml:space="preserve" text-anchor="start" x="886.75" y="-274.73" font-family="Arial" font-size="12.00">prov:Activity</text>
<polygon fill="none" stroke="black" points="884.75,-269.88 884.75,-288.12 953.25,-288.12 953.25,-269.88 884.75,-269.88"/>
</a>
</g>
</g>
<!-- Activity&#45;&gt;prov_Activity -->
<g id="edge2" class="edge">
<title>Activity&#45;&gt;prov_Activity</title>
<path fill="none" stroke="black" d="M469.94,-375.83C543.05,-372.44 743.94,-361.56 807,-342 835.22,-333.25 864.34,-316.87 885.81,-303.14"/>
<polygon fill="none" stroke="black" points="887.68,-306.09 894.13,-297.69 883.85,-300.24 887.68,-306.09"/>
</g>
<!-- Invis&#45;&gt;ActivityStatus -->
<!-- ActivityStatus&#45;&gt;Location -->
<!-- Location&#45;&gt;State -->
<!-- State&#45;&gt;Activity -->
<g id="edge11" class="edge">
<title>State&#45;&gt;Activity</title>
<path fill="none" stroke="black" d="M91.84,-184.08C121.31,-188.25 169.45,-197.42 207,-216 258.5,-241.48 260.51,-264.29 307.75,-297 340.29,-319.54 379.4,-342.22 407.17,-357.65"/>
<polygon fill="black" stroke="black" points="414,-365.42 406.93,-357.52 417.38,-359.29 414,-365.42"/>
<text xml:space="preserve" text-anchor="middle" x="364.38" y="-282.05" font-family="Arial" font-size="11.00"> inverse preconditionOf </text>
<text xml:space="preserve" text-anchor="middle" x="364.38" y="-268.55" font-family="Arial" font-size="11.00"> «only» &#160;</text>
</g>
<!-- State&#45;&gt;Activity -->
<g id="edge12" class="edge">
<title>State&#45;&gt;Activity</title>
<path fill="none" stroke="black" d="M92,-183.23C167.03,-190 375.56,-212.86 421,-261 443.41,-284.74 446.45,-323.83 445.55,-349.99"/>
<polygon fill="black" stroke="black" points="441.5,-359.63 445.56,-349.84 448.49,-360.02 441.5,-359.63"/>
<text xml:space="preserve" text-anchor="middle" x="497.26" y="-282.05" font-family="Arial" font-size="11.00"> inverse enablesActivity </text>
<text xml:space="preserve" text-anchor="middle" x="497.26" y="-268.55" font-family="Arial" font-size="11.00"> «only» &#160;</text>
</g>
<!-- State&#45;&gt;time_Instant -->
<!-- time_Instant&#45;&gt;time_Interval -->
</g>
</svg>
