<?xml version="1.0" encoding="UTF-8" standalone="no"?>
<!DOCTYPE svg PUBLIC "-//W3C//DTD SVG 1.1//EN"
 "http://www.w3.org/Graphics/SVG/1.1/DTD/svg11.dtd">
<!-- Generated by graphviz version 14.1.3 (20260303.0454)
 -->
<!-- Pages: 1 -->
<svg width="524pt" height="446pt"
 viewBox="0.00 0.00 524.00 446.00" xmlns="http://www.w3.org/2000/svg" xmlns:xlink="http://www.w3.org/1999/xlink">
<g id="graph0" class="graph" transform="scale(1 1) rotate(0) translate(4 441.5)">
<polygon fill="white" stroke="none" points="-4,4 -4,-441.5 520.25,-441.5 520.25,4 -4,4"/>
<g id="clust3" class="cluster">
<title>cluster_associated</title>
</g>
<!-- AgentThing -->
<g id="node1" class="node">
<title>AgentThing</title>
<g id="a_node1"><a xlink:href="../AgentThing" xlink:title="&lt;TABLE&gt;">
<polygon fill="lightgray" stroke="none" points="48.88,-411.38 48.88,-427.62 113.12,-427.62 113.12,-411.38 48.88,-411.38"/>
<text xml:space="preserve" text-anchor="start" x="49.88" y="-415.38" font-family="Arial" font-size="12.00">AgentThing</text>
<polygon fill="none" stroke="black" points="47.88,-410.38 47.88,-428.62 114.12,-428.62 114.12,-410.38 47.88,-410.38"/>
</a>
</g>
</g>
<!-- AgreementThing -->
<g id="node2" class="node">
<title>AgreementThing</title>
<g id="a_node2"><a xlink:href="../AgreementThing" xlink:title="&lt;TABLE&gt;">
<polygon fill="lightgray" stroke="none" points="133.38,-411.38 133.38,-427.62 224.62,-427.62 224.62,-411.38 133.38,-411.38"/>
<text xml:space="preserve" text-anchor="start" x="134.38" y="-415.38" font-family="Arial" font-size="12.00">AgreementThing</text>
<polygon fill="none" stroke="black" points="132.38,-410.38 132.38,-428.62 225.62,-428.62 225.62,-410.38 132.38,-410.38"/>
</a>
</g>
</g>
<!-- foaf_Agent -->
<g id="node3" class="node">
<title>foaf_Agent</title>
<g id="a_node3"><a xlink:href="https://w3id.org/citydata/imported/foaf/latest/Agent" xlink:title="&lt;TABLE&gt;">
<polygon fill="lightgray" stroke="none" points="245,-411.38 245,-427.62 301,-427.62 301,-411.38 245,-411.38"/>
<text xml:space="preserve" text-anchor="start" x="246" y="-415.38" font-family="Arial" font-size="12.00">foaf:Agent</text>
<polygon fill="none" stroke="black" points="244,-410.38 244,-428.62 302,-428.62 302,-410.38 244,-410.38"/>
</a>
</g>
</g>
<!-- prov_Agent -->
<g id="node4" class="node">
<title>prov_Agent</title>
<g id="a_node4"><a xlink:href="https://w3id.org/citydata/imported/prov/latest/Agent" xlink:title="&lt;TABLE&gt;">
<polygon fill="lightgray" stroke="none" points="321.12,-411.38 321.12,-427.62 380.88,-427.62 380.88,-411.38 321.12,-411.38"/>
<text xml:space="preserve" text-anchor="start" x="322.12" y="-415.38" font-family="Arial" font-size="12.00">prov:Agent</text>
<polygon fill="none" stroke="black" points="320.12,-410.38 320.12,-428.62 381.88,-428.62 381.88,-410.38 320.12,-410.38"/>
</a>
</g>
</g>
<!-- Agent -->
<g id="node5" class="node">
<title>Agent</title>
<g id="a_node5"><a xlink:href="../Agent" xlink:title="&lt;TABLE&gt;">
<polygon fill="lightgray" stroke="none" points="161.25,-346.5 161.25,-362.75 290.75,-362.75 290.75,-346.5 161.25,-346.5"/>
<text xml:space="preserve" text-anchor="start" x="210.25" y="-350.5" font-family="Arial" font-size="12.00">Agent</text>
<text xml:space="preserve" text-anchor="start" x="162.25" y="-334.25" font-family="Arial" font-size="12.00">hasName : xsd:string [1]</text>
<polygon fill="none" stroke="black" points="160.25,-329.25 160.25,-363.75 291.75,-363.75 291.75,-329.25 160.25,-329.25"/>
</a>
</g>
</g>
<!-- Agent&#45;&gt;AgentThing -->
<g id="edge1" class="edge">
<title>Agent&#45;&gt;AgentThing</title>
<path fill="none" stroke="black" d="M191.46,-364.41C171.26,-374.3 145.6,-386.87 124.09,-397.4"/>
<polygon fill="none" stroke="black" points="122.7,-394.18 115.26,-401.72 125.78,-400.47 122.7,-394.18"/>
</g>
<!-- Agent&#45;&gt;AgreementThing -->
<g id="edge2" class="edge">
<title>Agent&#45;&gt;AgreementThing</title>
<path fill="none" stroke="black" d="M214.94,-364.21C209.39,-372.59 202.55,-382.93 196.32,-392.34"/>
<polygon fill="none" stroke="black" points="193.58,-390.14 190.97,-400.41 199.41,-394.01 193.58,-390.14"/>
</g>
<!-- Agent&#45;&gt;foaf_Agent -->
<g id="edge3" class="edge">
<title>Agent&#45;&gt;foaf_Agent</title>
<path fill="none" stroke="black" d="M237.06,-364.21C242.61,-372.59 249.45,-382.93 255.68,-392.34"/>
<polygon fill="none" stroke="black" points="252.59,-394.01 261.03,-400.41 258.42,-390.14 252.59,-394.01"/>
</g>
<!-- Agent&#45;&gt;prov_Agent -->
<g id="edge4" class="edge">
<title>Agent&#45;&gt;prov_Agent</title>
<path fill="none" stroke="black" d="M255.84,-364.45C272.5,-373.91 293.45,-385.81 311.45,-396.04"/>
<polygon fill="none" stroke="black" points="309.64,-399.03 320.06,-400.93 313.09,-392.94 309.64,-399.03"/>
</g>
<!-- Invis -->
<!-- Agent&#45;&gt;Invis -->
<!-- Activity -->
<g id="node7" class="node">
<title>Activity</title>
<g id="a_node7"><a xlink:href="../Activity" xlink:title="&lt;TABLE&gt;">
<polygon fill="lightgray" stroke="none" points="60.88,-171.88 60.88,-188.12 101.12,-188.12 101.12,-171.88 60.88,-171.88"/>
<text xml:space="preserve" text-anchor="start" x="61.88" y="-175.88" font-family="Arial" font-size="12.00">Activity</text>
<polygon fill="none" stroke="black" points="59.88,-170.88 59.88,-189.12 102.12,-189.12 102.12,-170.88 59.88,-170.88"/>
</a>
</g>
</g>
<!-- Agent&#45;&gt;Activity -->
<g id="edge10" class="edge">
<title>Agent&#45;&gt;Activity</title>
<path fill="none" stroke="black" d="M163.67,-328.52C147.79,-321.68 131.93,-312.29 120.25,-299.5 97.18,-274.24 87.64,-235.09 83.71,-208.77"/>
<polygon fill="black" stroke="black" points="87.23,-208.65 82.47,-199.18 80.28,-209.55 87.23,-208.65"/>
<polygon fill="white" stroke="none" points="120.25,-262.75 120.25,-284.25 171,-284.25 171,-262.75 120.25,-262.75"/>
<text xml:space="preserve" text-anchor="start" x="124.25" y="-269.75" font-family="Arial" font-size="11.00">performs</text>
</g>
<!-- AtomicAgreement -->
<g id="node8" class="node">
<title>AtomicAgreement</title>
<g id="a_node8"><a xlink:href="../AtomicAgreement" xlink:title="&lt;TABLE&gt;">
<polygon fill="lightgray" stroke="none" points="47.38,-98.88 47.38,-115.12 144.62,-115.12 144.62,-98.88 47.38,-98.88"/>
<text xml:space="preserve" text-anchor="start" x="48.38" y="-102.88" font-family="Arial" font-size="12.00">AtomicAgreement</text>
<polygon fill="none" stroke="black" points="46.38,-97.88 46.38,-116.12 145.62,-116.12 145.62,-97.88 46.38,-97.88"/>
</a>
</g>
</g>
<!-- Agent&#45;&gt;AtomicAgreement -->
<g id="edge11" class="edge">
<title>Agent&#45;&gt;AtomicAgreement</title>
<path fill="none" stroke="black" d="M219.08,-328.71C210.32,-309.11 193.58,-276.66 171,-255.5 158.45,-243.74 147.45,-250.96 136.75,-237.5 115.17,-210.34 127.69,-195 117,-162 114.15,-153.22 110.65,-143.79 107.32,-135.31"/>
<polygon fill="black" stroke="black" points="110.66,-134.23 103.69,-126.25 104.16,-136.83 110.66,-134.23"/>
<polygon fill="white" stroke="none" points="136.75,-216 136.75,-237.5 204,-237.5 204,-216 136.75,-216"/>
<text xml:space="preserve" text-anchor="start" x="140.75" y="-223" font-family="Arial" font-size="11.00">hasNoClaim</text>
</g>
<!-- Agent&#45;&gt;AtomicAgreement -->
<g id="edge12" class="edge">
<title>Agent&#45;&gt;AtomicAgreement</title>
<path fill="none" stroke="black" d="M226.32,-328.54C226.13,-302.77 223.05,-252.87 204,-216 186.3,-181.74 153.86,-151.55 129.14,-131.87"/>
<polygon fill="black" stroke="black" points="131.33,-129.14 121.28,-125.78 127.04,-134.67 131.33,-129.14"/>
<polygon fill="white" stroke="none" points="212.97,-216 212.97,-237.5 265.97,-237.5 265.97,-216 212.97,-216"/>
<text xml:space="preserve" text-anchor="start" x="216.97" y="-223" font-family="Arial" font-size="11.00">hasClaim</text>
</g>
<!-- Agent&#45;&gt;AtomicAgreement -->
<g id="edge13" class="edge">
<title>Agent&#45;&gt;AtomicAgreement</title>
<path fill="none" stroke="black" d="M239.93,-328.89C259.36,-303.58 290.06,-254.28 270,-216 246.82,-171.77 196.71,-143.56 156.18,-127.11"/>
<polygon fill="black" stroke="black" points="157.57,-123.9 146.99,-123.53 155.03,-130.42 157.57,-123.9"/>
<polygon fill="white" stroke="none" points="276.17,-216 276.17,-237.5 323.92,-237.5 323.92,-216 276.17,-216"/>
<text xml:space="preserve" text-anchor="start" x="280.17" y="-223" font-family="Arial" font-size="11.00">hasDuty</text>
</g>
<!-- Agent&#45;&gt;AtomicAgreement -->
<g id="edge14" class="edge">
<title>Agent&#45;&gt;AtomicAgreement</title>
<path fill="none" stroke="black" d="M256.34,-328.62C294.05,-305.27 350.82,-260.9 328,-216 295.97,-152.97 214.11,-126.57 156.75,-115.61"/>
<polygon fill="black" stroke="black" points="157.57,-112.21 147.11,-113.89 156.34,-119.1 157.57,-112.21"/>
<polygon fill="white" stroke="none" points="333.24,-216 333.24,-237.5 399.74,-237.5 399.74,-216 333.24,-216"/>
<text xml:space="preserve" text-anchor="start" x="337.24" y="-223" font-family="Arial" font-size="11.00">hasPrivilege</text>
</g>
<!-- TerminalResourceState -->
<g id="node9" class="node">
<title>TerminalResourceState</title>
<g id="a_node9"><a xlink:href="../TerminalResourceState" xlink:title="&lt;TABLE&gt;">
<polygon fill="lightgray" stroke="none" points="17.38,-25.88 17.38,-42.12 144.62,-42.12 144.62,-25.88 17.38,-25.88"/>
<text xml:space="preserve" text-anchor="start" x="18.38" y="-29.88" font-family="Arial" font-size="12.00">TerminalResourceState</text>
<polygon fill="none" stroke="black" points="16.38,-24.88 16.38,-43.12 145.62,-43.12 145.62,-24.88 16.38,-24.88"/>
</a>
</g>
</g>
<!-- Agent&#45;&gt;TerminalResourceState -->
<g id="edge9" class="edge">
<title>Agent&#45;&gt;TerminalResourceState</title>
<path fill="none" stroke="black" d="M291.62,-338.07C359.29,-328.53 455,-308.94 455,-274.5 455,-274.5 455,-274.5 455,-106 455,-45.84 265.85,-35.34 156.58,-34.29"/>
<polygon fill="black" stroke="black" points="156.83,-30.79 146.81,-34.22 156.78,-37.79 156.83,-30.79"/>
<polygon fill="white" stroke="none" points="455,-169.25 455,-190.75 516.25,-190.75 516.25,-169.25 455,-169.25"/>
<text xml:space="preserve" text-anchor="start" x="459" y="-176.25" font-family="Arial" font-size="11.00">resourceOf</text>
</g>
<!-- Invis&#45;&gt;Activity -->
<!-- Activity&#45;&gt;AtomicAgreement -->
<!-- AtomicAgreement&#45;&gt;TerminalResourceState -->
</g>
</svg>
