<?xml version="1.0" encoding="UTF-8" standalone="no"?>
<!DOCTYPE svg PUBLIC "-//W3C//DTD SVG 1.1//EN"
 "http://www.w3.org/Graphics/SVG/1.1/DTD/svg11.dtd">
<!-- Generated by graphviz version 14.1.3 (20260303.0454)
 -->
<!-- Pages: 1 -->
<svg width="405pt" height="546pt"
 viewBox="0.00 0.00 405.00 546.00" xmlns="http://www.w3.org/2000/svg" xmlns:xlink="http://www.w3.org/1999/xlink">
<g id="graph0" class="graph" transform="scale(1 1) rotate(0) translate(4 542)">
<polygon fill="white" stroke="none" points="-4,4 -4,-542 401.25,-542 401.25,4 -4,4"/>
<g id="clust3" class="cluster">
<title>cluster_associated</title>
</g>
<!-- AgreementThing -->
<g id="node1" class="node">
<title>AgreementThing</title>
<g id="a_node1"><a xlink:href="../AgreementThing" xlink:title="&lt;TABLE&gt;">
<polygon fill="lightgray" stroke="none" points="163.38,-511.88 163.38,-528.12 254.62,-528.12 254.62,-511.88 163.38,-511.88"/>
<text xml:space="preserve" text-anchor="start" x="164.38" y="-515.88" font-family="Arial" font-size="12.00">AgreementThing</text>
<polygon fill="none" stroke="black" points="162.38,-510.88 162.38,-529.12 255.62,-529.12 255.62,-510.88 162.38,-510.88"/>
</a>
</g>
</g>
<!-- Agreement -->
<g id="node2" class="node">
<title>Agreement</title>
<g id="a_node2"><a xlink:href="../Agreement" xlink:title="&lt;TABLE&gt;">
<polygon fill="lightgray" stroke="none" points="178.75,-438.88 178.75,-455.12 239.25,-455.12 239.25,-438.88 178.75,-438.88"/>
<text xml:space="preserve" text-anchor="start" x="179.75" y="-442.88" font-family="Arial" font-size="12.00">Agreement</text>
<polygon fill="none" stroke="black" points="177.75,-437.88 177.75,-456.12 240.25,-456.12 240.25,-437.88 177.75,-437.88"/>
</a>
</g>
</g>
<!-- Agreement&#45;&gt;AgreementThing -->
<g id="edge1" class="edge">
<title>Agreement&#45;&gt;AgreementThing</title>
<path fill="none" stroke="black" d="M209,-464.71C209,-472.47 209,-481.92 209,-490.74"/>
<polygon fill="none" stroke="black" points="205.5,-490.66 209,-500.66 212.5,-490.66 205.5,-490.66"/>
</g>
<!-- Invis -->
<!-- Agreement&#45;&gt;Invis -->
<!-- Agent -->
<g id="node4" class="node">
<title>Agent</title>
<g id="a_node4"><a xlink:href="../Agent" xlink:title="&lt;TABLE&gt;">
<polygon fill="lightgray" stroke="none" points="39.25,-265.38 39.25,-281.62 72.75,-281.62 72.75,-265.38 39.25,-265.38"/>
<text xml:space="preserve" text-anchor="start" x="40.25" y="-269.38" font-family="Arial" font-size="12.00">Agent</text>
<polygon fill="none" stroke="black" points="38.25,-264.38 38.25,-282.62 73.75,-282.62 73.75,-264.38 38.25,-264.38"/>
</a>
</g>
</g>
<!-- Agreement&#45;&gt;Agent -->
<g id="edge9" class="edge">
<title>Agreement&#45;&gt;Agent</title>
<path fill="none" stroke="black" d="M178.15,-434.14C159.61,-425.8 136.52,-413.16 120.25,-396.5 93.62,-369.22 75.26,-328.67 65.18,-301.92"/>
<polygon fill="black" stroke="black" points="68.58,-301.01 61.89,-292.8 62,-303.39 68.58,-301.01"/>
<polygon fill="white" stroke="none" points="120.25,-349 120.25,-392 195,-392 195,-349 120.25,-349"/>
<text xml:space="preserve" text-anchor="start" x="124.25" y="-377.5" font-family="Arial" font-size="11.00">involvesAgent</text>
<text xml:space="preserve" text-anchor="start" x="149.38" y="-356" font-family="Arial" font-size="11.00">2..*</text>
</g>
<!-- Location -->
<g id="node5" class="node">
<title>Location</title>
<g id="a_node5"><a xlink:href="../Location" xlink:title="&lt;TABLE&gt;">
<polygon fill="lightgray" stroke="none" points="32.12,-171.88 32.12,-188.12 79.88,-188.12 79.88,-171.88 32.12,-171.88"/>
<text xml:space="preserve" text-anchor="start" x="33.12" y="-175.88" font-family="Arial" font-size="12.00">Location</text>
<polygon fill="none" stroke="black" points="31.12,-170.88 31.12,-189.12 80.88,-189.12 80.88,-170.88 31.12,-170.88"/>
</a>
</g>
</g>
<!-- Agreement&#45;&gt;Location -->
<g id="edge8" class="edge">
<title>Agreement&#45;&gt;Location</title>
<path fill="none" stroke="black" d="M209.29,-429.11C209.02,-409.14 206.65,-375.29 195,-349 168.95,-290.23 116.29,-235.5 83.79,-205.32"/>
<polygon fill="black" stroke="black" points="86.46,-203.01 76.71,-198.85 81.73,-208.18 86.46,-203.01"/>
<polygon fill="white" stroke="none" points="186.03,-309.5 186.03,-331 224.78,-331 224.78,-309.5 186.03,-309.5"/>
<text xml:space="preserve" text-anchor="start" x="190.03" y="-316.5" font-family="Arial" font-size="11.00">validIn</text>
</g>
<!-- time_Instant -->
<g id="node6" class="node">
<title>time_Instant</title>
<g id="a_node6"><a xlink:href="https://w3id.org/citydata/imported/time/latest/Instant" xlink:title="&lt;TABLE&gt;">
<polygon fill="lightgray" stroke="none" points="20.62,-98.88 20.62,-115.12 83.38,-115.12 83.38,-98.88 20.62,-98.88"/>
<text xml:space="preserve" text-anchor="start" x="21.62" y="-102.88" font-family="Arial" font-size="12.00">time:Instant</text>
<polygon fill="none" stroke="black" points="19.62,-97.88 19.62,-116.12 84.38,-116.12 84.38,-97.88 19.62,-97.88"/>
</a>
</g>
</g>
<!-- Agreement&#45;&gt;time_Instant -->
<g id="edge10" class="edge">
<title>Agreement&#45;&gt;time_Instant</title>
<path fill="none" stroke="black" d="M223.37,-429.17C234.13,-414.82 247,-393.13 247,-371.5 247,-371.5 247,-371.5 247,-179 247,-146.98 152.99,-125.19 95.52,-114.87"/>
<polygon fill="black" stroke="black" points="96.14,-111.43 85.69,-113.16 94.94,-118.32 96.14,-111.43"/>
<polygon fill="white" stroke="none" points="247,-262.75 247,-284.25 323.25,-284.25 323.25,-262.75 247,-262.75"/>
<text xml:space="preserve" text-anchor="start" x="251" y="-269.75" font-family="Arial" font-size="11.00">establishedOn</text>
</g>
<!-- time_Interval -->
<g id="node7" class="node">
<title>time_Interval</title>
<g id="a_node7"><a xlink:href="https://w3id.org/citydata/imported/time/latest/Interval" xlink:title="&lt;TABLE&gt;">
<polygon fill="lightgray" stroke="none" points="16.75,-25.88 16.75,-42.12 83.25,-42.12 83.25,-25.88 16.75,-25.88"/>
<text xml:space="preserve" text-anchor="start" x="17.75" y="-29.88" font-family="Arial" font-size="12.00">time:Interval</text>
<polygon fill="none" stroke="black" points="15.75,-24.88 15.75,-43.12 84.25,-43.12 84.25,-24.88 15.75,-24.88"/>
</a>
</g>
</g>
<!-- Agreement&#45;&gt;time_Interval -->
<g id="edge7" class="edge">
<title>Agreement&#45;&gt;time_Interval</title>
<path fill="none" stroke="black" d="M240.16,-443.31C281.96,-437.81 351,-421.19 351,-371.5 351,-371.5 351,-371.5 351,-106 351,-54.14 179.63,-40.12 95.5,-36.36"/>
<polygon fill="black" stroke="black" points="95.88,-32.87 85.75,-35.96 95.59,-39.87 95.88,-32.87"/>
<polygon fill="white" stroke="none" points="351,-216 351,-237.5 397.25,-237.5 397.25,-216 351,-216"/>
<text xml:space="preserve" text-anchor="start" x="355" y="-223" font-family="Arial" font-size="11.00">validFor</text>
</g>
<!-- Invis&#45;&gt;Agent -->
<!-- Agent&#45;&gt;Location -->
<!-- Location&#45;&gt;time_Instant -->
<!-- time_Instant&#45;&gt;time_Interval -->
</g>
</svg>
