<?xml version="1.0" encoding="UTF-8" standalone="no"?>
<!DOCTYPE svg PUBLIC "-//W3C//DTD SVG 1.1//EN"
 "http://www.w3.org/Graphics/SVG/1.1/DTD/svg11.dtd">
<!-- Generated by graphviz version 14.0.2 (20251019.1705)
 -->
<!-- Pages: 1 -->
<svg width="334pt" height="477pt"
 viewBox="0.00 0.00 334.00 477.00" xmlns="http://www.w3.org/2000/svg" xmlns:xlink="http://www.w3.org/1999/xlink">
<g id="graph0" class="graph" transform="scale(1 1) rotate(0) translate(4 473)">
<polygon fill="white" stroke="none" points="-4,4 -4,-473 330.25,-473 330.25,4 -4,4"/>
<g id="clust2" class="cluster">
<title>cluster_associated</title>
</g>
<!-- Agreement -->
<g id="node1" class="node">
<title>Agreement</title>
<g id="a_node1"><a xlink:href="../classes/Agreement__Agreement.md" xlink:title="&lt;TABLE&gt;">
<polygon fill="lightgray" stroke="none" points="142.75,-369.88 142.75,-386.12 203.25,-386.12 203.25,-369.88 142.75,-369.88"/>
<text xml:space="preserve" text-anchor="start" x="143.75" y="-373.73" font-family="Arial" font-size="12.00">Agreement</text>
<polygon fill="none" stroke="black" points="141.75,-368.88 141.75,-387.12 204.25,-387.12 204.25,-368.88 141.75,-368.88"/>
</a>
</g>
</g>
<!-- AgreementOntologyThing -->
<g id="node2" class="node">
<title>AgreementOntologyThing</title>
<g id="a_node2"><a xlink:href="../_counters/Agreement__AgreementOntologyThing.md" xlink:title="&lt;TABLE&gt;">
<polygon fill="lightgray" stroke="none" points="103.38,-442.88 103.38,-459.12 242.62,-459.12 242.62,-442.88 103.38,-442.88"/>
<text xml:space="preserve" text-anchor="start" x="104.38" y="-446.73" font-family="Arial" font-size="12.00">AgreementOntologyThing</text>
<polygon fill="none" stroke="black" points="102.38,-441.88 102.38,-460.12 243.62,-460.12 243.62,-441.88 102.38,-441.88"/>
</a>
</g>
</g>
<!-- Agreement&#45;&gt;AgreementOntologyThing -->
<g id="edge1" class="edge">
<title>Agreement&#45;&gt;AgreementOntologyThing</title>
<path fill="none" stroke="black" d="M173,-395.71C173,-403.47 173,-412.92 173,-421.74"/>
<polygon fill="none" stroke="black" points="169.5,-421.66 173,-431.66 176.5,-421.66 169.5,-421.66"/>
</g>
<!-- Invis -->
<!-- Agreement&#45;&gt;Invis -->
<!-- agent__Agent -->
<g id="node4" class="node">
<title>agent__Agent</title>
<polygon fill="lightgray" stroke="none" points="17.25,-270.88 17.25,-287.12 86.75,-287.12 86.75,-270.88 17.25,-270.88"/>
<text xml:space="preserve" text-anchor="start" x="18.25" y="-274.73" font-family="Arial" font-size="12.00">agent::Agent</text>
<polygon fill="none" stroke="black" points="16.25,-269.88 16.25,-288.12 87.75,-288.12 87.75,-269.88 16.25,-269.88"/>
</g>
<!-- Agreement&#45;&gt;agent__Agent -->
<g id="edge10" class="edge">
<title>Agreement&#45;&gt;agent__Agent</title>
<path fill="none" stroke="black" d="M141.87,-361.41C140.57,-360.91 139.28,-360.44 138,-360 101.58,-347.5 77.79,-371.68 53.25,-342 45.58,-332.73 44.37,-319.74 45.44,-308.04"/>
<polygon fill="black" stroke="black" points="48.86,-308.87 46.89,-298.46 41.93,-307.82 48.86,-308.87"/>
<text xml:space="preserve" text-anchor="middle" x="89.62" y="-331.55" font-family="Arial" font-size="11.00"> involvesAgent </text>
<text xml:space="preserve" text-anchor="middle" x="89.62" y="-318.05" font-family="Arial" font-size="11.00"> «min 2» &#160;</text>
</g>
<!-- spatialLoc__Location -->
<g id="node5" class="node">
<title>spatialLoc__Location</title>
<polygon fill="lightgray" stroke="none" points="16.75,-171.88 16.75,-188.12 125.25,-188.12 125.25,-171.88 16.75,-171.88"/>
<text xml:space="preserve" text-anchor="start" x="17.75" y="-175.72" font-family="Arial" font-size="12.00">spatialLoc::Location</text>
<polygon fill="none" stroke="black" points="15.75,-170.88 15.75,-189.12 126.25,-189.12 126.25,-170.88 15.75,-170.88"/>
</g>
<!-- Agreement&#45;&gt;spatialLoc__Location -->
<g id="edge9" class="edge">
<title>Agreement&#45;&gt;spatialLoc__Location</title>
<path fill="none" stroke="black" d="M164.3,-360.29C146.66,-326.38 106.51,-249.24 85.09,-208.07"/>
<polygon fill="black" stroke="black" points="88.24,-206.54 80.52,-199.29 82.03,-209.78 88.24,-206.54"/>
<text xml:space="preserve" text-anchor="middle" x="150.72" y="-282.05" font-family="Arial" font-size="11.00"> validIn </text>
<text xml:space="preserve" text-anchor="middle" x="150.72" y="-268.55" font-family="Arial" font-size="11.00"> «only» &#160;</text>
</g>
<!-- time__Instant -->
<g id="node6" class="node">
<title>time__Instant</title>
<polygon fill="lightgray" stroke="none" points="57.12,-98.88 57.12,-115.12 122.88,-115.12 122.88,-98.88 57.12,-98.88"/>
<text xml:space="preserve" text-anchor="start" x="58.12" y="-102.72" font-family="Arial" font-size="12.00">time::Instant</text>
<polygon fill="none" stroke="black" points="56.12,-97.88 56.12,-116.12 123.88,-116.12 123.88,-97.88 56.12,-97.88"/>
</g>
<!-- Agreement&#45;&gt;time__Instant -->
<g id="edge7" class="edge">
<title>Agreement&#45;&gt;time__Instant</title>
<path fill="none" stroke="black" d="M175.45,-360.29C178.28,-337.58 181.76,-295.8 175,-261 165.94,-214.42 159.37,-202.72 135,-162 129.05,-152.05 121.31,-142.05 113.94,-133.41"/>
<polygon fill="black" stroke="black" points="116.72,-131.27 107.48,-126.08 111.47,-135.9 116.72,-131.27"/>
<text xml:space="preserve" text-anchor="middle" x="208.25" y="-232.55" font-family="Arial" font-size="11.00"> establishedOn </text>
<text xml:space="preserve" text-anchor="middle" x="208.25" y="-219.05" font-family="Arial" font-size="11.00"> «only» &#160;</text>
</g>
<!-- time__Interval -->
<g id="node7" class="node">
<title>time__Interval</title>
<polygon fill="lightgray" stroke="none" points="55.25,-25.88 55.25,-42.12 124.75,-42.12 124.75,-25.88 55.25,-25.88"/>
<text xml:space="preserve" text-anchor="start" x="56.25" y="-29.73" font-family="Arial" font-size="12.00">time::Interval</text>
<polygon fill="none" stroke="black" points="54.25,-24.88 54.25,-43.12 125.75,-43.12 125.75,-24.88 54.25,-24.88"/>
</g>
<!-- Agreement&#45;&gt;time__Interval -->
<g id="edge8" class="edge">
<title>Agreement&#45;&gt;time__Interval</title>
<path fill="none" stroke="black" d="M204.24,-364.92C236.44,-350.18 282,-321.92 282,-280 282,-280 282,-280 282,-106 282,-75.16 193.77,-53.51 136.93,-42.75"/>
<polygon fill="black" stroke="black" points="137.62,-39.32 127.15,-40.96 136.36,-46.21 137.62,-39.32"/>
<text xml:space="preserve" text-anchor="middle" x="304.12" y="-183.05" font-family="Arial" font-size="11.00"> validFor </text>
<text xml:space="preserve" text-anchor="middle" x="304.12" y="-169.55" font-family="Arial" font-size="11.00"> «only» &#160;</text>
</g>
<!-- Invis&#45;&gt;agent__Agent -->
<!-- agent__Agent&#45;&gt;spatialLoc__Location -->
<!-- spatialLoc__Location&#45;&gt;time__Instant -->
<!-- time__Instant&#45;&gt;time__Interval -->
</g>
</svg>
