<?xml version="1.0" encoding="UTF-8" standalone="no"?>
<!DOCTYPE svg PUBLIC "-//W3C//DTD SVG 1.1//EN"
 "http://www.w3.org/Graphics/SVG/1.1/DTD/svg11.dtd">
<!-- Generated by graphviz version 14.0.2 (20251019.1705)
 -->
<!-- Pages: 1 -->
<svg width="488pt" height="258pt"
 viewBox="0.00 0.00 488.00 258.00" xmlns="http://www.w3.org/2000/svg" xmlns:xlink="http://www.w3.org/1999/xlink">
<g id="graph0" class="graph" transform="scale(1 1) rotate(0) translate(4 254)">
<polygon fill="white" stroke="none" points="-4,4 -4,-254 484.01,-254 484.01,4 -4,4"/>
<g id="clust2" class="cluster">
<title>cluster_associated</title>
</g>
<!-- Atomic Agreement -->
<g id="node1" class="node">
<title>Atomic Agreement</title>
<g id="a_node1"><a xlink:href="../classes/Agreement__Atomic Agreement.md" xlink:title="&lt;TABLE&gt;">
<polygon fill="lightgray" stroke="none" points="126.12,-124.88 126.12,-141.12 226.38,-141.12 226.38,-124.88 126.12,-124.88"/>
<text xml:space="preserve" text-anchor="start" x="127.12" y="-128.72" font-family="Arial" font-size="12.00">Atomic Agreement</text>
<polygon fill="none" stroke="black" points="125.12,-123.88 125.12,-142.12 227.38,-142.12 227.38,-123.88 125.12,-123.88"/>
</a>
</g>
</g>
<!-- Agreement -->
<g id="node2" class="node">
<title>Agreement</title>
<g id="a_node2"><a xlink:href="../_counters/Agreement__Agreement.md" xlink:title="&lt;TABLE&gt;">
<polygon fill="lightgray" stroke="none" points="1,-223.88 1,-240.12 61.5,-240.12 61.5,-223.88 1,-223.88"/>
<text xml:space="preserve" text-anchor="start" x="2" y="-227.72" font-family="Arial" font-size="12.00">Agreement</text>
<polygon fill="none" stroke="black" points="0,-222.88 0,-241.12 62.5,-241.12 62.5,-222.88 0,-222.88"/>
</a>
</g>
</g>
<!-- Atomic Agreement&#45;&gt;Agreement -->
<g id="edge1" class="edge">
<title>Atomic Agreement&#45;&gt;Agreement</title>
<path fill="none" stroke="black" d="M141.51,-150.91C134.27,-153.96 126.61,-156.84 119.25,-159 92.05,-166.98 78.43,-151.34 56.25,-169 45.79,-177.33 39.68,-190.71 36.13,-202.92"/>
<polygon fill="none" stroke="black" points="32.74,-202.04 33.8,-212.59 39.54,-203.68 32.74,-202.04"/>
</g>
<!-- Invis -->
<!-- Atomic Agreement&#45;&gt;Invis -->
<!-- activity__Activity -->
<g id="node4" class="node">
<title>activity__Activity</title>
<polygon fill="lightgray" stroke="none" points="22.75,-25.88 22.75,-42.12 105.75,-42.12 105.75,-25.88 22.75,-25.88"/>
<text xml:space="preserve" text-anchor="start" x="23.75" y="-29.73" font-family="Arial" font-size="12.00">activity::Activity</text>
<polygon fill="none" stroke="black" points="21.75,-24.88 21.75,-43.12 106.75,-43.12 106.75,-24.88 21.75,-24.88"/>
</g>
<!-- Atomic Agreement&#45;&gt;activity__Activity -->
<g id="edge4" class="edge">
<title>Atomic Agreement&#45;&gt;activity__Activity</title>
<path fill="none" stroke="black" d="M156.74,-115.1C138.83,-99.6 112.11,-76.45 91.99,-59.02"/>
<polygon fill="black" stroke="black" points="94.53,-56.59 84.68,-52.69 89.95,-61.89 94.53,-56.59"/>
<text xml:space="preserve" text-anchor="middle" x="178.95" y="-86.55" font-family="Arial" font-size="11.00"> commitsToActivity </text>
<text xml:space="preserve" text-anchor="middle" x="178.95" y="-73.05" font-family="Arial" font-size="11.00"> «some» &#160;</text>
</g>
<!-- Invis&#45;&gt;activity__Activity -->
<!-- agent__Agent -->
<g id="node5" class="node">
<title>agent__Agent</title>
<polygon fill="lightgray" stroke="none" points="194.5,-223.88 194.5,-240.12 264,-240.12 264,-223.88 194.5,-223.88"/>
<text xml:space="preserve" text-anchor="start" x="195.5" y="-227.72" font-family="Arial" font-size="12.00">agent::Agent</text>
<polygon fill="none" stroke="black" points="193.5,-222.88 193.5,-241.12 265,-241.12 265,-222.88 193.5,-222.88"/>
</g>
<!-- agent__Agent&#45;&gt;Atomic Agreement -->
<g id="edge5" class="edge">
<title>agent__Agent&#45;&gt;Atomic Agreement</title>
<path fill="none" stroke="black" d="M193.81,-228.51C150.65,-224.64 81.54,-215.53 65.75,-196 58.2,-186.67 58.08,-178.23 65.75,-169 81.2,-150.39 96.13,-166.13 119.25,-159 123.32,-157.75 127.48,-156.29 131.61,-154.71"/>
<polygon fill="black" stroke="black" points="141.99,-154.32 131.41,-154.8 139.38,-147.82 141.99,-154.32"/>
<text xml:space="preserve" text-anchor="middle" x="110" y="-185.55" font-family="Arial" font-size="11.00"> inverse hasClaim </text>
<text xml:space="preserve" text-anchor="middle" x="110" y="-172.05" font-family="Arial" font-size="11.00"> «only» &#160;</text>
</g>
<!-- agent__Agent&#45;&gt;Atomic Agreement -->
<g id="edge6" class="edge">
<title>agent__Agent&#45;&gt;Atomic Agreement</title>
<path fill="none" stroke="black" d="M193.67,-214.05C187,-209.19 180.9,-203.2 177,-196 171.33,-185.53 170.42,-172.53 171.21,-161.14"/>
<polygon fill="black" stroke="black" points="175.82,-151.75 171.2,-161.28 168.87,-150.95 175.82,-151.75"/>
<text xml:space="preserve" text-anchor="middle" x="218.62" y="-185.55" font-family="Arial" font-size="11.00"> inverse hasDuty </text>
<text xml:space="preserve" text-anchor="middle" x="218.62" y="-172.05" font-family="Arial" font-size="11.00"> «only» &#160;</text>
</g>
<!-- agent__Agent&#45;&gt;Atomic Agreement -->
<g id="edge7" class="edge">
<title>agent__Agent&#45;&gt;Atomic Agreement</title>
<path fill="none" stroke="black" d="M248.51,-214.19C253.26,-208.9 257.72,-202.68 260.25,-196 264.5,-184.78 266.91,-178.98 260.25,-169 254.47,-160.32 246.08,-153.8 236.82,-148.88"/>
<polygon fill="black" stroke="black" points="229.26,-141.52 236.86,-148.9 226.32,-147.88 229.26,-141.52"/>
<text xml:space="preserve" text-anchor="middle" x="315.76" y="-185.55" font-family="Arial" font-size="11.00"> inverse hasNoClaim </text>
<text xml:space="preserve" text-anchor="middle" x="315.76" y="-172.05" font-family="Arial" font-size="11.00"> «only» &#160;</text>
</g>
<!-- agent__Agent&#45;&gt;Atomic Agreement -->
<g id="edge8" class="edge">
<title>agent__Agent&#45;&gt;Atomic Agreement</title>
<path fill="none" stroke="black" d="M264.59,-228.01C316.23,-222.3 402.92,-206.86 371.25,-169 354.41,-148.86 288.32,-140.3 237.71,-136.66"/>
<polygon fill="black" stroke="black" points="227.89,-132.5 237.64,-136.66 227.43,-139.48 227.89,-132.5"/>
<text xml:space="preserve" text-anchor="middle" x="429.01" y="-185.55" font-family="Arial" font-size="11.00"> inverse hasPrivilege </text>
<text xml:space="preserve" text-anchor="middle" x="429.01" y="-172.05" font-family="Arial" font-size="11.00"> «only» &#160;</text>
</g>
</g>
</svg>
