<?xml version="1.0" encoding="UTF-8" standalone="no"?>
<!DOCTYPE svg PUBLIC "-//W3C//DTD SVG 1.1//EN"
 "http://www.w3.org/Graphics/SVG/1.1/DTD/svg11.dtd">
<!-- Generated by graphviz version 14.0.2 (20251019.1705)
 -->
<!-- Pages: 1 -->
<svg width="210pt" height="159pt"
 viewBox="0.00 0.00 210.00 159.00" xmlns="http://www.w3.org/2000/svg" xmlns:xlink="http://www.w3.org/1999/xlink">
<g id="graph0" class="graph" transform="scale(1 1) rotate(0) translate(4 155)">
<polygon fill="white" stroke="none" points="-4,4 -4,-155 205.75,-155 205.75,4 -4,4"/>
<g id="clust2" class="cluster">
<title>cluster_associated</title>
</g>
<!-- Complex Agreement -->
<g id="node1" class="node">
<title>Complex Agreement</title>
<g id="a_node1"><a xlink:href="../classes/Agreement__Complex Agreement.md" xlink:title="&lt;TABLE&gt;">
<polygon fill="lightgray" stroke="none" points="1,-25.88 1,-42.12 112.5,-42.12 112.5,-25.88 1,-25.88"/>
<text xml:space="preserve" text-anchor="start" x="2" y="-29.73" font-family="Arial" font-size="12.00">Complex Agreement</text>
<polygon fill="none" stroke="black" points="0,-24.88 0,-43.12 113.5,-43.12 113.5,-24.88 0,-24.88"/>
</a>
</g>
</g>
<!-- Agreement -->
<g id="node2" class="node">
<title>Agreement</title>
<g id="a_node2"><a xlink:href="../_counters/Agreement__Agreement.md" xlink:title="&lt;TABLE&gt;">
<polygon fill="lightgray" stroke="none" points="26.5,-124.88 26.5,-141.12 87,-141.12 87,-124.88 26.5,-124.88"/>
<text xml:space="preserve" text-anchor="start" x="27.5" y="-128.72" font-family="Arial" font-size="12.00">Agreement</text>
<polygon fill="none" stroke="black" points="25.5,-123.88 25.5,-142.12 88,-142.12 88,-123.88 25.5,-123.88"/>
</a>
</g>
</g>
<!-- Complex Agreement&#45;&gt;Agreement -->
<g id="edge1" class="edge">
<title>Complex Agreement&#45;&gt;Agreement</title>
<path fill="none" stroke="black" d="M55.6,-51.73C55.25,-57.51 54.92,-64.04 54.75,-70 54.41,-82 54.41,-85 54.75,-97 54.81,-99.24 54.9,-101.55 55,-103.88"/>
<polygon fill="none" stroke="black" points="51.5,-103.96 55.52,-113.76 58.49,-103.59 51.5,-103.96"/>
</g>
<!-- Complex Agreement&#45;&gt;Agreement -->
<g id="edge2" class="edge">
<title>Complex Agreement&#45;&gt;Agreement</title>
<path fill="none" stroke="black" d="M56.75,-51.7C56.75,-65.97 56.75,-86.8 56.75,-103.67"/>
<polygon fill="black" stroke="black" points="53.25,-103.59 56.75,-113.59 60.25,-103.59 53.25,-103.59"/>
<text xml:space="preserve" text-anchor="middle" x="104.75" y="-86.55" font-family="Arial" font-size="11.00"> hasSubAgreement </text>
<text xml:space="preserve" text-anchor="middle" x="104.75" y="-73.05" font-family="Arial" font-size="11.00"> «min 2» &#160;</text>
</g>
<!-- Invis -->
</g>
</svg>
