<?xml version="1.0" encoding="UTF-8" standalone="no"?>
<!DOCTYPE svg PUBLIC "-//W3C//DTD SVG 1.1//EN"
 "http://www.w3.org/Graphics/SVG/1.1/DTD/svg11.dtd">
<!-- Generated by graphviz version 14.1.3 (20260303.0454)
 -->
<!-- Pages: 1 -->
<svg width="381pt" height="523pt"
 viewBox="0.00 0.00 381.00 523.00" xmlns="http://www.w3.org/2000/svg" xmlns:xlink="http://www.w3.org/1999/xlink">
<g id="graph0" class="graph" transform="scale(1 1) rotate(0) translate(4 519)">
<polygon fill="white" stroke="none" points="-4,4 -4,-519 377.25,-519 377.25,4 -4,4"/>
<g id="clust3" class="cluster">
<title>cluster_associated</title>
</g>
<!-- AgreementThing -->
<g id="node1" class="node">
<title>AgreementThing</title>
<g id="a_node1"><a xlink:href="../AgreementThing" xlink:title="&lt;TABLE&gt;">
<polygon fill="lightgray" stroke="none" points="155.38,-488.88 155.38,-505.12 246.62,-505.12 246.62,-488.88 155.38,-488.88"/>
<text xml:space="preserve" text-anchor="start" x="156.38" y="-492.88" font-family="Arial" font-size="12.00">AgreementThing</text>
<polygon fill="none" stroke="black" points="154.38,-487.88 154.38,-506.12 247.62,-506.12 247.62,-487.88 154.38,-487.88"/>
</a>
</g>
</g>
<!-- Agreement -->
<g id="node2" class="node">
<title>Agreement</title>
<g id="a_node2"><a xlink:href="../Agreement" xlink:title="&lt;TABLE&gt;">
<polygon fill="lightgray" stroke="none" points="170.75,-415.88 170.75,-432.12 231.25,-432.12 231.25,-415.88 170.75,-415.88"/>
<text xml:space="preserve" text-anchor="start" x="171.75" y="-419.88" font-family="Arial" font-size="12.00">Agreement</text>
<polygon fill="none" stroke="black" points="169.75,-414.88 169.75,-433.12 232.25,-433.12 232.25,-414.88 169.75,-414.88"/>
</a>
</g>
</g>
<!-- Agreement&#45;&gt;AgreementThing -->
<g id="edge1" class="edge">
<title>Agreement&#45;&gt;AgreementThing</title>
<path fill="none" stroke="black" d="M201,-441.71C201,-449.47 201,-458.92 201,-467.74"/>
<polygon fill="none" stroke="black" points="197.5,-467.66 201,-477.66 204.5,-467.66 197.5,-467.66"/>
</g>
<!-- Invis -->
<!-- Agreement&#45;&gt;Invis -->
<!-- Agent -->
<g id="node4" class="node">
<title>Agent</title>
<g id="a_node4"><a xlink:href="../Agent" xlink:title="&lt;TABLE&gt;">
<polygon fill="lightgray" stroke="none" points="39.25,-257.38 39.25,-273.62 72.75,-273.62 72.75,-257.38 39.25,-257.38"/>
<text xml:space="preserve" text-anchor="start" x="40.25" y="-261.38" font-family="Arial" font-size="12.00">Agent</text>
<polygon fill="none" stroke="black" points="38.25,-256.38 38.25,-274.62 73.75,-274.62 73.75,-256.38 38.25,-256.38"/>
</a>
</g>
</g>
<!-- Agreement&#45;&gt;Agent -->
<g id="edge10" class="edge">
<title>Agreement&#45;&gt;Agent</title>
<path fill="none" stroke="black" d="M170.07,-410.16C153.85,-402.32 134.46,-391.08 120.25,-377 96.03,-352.99 77.74,-317.99 66.98,-293.85"/>
<polygon fill="black" stroke="black" points="70.2,-292.48 63.04,-284.67 63.77,-295.24 70.2,-292.48"/>
<text xml:space="preserve" text-anchor="middle" x="153.62" y="-354.05" font-family="Arial" font-size="11.00">involvesAgent</text>
<text xml:space="preserve" text-anchor="middle" x="153.62" y="-340.55" font-family="Arial" font-size="11.00">2..*</text>
</g>
<!-- Location -->
<g id="node5" class="node">
<title>Location</title>
<g id="a_node5"><a xlink:href="../Location" xlink:title="&lt;TABLE&gt;">
<polygon fill="lightgray" stroke="none" points="32.12,-171.88 32.12,-188.12 79.88,-188.12 79.88,-171.88 32.12,-171.88"/>
<text xml:space="preserve" text-anchor="start" x="33.12" y="-175.88" font-family="Arial" font-size="12.00">Location</text>
<polygon fill="none" stroke="black" points="31.12,-170.88 31.12,-189.12 80.88,-189.12 80.88,-170.88 31.12,-170.88"/>
</a>
</g>
</g>
<!-- Agreement&#45;&gt;Location -->
<g id="edge9" class="edge">
<title>Agreement&#45;&gt;Location</title>
<path fill="none" stroke="black" d="M201.11,-406.29C200.63,-387.6 198.01,-356.83 187,-333 162.93,-280.9 115.59,-232.91 84.9,-205.32"/>
<polygon fill="black" stroke="black" points="87.28,-202.75 77.47,-198.76 82.65,-208 87.28,-202.75"/>
<text xml:space="preserve" text-anchor="middle" x="192.81" y="-304.55" font-family="Arial" font-size="11.00">validIn</text>
</g>
<!-- time_Instant -->
<g id="node6" class="node">
<title>time_Instant</title>
<g id="a_node6"><a xlink:href="https://w3id.org/citydata/imported/time/latest/Instant" xlink:title="&lt;TABLE&gt;">
<polygon fill="lightgray" stroke="none" points="20.62,-98.88 20.62,-115.12 83.38,-115.12 83.38,-98.88 20.62,-98.88"/>
<text xml:space="preserve" text-anchor="start" x="21.62" y="-102.88" font-family="Arial" font-size="12.00">time:Instant</text>
<polygon fill="none" stroke="black" points="19.62,-97.88 19.62,-116.12 84.38,-116.12 84.38,-97.88 19.62,-97.88"/>
</a>
</g>
</g>
<!-- Agreement&#45;&gt;time_Instant -->
<g id="edge7" class="edge">
<title>Agreement&#45;&gt;time_Instant</title>
<path fill="none" stroke="black" d="M216.02,-406.25C226.64,-392.63 239,-372.41 239,-352 239,-352 239,-352 239,-179 239,-148.44 150.63,-126.35 95.39,-115.52"/>
<polygon fill="black" stroke="black" points="96.11,-112.09 85.63,-113.66 94.8,-118.97 96.11,-112.09"/>
<text xml:space="preserve" text-anchor="middle" x="273.12" y="-261.8" font-family="Arial" font-size="11.00">establishedOn</text>
</g>
<!-- time_Interval -->
<g id="node7" class="node">
<title>time_Interval</title>
<g id="a_node7"><a xlink:href="https://w3id.org/citydata/imported/time/latest/Interval" xlink:title="&lt;TABLE&gt;">
<polygon fill="lightgray" stroke="none" points="16.75,-25.88 16.75,-42.12 83.25,-42.12 83.25,-25.88 16.75,-25.88"/>
<text xml:space="preserve" text-anchor="start" x="17.75" y="-29.88" font-family="Arial" font-size="12.00">time:Interval</text>
<polygon fill="none" stroke="black" points="15.75,-24.88 15.75,-43.12 84.25,-43.12 84.25,-24.88 15.75,-24.88"/>
</a>
</g>
</g>
<!-- Agreement&#45;&gt;time_Interval -->
<g id="edge8" class="edge">
<title>Agreement&#45;&gt;time_Interval</title>
<path fill="none" stroke="black" d="M232.08,-420.11C271.66,-414.52 335,-398.34 335,-352 335,-352 335,-352 335,-106 335,-57.22 175.79,-41.69 95.36,-36.96"/>
<polygon fill="black" stroke="black" points="95.78,-33.48 85.61,-36.43 95.4,-40.47 95.78,-33.48"/>
<text xml:space="preserve" text-anchor="middle" x="354.12" y="-219.05" font-family="Arial" font-size="11.00">validFor</text>
</g>
<!-- Invis&#45;&gt;Agent -->
<!-- Agent&#45;&gt;Location -->
<!-- Location&#45;&gt;time_Instant -->
<!-- time_Instant&#45;&gt;time_Interval -->
</g>
</svg>
