<?xml version="1.0" encoding="UTF-8" standalone="no"?>
<!DOCTYPE svg PUBLIC "-//W3C//DTD SVG 1.1//EN"
 "http://www.w3.org/Graphics/SVG/1.1/DTD/svg11.dtd">
<!-- Generated by graphviz version 14.0.2 (20251019.1705)
 -->
<!-- Pages: 1 -->
<svg width="316pt" height="477pt"
 viewBox="0.00 0.00 316.00 477.00" xmlns="http://www.w3.org/2000/svg" xmlns:xlink="http://www.w3.org/1999/xlink">
<g id="graph0" class="graph" transform="scale(1 1) rotate(0) translate(4 473)">
<polygon fill="white" stroke="none" points="-4,4 -4,-473 312.25,-473 312.25,4 -4,4"/>
<g id="clust2" class="cluster">
<title>cluster_associated</title>
</g>
<!-- Agreement -->
<g id="node1" class="node">
<title>Agreement</title>
<g id="a_node1"><a xlink:href="../Agreement.md" xlink:title="&lt;TABLE&gt;">
<polygon fill="lightgray" stroke="none" points="106.75,-369.88 106.75,-386.12 167.25,-386.12 167.25,-369.88 106.75,-369.88"/>
<text xml:space="preserve" text-anchor="start" x="107.75" y="-373.73" font-family="Arial" font-size="12.00">Agreement</text>
<polygon fill="none" stroke="black" points="105.75,-368.88 105.75,-387.12 168.25,-387.12 168.25,-368.88 105.75,-368.88"/>
</a>
</g>
</g>
<!-- Invis -->
<!-- Agreement&#45;&gt;Invis -->
<!-- Agent -->
<g id="node3" class="node">
<title>Agent</title>
<g id="a_node3"><a xlink:href="../Agent.md" xlink:title="&lt;TABLE&gt;">
<polygon fill="lightgray" stroke="none" points="26.25,-270.88 26.25,-287.12 59.75,-287.12 59.75,-270.88 26.25,-270.88"/>
<text xml:space="preserve" text-anchor="start" x="27.25" y="-274.73" font-family="Arial" font-size="12.00">Agent</text>
<polygon fill="none" stroke="black" points="25.25,-269.88 25.25,-288.12 60.75,-288.12 60.75,-269.88 25.25,-269.88"/>
</a>
</g>
</g>
<!-- Agreement&#45;&gt;Agent -->
<g id="edge10" class="edge">
<title>Agreement&#45;&gt;Agent</title>
<path fill="none" stroke="black" d="M106.18,-364C102.76,-362.62 99.31,-361.26 96,-360 73.24,-351.33 58.56,-361.7 44.25,-342 37.3,-332.43 36.09,-319.66 36.96,-308.19"/>
<polygon fill="black" stroke="black" points="40.41,-308.79 38.28,-298.41 33.48,-307.85 40.41,-308.79"/>
<text xml:space="preserve" text-anchor="middle" x="80.62" y="-331.55" font-family="Arial" font-size="11.00"> involvesAgent </text>
<text xml:space="preserve" text-anchor="middle" x="80.62" y="-318.05" font-family="Arial" font-size="11.00"> «min 2» &#160;</text>
</g>
<!-- Location -->
<g id="node4" class="node">
<title>Location</title>
<g id="a_node4"><a xlink:href="../Location.md" xlink:title="&lt;TABLE&gt;">
<polygon fill="lightgray" stroke="none" points="27.12,-171.88 27.12,-188.12 74.88,-188.12 74.88,-171.88 27.12,-171.88"/>
<text xml:space="preserve" text-anchor="start" x="28.12" y="-175.72" font-family="Arial" font-size="12.00">Location</text>
<polygon fill="none" stroke="black" points="26.12,-170.88 26.12,-189.12 75.88,-189.12 75.88,-170.88 26.12,-170.88"/>
</a>
</g>
</g>
<!-- Agreement&#45;&gt;Location -->
<g id="edge9" class="edge">
<title>Agreement&#45;&gt;Location</title>
<path fill="none" stroke="black" d="M132.3,-360.19C128.6,-347.58 123.07,-329.99 117,-315 101.6,-276.97 80.03,-234.77 65.79,-208.08"/>
<polygon fill="black" stroke="black" points="68.9,-206.46 61.08,-199.31 62.73,-209.78 68.9,-206.46"/>
<text xml:space="preserve" text-anchor="middle" x="129.35" y="-282.05" font-family="Arial" font-size="11.00"> validIn </text>
<text xml:space="preserve" text-anchor="middle" x="129.35" y="-268.55" font-family="Arial" font-size="11.00"> «only» &#160;</text>
</g>
<!-- time_Instant -->
<g id="node5" class="node">
<title>time_Instant</title>
<polygon fill="lightgray" stroke="none" points="19.62,-98.88 19.62,-115.12 82.38,-115.12 82.38,-98.88 19.62,-98.88"/>
<text xml:space="preserve" text-anchor="start" x="20.62" y="-102.72" font-family="Arial" font-size="12.00">time:Instant</text>
<polygon fill="none" stroke="black" points="18.62,-97.88 18.62,-116.12 83.38,-116.12 83.38,-97.88 18.62,-97.88"/>
</g>
<!-- Agreement&#45;&gt;time_Instant -->
<g id="edge7" class="edge">
<title>Agreement&#45;&gt;time_Instant</title>
<path fill="none" stroke="black" d="M144.01,-360.13C152.5,-337.24 164.46,-295.26 154,-261 138.65,-210.7 100.6,-161.97 75.3,-133.5"/>
<polygon fill="black" stroke="black" points="77.91,-131.16 68.6,-126.11 72.72,-135.87 77.91,-131.16"/>
<text xml:space="preserve" text-anchor="middle" x="183.95" y="-232.55" font-family="Arial" font-size="11.00"> establishedOn </text>
<text xml:space="preserve" text-anchor="middle" x="183.95" y="-219.05" font-family="Arial" font-size="11.00"> «only» &#160;</text>
</g>
<!-- time_Interval -->
<g id="node6" class="node">
<title>time_Interval</title>
<polygon fill="lightgray" stroke="none" points="16.75,-25.88 16.75,-42.12 83.25,-42.12 83.25,-25.88 16.75,-25.88"/>
<text xml:space="preserve" text-anchor="start" x="17.75" y="-29.73" font-family="Arial" font-size="12.00">time:Interval</text>
<polygon fill="none" stroke="black" points="15.75,-24.88 15.75,-43.12 84.25,-43.12 84.25,-24.88 15.75,-24.88"/>
</g>
<!-- Agreement&#45;&gt;time_Interval -->
<g id="edge8" class="edge">
<title>Agreement&#45;&gt;time_Interval</title>
<path fill="none" stroke="black" d="M168.07,-368.27C205.67,-355.58 264,-328.14 264,-280 264,-280 264,-280 264,-106 264,-70.72 157.87,-49.92 95.09,-40.7"/>
<polygon fill="black" stroke="black" points="95.8,-37.26 85.41,-39.33 94.82,-44.2 95.8,-37.26"/>
<text xml:space="preserve" text-anchor="middle" x="286.12" y="-183.05" font-family="Arial" font-size="11.00"> validFor </text>
<text xml:space="preserve" text-anchor="middle" x="286.12" y="-169.55" font-family="Arial" font-size="11.00"> «only» &#160;</text>
</g>
<!-- AgreementThing -->
<g id="node7" class="node">
<title>AgreementThing</title>
<g id="a_node7"><a xlink:href="../AgreementThing.md" xlink:title="&lt;TABLE&gt;">
<polygon fill="lightgray" stroke="none" points="91.38,-442.88 91.38,-459.12 182.62,-459.12 182.62,-442.88 91.38,-442.88"/>
<text xml:space="preserve" text-anchor="start" x="92.38" y="-446.73" font-family="Arial" font-size="12.00">AgreementThing</text>
<polygon fill="none" stroke="black" points="90.38,-441.88 90.38,-460.12 183.62,-460.12 183.62,-441.88 90.38,-441.88"/>
</a>
</g>
</g>
<!-- Agreement&#45;&gt;AgreementThing -->
<g id="edge1" class="edge">
<title>Agreement&#45;&gt;AgreementThing</title>
<path fill="none" stroke="black" d="M137,-395.71C137,-403.47 137,-412.92 137,-421.74"/>
<polygon fill="none" stroke="black" points="133.5,-421.66 137,-431.66 140.5,-421.66 133.5,-421.66"/>
</g>
<!-- Invis&#45;&gt;Agent -->
<!-- Agent&#45;&gt;Location -->
<!-- Location&#45;&gt;time_Instant -->
<!-- time_Instant&#45;&gt;time_Interval -->
</g>
</svg>
