<?xml version="1.0" encoding="UTF-8" standalone="no"?>
<!DOCTYPE svg PUBLIC "-//W3C//DTD SVG 1.1//EN"
 "http://www.w3.org/Graphics/SVG/1.1/DTD/svg11.dtd">
<!-- Generated by graphviz version 14.0.2 (20251019.1705)
 -->
<!-- Pages: 1 -->
<svg width="224pt" height="132pt"
 viewBox="0.00 0.00 224.00 132.00" xmlns="http://www.w3.org/2000/svg" xmlns:xlink="http://www.w3.org/1999/xlink">
<g id="graph0" class="graph" transform="scale(1 1) rotate(0) translate(4 128)">
<polygon fill="white" stroke="none" points="-4,4 -4,-128 220.25,-128 220.25,4 -4,4"/>
<g id="clust2" class="cluster">
<title>cluster_associated</title>
</g>
<!-- AreaUnit -->
<g id="node1" class="node">
<title>AreaUnit</title>
<g id="a_node1"><a xlink:href="../AreaUnit" xlink:title="&lt;TABLE&gt;">
<polygon fill="lightgray" stroke="none" points="75.12,-81.88 75.12,-98.12 124.38,-98.12 124.38,-81.88 75.12,-81.88"/>
<text xml:space="preserve" text-anchor="start" x="76.12" y="-85.72" font-family="Arial" font-size="12.00">AreaUnit</text>
<polygon fill="none" stroke="black" points="74.12,-80.88 74.12,-99.12 125.38,-99.12 125.38,-80.88 74.12,-80.88"/>
</a>
</g>
</g>
<!-- CityUnitsThing -->
<g id="node3" class="node">
<title>CityUnitsThing</title>
<g id="a_node3"><a xlink:href="../CityUnitsThing" xlink:title="&lt;TABLE&gt;">
<polygon fill="lightgray" stroke="none" points="1,-9.88 1,-26.12 82.5,-26.12 82.5,-9.88 1,-9.88"/>
<text xml:space="preserve" text-anchor="start" x="2" y="-13.72" font-family="Arial" font-size="12.00">CityUnitsThing</text>
<polygon fill="none" stroke="black" points="0,-8.88 0,-27.12 83.5,-27.12 83.5,-8.88 0,-8.88"/>
</a>
</g>
</g>
<!-- AreaUnit&#45;&gt;CityUnitsThing -->
<g id="edge1" class="edge">
<title>AreaUnit&#45;&gt;CityUnitsThing</title>
<path fill="none" stroke="black" d="M85.71,-72.05C78.87,-63.8 70.5,-53.7 62.91,-44.54"/>
<polygon fill="none" stroke="black" points="65.7,-42.42 56.63,-36.95 60.31,-46.89 65.7,-42.42"/>
</g>
<!-- i72_Unit_of_measure -->
<g id="node4" class="node">
<title>i72_Unit_of_measure</title>
<g id="a_node4"><a xlink:href="https://w3id.org/citydata/21972/v1/Unit_of_measure" xlink:title="&lt;TABLE&gt;">
<polygon fill="lightgray" stroke="none" points="102.25,-9.88 102.25,-26.12 215.25,-26.12 215.25,-9.88 102.25,-9.88"/>
<text xml:space="preserve" text-anchor="start" x="103.25" y="-13.72" font-family="Arial" font-size="12.00">i72:Unit_of_measure</text>
<polygon fill="none" stroke="black" points="101.25,-8.88 101.25,-27.12 216.25,-27.12 216.25,-8.88 101.25,-8.88"/>
</a>
</g>
</g>
<!-- AreaUnit&#45;&gt;i72_Unit_of_measure -->
<g id="edge2" class="edge">
<title>AreaUnit&#45;&gt;i72_Unit_of_measure</title>
<path fill="none" stroke="black" d="M114.03,-72.05C120.99,-63.8 129.5,-53.7 137.23,-44.54"/>
<polygon fill="none" stroke="black" points="139.86,-46.85 143.62,-36.95 134.5,-42.34 139.86,-46.85"/>
</g>
<!-- Invis -->
</g>
</svg>
