<?xml version="1.0" encoding="UTF-8" standalone="no"?>
<!DOCTYPE svg PUBLIC "-//W3C//DTD SVG 1.1//EN"
 "http://www.w3.org/Graphics/SVG/1.1/DTD/svg11.dtd">
<!-- Generated by graphviz version 14.0.2 (20251019.1705)
 -->
<!-- Pages: 1 -->
<svg width="212pt" height="132pt"
 viewBox="0.00 0.00 212.00 132.00" xmlns="http://www.w3.org/2000/svg" xmlns:xlink="http://www.w3.org/1999/xlink">
<g id="graph0" class="graph" transform="scale(1 1) rotate(0) translate(4 128)">
<polygon fill="white" stroke="none" points="-4,4 -4,-128 207.75,-128 207.75,4 -4,4"/>
<g id="clust2" class="cluster">
<title>cluster_associated</title>
</g>
<!-- Area -->
<g id="node1" class="node">
<title>Area</title>
<g id="a_node1"><a xlink:href="../Area.md" xlink:title="&lt;TABLE&gt;">
<polygon fill="lightgray" stroke="none" points="75,-25.88 75,-42.12 102.5,-42.12 102.5,-25.88 75,-25.88"/>
<text xml:space="preserve" text-anchor="start" x="76" y="-29.73" font-family="Arial" font-size="12.00">Area</text>
<polygon fill="none" stroke="black" points="74,-24.88 74,-43.12 103.5,-43.12 103.5,-24.88 74,-24.88"/>
</a>
</g>
</g>
<!-- CityUnitsThing -->
<g id="node3" class="node">
<title>CityUnitsThing</title>
<g id="a_node3"><a xlink:href="../CityUnitsThing.md" xlink:title="&lt;TABLE&gt;">
<polygon fill="lightgray" stroke="none" points="1,-97.88 1,-114.12 82.5,-114.12 82.5,-97.88 1,-97.88"/>
<text xml:space="preserve" text-anchor="start" x="2" y="-101.72" font-family="Arial" font-size="12.00">CityUnitsThing</text>
<polygon fill="none" stroke="black" points="0,-96.88 0,-115.12 83.5,-115.12 83.5,-96.88 0,-96.88"/>
</a>
</g>
</g>
<!-- Area&#45;&gt;CityUnitsThing -->
<g id="edge1" class="edge">
<title>Area&#45;&gt;CityUnitsThing</title>
<path fill="none" stroke="black" d="M77.48,-51.79C72.07,-59.85 65.46,-69.69 59.4,-78.71"/>
<polygon fill="none" stroke="black" points="56.64,-76.55 53.97,-86.8 62.45,-80.45 56.64,-76.55"/>
</g>
<!-- i72_Quantity -->
<g id="node4" class="node">
<title>i72_Quantity</title>
<polygon fill="lightgray" stroke="none" points="102.88,-97.88 102.88,-114.12 168.62,-114.12 168.62,-97.88 102.88,-97.88"/>
<text xml:space="preserve" text-anchor="start" x="103.88" y="-101.72" font-family="Arial" font-size="12.00">i72:Quantity</text>
<polygon fill="none" stroke="black" points="101.88,-96.88 101.88,-115.12 169.62,-115.12 169.62,-96.88 101.88,-96.88"/>
</g>
<!-- Area&#45;&gt;i72_Quantity -->
<g id="edge2" class="edge">
<title>Area&#45;&gt;i72_Quantity</title>
<path fill="none" stroke="black" d="M100.02,-51.79C105.43,-59.85 112.04,-69.69 118.1,-78.71"/>
<polygon fill="none" stroke="black" points="115.05,-80.45 123.53,-86.8 120.86,-76.55 115.05,-80.45"/>
</g>
<!-- Invis -->
</g>
</svg>
