<?xml version="1.0" encoding="UTF-8" standalone="no"?>
<!DOCTYPE svg PUBLIC "-//W3C//DTD SVG 1.1//EN"
 "http://www.w3.org/Graphics/SVG/1.1/DTD/svg11.dtd">
<!-- Generated by graphviz version 14.0.2 (20251019.1705)
 -->
<!-- Pages: 1 -->
<svg width="557pt" height="378pt"
 viewBox="0.00 0.00 557.00 378.00" xmlns="http://www.w3.org/2000/svg" xmlns:xlink="http://www.w3.org/1999/xlink">
<g id="graph0" class="graph" transform="scale(1 1) rotate(0) translate(4 374)">
<polygon fill="white" stroke="none" points="-4,4 -4,-374 553.43,-374 553.43,4 -4,4"/>
<g id="clust2" class="cluster">
<title>cluster_associated</title>
</g>
<!-- AtomicAgreement -->
<g id="node1" class="node">
<title>AtomicAgreement</title>
<g id="a_node1"><a xlink:href="../AtomicAgreement" xlink:title="&lt;TABLE&gt;">
<polygon fill="lightgray" stroke="none" points="236.83,-82.88 236.83,-99.12 334.08,-99.12 334.08,-82.88 236.83,-82.88"/>
<text xml:space="preserve" text-anchor="start" x="237.83" y="-86.72" font-family="Arial" font-size="12.00">AtomicAgreement</text>
<polygon fill="none" stroke="black" points="235.83,-81.88 235.83,-100.12 335.08,-100.12 335.08,-81.88 235.83,-81.88"/>
</a>
</g>
</g>
<!-- Invis -->
<!-- AtomicAgreement&#45;&gt;Invis -->
<!-- Activity -->
<g id="node3" class="node">
<title>Activity</title>
<g id="a_node3"><a xlink:href="../Activity" xlink:title="&lt;TABLE&gt;">
<polygon fill="lightgray" stroke="none" points="265.33,-254.88 265.33,-271.12 305.58,-271.12 305.58,-254.88 265.33,-254.88"/>
<text xml:space="preserve" text-anchor="start" x="266.33" y="-258.73" font-family="Arial" font-size="12.00">Activity</text>
<polygon fill="none" stroke="black" points="264.33,-253.88 264.33,-272.12 306.58,-272.12 306.58,-253.88 264.33,-253.88"/>
</a>
</g>
</g>
<!-- AtomicAgreement&#45;&gt;Activity -->
<g id="edge5" class="edge">
<title>AtomicAgreement&#45;&gt;Activity</title>
<path fill="none" stroke="black" d="M334.83,-96.86C373.88,-101.84 423.86,-111.15 436.46,-127 477.05,-178.08 379.48,-226.03 322.7,-248.56"/>
<polygon fill="black" stroke="black" points="321.75,-245.17 313.69,-252.04 324.28,-251.7 321.75,-245.17"/>
<text xml:space="preserve" text-anchor="middle" x="489.01" y="-193.05" font-family="Arial" font-size="11.00"> commitsToActivity </text>
<text xml:space="preserve" text-anchor="middle" x="489.01" y="-179.55" font-family="Arial" font-size="11.00"> «some» &#160;</text>
</g>
<!-- Agreement -->
<g id="node5" class="node">
<title>Agreement</title>
<g id="a_node5"><a xlink:href="../Agreement" xlink:title="&lt;TABLE&gt;">
<polygon fill="lightgray" stroke="none" points="255.21,-9.88 255.21,-26.12 315.71,-26.12 315.71,-9.88 255.21,-9.88"/>
<text xml:space="preserve" text-anchor="start" x="256.21" y="-13.72" font-family="Arial" font-size="12.00">Agreement</text>
<polygon fill="none" stroke="black" points="254.21,-8.88 254.21,-27.12 316.71,-27.12 316.71,-8.88 254.21,-8.88"/>
</a>
</g>
</g>
<!-- AtomicAgreement&#45;&gt;Agreement -->
<g id="edge1" class="edge">
<title>AtomicAgreement&#45;&gt;Agreement</title>
<path fill="none" stroke="black" d="M285.46,-73.17C285.46,-65.39 285.46,-55.94 285.46,-47.12"/>
<polygon fill="none" stroke="black" points="288.96,-47.22 285.46,-37.22 281.96,-47.22 288.96,-47.22"/>
</g>
<!-- Invis&#45;&gt;Activity -->
<!-- Agent -->
<g id="node4" class="node">
<title>Agent</title>
<g id="a_node4"><a xlink:href="../Agent" xlink:title="&lt;TABLE&gt;">
<polygon fill="lightgray" stroke="none" points="268.71,-181.88 268.71,-198.12 302.21,-198.12 302.21,-181.88 268.71,-181.88"/>
<text xml:space="preserve" text-anchor="start" x="269.71" y="-185.72" font-family="Arial" font-size="12.00">Agent</text>
<polygon fill="none" stroke="black" points="267.71,-180.88 267.71,-199.12 303.21,-199.12 303.21,-180.88 267.71,-180.88"/>
</a>
</g>
</g>
<!-- Activity&#45;&gt;Agent -->
<!-- Agent&#45;&gt;AtomicAgreement -->
<g id="edge6" class="edge">
<title>Agent&#45;&gt;AtomicAgreement</title>
<path fill="none" stroke="black" d="M258.57,-187.62C191.79,-183.93 22.54,-172.79 5.96,-154 -1.99,-145 -1.99,-136 5.96,-127 20.26,-110.79 148.13,-100.28 225.88,-95.32"/>
<polygon fill="black" stroke="black" points="235.75,-98.21 225.55,-95.34 235.31,-91.23 235.75,-98.21"/>
<text xml:space="preserve" text-anchor="middle" x="50.21" y="-143.55" font-family="Arial" font-size="11.00"> inverse hasClaim </text>
<text xml:space="preserve" text-anchor="middle" x="50.21" y="-130.05" font-family="Arial" font-size="11.00"> «only» &#160;</text>
</g>
<!-- Agent&#45;&gt;AtomicAgreement -->
<g id="edge7" class="edge">
<title>Agent&#45;&gt;AtomicAgreement</title>
<path fill="none" stroke="black" d="M258.52,-187.41C215.6,-184.25 134.71,-175.53 117.21,-154 84.57,-113.88 165.16,-99.72 225.75,-94.72"/>
<polygon fill="black" stroke="black" points="235.81,-97.47 225.57,-94.74 235.28,-90.49 235.81,-97.47"/>
<text xml:space="preserve" text-anchor="middle" x="158.83" y="-143.55" font-family="Arial" font-size="11.00"> inverse hasDuty </text>
<text xml:space="preserve" text-anchor="middle" x="158.83" y="-130.05" font-family="Arial" font-size="11.00"> «only» &#160;</text>
</g>
<!-- Agent&#45;&gt;AtomicAgreement -->
<g id="edge8" class="edge">
<title>Agent&#45;&gt;AtomicAgreement</title>
<path fill="none" stroke="black" d="M258.63,-180.95C245.65,-175.55 231.27,-166.99 223.71,-154 217.66,-143.63 217.66,-137.37 223.71,-127 226.25,-122.64 229.56,-118.78 233.32,-115.36"/>
<polygon fill="black" stroke="black" points="243.34,-112.06 233.28,-115.4 239.06,-106.52 243.34,-112.06"/>
<text xml:space="preserve" text-anchor="middle" x="275.08" y="-143.55" font-family="Arial" font-size="11.00"> inverse hasNoClaim </text>
<text xml:space="preserve" text-anchor="middle" x="275.08" y="-130.05" font-family="Arial" font-size="11.00"> «only» &#160;</text>
</g>
<!-- Agent&#45;&gt;AtomicAgreement -->
<g id="edge9" class="edge">
<title>Agent&#45;&gt;AtomicAgreement</title>
<path fill="none" stroke="black" d="M312.08,-172.13C317.88,-167.06 323.24,-160.97 326.46,-154 331.48,-143.1 331.48,-137.9 326.46,-127 324.7,-123.19 322.3,-119.64 319.53,-116.38"/>
<polygon fill="black" stroke="black" points="314.91,-106.76 319.48,-116.32 309.95,-111.69 314.91,-106.76"/>
<text xml:space="preserve" text-anchor="middle" x="381.22" y="-143.55" font-family="Arial" font-size="11.00"> inverse hasPrivilege </text>
<text xml:space="preserve" text-anchor="middle" x="381.22" y="-130.05" font-family="Arial" font-size="11.00"> «only» &#160;</text>
</g>
</g>
</svg>
