<?xml version="1.0" encoding="UTF-8" standalone="no"?>
<!DOCTYPE svg PUBLIC "-//W3C//DTD SVG 1.1//EN"
 "http://www.w3.org/Graphics/SVG/1.1/DTD/svg11.dtd">
<!-- Generated by graphviz version 14.1.3 (20260303.0454)
 -->
<!-- Pages: 1 -->
<svg width="169pt" height="286pt"
 viewBox="0.00 0.00 169.00 286.00" xmlns="http://www.w3.org/2000/svg" xmlns:xlink="http://www.w3.org/1999/xlink">
<g id="graph0" class="graph" transform="scale(1 1) rotate(0) translate(4 282)">
<polygon fill="white" stroke="none" points="-4,4 -4,-282 165.14,-282 165.14,4 -4,4"/>
<g id="clust3" class="cluster">
<title>cluster_associated</title>
</g>
<!-- CityUnitsThing -->
<g id="node1" class="node">
<title>CityUnitsThing</title>
<g id="a_node1"><a xlink:href="../CityUnitsThing" xlink:title="&lt;TABLE&gt;">
<polygon fill="lightgray" stroke="none" points="33.25,-251.88 33.25,-268.12 114.75,-268.12 114.75,-251.88 33.25,-251.88"/>
<text xml:space="preserve" text-anchor="start" x="34.25" y="-255.88" font-family="Arial" font-size="12.00">CityUnitsThing</text>
<polygon fill="none" stroke="black" points="32.25,-250.88 32.25,-269.12 115.75,-269.12 115.75,-250.88 32.25,-250.88"/>
</a>
</g>
</g>
<!-- Capacity -->
<g id="node2" class="node">
<title>Capacity</title>
<g id="a_node2"><a xlink:href="../Capacity" xlink:title="&lt;TABLE&gt;">
<polygon fill="lightgray" stroke="none" points="49.38,-178.88 49.38,-195.12 98.62,-195.12 98.62,-178.88 49.38,-178.88"/>
<text xml:space="preserve" text-anchor="start" x="50.38" y="-182.88" font-family="Arial" font-size="12.00">Capacity</text>
<polygon fill="none" stroke="black" points="48.38,-177.88 48.38,-196.12 99.62,-196.12 99.62,-177.88 48.38,-177.88"/>
</a>
</g>
</g>
<!-- Capacity&#45;&gt;CityUnitsThing -->
<g id="edge1" class="edge">
<title>Capacity&#45;&gt;CityUnitsThing</title>
<path fill="none" stroke="black" d="M74,-204.71C74,-212.47 74,-221.92 74,-230.74"/>
<polygon fill="none" stroke="black" points="70.5,-230.66 74,-240.66 77.5,-230.66 70.5,-230.66"/>
</g>
<!-- Invis -->
<!-- Capacity&#45;&gt;Invis -->
<!-- owl_Thing -->
<g id="node4" class="node">
<title>owl_Thing</title>
<g id="a_node4"><a xlink:href="https://w3id.org/citydata/imported/owl/latest/Thing" xlink:title="&lt;TABLE&gt;">
<polygon fill="lightgray" stroke="none" points="16.75,-25.88 16.75,-42.12 71.25,-42.12 71.25,-25.88 16.75,-25.88"/>
<text xml:space="preserve" text-anchor="start" x="17.75" y="-29.88" font-family="Arial" font-size="12.00">owl:Thing</text>
<polygon fill="none" stroke="black" points="15.75,-24.88 15.75,-43.12 72.25,-43.12 72.25,-24.88 15.75,-24.88"/>
</a>
</g>
</g>
<!-- Capacity&#45;&gt;owl_Thing -->
<g id="edge4" class="edge">
<title>Capacity&#45;&gt;owl_Thing</title>
<path fill="none" stroke="black" d="M78.21,-169.12C82.37,-149.45 87.03,-116.17 79,-89 76.09,-79.14 70.75,-69.4 65.1,-60.96"/>
<polygon fill="black" stroke="black" points="68.02,-59.02 59.34,-52.94 62.34,-63.11 68.02,-59.02"/>
<polygon fill="white" stroke="none" points="83.39,-89 83.39,-132 161.14,-132 161.14,-89 83.39,-89"/>
<text xml:space="preserve" text-anchor="start" x="87.39" y="-117.5" font-family="Arial" font-size="11.00">i72:defined_by</text>
<text xml:space="preserve" text-anchor="start" x="114.01" y="-96" font-family="Arial" font-size="11.00">1..*</text>
</g>
<!-- Invis&#45;&gt;owl_Thing -->
</g>
</svg>
