<?xml version="1.0" encoding="UTF-8" standalone="no"?>
<!DOCTYPE svg PUBLIC "-//W3C//DTD SVG 1.1//EN"
 "http://www.w3.org/Graphics/SVG/1.1/DTD/svg11.dtd">
<!-- Generated by graphviz version 14.0.2 (20251019.1705)
 -->
<!-- Pages: 1 -->
<svg width="165pt" height="132pt"
 viewBox="0.00 0.00 165.00 132.00" xmlns="http://www.w3.org/2000/svg" xmlns:xlink="http://www.w3.org/1999/xlink">
<g id="graph0" class="graph" transform="scale(1 1) rotate(0) translate(4 128)">
<polygon fill="white" stroke="none" points="-4,4 -4,-128 160.75,-128 160.75,4 -4,4"/>
<g id="clust2" class="cluster">
<title>cluster_associated</title>
</g>
<!-- Capacity -->
<g id="node1" class="node">
<title>Capacity</title>
<g id="a_node1"><a xlink:href="../Capacity.md" xlink:title="&lt;TABLE&gt;">
<polygon fill="lightgray" stroke="none" points="17.12,-25.88 17.12,-42.12 66.38,-42.12 66.38,-25.88 17.12,-25.88"/>
<text xml:space="preserve" text-anchor="start" x="18.12" y="-29.73" font-family="Arial" font-size="12.00">Capacity</text>
<polygon fill="none" stroke="black" points="16.12,-24.88 16.12,-43.12 67.38,-43.12 67.38,-24.88 16.12,-24.88"/>
</a>
</g>
</g>
<!-- CityUnitsThing -->
<g id="node3" class="node">
<title>CityUnitsThing</title>
<g id="a_node3"><a xlink:href="../CityUnitsThing.md" xlink:title="&lt;TABLE&gt;">
<polygon fill="lightgray" stroke="none" points="1,-97.88 1,-114.12 82.5,-114.12 82.5,-97.88 1,-97.88"/>
<text xml:space="preserve" text-anchor="start" x="2" y="-101.72" font-family="Arial" font-size="12.00">CityUnitsThing</text>
<polygon fill="none" stroke="black" points="0,-96.88 0,-115.12 83.5,-115.12 83.5,-96.88 0,-96.88"/>
</a>
</g>
</g>
<!-- Capacity&#45;&gt;CityUnitsThing -->
<g id="edge1" class="edge">
<title>Capacity&#45;&gt;CityUnitsThing</title>
<path fill="none" stroke="black" d="M41.75,-51.79C41.75,-59.25 41.75,-68.24 41.75,-76.69"/>
<polygon fill="none" stroke="black" points="38.25,-76.54 41.75,-86.54 45.25,-76.54 38.25,-76.54"/>
</g>
<!-- Invis -->
</g>
</svg>
