<?xml version="1.0" encoding="UTF-8" standalone="no"?>
<!DOCTYPE svg PUBLIC "-//W3C//DTD SVG 1.1//EN"
 "http://www.w3.org/Graphics/SVG/1.1/DTD/svg11.dtd">
<!-- Generated by graphviz version 14.1.3 (20260303.0454)
 -->
<!-- Pages: 1 -->
<svg width="210pt" height="286pt"
 viewBox="0.00 0.00 210.00 286.00" xmlns="http://www.w3.org/2000/svg" xmlns:xlink="http://www.w3.org/1999/xlink">
<g id="graph0" class="graph" transform="scale(1 1) rotate(0) translate(4 282)">
<polygon fill="white" stroke="none" points="-4,4 -4,-282 205.97,-282 205.97,4 -4,4"/>
<g id="clust3" class="cluster">
<title>cluster_associated</title>
</g>
<!-- CityUnitsThing -->
<g id="node1" class="node">
<title>CityUnitsThing</title>
<g id="a_node1"><a xlink:href="../CityUnitsThing" xlink:title="&lt;TABLE&gt;">
<polygon fill="lightgray" stroke="none" points="1,-251.88 1,-268.12 82.5,-268.12 82.5,-251.88 1,-251.88"/>
<text xml:space="preserve" text-anchor="start" x="2" y="-255.88" font-family="Arial" font-size="12.00">CityUnitsThing</text>
<polygon fill="none" stroke="black" points="0,-250.88 0,-269.12 83.5,-269.12 83.5,-250.88 0,-250.88"/>
</a>
</g>
</g>
<!-- i72_Measure -->
<g id="node2" class="node">
<title>i72_Measure</title>
<g id="a_node2"><a xlink:href="https://w3id.org/citydata/21972/v1/Measure" xlink:title="&lt;TABLE&gt;">
<polygon fill="lightgray" stroke="none" points="102.75,-251.88 102.75,-268.12 170.75,-268.12 170.75,-251.88 102.75,-251.88"/>
<text xml:space="preserve" text-anchor="start" x="103.75" y="-255.88" font-family="Arial" font-size="12.00">i72:Measure</text>
<polygon fill="none" stroke="black" points="101.75,-250.88 101.75,-269.12 171.75,-269.12 171.75,-250.88 101.75,-250.88"/>
</a>
</g>
</g>
<!-- CardinalityMeasure -->
<g id="node3" class="node">
<title>CardinalityMeasure</title>
<g id="a_node3"><a xlink:href="../CardinalityMeasure" xlink:title="&lt;TABLE&gt;">
<polygon fill="lightgray" stroke="none" points="35.62,-178.88 35.62,-195.12 141.88,-195.12 141.88,-178.88 35.62,-178.88"/>
<text xml:space="preserve" text-anchor="start" x="36.62" y="-182.88" font-family="Arial" font-size="12.00">CardinalityMeasure</text>
<polygon fill="none" stroke="black" points="34.62,-177.88 34.62,-196.12 142.88,-196.12 142.88,-177.88 34.62,-177.88"/>
</a>
</g>
</g>
<!-- CardinalityMeasure&#45;&gt;CityUnitsThing -->
<g id="edge1" class="edge">
<title>CardinalityMeasure&#45;&gt;CityUnitsThing</title>
<path fill="none" stroke="black" d="M77.69,-204.71C72.14,-213.09 65.3,-223.43 59.07,-232.84"/>
<polygon fill="none" stroke="black" points="56.33,-230.64 53.72,-240.91 62.16,-234.51 56.33,-230.64"/>
</g>
<!-- CardinalityMeasure&#45;&gt;i72_Measure -->
<g id="edge2" class="edge">
<title>CardinalityMeasure&#45;&gt;i72_Measure</title>
<path fill="none" stroke="black" d="M100.04,-204.71C105.71,-213.09 112.7,-223.43 119.06,-232.84"/>
<polygon fill="none" stroke="black" points="116.03,-234.6 124.53,-240.92 121.83,-230.68 116.03,-234.6"/>
</g>
<!-- Invis -->
<!-- CardinalityMeasure&#45;&gt;Invis -->
<!-- i72_Cardinality_unit -->
<g id="node5" class="node">
<title>i72_Cardinality_unit</title>
<g id="a_node5"><a xlink:href="https://w3id.org/citydata/21972/v1/Cardinality_unit" xlink:title="&lt;TABLE&gt;">
<polygon fill="lightgray" stroke="none" points="19,-25.88 19,-42.12 124.5,-42.12 124.5,-25.88 19,-25.88"/>
<text xml:space="preserve" text-anchor="start" x="20" y="-29.88" font-family="Arial" font-size="12.00">i72:Cardinality_unit</text>
<polygon fill="none" stroke="black" points="18,-24.88 18,-43.12 125.5,-43.12 125.5,-24.88 18,-24.88"/>
</a>
</g>
</g>
<!-- CardinalityMeasure&#45;&gt;i72_Cardinality_unit -->
<g id="edge5" class="edge">
<title>CardinalityMeasure&#45;&gt;i72_Cardinality_unit</title>
<path fill="none" stroke="black" stroke-dasharray="5,2" d="M92.11,-169C95.39,-149.49 99.16,-116.64 93.75,-89 91.99,-80.02 88.73,-70.65 85.25,-62.28"/>
<polygon fill="black" stroke="black" points="88.54,-61.07 81.27,-53.36 82.15,-63.92 88.54,-61.07"/>
<polygon fill="white" stroke="none" points="96.47,-89 96.47,-132 201.97,-132 201.97,-89 96.47,-89"/>
<text xml:space="preserve" text-anchor="start" x="127.1" y="-117.5" font-family="Arial" font-size="11.00">redefines</text>
<text xml:space="preserve" text-anchor="start" x="100.47" y="-96" font-family="Arial" font-size="11.00">i72:unit_of_measure</text>
</g>
<!-- Invis&#45;&gt;i72_Cardinality_unit -->
</g>
</svg>
