<?xml version="1.0" encoding="UTF-8" standalone="no"?>
<!DOCTYPE svg PUBLIC "-//W3C//DTD SVG 1.1//EN"
 "http://www.w3.org/Graphics/SVG/1.1/DTD/svg11.dtd">
<!-- Generated by graphviz version 14.0.2 (20251019.1705)
 -->
<!-- Pages: 1 -->
<svg width="239pt" height="132pt"
 viewBox="0.00 0.00 239.00 132.00" xmlns="http://www.w3.org/2000/svg" xmlns:xlink="http://www.w3.org/1999/xlink">
<g id="graph0" class="graph" transform="scale(1 1) rotate(0) translate(4 128)">
<polygon fill="white" stroke="none" points="-4,4 -4,-128 234.75,-128 234.75,4 -4,4"/>
<g id="clust2" class="cluster">
<title>cluster_associated</title>
</g>
<!-- CardinalityMeasure -->
<g id="node1" class="node">
<title>CardinalityMeasure</title>
<g id="a_node1"><a xlink:href="../CardinalityMeasure.md" xlink:title="&lt;TABLE&gt;">
<polygon fill="lightgray" stroke="none" points="35.62,-25.88 35.62,-42.12 141.88,-42.12 141.88,-25.88 35.62,-25.88"/>
<text xml:space="preserve" text-anchor="start" x="36.62" y="-29.73" font-family="Arial" font-size="12.00">CardinalityMeasure</text>
<polygon fill="none" stroke="black" points="34.62,-24.88 34.62,-43.12 142.88,-43.12 142.88,-24.88 34.62,-24.88"/>
</a>
</g>
</g>
<!-- CityUnitsThing -->
<g id="node3" class="node">
<title>CityUnitsThing</title>
<g id="a_node3"><a xlink:href="../CityUnitsThing.md" xlink:title="&lt;TABLE&gt;">
<polygon fill="lightgray" stroke="none" points="1,-97.88 1,-114.12 82.5,-114.12 82.5,-97.88 1,-97.88"/>
<text xml:space="preserve" text-anchor="start" x="2" y="-101.72" font-family="Arial" font-size="12.00">CityUnitsThing</text>
<polygon fill="none" stroke="black" points="0,-96.88 0,-115.12 83.5,-115.12 83.5,-96.88 0,-96.88"/>
</a>
</g>
</g>
<!-- CardinalityMeasure&#45;&gt;CityUnitsThing -->
<g id="edge1" class="edge">
<title>CardinalityMeasure&#45;&gt;CityUnitsThing</title>
<path fill="none" stroke="black" d="M77.48,-51.79C72.07,-59.85 65.46,-69.69 59.4,-78.71"/>
<polygon fill="none" stroke="black" points="56.64,-76.55 53.97,-86.8 62.45,-80.45 56.64,-76.55"/>
</g>
<!-- i72_Measure -->
<g id="node4" class="node">
<title>i72_Measure</title>
<polygon fill="lightgray" stroke="none" points="102.75,-97.88 102.75,-114.12 170.75,-114.12 170.75,-97.88 102.75,-97.88"/>
<text xml:space="preserve" text-anchor="start" x="103.75" y="-101.72" font-family="Arial" font-size="12.00">i72:Measure</text>
<polygon fill="none" stroke="black" points="101.75,-96.88 101.75,-115.12 171.75,-115.12 171.75,-96.88 101.75,-96.88"/>
</g>
<!-- CardinalityMeasure&#45;&gt;i72_Measure -->
<g id="edge2" class="edge">
<title>CardinalityMeasure&#45;&gt;i72_Measure</title>
<path fill="none" stroke="black" d="M100.26,-51.79C105.79,-59.85 112.54,-69.69 118.73,-78.71"/>
<polygon fill="none" stroke="black" points="115.73,-80.54 124.27,-86.81 121.51,-76.58 115.73,-80.54"/>
</g>
<!-- Invis -->
</g>
</svg>
