<?xml version="1.0" encoding="UTF-8" standalone="no"?>
<!DOCTYPE svg PUBLIC "-//W3C//DTD SVG 1.1//EN"
 "http://www.w3.org/Graphics/SVG/1.1/DTD/svg11.dtd">
<!-- Generated by graphviz version 14.0.2 (20251019.1705)
 -->
<!-- Pages: 1 -->
<svg width="685pt" height="232pt"
 viewBox="0.00 0.00 685.00 232.00" xmlns="http://www.w3.org/2000/svg" xmlns:xlink="http://www.w3.org/1999/xlink">
<g id="graph0" class="graph" transform="scale(1 1) rotate(0) translate(4 228)">
<polygon fill="white" stroke="none" points="-4,4 -4,-228 681.12,-228 681.12,4 -4,4"/>
<g id="clust2" class="cluster">
<title>cluster_associated</title>
</g>
<!-- Manifestation -->
<g id="node1" class="node">
<title>Manifestation</title>
<g id="a_node1"><a xlink:href="../_counters/Change__Manifestation.md" xlink:title="&lt;TABLE&gt;">
<polygon fill="lightgray" stroke="none" points="145.38,-124.88 145.38,-141.12 218.62,-141.12 218.62,-124.88 145.38,-124.88"/>
<text xml:space="preserve" text-anchor="start" x="146.38" y="-128.72" font-family="Arial" font-size="12.00">Manifestation</text>
<polygon fill="none" stroke="black" points="144.38,-123.88 144.38,-142.12 219.62,-142.12 219.62,-123.88 144.38,-123.88"/>
</a>
</g>
</g>
<!-- Manifestation&#45;&gt;Manifestation -->
<g id="edge5" class="edge">
<title>Manifestation&#45;&gt;Manifestation</title>
<path fill="none" stroke="black" d="M219.44,-135.27C229.75,-135.16 237.62,-134.4 237.62,-133 237.62,-132.19 234.99,-131.59 230.78,-131.22"/>
<polygon fill="black" stroke="black" points="231.09,-127.73 220.95,-130.8 230.79,-134.72 231.09,-127.73"/>
<text xml:space="preserve" text-anchor="middle" x="291.62" y="-136.05" font-family="Arial" font-size="11.00"> hasFirstManifestation </text>
<text xml:space="preserve" text-anchor="middle" x="291.62" y="-122.55" font-family="Arial" font-size="11.00"> «exactly 1» &#160;</text>
</g>
<!-- Manifestation&#45;&gt;Manifestation -->
<g id="edge6" class="edge">
<title>Manifestation&#45;&gt;Manifestation</title>
<path fill="none" stroke="black" d="M219.48,-136.49C269.01,-138.68 345.62,-137.51 345.62,-133 345.62,-128.79 279.13,-127.5 229.98,-129.11"/>
<polygon fill="black" stroke="black" points="219.84,-125.99 229.97,-129.11 220.11,-132.99 219.84,-125.99"/>
<text xml:space="preserve" text-anchor="middle" x="428.88" y="-136.05" font-family="Arial" font-size="11.00"> inverse hasPreviousManifestation </text>
<text xml:space="preserve" text-anchor="middle" x="428.88" y="-122.55" font-family="Arial" font-size="11.00"> «max 1» &#160;</text>
</g>
<!-- Manifestation&#45;&gt;Manifestation -->
<g id="edge7" class="edge">
<title>Manifestation&#45;&gt;Manifestation</title>
<path fill="none" stroke="black" d="M219.33,-136.93C307.64,-141.85 512.12,-140.54 512.12,-133 512.12,-125.77 324.07,-124.27 230.76,-128.49"/>
<polygon fill="black" stroke="black" points="230.65,-125 220.84,-128.99 231,-131.99 230.65,-125"/>
<text xml:space="preserve" text-anchor="middle" x="576.62" y="-136.05" font-family="Arial" font-size="11.00"> hasPreviousManifestation </text>
<text xml:space="preserve" text-anchor="middle" x="576.62" y="-122.55" font-family="Arial" font-size="11.00"> «max 1» &#160;</text>
</g>
<!-- ChangeOntologyThing -->
<g id="node2" class="node">
<title>ChangeOntologyThing</title>
<g id="a_node2"><a xlink:href="../_counters/Change__ChangeOntologyThing.md" xlink:title="&lt;TABLE&gt;">
<polygon fill="lightgray" stroke="none" points="120.25,-197.88 120.25,-214.12 243.75,-214.12 243.75,-197.88 120.25,-197.88"/>
<text xml:space="preserve" text-anchor="start" x="121.25" y="-201.72" font-family="Arial" font-size="12.00">ChangeOntologyThing</text>
<polygon fill="none" stroke="black" points="119.25,-196.88 119.25,-215.12 244.75,-215.12 244.75,-196.88 119.25,-196.88"/>
</a>
</g>
</g>
<!-- Manifestation&#45;&gt;ChangeOntologyThing -->
<g id="edge1" class="edge">
<title>Manifestation&#45;&gt;ChangeOntologyThing</title>
<path fill="none" stroke="black" d="M182,-150.71C182,-158.47 182,-167.92 182,-176.74"/>
<polygon fill="none" stroke="black" points="178.5,-176.66 182,-186.66 185.5,-176.66 178.5,-176.66"/>
</g>
<!-- Invis -->
<!-- Manifestation&#45;&gt;Invis -->
<!-- time__TemporalEntity -->
<g id="node4" class="node">
<title>time__TemporalEntity</title>
<polygon fill="lightgray" stroke="none" points="17,-25.88 17,-42.12 127,-42.12 127,-25.88 17,-25.88"/>
<text xml:space="preserve" text-anchor="start" x="18" y="-29.73" font-family="Arial" font-size="12.00">time::TemporalEntity</text>
<polygon fill="none" stroke="black" points="16,-24.88 16,-43.12 128,-43.12 128,-24.88 16,-24.88"/>
</g>
<!-- Manifestation&#45;&gt;time__TemporalEntity -->
<g id="edge4" class="edge">
<title>Manifestation&#45;&gt;time__TemporalEntity</title>
<path fill="none" stroke="black" d="M162.84,-115.1C145.33,-99.66 119.24,-76.66 99.51,-59.26"/>
<polygon fill="black" stroke="black" points="101.89,-56.69 92.08,-52.7 97.26,-61.94 101.89,-56.69"/>
<text xml:space="preserve" text-anchor="middle" x="171.59" y="-86.55" font-family="Arial" font-size="11.00"> existsAt </text>
<text xml:space="preserve" text-anchor="middle" x="171.59" y="-73.05" font-family="Arial" font-size="11.00"> «exactly 1» &#160;</text>
</g>
<!-- Invis&#45;&gt;time__TemporalEntity -->
</g>
</svg>
