<?xml version="1.0" encoding="UTF-8" standalone="no"?>
<!DOCTYPE svg PUBLIC "-//W3C//DTD SVG 1.1//EN"
 "http://www.w3.org/Graphics/SVG/1.1/DTD/svg11.dtd">
<!-- Generated by graphviz version 14.0.2 (20251019.1705)
 -->
<!-- Pages: 1 -->
<svg width="291pt" height="258pt"
 viewBox="0.00 0.00 291.00 258.00" xmlns="http://www.w3.org/2000/svg" xmlns:xlink="http://www.w3.org/1999/xlink">
<g id="graph0" class="graph" transform="scale(1 1) rotate(0) translate(4 254)">
<polygon fill="white" stroke="none" points="-4,4 -4,-254 287.47,-254 287.47,4 -4,4"/>
<g id="clust2" class="cluster">
<title>cluster_associated</title>
</g>
<!-- CapacityRate -->
<g id="node1" class="node">
<title>CapacityRate</title>
<g id="a_node1"><a xlink:href="../classes/CityUnits__CapacityRate.md" xlink:title="&lt;TABLE&gt;">
<polygon fill="lightgray" stroke="none" points="106.62,-124.88 106.62,-141.12 181.38,-141.12 181.38,-124.88 106.62,-124.88"/>
<text xml:space="preserve" text-anchor="start" x="107.62" y="-128.72" font-family="Arial" font-size="12.00">CapacityRate</text>
<polygon fill="none" stroke="black" points="105.62,-123.88 105.62,-142.12 182.38,-142.12 182.38,-123.88 105.62,-123.88"/>
</a>
</g>
</g>
<!-- i72__Quantity -->
<g id="node2" class="node">
<title>i72__Quantity</title>
<polygon fill="lightgray" stroke="none" points="63.62,-223.88 63.62,-240.12 132.38,-240.12 132.38,-223.88 63.62,-223.88"/>
<text xml:space="preserve" text-anchor="start" x="64.62" y="-227.72" font-family="Arial" font-size="12.00">i72::Quantity</text>
<polygon fill="none" stroke="black" points="62.62,-222.88 62.62,-241.12 133.38,-241.12 133.38,-222.88 62.62,-222.88"/>
</g>
<!-- CapacityRate&#45;&gt;i72__Quantity -->
<g id="edge1" class="edge">
<title>CapacityRate&#45;&gt;i72__Quantity</title>
<path fill="none" stroke="black" d="M136.08,-150.7C129.12,-165.39 118.86,-187.02 110.74,-204.13"/>
<polygon fill="none" stroke="black" points="107.78,-202.2 106.66,-212.74 114.11,-205.2 107.78,-202.2"/>
</g>
<!-- Invis -->
<!-- CapacityRate&#45;&gt;Invis -->
<!-- Capacity -->
<g id="node4" class="node">
<title>Capacity</title>
<g id="a_node4"><a xlink:href="../_counters/CityUnits__Capacity.md" xlink:title="&lt;TABLE&gt;">
<polygon fill="lightgray" stroke="none" points="18.38,-25.88 18.38,-42.12 67.62,-42.12 67.62,-25.88 18.38,-25.88"/>
<text xml:space="preserve" text-anchor="start" x="19.38" y="-29.73" font-family="Arial" font-size="12.00">Capacity</text>
<polygon fill="none" stroke="black" points="17.38,-24.88 17.38,-43.12 68.62,-43.12 68.62,-24.88 17.38,-24.88"/>
</a>
</g>
</g>
<!-- CapacityRate&#45;&gt;Capacity -->
<g id="edge5" class="edge">
<title>CapacityRate&#45;&gt;Capacity</title>
<path fill="none" stroke="black" d="M126.41,-115.1C110.33,-99.66 86.38,-76.66 68.26,-59.26"/>
<polygon fill="black" stroke="black" points="71.12,-57.15 61.48,-52.75 66.27,-62.2 71.12,-57.15"/>
<text xml:space="preserve" text-anchor="middle" x="150.14" y="-86.55" font-family="Arial" font-size="11.00"> i72::cardinality_of </text>
<text xml:space="preserve" text-anchor="middle" x="150.14" y="-73.05" font-family="Arial" font-size="11.00"> «exactly 1» &#160;</text>
</g>
<!-- N124f6f3594f249c78c13c3b71eccad05 -->
<g id="node5" class="node">
<title>N124f6f3594f249c78c13c3b71eccad05</title>
<polygon fill="lightyellow" stroke="none" points="151.62,-222.88 151.62,-241.12 228.38,-241.12 228.38,-222.88 151.62,-222.88"/>
<text xml:space="preserve" text-anchor="start" x="153.62" y="-227.72" font-family="Arial" font-size="12.00">ComplexExpr</text>
<polygon fill="none" stroke="black" points="151.62,-222.88 151.62,-241.12 228.38,-241.12 228.38,-222.88 151.62,-222.88"/>
</g>
<!-- CapacityRate&#45;&gt;N124f6f3594f249c78c13c3b71eccad05 -->
<g id="edge4" class="edge">
<title>CapacityRate&#45;&gt;N124f6f3594f249c78c13c3b71eccad05</title>
<path fill="none" stroke="black" stroke-dasharray="5,2" d="M151.92,-150.7C158.88,-165.39 169.14,-187.02 177.26,-204.13"/>
<polygon fill="black" stroke="black" points="173.89,-205.2 181.34,-212.74 180.22,-202.2 173.89,-205.2"/>
<text xml:space="preserve" text-anchor="middle" x="227.97" y="-185.55" font-family="Arial" font-size="11.00"> onProperty: i72::value </text>
<text xml:space="preserve" text-anchor="middle" x="227.97" y="-172.05" font-family="Arial" font-size="11.00"> «only» &#160;</text>
</g>
<!-- Invis&#45;&gt;Capacity -->
</g>
</svg>
