<?xml version="1.0" encoding="UTF-8" standalone="no"?>
<!DOCTYPE svg PUBLIC "-//W3C//DTD SVG 1.1//EN"
 "http://www.w3.org/Graphics/SVG/1.1/DTD/svg11.dtd">
<!-- Generated by graphviz version 14.0.2 (20251019.1705)
 -->
<!-- Pages: 1 -->
<svg width="295pt" height="305pt"
 viewBox="0.00 0.00 295.00 305.00" xmlns="http://www.w3.org/2000/svg" xmlns:xlink="http://www.w3.org/1999/xlink">
<g id="graph0" class="graph" transform="scale(1 1) rotate(0) translate(4 301)">
<polygon fill="white" stroke="none" points="-4,4 -4,-301 290.75,-301 290.75,4 -4,4"/>
<g id="clust2" class="cluster">
<title>cluster_associated</title>
</g>
<!-- CardinalityUnitPerTime -->
<g id="node1" class="node">
<title>CardinalityUnitPerTime</title>
<g id="a_node1"><a xlink:href="../classes/CityUnits__CardinalityUnitPerTime.md" xlink:title="&lt;TABLE&gt;">
<polygon fill="lightgray" stroke="none" points="142.75,-197.88 142.75,-214.12 269.25,-214.12 269.25,-197.88 142.75,-197.88"/>
<text xml:space="preserve" text-anchor="start" x="143.75" y="-201.72" font-family="Arial" font-size="12.00">CardinalityUnitPerTime</text>
<polygon fill="none" stroke="black" points="141.75,-196.88 141.75,-215.12 270.25,-215.12 270.25,-196.88 141.75,-196.88"/>
</a>
</g>
</g>
<!-- i72__Unit_of_measureDivision -->
<g id="node2" class="node">
<title>i72__Unit_of_measureDivision</title>
<polygon fill="lightgray" stroke="none" points="126.25,-270.88 126.25,-287.12 285.75,-287.12 285.75,-270.88 126.25,-270.88"/>
<text xml:space="preserve" text-anchor="start" x="127.25" y="-274.73" font-family="Arial" font-size="12.00">i72::Unit_of_measureDivision</text>
<polygon fill="none" stroke="black" points="125.25,-269.88 125.25,-288.12 286.75,-288.12 286.75,-269.88 125.25,-269.88"/>
</g>
<!-- CardinalityUnitPerTime&#45;&gt;i72__Unit_of_measureDivision -->
<g id="edge1" class="edge">
<title>CardinalityUnitPerTime&#45;&gt;i72__Unit_of_measureDivision</title>
<path fill="none" stroke="black" d="M206,-223.71C206,-231.47 206,-240.92 206,-249.74"/>
<polygon fill="none" stroke="black" points="202.5,-249.66 206,-259.66 209.5,-249.66 202.5,-249.66"/>
</g>
<!-- Invis -->
<!-- CardinalityUnitPerTime&#45;&gt;Invis -->
<!-- i72__Cardinality_unit -->
<g id="node4" class="node">
<title>i72__Cardinality_unit</title>
<polygon fill="lightgray" stroke="none" points="16.75,-98.88 16.75,-115.12 125.25,-115.12 125.25,-98.88 16.75,-98.88"/>
<text xml:space="preserve" text-anchor="start" x="17.75" y="-102.72" font-family="Arial" font-size="12.00">i72::Cardinality_unit</text>
<polygon fill="none" stroke="black" points="15.75,-97.88 15.75,-116.12 126.25,-116.12 126.25,-97.88 15.75,-97.88"/>
</g>
<!-- CardinalityUnitPerTime&#45;&gt;i72__Cardinality_unit -->
<g id="edge6" class="edge">
<title>CardinalityUnitPerTime&#45;&gt;i72__Cardinality_unit</title>
<path fill="none" stroke="black" d="M144.77,-188.01C133.62,-183.27 122.58,-177.34 113.25,-170 101.25,-160.56 91.39,-146.77 84.21,-134.59"/>
<polygon fill="black" stroke="black" points="87.47,-133.25 79.57,-126.2 81.35,-136.64 87.47,-133.25"/>
<text xml:space="preserve" text-anchor="middle" x="151.12" y="-159.55" font-family="Arial" font-size="11.00"> i72::numerator </text>
<text xml:space="preserve" text-anchor="middle" x="151.12" y="-146.05" font-family="Arial" font-size="11.00"> «only» &#160;</text>
</g>
<!-- TimeUnit -->
<g id="node5" class="node">
<title>TimeUnit</title>
<g id="a_node5"><a xlink:href="../_counters/CityUnits__TimeUnit.md" xlink:title="&lt;TABLE&gt;">
<polygon fill="lightgray" stroke="none" points="60,-25.88 60,-42.12 110,-42.12 110,-25.88 60,-25.88"/>
<text xml:space="preserve" text-anchor="start" x="61" y="-29.73" font-family="Arial" font-size="12.00">TimeUnit</text>
<polygon fill="none" stroke="black" points="59,-24.88 59,-43.12 111,-43.12 111,-24.88 59,-24.88"/>
</a>
</g>
</g>
<!-- CardinalityUnitPerTime&#45;&gt;TimeUnit -->
<g id="edge5" class="edge">
<title>CardinalityUnitPerTime&#45;&gt;TimeUnit</title>
<path fill="none" stroke="black" d="M203.7,-188.07C201.39,-175.09 197,-157.07 189,-143 170.06,-109.69 138.52,-78.98 115.13,-58.89"/>
<polygon fill="black" stroke="black" points="117.67,-56.46 107.76,-52.71 113.17,-61.82 117.67,-56.46"/>
<text xml:space="preserve" text-anchor="middle" x="220.55" y="-110.05" font-family="Arial" font-size="11.00"> i72::denominator </text>
<text xml:space="preserve" text-anchor="middle" x="220.55" y="-96.55" font-family="Arial" font-size="11.00"> «only» &#160;</text>
</g>
<!-- Invis&#45;&gt;i72__Cardinality_unit -->
<!-- i72__Cardinality_unit&#45;&gt;TimeUnit -->
</g>
</svg>
