<?xml version="1.0" encoding="UTF-8" standalone="no"?>
<!DOCTYPE svg PUBLIC "-//W3C//DTD SVG 1.1//EN"
 "http://www.w3.org/Graphics/SVG/1.1/DTD/svg11.dtd">
<!-- Generated by graphviz version 14.0.2 (20251019.1705)
 -->
<!-- Pages: 1 -->
<svg width="210pt" height="159pt"
 viewBox="0.00 0.00 210.00 159.00" xmlns="http://www.w3.org/2000/svg" xmlns:xlink="http://www.w3.org/1999/xlink">
<g id="graph0" class="graph" transform="scale(1 1) rotate(0) translate(4 155)">
<polygon fill="white" stroke="none" points="-4,4 -4,-155 205.75,-155 205.75,4 -4,4"/>
<g id="clust2" class="cluster">
<title>cluster_associated</title>
</g>
<!-- Capacity -->
<g id="node1" class="node">
<title>Capacity</title>
<g id="a_node1"><a xlink:href="../classes/CityUnits__Capacity.md" xlink:title="&lt;TABLE&gt;">
<polygon fill="lightgray" stroke="none" points="62.12,-25.88 62.12,-42.12 111.38,-42.12 111.38,-25.88 62.12,-25.88"/>
<text xml:space="preserve" text-anchor="start" x="63.12" y="-29.73" font-family="Arial" font-size="12.00">Capacity</text>
<polygon fill="none" stroke="black" points="61.12,-24.88 61.12,-43.12 112.38,-43.12 112.38,-24.88 61.12,-24.88"/>
</a>
</g>
</g>
<!-- CityUnitsThing -->
<g id="node2" class="node">
<title>CityUnitsThing</title>
<g id="a_node2"><a xlink:href="../_counters/CityUnits__CityUnitsThing.md" xlink:title="&lt;TABLE&gt;">
<polygon fill="lightgray" stroke="none" points="1,-124.88 1,-141.12 82.5,-141.12 82.5,-124.88 1,-124.88"/>
<text xml:space="preserve" text-anchor="start" x="2" y="-128.72" font-family="Arial" font-size="12.00">CityUnitsThing</text>
<polygon fill="none" stroke="black" points="0,-123.88 0,-142.12 83.5,-142.12 83.5,-123.88 0,-123.88"/>
</a>
</g>
</g>
<!-- Capacity&#45;&gt;CityUnitsThing -->
<g id="edge1" class="edge">
<title>Capacity&#45;&gt;CityUnitsThing</title>
<path fill="none" stroke="black" d="M79,-51.7C72.19,-66.39 62.15,-88.02 54.21,-105.13"/>
<polygon fill="none" stroke="black" points="51.26,-103.19 50.23,-113.73 57.61,-106.13 51.26,-103.19"/>
</g>
<!-- owl__Thing -->
<g id="node4" class="node">
<title>owl__Thing</title>
<polygon fill="lightgray" stroke="none" points="103,-124.88 103,-141.12 160.5,-141.12 160.5,-124.88 103,-124.88"/>
<text xml:space="preserve" text-anchor="start" x="104" y="-128.72" font-family="Arial" font-size="12.00">owl::Thing</text>
<polygon fill="none" stroke="black" points="102,-123.88 102,-142.12 161.5,-142.12 161.5,-123.88 102,-123.88"/>
</g>
<!-- Capacity&#45;&gt;owl__Thing -->
<g id="edge2" class="edge">
<title>Capacity&#45;&gt;owl__Thing</title>
<path fill="none" stroke="black" d="M94.5,-51.7C101.31,-66.39 111.35,-88.02 119.29,-105.13"/>
<polygon fill="black" stroke="black" points="115.89,-106.13 123.27,-113.73 122.24,-103.19 115.89,-106.13"/>
<text xml:space="preserve" text-anchor="middle" x="153.98" y="-86.55" font-family="Arial" font-size="11.00"> i72::defined_by </text>
<text xml:space="preserve" text-anchor="middle" x="153.98" y="-73.05" font-family="Arial" font-size="11.00"> «min 1» &#160;</text>
</g>
<!-- Invis -->
</g>
</svg>
