<?xml version="1.0" encoding="UTF-8" standalone="no"?>
<!DOCTYPE svg PUBLIC "-//W3C//DTD SVG 1.1//EN"
 "http://www.w3.org/Graphics/SVG/1.1/DTD/svg11.dtd">
<!-- Generated by graphviz version 14.0.2 (20251019.1705)
 -->
<!-- Pages: 1 -->
<svg width="360pt" height="232pt"
 viewBox="0.00 0.00 360.00 232.00" xmlns="http://www.w3.org/2000/svg" xmlns:xlink="http://www.w3.org/1999/xlink">
<g id="graph0" class="graph" transform="scale(1 1) rotate(0) translate(4 228)">
<polygon fill="white" stroke="none" points="-4,4 -4,-228 355.5,-228 355.5,4 -4,4"/>
<g id="clust2" class="cluster">
<title>cluster_associated</title>
</g>
<!-- MonetaryValue -->
<g id="node1" class="node">
<title>MonetaryValue</title>
<g id="a_node1"><a xlink:href="../classes/CityUnits__MonetaryValue.md" xlink:title="&lt;TABLE&gt;">
<polygon fill="lightgray" stroke="none" points="135.5,-133 135.5,-149.25 350.5,-149.25 350.5,-133 135.5,-133"/>
<text xml:space="preserve" text-anchor="start" x="203.25" y="-136.85" font-family="Arial" font-size="12.00">MonetaryValue</text>
<text xml:space="preserve" text-anchor="start" x="136.5" y="-120.6" font-family="Arial" font-size="12.00">hasRelativeYear: xsd::gYear «exactly 1»</text>
<polygon fill="none" stroke="black" points="134.5,-115.75 134.5,-150.25 351.5,-150.25 351.5,-115.75 134.5,-115.75"/>
</a>
</g>
</g>
<!-- i72__Measure -->
<g id="node2" class="node">
<title>i72__Measure</title>
<polygon fill="lightgray" stroke="none" points="207.5,-197.88 207.5,-214.12 278.5,-214.12 278.5,-197.88 207.5,-197.88"/>
<text xml:space="preserve" text-anchor="start" x="208.5" y="-201.72" font-family="Arial" font-size="12.00">i72::Measure</text>
<polygon fill="none" stroke="black" points="206.5,-196.88 206.5,-215.12 279.5,-215.12 279.5,-196.88 206.5,-196.88"/>
</g>
<!-- MonetaryValue&#45;&gt;i72__Measure -->
<g id="edge1" class="edge">
<title>MonetaryValue&#45;&gt;i72__Measure</title>
<path fill="none" stroke="black" d="M243,-150.71C243,-158.47 243,-167.92 243,-176.74"/>
<polygon fill="none" stroke="black" points="239.5,-176.66 243,-186.66 246.5,-176.66 239.5,-176.66"/>
</g>
<!-- Invis -->
<!-- MonetaryValue&#45;&gt;Invis -->
<!-- i72__Monetary_unit -->
<g id="node4" class="node">
<title>i72__Monetary_unit</title>
<polygon fill="lightgray" stroke="none" points="16.88,-25.88 16.88,-42.12 117.12,-42.12 117.12,-25.88 16.88,-25.88"/>
<text xml:space="preserve" text-anchor="start" x="17.88" y="-29.73" font-family="Arial" font-size="12.00">i72::Monetary_unit</text>
<polygon fill="none" stroke="black" points="15.88,-24.88 15.88,-43.12 118.12,-43.12 118.12,-24.88 15.88,-24.88"/>
</g>
<!-- MonetaryValue&#45;&gt;i72__Monetary_unit -->
<g id="edge4" class="edge">
<title>MonetaryValue&#45;&gt;i72__Monetary_unit</title>
<path fill="none" stroke="black" stroke-dasharray="5,2" d="M212.34,-115.1C183.28,-99.09 139.45,-74.93 107.52,-57.33"/>
<polygon fill="black" stroke="black" points="109.37,-54.36 98.93,-52.6 105.99,-60.49 109.37,-54.36"/>
<text xml:space="preserve" text-anchor="middle" x="258.81" y="-86.55" font-family="Arial" font-size="11.00"> onProperty: i72::unit_of_measure </text>
<text xml:space="preserve" text-anchor="middle" x="258.81" y="-73.05" font-family="Arial" font-size="11.00"> «only» &#160;</text>
</g>
<!-- Invis&#45;&gt;i72__Monetary_unit -->
</g>
</svg>
