<?xml version="1.0" encoding="UTF-8" standalone="no"?>
<!DOCTYPE svg PUBLIC "-//W3C//DTD SVG 1.1//EN"
 "http://www.w3.org/Graphics/SVG/1.1/DTD/svg11.dtd">
<!-- Generated by graphviz version 14.0.2 (20251019.1705)
 -->
<!-- Pages: 1 -->
<svg width="346pt" height="159pt"
 viewBox="0.00 0.00 346.00 159.00" xmlns="http://www.w3.org/2000/svg" xmlns:xlink="http://www.w3.org/1999/xlink">
<g id="graph0" class="graph" transform="scale(1 1) rotate(0) translate(4 155)">
<polygon fill="white" stroke="none" points="-4,4 -4,-155 341.65,-155 341.65,4 -4,4"/>
<g id="clust2" class="cluster">
<title>cluster_associated</title>
</g>
<!-- duration -->
<g id="node1" class="node">
<title>duration</title>
<g id="a_node1"><a xlink:href="../classes/CityUnits__duration.md" xlink:title="&lt;TABLE&gt;">
<polygon fill="lightgray" stroke="none" points="129.62,-25.88 129.62,-42.12 175.12,-42.12 175.12,-25.88 129.62,-25.88"/>
<text xml:space="preserve" text-anchor="start" x="130.62" y="-29.73" font-family="Arial" font-size="12.00">duration</text>
<polygon fill="none" stroke="black" points="128.62,-24.88 128.62,-43.12 176.12,-43.12 176.12,-24.88 128.62,-24.88"/>
</a>
</g>
</g>
<!-- i72__Quantity -->
<g id="node2" class="node">
<title>i72__Quantity</title>
<polygon fill="lightgray" stroke="none" points="1,-124.88 1,-141.12 69.75,-141.12 69.75,-124.88 1,-124.88"/>
<text xml:space="preserve" text-anchor="start" x="2" y="-128.72" font-family="Arial" font-size="12.00">i72::Quantity</text>
<polygon fill="none" stroke="black" points="0,-123.88 0,-142.12 70.75,-142.12 70.75,-123.88 0,-123.88"/>
</g>
<!-- duration&#45;&gt;i72__Quantity -->
<g id="edge1" class="edge">
<title>duration&#45;&gt;i72__Quantity</title>
<path fill="none" stroke="black" d="M132.23,-51.7C113.6,-67.15 85.69,-90.28 64.61,-107.76"/>
<polygon fill="none" stroke="black" points="62.38,-105.06 56.92,-114.14 66.85,-110.45 62.38,-105.06"/>
</g>
<!-- time__TemporalDuration -->
<g id="node3" class="node">
<title>time__TemporalDuration</title>
<polygon fill="lightgray" stroke="none" points="89.5,-124.88 89.5,-141.12 215.25,-141.12 215.25,-124.88 89.5,-124.88"/>
<text xml:space="preserve" text-anchor="start" x="90.5" y="-128.72" font-family="Arial" font-size="12.00">time::TemporalDuration</text>
<polygon fill="none" stroke="black" points="88.5,-123.88 88.5,-142.12 216.25,-142.12 216.25,-123.88 88.5,-123.88"/>
</g>
<!-- duration&#45;&gt;time__TemporalDuration -->
<g id="edge2" class="edge">
<title>duration&#45;&gt;time__TemporalDuration</title>
<path fill="none" stroke="black" d="M152.38,-51.7C152.38,-65.97 152.38,-86.8 152.38,-103.67"/>
<polygon fill="none" stroke="black" points="148.88,-103.59 152.38,-113.59 155.88,-103.59 148.88,-103.59"/>
</g>
<!-- N9560dab8f30441ae801b1755451b6882 -->
<g id="node5" class="node">
<title>N9560dab8f30441ae801b1755451b6882</title>
<polygon fill="lightyellow" stroke="none" points="234,-123.88 234,-142.12 310.75,-142.12 310.75,-123.88 234,-123.88"/>
<text xml:space="preserve" text-anchor="start" x="236" y="-128.72" font-family="Arial" font-size="12.00">ComplexExpr</text>
<polygon fill="none" stroke="black" points="234,-123.88 234,-142.12 310.75,-142.12 310.75,-123.88 234,-123.88"/>
</g>
<!-- duration&#45;&gt;N9560dab8f30441ae801b1755451b6882 -->
<g id="edge3" class="edge">
<title>duration&#45;&gt;N9560dab8f30441ae801b1755451b6882</title>
<path fill="none" stroke="black" stroke-dasharray="5,2" d="M173.04,-51.7C192.23,-67.22 221.02,-90.49 242.68,-108"/>
<polygon fill="black" stroke="black" points="240.32,-110.59 250.3,-114.15 244.72,-105.14 240.32,-110.59"/>
<text xml:space="preserve" text-anchor="middle" x="282.15" y="-86.55" font-family="Arial" font-size="11.00"> onProperty: i72::value </text>
<text xml:space="preserve" text-anchor="middle" x="282.15" y="-73.05" font-family="Arial" font-size="11.00"> «only» &#160;</text>
</g>
<!-- Invis -->
</g>
</svg>
