<?xml version="1.0" encoding="UTF-8" standalone="no"?>
<!DOCTYPE svg PUBLIC "-//W3C//DTD SVG 1.1//EN"
 "http://www.w3.org/Graphics/SVG/1.1/DTD/svg11.dtd">
<!-- Generated by graphviz version 14.0.2 (20251019.1705)
 -->
<!-- Pages: 1 -->
<svg width="290pt" height="258pt"
 viewBox="0.00 0.00 290.00 258.00" xmlns="http://www.w3.org/2000/svg" xmlns:xlink="http://www.w3.org/1999/xlink">
<g id="graph0" class="graph" transform="scale(1 1) rotate(0) translate(4 254)">
<polygon fill="white" stroke="none" points="-4,4 -4,-254 286.47,-254 286.47,4 -4,4"/>
<g id="clust2" class="cluster">
<title>cluster_associated</title>
</g>
<!-- CapacitySize -->
<g id="node1" class="node">
<title>CapacitySize</title>
<g id="a_node1"><a xlink:href="../classes/CityUnits__CapacitySize.md" xlink:title="&lt;TABLE&gt;">
<polygon fill="lightgray" stroke="none" points="106.38,-124.88 106.38,-141.12 179.62,-141.12 179.62,-124.88 106.38,-124.88"/>
<text xml:space="preserve" text-anchor="start" x="107.38" y="-128.72" font-family="Arial" font-size="12.00">CapacitySize</text>
<polygon fill="none" stroke="black" points="105.38,-123.88 105.38,-142.12 180.62,-142.12 180.62,-123.88 105.38,-123.88"/>
</a>
</g>
</g>
<!-- i72__Quantity -->
<g id="node2" class="node">
<title>i72__Quantity</title>
<polygon fill="lightgray" stroke="none" points="62.62,-223.88 62.62,-240.12 131.38,-240.12 131.38,-223.88 62.62,-223.88"/>
<text xml:space="preserve" text-anchor="start" x="63.62" y="-227.72" font-family="Arial" font-size="12.00">i72::Quantity</text>
<polygon fill="none" stroke="black" points="61.62,-222.88 61.62,-241.12 132.38,-241.12 132.38,-222.88 61.62,-222.88"/>
</g>
<!-- CapacitySize&#45;&gt;i72__Quantity -->
<g id="edge1" class="edge">
<title>CapacitySize&#45;&gt;i72__Quantity</title>
<path fill="none" stroke="black" d="M135.08,-150.7C128.12,-165.39 117.86,-187.02 109.74,-204.13"/>
<polygon fill="none" stroke="black" points="106.78,-202.2 105.66,-212.74 113.11,-205.2 106.78,-202.2"/>
</g>
<!-- Invis -->
<!-- CapacitySize&#45;&gt;Invis -->
<!-- Capacity -->
<g id="node4" class="node">
<title>Capacity</title>
<g id="a_node4"><a xlink:href="../_counters/CityUnits__Capacity.md" xlink:title="&lt;TABLE&gt;">
<polygon fill="lightgray" stroke="none" points="18.38,-25.88 18.38,-42.12 67.62,-42.12 67.62,-25.88 18.38,-25.88"/>
<text xml:space="preserve" text-anchor="start" x="19.38" y="-29.73" font-family="Arial" font-size="12.00">Capacity</text>
<polygon fill="none" stroke="black" points="17.38,-24.88 17.38,-43.12 68.62,-43.12 68.62,-24.88 17.38,-24.88"/>
</a>
</g>
</g>
<!-- CapacitySize&#45;&gt;Capacity -->
<g id="edge5" class="edge">
<title>CapacitySize&#45;&gt;Capacity</title>
<path fill="none" stroke="black" d="M125.58,-115.1C109.66,-99.66 85.95,-76.66 68.01,-59.26"/>
<polygon fill="black" stroke="black" points="70.92,-57.21 61.31,-52.76 66.05,-62.23 70.92,-57.21"/>
<text xml:space="preserve" text-anchor="middle" x="149.52" y="-86.55" font-family="Arial" font-size="11.00"> i72::cardinality_of </text>
<text xml:space="preserve" text-anchor="middle" x="149.52" y="-73.05" font-family="Arial" font-size="11.00"> «exactly 1» &#160;</text>
</g>
<!-- Nf9e6ef3749d34f9e90a8a198a3c5d8e3 -->
<g id="node5" class="node">
<title>Nf9e6ef3749d34f9e90a8a198a3c5d8e3</title>
<polygon fill="lightyellow" stroke="none" points="150.62,-222.88 150.62,-241.12 227.38,-241.12 227.38,-222.88 150.62,-222.88"/>
<text xml:space="preserve" text-anchor="start" x="152.62" y="-227.72" font-family="Arial" font-size="12.00">ComplexExpr</text>
<polygon fill="none" stroke="black" points="150.62,-222.88 150.62,-241.12 227.38,-241.12 227.38,-222.88 150.62,-222.88"/>
</g>
<!-- CapacitySize&#45;&gt;Nf9e6ef3749d34f9e90a8a198a3c5d8e3 -->
<g id="edge4" class="edge">
<title>CapacitySize&#45;&gt;Nf9e6ef3749d34f9e90a8a198a3c5d8e3</title>
<path fill="none" stroke="black" stroke-dasharray="5,2" d="M150.92,-150.7C157.88,-165.39 168.14,-187.02 176.26,-204.13"/>
<polygon fill="black" stroke="black" points="172.89,-205.2 180.34,-212.74 179.22,-202.2 172.89,-205.2"/>
<text xml:space="preserve" text-anchor="middle" x="226.97" y="-185.55" font-family="Arial" font-size="11.00"> onProperty: i72::value </text>
<text xml:space="preserve" text-anchor="middle" x="226.97" y="-172.05" font-family="Arial" font-size="11.00"> «only» &#160;</text>
</g>
<!-- Invis&#45;&gt;Capacity -->
</g>
</svg>
