<?xml version="1.0" encoding="UTF-8" standalone="no"?>
<!DOCTYPE svg PUBLIC "-//W3C//DTD SVG 1.1//EN"
 "http://www.w3.org/Graphics/SVG/1.1/DTD/svg11.dtd">
<!-- Generated by graphviz version 14.0.2 (20251019.1705)
 -->
<!-- Pages: 1 -->
<svg width="203pt" height="132pt"
 viewBox="0.00 0.00 203.00 132.00" xmlns="http://www.w3.org/2000/svg" xmlns:xlink="http://www.w3.org/1999/xlink">
<g id="graph0" class="graph" transform="scale(1 1) rotate(0) translate(4 128)">
<polygon fill="white" stroke="none" points="-4,4 -4,-128 199.38,-128 199.38,4 -4,4"/>
<g id="clust2" class="cluster">
<title>cluster_associated</title>
</g>
<!-- CityUnitsThing -->
<g id="node1" class="node">
<title>CityUnitsThing</title>
<g id="a_node1"><a xlink:href="../CityUnitsThing.md" xlink:title="&lt;TABLE&gt;">
<polygon fill="lightgray" stroke="none" points="24.62,-25.88 24.62,-42.12 106.12,-42.12 106.12,-25.88 24.62,-25.88"/>
<text xml:space="preserve" text-anchor="start" x="25.62" y="-29.73" font-family="Arial" font-size="12.00">CityUnitsThing</text>
<polygon fill="none" stroke="black" points="23.62,-24.88 23.62,-43.12 107.12,-43.12 107.12,-24.88 23.62,-24.88"/>
</a>
</g>
</g>
<!-- FoundationalCdmThing -->
<g id="node3" class="node">
<title>FoundationalCdmThing</title>
<g id="a_node3"><a xlink:href="../FoundationalCdmThing.md" xlink:title="&lt;TABLE&gt;">
<polygon fill="lightgray" stroke="none" points="1,-97.88 1,-114.12 129.75,-114.12 129.75,-97.88 1,-97.88"/>
<text xml:space="preserve" text-anchor="start" x="2" y="-101.72" font-family="Arial" font-size="12.00">FoundationalCdmThing</text>
<polygon fill="none" stroke="black" points="0,-96.88 0,-115.12 130.75,-115.12 130.75,-96.88 0,-96.88"/>
</a>
</g>
</g>
<!-- CityUnitsThing&#45;&gt;FoundationalCdmThing -->
<g id="edge1" class="edge">
<title>CityUnitsThing&#45;&gt;FoundationalCdmThing</title>
<path fill="none" stroke="black" d="M65.38,-51.79C65.38,-59.25 65.38,-68.24 65.38,-76.69"/>
<polygon fill="none" stroke="black" points="61.88,-76.54 65.38,-86.54 68.88,-76.54 61.88,-76.54"/>
</g>
<!-- Invis -->
</g>
</svg>
