<?xml version="1.0" encoding="UTF-8" standalone="no"?>
<!DOCTYPE svg PUBLIC "-//W3C//DTD SVG 1.1//EN"
 "http://www.w3.org/Graphics/SVG/1.1/DTD/svg11.dtd">
<!-- Generated by graphviz version 14.0.2 (20251019.1705)
 -->
<!-- Pages: 1 -->
<svg width="182pt" height="132pt"
 viewBox="0.00 0.00 182.00 132.00" xmlns="http://www.w3.org/2000/svg" xmlns:xlink="http://www.w3.org/1999/xlink">
<g id="graph0" class="graph" transform="scale(1 1) rotate(0) translate(4 128)">
<polygon fill="white" stroke="none" points="-4,4 -4,-128 178,-128 178,4 -4,4"/>
<g id="clust2" class="cluster">
<title>cluster_associated</title>
</g>
<!-- time unit -->
<g id="node1" class="node">
<title>time unit</title>
<g id="a_node1"><a xlink:href="../classes/CityUnits__time unit.md" xlink:title="&lt;TABLE&gt;">
<polygon fill="lightgray" stroke="none" points="35.5,-25.88 35.5,-42.12 82.5,-42.12 82.5,-25.88 35.5,-25.88"/>
<text xml:space="preserve" text-anchor="start" x="36.5" y="-29.73" font-family="Arial" font-size="12.00">time unit</text>
<polygon fill="none" stroke="black" points="34.5,-24.88 34.5,-43.12 83.5,-43.12 83.5,-24.88 34.5,-24.88"/>
</a>
</g>
</g>
<!-- i72__Unit_of_measure -->
<g id="node2" class="node">
<title>i72__Unit_of_measure</title>
<polygon fill="lightgray" stroke="none" points="1,-97.88 1,-114.12 117,-114.12 117,-97.88 1,-97.88"/>
<text xml:space="preserve" text-anchor="start" x="2" y="-101.72" font-family="Arial" font-size="12.00">i72::Unit_of_measure</text>
<polygon fill="none" stroke="black" points="0,-96.88 0,-115.12 118,-115.12 118,-96.88 0,-96.88"/>
</g>
<!-- time unit&#45;&gt;i72__Unit_of_measure -->
<g id="edge1" class="edge">
<title>time unit&#45;&gt;i72__Unit_of_measure</title>
<path fill="none" stroke="black" d="M59,-51.79C59,-59.25 59,-68.24 59,-76.69"/>
<polygon fill="none" stroke="black" points="55.5,-76.54 59,-86.54 62.5,-76.54 55.5,-76.54"/>
</g>
<!-- Invis -->
</g>
</svg>
