<?xml version="1.0" encoding="UTF-8" standalone="no"?>
<!DOCTYPE svg PUBLIC "-//W3C//DTD SVG 1.1//EN"
 "http://www.w3.org/Graphics/SVG/1.1/DTD/svg11.dtd">
<!-- Generated by graphviz version 14.0.2 (20251019.1705)
 -->
<!-- Pages: 1 -->
<svg width="240pt" height="232pt"
 viewBox="0.00 0.00 240.00 232.00" xmlns="http://www.w3.org/2000/svg" xmlns:xlink="http://www.w3.org/1999/xlink">
<g id="graph0" class="graph" transform="scale(1 1) rotate(0) translate(4 228)">
<polygon fill="white" stroke="none" points="-4,4 -4,-228 235.52,-228 235.52,4 -4,4"/>
<g id="clust2" class="cluster">
<title>cluster_associated</title>
</g>
<!-- ValueOfMoney -->
<g id="node1" class="node">
<title>ValueOfMoney</title>
<g id="a_node1"><a xlink:href="../classes/CityUnits__ValueOfMoney.md" xlink:title="&lt;TABLE&gt;">
<polygon fill="lightgray" stroke="none" points="119,-124.88 119,-141.12 199,-141.12 199,-124.88 119,-124.88"/>
<text xml:space="preserve" text-anchor="start" x="120" y="-128.72" font-family="Arial" font-size="12.00">ValueOfMoney</text>
<polygon fill="none" stroke="black" points="118,-123.88 118,-142.12 200,-142.12 200,-123.88 118,-123.88"/>
</a>
</g>
</g>
<!-- AmountOfMoney -->
<g id="node2" class="node">
<title>AmountOfMoney</title>
<g id="a_node2"><a xlink:href="../_counters/CityUnits__AmountOfMoney.md" xlink:title="&lt;TABLE&gt;">
<polygon fill="lightgray" stroke="none" points="113.38,-197.88 113.38,-214.12 204.62,-214.12 204.62,-197.88 113.38,-197.88"/>
<text xml:space="preserve" text-anchor="start" x="114.38" y="-201.72" font-family="Arial" font-size="12.00">AmountOfMoney</text>
<polygon fill="none" stroke="black" points="112.38,-196.88 112.38,-215.12 205.62,-215.12 205.62,-196.88 112.38,-196.88"/>
</a>
</g>
</g>
<!-- ValueOfMoney&#45;&gt;AmountOfMoney -->
<g id="edge1" class="edge">
<title>ValueOfMoney&#45;&gt;AmountOfMoney</title>
<path fill="none" stroke="black" d="M159,-150.71C159,-158.47 159,-167.92 159,-176.74"/>
<polygon fill="none" stroke="black" points="155.5,-176.66 159,-186.66 162.5,-176.66 155.5,-176.66"/>
</g>
<!-- Invis -->
<!-- ValueOfMoney&#45;&gt;Invis -->
<!-- MonetaryValue -->
<g id="node4" class="node">
<title>MonetaryValue</title>
<g id="a_node4"><a xlink:href="../_counters/CityUnits__MonetaryValue.md" xlink:title="&lt;TABLE&gt;">
<polygon fill="lightgray" stroke="none" points="17.25,-25.88 17.25,-42.12 98.75,-42.12 98.75,-25.88 17.25,-25.88"/>
<text xml:space="preserve" text-anchor="start" x="18.25" y="-29.73" font-family="Arial" font-size="12.00">MonetaryValue</text>
<polygon fill="none" stroke="black" points="16.25,-24.88 16.25,-43.12 99.75,-43.12 99.75,-24.88 16.25,-24.88"/>
</a>
</g>
</g>
<!-- ValueOfMoney&#45;&gt;MonetaryValue -->
<g id="edge4" class="edge">
<title>ValueOfMoney&#45;&gt;MonetaryValue</title>
<path fill="none" stroke="black" stroke-dasharray="5,2" d="M141.41,-115.1C125.33,-99.66 101.38,-76.66 83.26,-59.26"/>
<polygon fill="black" stroke="black" points="86.12,-57.15 76.48,-52.75 81.27,-62.2 86.12,-57.15"/>
<text xml:space="preserve" text-anchor="middle" x="176.02" y="-86.55" font-family="Arial" font-size="11.00"> onProperty: i72::value </text>
<text xml:space="preserve" text-anchor="middle" x="176.02" y="-73.05" font-family="Arial" font-size="11.00"> «only» &#160;</text>
</g>
<!-- Invis&#45;&gt;MonetaryValue -->
</g>
</svg>
