<?xml version="1.0" encoding="UTF-8" standalone="no"?>
<!DOCTYPE svg PUBLIC "-//W3C//DTD SVG 1.1//EN"
 "http://www.w3.org/Graphics/SVG/1.1/DTD/svg11.dtd">
<!-- Generated by graphviz version 14.0.2 (20251019.1705)
 -->
<!-- Pages: 1 -->
<svg width="442pt" height="232pt"
 viewBox="0.00 0.00 442.00 232.00" xmlns="http://www.w3.org/2000/svg" xmlns:xlink="http://www.w3.org/1999/xlink">
<g id="graph0" class="graph" transform="scale(1 1) rotate(0) translate(4 228)">
<polygon fill="white" stroke="none" points="-4,4 -4,-228 438.38,-228 438.38,4 -4,4"/>
<g id="clust2" class="cluster">
<title>cluster_associated</title>
</g>
<!-- length -->
<g id="node1" class="node">
<title>length</title>
<g id="a_node1"><a xlink:href="../classes/CityUnits__length.md" xlink:title="&lt;TABLE&gt;">
<polygon fill="lightgray" stroke="none" points="50.88,-98.88 50.88,-115.12 85.88,-115.12 85.88,-98.88 50.88,-98.88"/>
<text xml:space="preserve" text-anchor="start" x="51.88" y="-102.72" font-family="Arial" font-size="12.00">length</text>
<polygon fill="none" stroke="black" points="49.88,-97.88 49.88,-116.12 86.88,-116.12 86.88,-97.88 49.88,-97.88"/>
</a>
</g>
</g>
<!-- i72__Quantity -->
<g id="node2" class="node">
<title>i72__Quantity</title>
<polygon fill="lightgray" stroke="none" points="1,-197.88 1,-214.12 69.75,-214.12 69.75,-197.88 1,-197.88"/>
<text xml:space="preserve" text-anchor="start" x="2" y="-201.72" font-family="Arial" font-size="12.00">i72::Quantity</text>
<polygon fill="none" stroke="black" points="0,-196.88 0,-215.12 70.75,-215.12 70.75,-196.88 0,-196.88"/>
</g>
<!-- length&#45;&gt;i72__Quantity -->
<g id="edge1" class="edge">
<title>length&#45;&gt;i72__Quantity</title>
<path fill="none" stroke="black" d="M58.12,-124.65C54.97,-130.31 51.71,-136.79 49.38,-143 45.3,-153.85 42.21,-166.23 39.98,-177.06"/>
<polygon fill="none" stroke="black" points="36.6,-176.09 38.18,-186.57 43.48,-177.39 36.6,-176.09"/>
</g>
<!-- Invis -->
<!-- length&#45;&gt;Invis -->
<!-- N4408daa834c2467e926fbc8e75fdea44 -->
<g id="node5" class="node">
<title>N4408daa834c2467e926fbc8e75fdea44</title>
<polygon fill="lightyellow" stroke="none" points="148.88,-196.88 148.88,-215.12 239.88,-215.12 239.88,-196.88 148.88,-196.88"/>
<text xml:space="preserve" text-anchor="start" x="150.88" y="-201.72" font-family="Arial" font-size="12.00">«intersectionOf»</text>
<polygon fill="none" stroke="black" points="148.88,-196.88 148.88,-215.12 239.88,-215.12 239.88,-196.88 148.88,-196.88"/>
</g>
<!-- length&#45;&gt;N4408daa834c2467e926fbc8e75fdea44 -->
<g id="edge6" class="edge">
<title>length&#45;&gt;N4408daa834c2467e926fbc8e75fdea44</title>
<path fill="none" stroke="black" stroke-dasharray="5,2" d="M63.62,-124.78C60.85,-138.38 59.58,-157.3 69.38,-170 78.13,-181.35 109.07,-190.07 137.97,-195.96"/>
<polygon fill="black" stroke="black" points="136.92,-199.32 147.41,-197.79 138.26,-192.45 136.92,-199.32"/>
<text xml:space="preserve" text-anchor="middle" x="124.88" y="-159.55" font-family="Arial" font-size="11.00"> onProperty: i72::value </text>
<text xml:space="preserve" text-anchor="middle" x="124.88" y="-146.05" font-family="Arial" font-size="11.00"> «only» &#160;</text>
</g>
<!-- i72__Measure -->
<g id="node4" class="node">
<title>i72__Measure</title>
<polygon fill="lightgray" stroke="none" points="345.88,-25.88 345.88,-42.12 416.88,-42.12 416.88,-25.88 345.88,-25.88"/>
<text xml:space="preserve" text-anchor="start" x="346.88" y="-29.73" font-family="Arial" font-size="12.00">i72::Measure</text>
<polygon fill="none" stroke="black" points="344.88,-24.88 344.88,-43.12 417.88,-43.12 417.88,-24.88 344.88,-24.88"/>
</g>
<!-- Invis&#45;&gt;i72__Measure -->
<!-- N4408daa834c2467e926fbc8e75fdea44&#45;&gt;i72__Measure -->
<g id="edge5" class="edge">
<title>N4408daa834c2467e926fbc8e75fdea44&#45;&gt;i72__Measure</title>
<path fill="none" stroke="black" stroke-dasharray="1,5" d="M190.39,-188.3C185.57,-163.68 180.7,-117.49 203.62,-89 234.71,-50.39 292.53,-38.67 333.79,-35.48"/>
<polygon fill="black" stroke="black" points="333.94,-38.98 343.71,-34.87 333.51,-31.99 333.94,-38.98"/>
<text xml:space="preserve" text-anchor="middle" x="223.5" y="-103.3" font-family="Arial" font-size="11.00">member</text>
</g>
<!-- Nebce1829fb654714b0c60e99244b2abc -->
<g id="node6" class="node">
<title>Nebce1829fb654714b0c60e99244b2abc</title>
<polygon fill="lightyellow" stroke="none" points="252,-97.88 252,-116.12 328.75,-116.12 328.75,-97.88 252,-97.88"/>
<text xml:space="preserve" text-anchor="start" x="254" y="-102.72" font-family="Arial" font-size="12.00">ComplexExpr</text>
<polygon fill="none" stroke="black" points="252,-97.88 252,-116.12 328.75,-116.12 328.75,-97.88 252,-97.88"/>
</g>
<!-- N4408daa834c2467e926fbc8e75fdea44&#45;&gt;Nebce1829fb654714b0c60e99244b2abc -->
<g id="edge4" class="edge">
<title>N4408daa834c2467e926fbc8e75fdea44&#45;&gt;Nebce1829fb654714b0c60e99244b2abc</title>
<path fill="none" stroke="black" stroke-dasharray="1,5" d="M211.1,-188.1C226.24,-172.8 248.74,-150.07 265.9,-132.73"/>
<polygon fill="black" stroke="black" points="268.23,-135.35 272.78,-125.78 263.26,-130.42 268.23,-135.35"/>
<text xml:space="preserve" text-anchor="middle" x="273.67" y="-152.8" font-family="Arial" font-size="11.00">member</text>
</g>
</g>
</svg>
