<?xml version="1.0" encoding="UTF-8" standalone="no"?>
<!DOCTYPE svg PUBLIC "-//W3C//DTD SVG 1.1//EN"
 "http://www.w3.org/Graphics/SVG/1.1/DTD/svg11.dtd">
<!-- Generated by graphviz version 14.0.2 (20251019.1705)
 -->
<!-- Pages: 1 -->
<svg width="229pt" height="159pt"
 viewBox="0.00 0.00 229.00 159.00" xmlns="http://www.w3.org/2000/svg" xmlns:xlink="http://www.w3.org/1999/xlink">
<g id="graph0" class="graph" transform="scale(1 1) rotate(0) translate(4 155)">
<polygon fill="white" stroke="none" points="-4,4 -4,-155 224.85,-155 224.85,4 -4,4"/>
<g id="clust2" class="cluster">
<title>cluster_associated</title>
</g>
<!-- acceleration -->
<g id="node1" class="node">
<title>acceleration</title>
<g id="a_node1"><a xlink:href="../classes/CityUnits__acceleration.md" xlink:title="&lt;TABLE&gt;">
<polygon fill="lightgray" stroke="none" points="47.75,-25.88 47.75,-42.12 115,-42.12 115,-25.88 47.75,-25.88"/>
<text xml:space="preserve" text-anchor="start" x="48.75" y="-29.73" font-family="Arial" font-size="12.00">acceleration</text>
<polygon fill="none" stroke="black" points="46.75,-24.88 46.75,-43.12 116,-43.12 116,-24.88 46.75,-24.88"/>
</a>
</g>
</g>
<!-- i72__Quantity -->
<g id="node2" class="node">
<title>i72__Quantity</title>
<polygon fill="lightgray" stroke="none" points="1,-124.88 1,-141.12 69.75,-141.12 69.75,-124.88 1,-124.88"/>
<text xml:space="preserve" text-anchor="start" x="2" y="-128.72" font-family="Arial" font-size="12.00">i72::Quantity</text>
<polygon fill="none" stroke="black" points="0,-123.88 0,-142.12 70.75,-142.12 70.75,-123.88 0,-123.88"/>
</g>
<!-- acceleration&#45;&gt;i72__Quantity -->
<g id="edge1" class="edge">
<title>acceleration&#45;&gt;i72__Quantity</title>
<path fill="none" stroke="black" d="M73.45,-51.7C66.49,-66.39 56.23,-88.02 48.12,-105.13"/>
<polygon fill="none" stroke="black" points="45.16,-103.2 44.04,-113.74 51.48,-106.2 45.16,-103.2"/>
</g>
<!-- Nc8aa19d2ae76488b8b0152cc3eb7619c -->
<g id="node4" class="node">
<title>Nc8aa19d2ae76488b8b0152cc3eb7619c</title>
<polygon fill="lightyellow" stroke="none" points="89,-123.88 89,-142.12 165.75,-142.12 165.75,-123.88 89,-123.88"/>
<text xml:space="preserve" text-anchor="start" x="91" y="-128.72" font-family="Arial" font-size="12.00">ComplexExpr</text>
<polygon fill="none" stroke="black" points="89,-123.88 89,-142.12 165.75,-142.12 165.75,-123.88 89,-123.88"/>
</g>
<!-- acceleration&#45;&gt;Nc8aa19d2ae76488b8b0152cc3eb7619c -->
<g id="edge2" class="edge">
<title>acceleration&#45;&gt;Nc8aa19d2ae76488b8b0152cc3eb7619c</title>
<path fill="none" stroke="black" stroke-dasharray="5,2" d="M89.3,-51.7C96.26,-66.39 106.52,-88.02 114.63,-105.13"/>
<polygon fill="black" stroke="black" points="111.27,-106.2 118.71,-113.74 117.59,-103.2 111.27,-106.2"/>
<text xml:space="preserve" text-anchor="middle" x="165.35" y="-86.55" font-family="Arial" font-size="11.00"> onProperty: i72::value </text>
<text xml:space="preserve" text-anchor="middle" x="165.35" y="-73.05" font-family="Arial" font-size="11.00"> «only» &#160;</text>
</g>
<!-- Invis -->
</g>
</svg>
