<?xml version="1.0" encoding="UTF-8" standalone="no"?>
<!DOCTYPE svg PUBLIC "-//W3C//DTD SVG 1.1//EN"
 "http://www.w3.org/Graphics/SVG/1.1/DTD/svg11.dtd">
<!-- Generated by graphviz version 14.0.2 (20251019.1705)
 -->
<!-- Pages: 1 -->
<svg width="322pt" height="232pt"
 viewBox="0.00 0.00 322.00 232.00" xmlns="http://www.w3.org/2000/svg" xmlns:xlink="http://www.w3.org/1999/xlink">
<g id="graph0" class="graph" transform="scale(1 1) rotate(0) translate(4 228)">
<polygon fill="white" stroke="none" points="-4,4 -4,-228 318.12,-228 318.12,4 -4,4"/>
<g id="clust2" class="cluster">
<title>cluster_associated</title>
</g>
<!-- CardinalityMeasure -->
<g id="node1" class="node">
<title>CardinalityMeasure</title>
<g id="a_node1"><a xlink:href="../classes/CityUnits__CardinalityMeasure.md" xlink:title="&lt;TABLE&gt;">
<polygon fill="lightgray" stroke="none" points="142.88,-124.88 142.88,-141.12 249.12,-141.12 249.12,-124.88 142.88,-124.88"/>
<text xml:space="preserve" text-anchor="start" x="143.88" y="-128.72" font-family="Arial" font-size="12.00">CardinalityMeasure</text>
<polygon fill="none" stroke="black" points="141.88,-123.88 141.88,-142.12 250.12,-142.12 250.12,-123.88 141.88,-123.88"/>
</a>
</g>
</g>
<!-- i72__Measure -->
<g id="node2" class="node">
<title>i72__Measure</title>
<polygon fill="lightgray" stroke="none" points="160.5,-197.88 160.5,-214.12 231.5,-214.12 231.5,-197.88 160.5,-197.88"/>
<text xml:space="preserve" text-anchor="start" x="161.5" y="-201.72" font-family="Arial" font-size="12.00">i72::Measure</text>
<polygon fill="none" stroke="black" points="159.5,-196.88 159.5,-215.12 232.5,-215.12 232.5,-196.88 159.5,-196.88"/>
</g>
<!-- CardinalityMeasure&#45;&gt;i72__Measure -->
<g id="edge1" class="edge">
<title>CardinalityMeasure&#45;&gt;i72__Measure</title>
<path fill="none" stroke="black" d="M196,-150.71C196,-158.47 196,-167.92 196,-176.74"/>
<polygon fill="none" stroke="black" points="192.5,-176.66 196,-186.66 199.5,-176.66 192.5,-176.66"/>
</g>
<!-- Invis -->
<!-- CardinalityMeasure&#45;&gt;Invis -->
<!-- i72__Cardinality_unit -->
<g id="node4" class="node">
<title>i72__Cardinality_unit</title>
<polygon fill="lightgray" stroke="none" points="16.75,-25.88 16.75,-42.12 125.25,-42.12 125.25,-25.88 16.75,-25.88"/>
<text xml:space="preserve" text-anchor="start" x="17.75" y="-29.73" font-family="Arial" font-size="12.00">i72::Cardinality_unit</text>
<polygon fill="none" stroke="black" points="15.75,-24.88 15.75,-43.12 126.25,-43.12 126.25,-24.88 15.75,-24.88"/>
</g>
<!-- CardinalityMeasure&#45;&gt;i72__Cardinality_unit -->
<g id="edge4" class="edge">
<title>CardinalityMeasure&#45;&gt;i72__Cardinality_unit</title>
<path fill="none" stroke="black" stroke-dasharray="5,2" d="M174.23,-115.1C154.06,-99.46 123.88,-76.03 101.35,-58.55"/>
<polygon fill="black" stroke="black" points="103.77,-56 93.72,-52.63 99.47,-61.53 103.77,-56"/>
<text xml:space="preserve" text-anchor="middle" x="231.25" y="-86.55" font-family="Arial" font-size="11.00"> onProperty: i72::unit_of_measure </text>
<text xml:space="preserve" text-anchor="middle" x="231.25" y="-73.05" font-family="Arial" font-size="11.00"> «only» &#160;</text>
</g>
<!-- Invis&#45;&gt;i72__Cardinality_unit -->
</g>
</svg>
