<?xml version="1.0" encoding="UTF-8" standalone="no"?>
<!DOCTYPE svg PUBLIC "-//W3C//DTD SVG 1.1//EN"
 "http://www.w3.org/Graphics/SVG/1.1/DTD/svg11.dtd">
<!-- Generated by graphviz version 14.1.3 (20260303.0454)
 -->
<!-- Pages: 1 -->
<svg width="291pt" height="159pt"
 viewBox="0.00 0.00 291.00 159.00" xmlns="http://www.w3.org/2000/svg" xmlns:xlink="http://www.w3.org/1999/xlink">
<g id="graph0" class="graph" transform="scale(1 1) rotate(0) translate(4 155)">
<polygon fill="white" stroke="none" points="-4,4 -4,-155 287.25,-155 287.25,4 -4,4"/>
<g id="clust3" class="cluster">
<title>cluster_associated</title>
</g>
<!-- Agreement -->
<g id="node1" class="node">
<title>Agreement</title>
<g id="a_node1"><a xlink:href="../Agreement" xlink:title="&lt;TABLE&gt;">
<polygon fill="lightgray" stroke="none" points="25,-124.88 25,-141.12 85.5,-141.12 85.5,-124.88 25,-124.88"/>
<text xml:space="preserve" text-anchor="start" x="26" y="-128.88" font-family="Arial" font-size="12.00">Agreement</text>
<polygon fill="none" stroke="black" points="24,-123.88 24,-142.12 86.5,-142.12 86.5,-123.88 24,-123.88"/>
</a>
</g>
</g>
<!-- ComplexAgreement -->
<g id="node2" class="node">
<title>ComplexAgreement</title>
<g id="a_node2"><a xlink:href="../ComplexAgreement" xlink:title="&lt;TABLE&gt;">
<polygon fill="lightgray" stroke="none" points="1,-9.88 1,-26.12 109.5,-26.12 109.5,-9.88 1,-9.88"/>
<text xml:space="preserve" text-anchor="start" x="2" y="-13.88" font-family="Arial" font-size="12.00">ComplexAgreement</text>
<polygon fill="none" stroke="black" points="0,-8.88 0,-27.12 110.5,-27.12 110.5,-8.88 0,-8.88"/>
</a>
</g>
</g>
<!-- ComplexAgreement&#45;&gt;Agreement -->
<g id="edge1" class="edge">
<title>ComplexAgreement&#45;&gt;Agreement</title>
<path fill="none" stroke="black" d="M55.25,-35.74C55.25,-53.71 55.25,-82.56 55.25,-104"/>
<polygon fill="none" stroke="black" points="51.75,-103.81 55.25,-113.81 58.75,-103.81 51.75,-103.81"/>
</g>
<!-- ComplexAgreement&#45;&gt;Agreement -->
<g id="edge2" class="edge">
<title>ComplexAgreement:e&#45;&gt;Agreement:e</title>
<path fill="none" stroke="black" d="M111.45,-18C119.46,-18 112.61,-28.28 110.45,-36 108.62,-42.55 105.51,-43.09 103.25,-49.5 98.28,-63.63 103.14,-107.85 95.96,-125.56"/>
<polygon fill="black" stroke="black" points="93.82,-122.78 88.61,-132 98.44,-128.04 93.82,-122.78"/>
<polygon fill="white" stroke="none" points="103.25,-54 103.25,-97 201.25,-97 201.25,-54 103.25,-54"/>
<text xml:space="preserve" text-anchor="start" x="107.25" y="-82.5" font-family="Arial" font-size="11.00">hasSubAgreement</text>
<text xml:space="preserve" text-anchor="start" x="144" y="-61" font-family="Arial" font-size="11.00">2..*</text>
</g>
<!-- Invis -->
</g>
</svg>
