<?xml version="1.0" encoding="UTF-8" standalone="no"?>
<!DOCTYPE svg PUBLIC "-//W3C//DTD SVG 1.1//EN"
 "http://www.w3.org/Graphics/SVG/1.1/DTD/svg11.dtd">
<!-- Generated by graphviz version 14.0.2 (20251019.1705)
 -->
<!-- Pages: 1 -->
<svg width="206pt" height="159pt"
 viewBox="0.00 0.00 206.00 159.00" xmlns="http://www.w3.org/2000/svg" xmlns:xlink="http://www.w3.org/1999/xlink">
<g id="graph0" class="graph" transform="scale(1 1) rotate(0) translate(4 155)">
<polygon fill="white" stroke="none" points="-4,4 -4,-155 202.25,-155 202.25,4 -4,4"/>
<g id="clust2" class="cluster">
<title>cluster_associated</title>
</g>
<!-- ComplexAgreement -->
<g id="node1" class="node">
<title>ComplexAgreement</title>
<g id="a_node1"><a xlink:href="../ComplexAgreement.md" xlink:title="&lt;TABLE&gt;">
<polygon fill="lightgray" stroke="none" points="1,-25.88 1,-42.12 109.5,-42.12 109.5,-25.88 1,-25.88"/>
<text xml:space="preserve" text-anchor="start" x="2" y="-29.73" font-family="Arial" font-size="12.00">ComplexAgreement</text>
<polygon fill="none" stroke="black" points="0,-24.88 0,-43.12 110.5,-43.12 110.5,-24.88 0,-24.88"/>
</a>
</g>
</g>
<!-- Agreement -->
<g id="node3" class="node">
<title>Agreement</title>
<g id="a_node3"><a xlink:href="../Agreement.md" xlink:title="&lt;TABLE&gt;">
<polygon fill="lightgray" stroke="none" points="25,-124.88 25,-141.12 85.5,-141.12 85.5,-124.88 25,-124.88"/>
<text xml:space="preserve" text-anchor="start" x="26" y="-128.72" font-family="Arial" font-size="12.00">Agreement</text>
<polygon fill="none" stroke="black" points="24,-123.88 24,-142.12 86.5,-142.12 86.5,-123.88 24,-123.88"/>
</a>
</g>
</g>
<!-- ComplexAgreement&#45;&gt;Agreement -->
<g id="edge1" class="edge">
<title>ComplexAgreement&#45;&gt;Agreement</title>
<path fill="none" stroke="black" d="M54.1,-51.73C53.75,-57.51 53.42,-64.04 53.25,-70 52.91,-82 52.91,-85 53.25,-97 53.31,-99.24 53.4,-101.55 53.5,-103.88"/>
<polygon fill="none" stroke="black" points="50,-103.96 54.02,-113.76 56.99,-103.59 50,-103.96"/>
</g>
<!-- ComplexAgreement&#45;&gt;Agreement -->
<g id="edge2" class="edge">
<title>ComplexAgreement&#45;&gt;Agreement</title>
<path fill="none" stroke="black" d="M55.25,-51.7C55.25,-65.97 55.25,-86.8 55.25,-103.67"/>
<polygon fill="black" stroke="black" points="51.75,-103.59 55.25,-113.59 58.75,-103.59 51.75,-103.59"/>
<text xml:space="preserve" text-anchor="middle" x="103.25" y="-86.55" font-family="Arial" font-size="11.00"> hasSubAgreement </text>
<text xml:space="preserve" text-anchor="middle" x="103.25" y="-73.05" font-family="Arial" font-size="11.00"> «min 2» &#160;</text>
</g>
<!-- Invis -->
</g>
</svg>
