<?xml version="1.0" encoding="UTF-8" standalone="no"?>
<!DOCTYPE svg PUBLIC "-//W3C//DTD SVG 1.1//EN"
 "http://www.w3.org/Graphics/SVG/1.1/DTD/svg11.dtd">
<!-- Generated by graphviz version 14.1.3 (20260303.0454)
 -->
<!-- Pages: 1 -->
<svg width="256pt" height="152pt"
 viewBox="0.00 0.00 256.00 152.00" xmlns="http://www.w3.org/2000/svg" xmlns:xlink="http://www.w3.org/1999/xlink">
<g id="graph0" class="graph" transform="scale(1 1) rotate(0) translate(4 148)">
<polygon fill="white" stroke="none" points="-4,4 -4,-148 252.25,-148 252.25,4 -4,4"/>
<g id="clust3" class="cluster">
<title>cluster_associated</title>
</g>
<!-- Agreement -->
<g id="node1" class="node">
<title>Agreement</title>
<g id="a_node1"><a xlink:href="../Agreement" xlink:title="&lt;TABLE&gt;">
<polygon fill="lightgray" stroke="none" points="25,-117.88 25,-134.12 85.5,-134.12 85.5,-117.88 25,-117.88"/>
<text xml:space="preserve" text-anchor="start" x="26" y="-121.88" font-family="Arial" font-size="12.00">Agreement</text>
<polygon fill="none" stroke="black" points="24,-116.88 24,-135.12 86.5,-135.12 86.5,-116.88 24,-116.88"/>
</a>
</g>
</g>
<!-- ComplexAgreement -->
<g id="node2" class="node">
<title>ComplexAgreement</title>
<g id="a_node2"><a xlink:href="../ComplexAgreement" xlink:title="&lt;TABLE&gt;">
<polygon fill="lightgray" stroke="none" points="1,-9.88 1,-26.12 109.5,-26.12 109.5,-9.88 1,-9.88"/>
<text xml:space="preserve" text-anchor="start" x="2" y="-13.88" font-family="Arial" font-size="12.00">ComplexAgreement</text>
<polygon fill="none" stroke="black" points="0,-8.88 0,-27.12 110.5,-27.12 110.5,-8.88 0,-8.88"/>
</a>
</g>
</g>
<!-- ComplexAgreement&#45;&gt;Agreement -->
<g id="edge1" class="edge">
<title>ComplexAgreement&#45;&gt;Agreement</title>
<path fill="none" stroke="black" d="M53.81,-35.84C53.58,-39.2 53.37,-42.71 53.25,-46 52.5,-66.21 52.41,-73.18 53.34,-96.89"/>
<polygon fill="none" stroke="black" points="49.84,-96.8 53.75,-106.65 56.83,-96.51 49.84,-96.8"/>
</g>
<!-- ComplexAgreement&#45;&gt;Agreement -->
<g id="edge2" class="edge">
<title>ComplexAgreement&#45;&gt;Agreement</title>
<path fill="none" stroke="black" d="M55.25,-35.8C55.25,-52.28 55.25,-77.7 55.25,-97.2"/>
<polygon fill="black" stroke="black" points="51.75,-96.92 55.25,-106.92 58.75,-96.92 51.75,-96.92"/>
<text xml:space="preserve" text-anchor="middle" x="100.25" y="-75.05" font-family="Arial" font-size="11.00">hasSubAgreement</text>
<text xml:space="preserve" text-anchor="middle" x="100.25" y="-61.55" font-family="Arial" font-size="11.00">2..*</text>
</g>
<!-- Invis -->
</g>
</svg>
