<?xml version="1.0" encoding="UTF-8" standalone="no"?>
<!DOCTYPE svg PUBLIC "-//W3C//DTD SVG 1.1//EN"
 "http://www.w3.org/Graphics/SVG/1.1/DTD/svg11.dtd">
<!-- Generated by graphviz version 14.0.2 (20251019.1705)
 -->
<!-- Pages: 1 -->
<svg width="302pt" height="132pt"
 viewBox="0.00 0.00 302.00 132.00" xmlns="http://www.w3.org/2000/svg" xmlns:xlink="http://www.w3.org/1999/xlink">
<g id="graph0" class="graph" transform="scale(1 1) rotate(0) translate(4 128)">
<polygon fill="white" stroke="none" points="-4,4 -4,-128 297.5,-128 297.5,4 -4,4"/>
<g id="clust2" class="cluster">
<title>cluster_associated</title>
</g>
<!-- DailyRecurringEvent -->
<g id="node1" class="node">
<title>DailyRecurringEvent</title>
<g id="a_node1"><a xlink:href="../DailyRecurringEvent.md" xlink:title="&lt;TABLE&gt;">
<polygon fill="lightgray" stroke="none" points="1,-34 1,-50.25 204,-50.25 204,-34 1,-34"/>
<text xml:space="preserve" text-anchor="start" x="47" y="-37.85" font-family="Arial" font-size="12.00">DailyRecurringEvent</text>
<text xml:space="preserve" text-anchor="start" x="2" y="-21.6" font-family="Arial" font-size="12.00">«refined» «max 1» startTime: xsd:time</text>
<polygon fill="black" stroke="black" points="0,-34 0,-34 205,-34 205,-34 0,-34"/>
<polygon fill="none" stroke="black" points="0,-16.75 0,-51.25 205,-51.25 205,-16.75 0,-16.75"/>
</a>
</g>
</g>
<!-- RecurringEvent -->
<g id="node3" class="node">
<title>RecurringEvent</title>
<g id="a_node3"><a xlink:href="../RecurringEvent.md" xlink:title="&lt;TABLE&gt;">
<polygon fill="lightgray" stroke="none" points="59.88,-97.88 59.88,-114.12 145.12,-114.12 145.12,-97.88 59.88,-97.88"/>
<text xml:space="preserve" text-anchor="start" x="60.88" y="-101.72" font-family="Arial" font-size="12.00">RecurringEvent</text>
<polygon fill="none" stroke="black" points="58.88,-96.88 58.88,-115.12 146.12,-115.12 146.12,-96.88 58.88,-96.88"/>
</a>
</g>
</g>
<!-- DailyRecurringEvent&#45;&gt;RecurringEvent -->
<g id="edge1" class="edge">
<title>DailyRecurringEvent&#45;&gt;RecurringEvent</title>
<path fill="none" stroke="black" d="M102.5,-51.79C102.5,-59.25 102.5,-68.24 102.5,-76.69"/>
<polygon fill="none" stroke="black" points="99,-76.54 102.5,-86.54 106,-76.54 99,-76.54"/>
</g>
<!-- Invis -->
</g>
</svg>
