<?xml version="1.0" encoding="UTF-8" standalone="no"?>
<!DOCTYPE svg PUBLIC "-//W3C//DTD SVG 1.1//EN"
 "http://www.w3.org/Graphics/SVG/1.1/DTD/svg11.dtd">
<!-- Generated by graphviz version 14.0.2 (20251019.1705)
 -->
<!-- Pages: 1 -->
<svg width="198pt" height="132pt"
 viewBox="0.00 0.00 198.00 132.00" xmlns="http://www.w3.org/2000/svg" xmlns:xlink="http://www.w3.org/1999/xlink">
<g id="graph0" class="graph" transform="scale(1 1) rotate(0) translate(4 128)">
<polygon fill="white" stroke="none" points="-4,4 -4,-128 194.12,-128 194.12,4 -4,4"/>
<g id="clust2" class="cluster">
<title>cluster_associated</title>
</g>
<!-- DivisibleResource -->
<g id="node1" class="node">
<title>DivisibleResource</title>
<g id="a_node1"><a xlink:href="../DivisibleResource" xlink:title="&lt;TABLE&gt;">
<polygon fill="lightgray" stroke="none" points="1,-81.88 1,-98.12 101.25,-98.12 101.25,-81.88 1,-81.88"/>
<text xml:space="preserve" text-anchor="start" x="2" y="-85.72" font-family="Arial" font-size="12.00">DivisibleResource</text>
<polygon fill="none" stroke="black" points="0,-80.88 0,-99.12 102.25,-99.12 102.25,-80.88 0,-80.88"/>
</a>
</g>
</g>
<!-- Resource -->
<g id="node3" class="node">
<title>Resource</title>
<g id="a_node3"><a xlink:href="../Resource" xlink:title="&lt;TABLE&gt;">
<polygon fill="lightgray" stroke="none" points="24.25,-9.88 24.25,-26.12 78,-26.12 78,-9.88 24.25,-9.88"/>
<text xml:space="preserve" text-anchor="start" x="25.25" y="-13.72" font-family="Arial" font-size="12.00">Resource</text>
<polygon fill="none" stroke="black" points="23.25,-8.88 23.25,-27.12 79,-27.12 79,-8.88 23.25,-8.88"/>
</a>
</g>
</g>
<!-- DivisibleResource&#45;&gt;Resource -->
<g id="edge1" class="edge">
<title>DivisibleResource&#45;&gt;Resource</title>
<path fill="none" stroke="black" d="M51.12,-72.05C51.12,-64.57 51.12,-55.58 51.12,-47.14"/>
<polygon fill="none" stroke="black" points="54.63,-47.3 51.13,-37.3 47.63,-47.3 54.63,-47.3"/>
</g>
<!-- Invis -->
</g>
</svg>
