<?xml version="1.0" encoding="UTF-8" standalone="no"?>
<!DOCTYPE svg PUBLIC "-//W3C//DTD SVG 1.1//EN"
 "http://www.w3.org/Graphics/SVG/1.1/DTD/svg11.dtd">
<!-- Generated by graphviz version 14.0.2 (20251019.1705)
 -->
<!-- Pages: 1 -->
<svg width="320pt" height="132pt"
 viewBox="0.00 0.00 320.00 132.00" xmlns="http://www.w3.org/2000/svg" xmlns:xlink="http://www.w3.org/1999/xlink">
<g id="graph0" class="graph" transform="scale(1 1) rotate(0) translate(4 128)">
<polygon fill="white" stroke="none" points="-4,4 -4,-128 316.12,-128 316.12,4 -4,4"/>
<g id="clust2" class="cluster">
<title>cluster_associated</title>
</g>
<!-- Duration -->
<g id="node1" class="node">
<title>Duration</title>
<g id="a_node1"><a xlink:href="../Duration" xlink:title="&lt;TABLE&gt;">
<polygon fill="lightgray" stroke="none" points="111.88,-81.88 111.88,-98.12 159.62,-98.12 159.62,-81.88 111.88,-81.88"/>
<text xml:space="preserve" text-anchor="start" x="112.88" y="-85.72" font-family="Arial" font-size="12.00">Duration</text>
<polygon fill="none" stroke="black" points="110.88,-80.88 110.88,-99.12 160.62,-99.12 160.62,-80.88 110.88,-80.88"/>
</a>
</g>
</g>
<!-- CityUnitsThing -->
<g id="node3" class="node">
<title>CityUnitsThing</title>
<g id="a_node3"><a xlink:href="../CityUnitsThing" xlink:title="&lt;TABLE&gt;">
<polygon fill="lightgray" stroke="none" points="1,-9.88 1,-26.12 82.5,-26.12 82.5,-9.88 1,-9.88"/>
<text xml:space="preserve" text-anchor="start" x="2" y="-13.72" font-family="Arial" font-size="12.00">CityUnitsThing</text>
<polygon fill="none" stroke="black" points="0,-8.88 0,-27.12 83.5,-27.12 83.5,-8.88 0,-8.88"/>
</a>
</g>
</g>
<!-- Duration&#45;&gt;CityUnitsThing -->
<g id="edge1" class="edge">
<title>Duration&#45;&gt;CityUnitsThing</title>
<path fill="none" stroke="black" d="M113,-72.05C101.1,-63.2 86.36,-52.22 73.37,-42.55"/>
<polygon fill="none" stroke="black" points="75.62,-39.86 65.51,-36.69 71.44,-45.47 75.62,-39.86"/>
</g>
<!-- i72_Quantity -->
<g id="node4" class="node">
<title>i72_Quantity</title>
<g id="a_node4"><a xlink:href="https://w3id.org/citydata/21972/v1/Quantity" xlink:title="&lt;TABLE&gt;">
<polygon fill="lightgray" stroke="none" points="102.88,-9.88 102.88,-26.12 168.62,-26.12 168.62,-9.88 102.88,-9.88"/>
<text xml:space="preserve" text-anchor="start" x="103.88" y="-13.72" font-family="Arial" font-size="12.00">i72:Quantity</text>
<polygon fill="none" stroke="black" points="101.88,-8.88 101.88,-27.12 169.62,-27.12 169.62,-8.88 101.88,-8.88"/>
</a>
</g>
</g>
<!-- Duration&#45;&gt;i72_Quantity -->
<g id="edge2" class="edge">
<title>Duration&#45;&gt;i72_Quantity</title>
<path fill="none" stroke="black" d="M135.75,-72.05C135.75,-64.57 135.75,-55.58 135.75,-47.14"/>
<polygon fill="none" stroke="black" points="139.25,-47.3 135.75,-37.3 132.25,-47.3 139.25,-47.3"/>
</g>
<!-- time_TemporalDuration -->
<g id="node5" class="node">
<title>time_TemporalDuration</title>
<g id="a_node5"><a xlink:href="https://w3id.org/citydata/imported/time/latest/TemporalDuration" xlink:title="&lt;TABLE&gt;">
<polygon fill="lightgray" stroke="none" points="188.38,-9.88 188.38,-26.12 311.12,-26.12 311.12,-9.88 188.38,-9.88"/>
<text xml:space="preserve" text-anchor="start" x="189.38" y="-13.72" font-family="Arial" font-size="12.00">time:TemporalDuration</text>
<polygon fill="none" stroke="black" points="187.38,-8.88 187.38,-27.12 312.12,-27.12 312.12,-8.88 187.38,-8.88"/>
</a>
</g>
</g>
<!-- Duration&#45;&gt;time_TemporalDuration -->
<g id="edge3" class="edge">
<title>Duration&#45;&gt;time_TemporalDuration</title>
<path fill="none" stroke="black" d="M157.09,-72.15C160.91,-69.33 164.9,-66.51 168.75,-64 180.87,-56.1 194.48,-48.19 207.02,-41.26"/>
<polygon fill="none" stroke="black" points="208.37,-44.51 215.48,-36.66 205.03,-38.36 208.37,-44.51"/>
</g>
<!-- Invis -->
</g>
</svg>
