<?xml version="1.0" encoding="UTF-8" standalone="no"?>
<!DOCTYPE svg PUBLIC "-//W3C//DTD SVG 1.1//EN"
 "http://www.w3.org/Graphics/SVG/1.1/DTD/svg11.dtd">
<!-- Generated by graphviz version 14.0.2 (20251019.1705)
 -->
<!-- Pages: 1 -->
<svg width="391pt" height="206pt"
 viewBox="0.00 0.00 391.00 206.00" xmlns="http://www.w3.org/2000/svg" xmlns:xlink="http://www.w3.org/1999/xlink">
<g id="graph0" class="graph" transform="scale(1 1) rotate(0) translate(4 202)">
<polygon fill="white" stroke="none" points="-4,4 -4,-202 387,-202 387,4 -4,4"/>
<g id="clust2" class="cluster">
<title>cluster_associated</title>
</g>
<!-- ExceptionDay -->
<g id="node1" class="node">
<title>ExceptionDay</title>
<g id="a_node1"><a xlink:href="../ExceptionDay" xlink:title="&lt;TABLE&gt;">
<polygon fill="lightgray" stroke="none" points="51.25,-180 51.25,-196.25 204.75,-196.25 204.75,-180 51.25,-180"/>
<text xml:space="preserve" text-anchor="start" x="90.5" y="-183.85" font-family="Arial" font-size="12.00">ExceptionDay</text>
<text xml:space="preserve" text-anchor="start" x="52.25" y="-167.6" font-family="Arial" font-size="12.00">«some xsd:string» hasName</text>
<polygon fill="none" stroke="black" points="50.25,-162.75 50.25,-197.25 205.75,-197.25 205.75,-162.75 50.25,-162.75"/>
</a>
</g>
</g>
<!-- Invis -->
<!-- ExceptionDay&#45;&gt;Invis -->
<!-- time_GeneralDateTimeDescription -->
<g id="node3" class="node">
<title>time_GeneralDateTimeDescription</title>
<g id="a_node3"><a xlink:href="https://w3id.org/citydata/imported/time/latest/GeneralDateTimeDescription" xlink:title="&lt;TABLE&gt;">
<polygon fill="lightgray" stroke="none" points="16.62,-25.88 16.62,-42.12 199.38,-42.12 199.38,-25.88 16.62,-25.88"/>
<text xml:space="preserve" text-anchor="start" x="17.62" y="-29.73" font-family="Arial" font-size="12.00">time:GeneralDateTimeDescription</text>
<polygon fill="none" stroke="black" points="15.62,-24.88 15.62,-43.12 200.38,-43.12 200.38,-24.88 15.62,-24.88"/>
</a>
</g>
</g>
<!-- ExceptionDay&#45;&gt;time_GeneralDateTimeDescription -->
<g id="edge4" class="edge">
<title>ExceptionDay&#45;&gt;time_GeneralDateTimeDescription</title>
<path fill="none" stroke="black" d="M125.67,-162.2C122.28,-137.81 115.96,-92.31 111.87,-62.86"/>
<polygon fill="black" stroke="black" points="115.37,-62.62 110.53,-53.19 108.44,-63.58 115.37,-62.62"/>
<text xml:space="preserve" text-anchor="middle" x="180.84" y="-110.05" font-family="Arial" font-size="11.00"> onDateTimeDescription </text>
<text xml:space="preserve" text-anchor="middle" x="180.84" y="-96.55" font-family="Arial" font-size="11.00"> «some» &#160;</text>
</g>
<!-- RecurringEventThing -->
<g id="node4" class="node">
<title>RecurringEventThing</title>
<g id="a_node4"><a xlink:href="../RecurringEventThing" xlink:title="&lt;TABLE&gt;">
<polygon fill="lightgray" stroke="none" points="266,-98.88 266,-115.12 382,-115.12 382,-98.88 266,-98.88"/>
<text xml:space="preserve" text-anchor="start" x="267" y="-102.72" font-family="Arial" font-size="12.00">RecurringEventThing</text>
<polygon fill="none" stroke="black" points="265,-97.88 265,-116.12 383,-116.12 383,-97.88 265,-97.88"/>
</a>
</g>
</g>
<!-- ExceptionDay&#45;&gt;RecurringEventThing -->
<g id="edge1" class="edge">
<title>ExceptionDay&#45;&gt;RecurringEventThing</title>
<path fill="none" stroke="black" d="M174.45,-162.17C202.07,-152.17 237.34,-139.39 266.69,-128.76"/>
<polygon fill="none" stroke="black" points="267.57,-132.16 275.78,-125.47 265.19,-125.58 267.57,-132.16"/>
</g>
<!-- Invis&#45;&gt;time_GeneralDateTimeDescription -->
</g>
</svg>
