<?xml version="1.0" encoding="UTF-8" standalone="no"?>
<!DOCTYPE svg PUBLIC "-//W3C//DTD SVG 1.1//EN"
 "http://www.w3.org/Graphics/SVG/1.1/DTD/svg11.dtd">
<!-- Generated by graphviz version 14.1.3 (20260303.0454)
 -->
<!-- Pages: 1 -->
<svg width="282pt" height="338pt"
 viewBox="0.00 0.00 282.00 338.00" xmlns="http://www.w3.org/2000/svg" xmlns:xlink="http://www.w3.org/1999/xlink">
<g id="graph0" class="graph" transform="scale(1 1) rotate(0) translate(4 334)">
<polygon fill="white" stroke="none" points="-4,4 -4,-334 277.5,-334 277.5,4 -4,4"/>
<g id="clust3" class="cluster">
<title>cluster_associated</title>
</g>
<!-- Manifestation -->
<g id="node1" class="node">
<title>Manifestation</title>
<g id="a_node1"><a xlink:href="../Manifestation" xlink:title="&lt;TABLE&gt;">
<polygon fill="lightgray" stroke="none" points="57.88,-303.88 57.88,-320.12 131.12,-320.12 131.12,-303.88 57.88,-303.88"/>
<text xml:space="preserve" text-anchor="start" x="58.88" y="-307.88" font-family="Arial" font-size="12.00">Manifestation</text>
<polygon fill="none" stroke="black" points="56.88,-302.88 56.88,-321.12 132.12,-321.12 132.12,-302.88 56.88,-302.88"/>
</a>
</g>
</g>
<!-- FirstManifestation -->
<g id="node2" class="node">
<title>FirstManifestation</title>
<g id="a_node2"><a xlink:href="../FirstManifestation" xlink:title="&lt;TABLE&gt;">
<polygon fill="lightgray" stroke="none" points="128.25,-188.88 128.25,-205.12 224.75,-205.12 224.75,-188.88 128.25,-188.88"/>
<text xml:space="preserve" text-anchor="start" x="129.25" y="-192.88" font-family="Arial" font-size="12.00">FirstManifestation</text>
<polygon fill="none" stroke="black" points="127.25,-187.88 127.25,-206.12 225.75,-206.12 225.75,-187.88 127.25,-187.88"/>
</a>
</g>
</g>
<!-- FirstManifestation&#45;&gt;Manifestation -->
<g id="edge1" class="edge">
<title>FirstManifestation&#45;&gt;Manifestation</title>
<path fill="none" stroke="black" d="M178.27,-214.67C179.27,-232.74 178.08,-261.53 163.5,-280.5 158,-287.65 150.46,-293.17 142.38,-297.4"/>
<polygon fill="none" stroke="black" points="141.01,-294.18 133.35,-301.49 143.9,-300.56 141.01,-294.18"/>
</g>
<!-- FirstManifestation&#45;&gt;Manifestation -->
<g id="edge2" class="edge">
<title>FirstManifestation:e&#45;&gt;Manifestation:e</title>
<path fill="none" stroke="black" d="M226.7,-197C234.72,-197 231.32,-209.28 225.7,-215 196.9,-244.32 69.23,-198.4 41.25,-228.5 25.52,-245.43 26.16,-263 41.25,-280.5 67.91,-311.41 104.59,-263.84 132.09,-294 133.86,-295.94 135.44,-298.55 136.48,-301.17"/>
<polygon fill="black" stroke="black" points="133.19,-299.97 133.54,-310.56 139.87,-302.06 133.19,-299.97"/>
<polygon fill="white" stroke="none" points="41.25,-233 41.25,-276 159.5,-276 159.5,-233 41.25,-233"/>
<text xml:space="preserve" text-anchor="start" x="45.25" y="-261.5" font-family="Arial" font-size="11.00">hasLatestManifestation</text>
<text xml:space="preserve" text-anchor="start" x="97.38" y="-240" font-family="Arial" font-size="11.00">1</text>
</g>
<!-- n6c39afab06644f4cade7adf92f87691cb7 -->
<g id="node4" class="node">
<title>n6c39afab06644f4cade7adf92f87691cb7</title>
<polygon fill="lightyellow" stroke="none" points="0,-94.38 0,-112.62 91,-112.62 91,-94.38 0,-94.38"/>
<text xml:space="preserve" text-anchor="start" x="2" y="-99.38" font-family="Arial" font-size="12.00">«intersectionOf»</text>
<polygon fill="none" stroke="black" points="0,-94.38 0,-112.62 91,-112.62 91,-94.38 0,-94.38"/>
</g>
<!-- FirstManifestation&#45;&gt;n6c39afab06644f4cade7adf92f87691cb7 -->
<g id="edge6" class="edge">
<title>FirstManifestation&#45;&gt;n6c39afab06644f4cade7adf92f87691cb7</title>
<path fill="none" stroke="black" d="M127.51,-189.02C95.05,-183.29 56.64,-173.99 46.5,-161 40.3,-153.05 38.91,-142.38 39.48,-132.45"/>
<polygon fill="black" stroke="black" points="42.91,-133.2 40.68,-122.84 35.97,-132.33 42.91,-133.2"/>
<polygon fill="white" stroke="none" points="46.5,-139.5 46.5,-161 162.5,-161 162.5,-139.5 46.5,-139.5"/>
<text xml:space="preserve" text-anchor="start" x="50.5" y="-146.5" font-family="Arial" font-size="11.00">precedesManifestation</text>
</g>
<!-- Invis -->
<!-- n6c39afab06644f4cade7adf92f87691cb7&#45;&gt;Manifestation -->
<g id="edge3" class="edge">
<title>n6c39afab06644f4cade7adf92f87691cb7&#45;&gt;Manifestation</title>
<path fill="none" stroke="black" stroke-dasharray="1,5" d="M36.94,-121.41C21.36,-154.82 -7.14,-230.38 25.5,-280.5 30.63,-288.38 38.31,-294.24 46.71,-298.59"/>
<polygon fill="black" stroke="black" points="45.24,-301.77 55.8,-302.58 48.05,-295.36 45.24,-301.77"/>
<text xml:space="preserve" text-anchor="middle" x="36.03" y="-193.3" font-family="Arial" font-size="11.00">member</text>
</g>
<!-- n6c39afab06644f4cade7adf92f87691cb8 -->
<g id="node5" class="node">
<title>n6c39afab06644f4cade7adf92f87691cb8</title>
<polygon fill="lightyellow" stroke="none" points="93.5,-8.88 93.5,-27.12 127.5,-27.12 127.5,-8.88 93.5,-8.88"/>
<text xml:space="preserve" text-anchor="start" x="95.5" y="-13.88" font-family="Arial" font-size="12.00">«not»</text>
<polygon fill="none" stroke="black" points="93.5,-8.88 93.5,-27.12 127.5,-27.12 127.5,-8.88 93.5,-8.88"/>
</g>
<!-- n6c39afab06644f4cade7adf92f87691cb7&#45;&gt;n6c39afab06644f4cade7adf92f87691cb8 -->
<g id="edge5" class="edge">
<title>n6c39afab06644f4cade7adf92f87691cb7&#45;&gt;n6c39afab06644f4cade7adf92f87691cb8</title>
<path fill="none" stroke="black" stroke-dasharray="1,5" d="M58.65,-85.6C67.82,-73.83 80.2,-57.92 90.57,-44.6"/>
<polygon fill="black" stroke="black" points="93.06,-47.11 96.44,-37.07 87.53,-42.81 93.06,-47.11"/>
<text xml:space="preserve" text-anchor="middle" x="101.77" y="-57.05" font-family="Arial" font-size="11.00">member</text>
</g>
<!-- n6c39afab06644f4cade7adf92f87691cb8&#45;&gt;FirstManifestation -->
<g id="edge4" class="edge">
<title>n6c39afab06644f4cade7adf92f87691cb8&#45;&gt;FirstManifestation</title>
<path fill="none" stroke="black" stroke-dasharray="1,5" d="M118.81,-35.82C129.92,-58.79 149.69,-101.5 162.5,-139.5 165.63,-148.79 168.4,-159.16 170.63,-168.45"/>
<polygon fill="black" stroke="black" points="167.18,-169.04 172.82,-178 174,-167.47 167.18,-169.04"/>
<text xml:space="preserve" text-anchor="middle" x="160.31" y="-99.8" font-family="Arial" font-size="11.00">of</text>
</g>
</g>
</svg>
