<?xml version="1.0" encoding="UTF-8" standalone="no"?>
<!DOCTYPE svg PUBLIC "-//W3C//DTD SVG 1.1//EN"
 "http://www.w3.org/Graphics/SVG/1.1/DTD/svg11.dtd">
<!-- Generated by graphviz version 14.0.2 (20251019.1705)
 -->
<!-- Pages: 1 -->
<svg width="314pt" height="245pt"
 viewBox="0.00 0.00 314.00 245.00" xmlns="http://www.w3.org/2000/svg" xmlns:xlink="http://www.w3.org/1999/xlink">
<g id="graph0" class="graph" transform="scale(1 1) rotate(0) translate(4 240.5)">
<polygon fill="white" stroke="none" points="-4,4 -4,-240.5 310.28,-240.5 310.28,4 -4,4"/>
<g id="clust2" class="cluster">
<title>cluster_associated</title>
</g>
<!-- FirstManifestation -->
<g id="node1" class="node">
<title>FirstManifestation</title>
<g id="a_node1"><a xlink:href="../FirstManifestation.md" xlink:title="&lt;TABLE&gt;">
<polygon fill="lightgray" stroke="none" points="89.03,-25.88 89.03,-42.12 185.53,-42.12 185.53,-25.88 89.03,-25.88"/>
<text xml:space="preserve" text-anchor="start" x="90.03" y="-29.73" font-family="Arial" font-size="12.00">FirstManifestation</text>
<polygon fill="none" stroke="black" points="88.03,-24.88 88.03,-43.12 186.53,-43.12 186.53,-24.88 88.03,-24.88"/>
</a>
</g>
</g>
<!-- Manifestation -->
<g id="node3" class="node">
<title>Manifestation</title>
<g id="a_node3"><a xlink:href="../Manifestation.md" xlink:title="&lt;TABLE&gt;">
<polygon fill="lightgray" stroke="none" points="131.66,-124.88 131.66,-141.12 204.91,-141.12 204.91,-124.88 131.66,-124.88"/>
<text xml:space="preserve" text-anchor="start" x="132.66" y="-128.72" font-family="Arial" font-size="12.00">Manifestation</text>
<polygon fill="none" stroke="black" points="130.66,-123.88 130.66,-142.12 205.91,-142.12 205.91,-123.88 130.66,-123.88"/>
</a>
</g>
</g>
<!-- FirstManifestation&#45;&gt;Manifestation -->
<g id="edge1" class="edge">
<title>FirstManifestation&#45;&gt;Manifestation</title>
<path fill="none" stroke="black" d="M133.18,-51.94C130.91,-64.77 129.56,-82.59 135.28,-97 136.57,-100.23 138.31,-103.34 140.32,-106.28"/>
<polygon fill="none" stroke="black" points="137.47,-108.32 146.5,-113.85 142.89,-103.89 137.47,-108.32"/>
</g>
<!-- FirstManifestation&#45;&gt;Manifestation -->
<g id="edge6" class="edge">
<title>FirstManifestation&#45;&gt;Manifestation</title>
<path fill="none" stroke="black" d="M141.73,-51.96C145.11,-64.48 150.03,-81.91 155.03,-97 155.83,-99.4 156.69,-101.89 157.58,-104.37"/>
<polygon fill="black" stroke="black" points="154.24,-105.43 161,-113.59 160.8,-103 154.24,-105.43"/>
<text xml:space="preserve" text-anchor="middle" x="213.16" y="-86.55" font-family="Arial" font-size="11.00"> hasLatestManifestation </text>
<text xml:space="preserve" text-anchor="middle" x="213.16" y="-73.05" font-family="Arial" font-size="11.00"> «exactly 1» &#160;</text>
</g>
<!-- N17602641e377461eb9332c663501c6d7 -->
<g id="node4" class="node">
<title>N17602641e377461eb9332c663501c6d7</title>
<polygon fill="lightyellow" stroke="none" points="122.78,-209.38 122.78,-227.62 213.78,-227.62 213.78,-209.38 122.78,-209.38"/>
<text xml:space="preserve" text-anchor="start" x="124.78" y="-214.22" font-family="Arial" font-size="12.00">«intersectionOf»</text>
<polygon fill="none" stroke="black" points="122.78,-209.38 122.78,-227.62 213.78,-227.62 213.78,-209.38 122.78,-209.38"/>
</g>
<!-- FirstManifestation&#45;&gt;N17602641e377461eb9332c663501c6d7 -->
<g id="edge5" class="edge">
<title>FirstManifestation&#45;&gt;N17602641e377461eb9332c663501c6d7</title>
<path fill="none" stroke="black" d="M91.32,-51.91C43.46,-72.22 -20.89,-108.89 7.28,-151 30.44,-185.63 75.3,-202.24 111.79,-210.21"/>
<polygon fill="black" stroke="black" points="110.84,-213.58 121.33,-212.11 112.21,-206.72 110.84,-213.58"/>
<text xml:space="preserve" text-anchor="middle" x="64.28" y="-136.05" font-family="Arial" font-size="11.00"> precedesManifestation </text>
<text xml:space="preserve" text-anchor="middle" x="64.28" y="-122.55" font-family="Arial" font-size="11.00"> «only» &#160;</text>
</g>
<!-- Invis -->
<!-- N17602641e377461eb9332c663501c6d7&#45;&gt;Manifestation -->
<g id="edge4" class="edge">
<title>N17602641e377461eb9332c663501c6d7&#45;&gt;Manifestation</title>
<path fill="none" stroke="black" stroke-dasharray="1,5" d="M168.28,-200.6C168.28,-189.62 168.28,-175.04 168.28,-162.32"/>
<polygon fill="black" stroke="black" points="171.78,-162.39 168.28,-152.39 164.78,-162.39 171.78,-162.39"/>
<text xml:space="preserve" text-anchor="middle" x="188.16" y="-172.05" font-family="Arial" font-size="11.00">member</text>
</g>
<!-- N199a774acf324bf281669b3cd126c28a -->
<g id="node5" class="node">
<title>N199a774acf324bf281669b3cd126c28a</title>
<polygon fill="lightyellow" stroke="none" points="262.28,-123.88 262.28,-142.12 296.28,-142.12 296.28,-123.88 262.28,-123.88"/>
<text xml:space="preserve" text-anchor="start" x="264.28" y="-128.72" font-family="Arial" font-size="12.00">«not»</text>
<polygon fill="none" stroke="black" points="262.28,-123.88 262.28,-142.12 296.28,-142.12 296.28,-123.88 262.28,-123.88"/>
</g>
<!-- N17602641e377461eb9332c663501c6d7&#45;&gt;N199a774acf324bf281669b3cd126c28a -->
<g id="edge3" class="edge">
<title>N17602641e377461eb9332c663501c6d7&#45;&gt;N199a774acf324bf281669b3cd126c28a</title>
<path fill="none" stroke="black" stroke-dasharray="1,5" d="M190.75,-200.6C207.14,-188.27 229.59,-171.38 247.78,-157.69"/>
<polygon fill="black" stroke="black" points="249.76,-160.59 255.64,-151.78 245.55,-155 249.76,-160.59"/>
<text xml:space="preserve" text-anchor="middle" x="250.3" y="-172.05" font-family="Arial" font-size="11.00">member</text>
</g>
<!-- N199a774acf324bf281669b3cd126c28a&#45;&gt;FirstManifestation -->
<g id="edge2" class="edge">
<title>N199a774acf324bf281669b3cd126c28a&#45;&gt;FirstManifestation</title>
<path fill="none" stroke="black" stroke-dasharray="1,5" d="M282.2,-115.11C283.58,-101.07 282.88,-81.57 271.28,-70 258.75,-57.5 209.31,-64.83 192.28,-60 188.54,-58.94 184.72,-57.66 180.93,-56.25"/>
<polygon fill="black" stroke="black" points="182.4,-53.07 171.82,-52.56 179.78,-59.55 182.4,-53.07"/>
<text xml:space="preserve" text-anchor="middle" x="286.67" y="-79.8" font-family="Arial" font-size="11.00">of</text>
</g>
</g>
</svg>
