<?xml version="1.0" encoding="UTF-8" standalone="no"?>
<!DOCTYPE svg PUBLIC "-//W3C//DTD SVG 1.1//EN"
 "http://www.w3.org/Graphics/SVG/1.1/DTD/svg11.dtd">
<!-- Generated by graphviz version 14.0.2 (20251019.1705)
 -->
<!-- Pages: 1 -->
<svg width="317pt" height="245pt"
 viewBox="0.00 0.00 317.00 245.00" xmlns="http://www.w3.org/2000/svg" xmlns:xlink="http://www.w3.org/1999/xlink">
<g id="graph0" class="graph" transform="scale(1 1) rotate(0) translate(4 240.5)">
<polygon fill="white" stroke="none" points="-4,4 -4,-240.5 313.4,-240.5 313.4,4 -4,4"/>
<g id="clust2" class="cluster">
<title>cluster_associated</title>
</g>
<!-- FirstManifestation -->
<g id="node1" class="node">
<title>FirstManifestation</title>
<g id="a_node1"><a xlink:href="../FirstManifestation" xlink:title="&lt;TABLE&gt;">
<polygon fill="lightgray" stroke="none" points="30.38,-194.38 30.38,-210.62 126.88,-210.62 126.88,-194.38 30.38,-194.38"/>
<text xml:space="preserve" text-anchor="start" x="31.38" y="-198.22" font-family="Arial" font-size="12.00">FirstManifestation</text>
<polygon fill="none" stroke="black" points="29.38,-193.38 29.38,-211.62 127.88,-211.62 127.88,-193.38 29.38,-193.38"/>
</a>
</g>
</g>
<!-- Manifestation -->
<g id="node3" class="node">
<title>Manifestation</title>
<g id="a_node3"><a xlink:href="../Manifestation" xlink:title="&lt;TABLE&gt;">
<polygon fill="lightgray" stroke="none" points="1,-9.88 1,-26.12 74.25,-26.12 74.25,-9.88 1,-9.88"/>
<text xml:space="preserve" text-anchor="start" x="2" y="-13.72" font-family="Arial" font-size="12.00">Manifestation</text>
<polygon fill="none" stroke="black" points="0,-8.88 0,-27.12 75.25,-27.12 75.25,-8.88 0,-8.88"/>
</a>
</g>
</g>
<!-- FirstManifestation&#45;&gt;Manifestation -->
<g id="edge1" class="edge">
<title>FirstManifestation&#45;&gt;Manifestation</title>
<path fill="none" stroke="black" d="M42.39,-184.52C35.2,-179.64 28.41,-173.65 23.62,-166.5 -0.57,-130.36 13.3,-77.63 25.51,-45.97"/>
<polygon fill="none" stroke="black" points="28.58,-47.7 29.12,-37.12 22.1,-45.06 28.58,-47.7"/>
</g>
<!-- FirstManifestation&#45;&gt;Manifestation -->
<g id="edge6" class="edge">
<title>FirstManifestation&#45;&gt;Manifestation</title>
<path fill="none" stroke="black" d="M70.51,-184.77C63.19,-168.89 52.76,-144.13 47.38,-121.5 41.49,-96.79 39.14,-67.93 38.21,-47.14"/>
<polygon fill="black" stroke="black" points="41.71,-47.3 37.86,-37.43 34.72,-47.55 41.71,-47.3"/>
<text xml:space="preserve" text-anchor="middle" x="105.5" y="-106.55" font-family="Arial" font-size="11.00"> hasLatestManifestation </text>
<text xml:space="preserve" text-anchor="middle" x="105.5" y="-93.05" font-family="Arial" font-size="11.00"> «exactly 1» &#160;</text>
</g>
<!-- N87d2e08915454da28c17c4d47d85e01e -->
<g id="node4" class="node">
<title>N87d2e08915454da28c17c4d47d85e01e</title>
<polygon fill="lightyellow" stroke="none" points="172.12,-94.38 172.12,-112.62 263.12,-112.62 263.12,-94.38 172.12,-94.38"/>
<text xml:space="preserve" text-anchor="start" x="174.12" y="-99.22" font-family="Arial" font-size="12.00">«intersectionOf»</text>
<polygon fill="none" stroke="black" points="172.12,-94.38 172.12,-112.62 263.12,-112.62 263.12,-94.38 172.12,-94.38"/>
</g>
<!-- FirstManifestation&#45;&gt;N87d2e08915454da28c17c4d47d85e01e -->
<g id="edge5" class="edge">
<title>FirstManifestation&#45;&gt;N87d2e08915454da28c17c4d47d85e01e</title>
<path fill="none" stroke="black" d="M102.84,-184.6C125.46,-168.82 159.42,-145.12 184.54,-127.59"/>
<polygon fill="black" stroke="black" points="186.25,-130.66 192.45,-122.07 182.25,-124.92 186.25,-130.66"/>
<text xml:space="preserve" text-anchor="middle" x="221.66" y="-156.05" font-family="Arial" font-size="11.00"> precedesManifestation </text>
<text xml:space="preserve" text-anchor="middle" x="221.66" y="-142.55" font-family="Arial" font-size="11.00"> «only» &#160;</text>
</g>
<!-- Invis -->
<!-- N87d2e08915454da28c17c4d47d85e01e&#45;&gt;Manifestation -->
<g id="edge4" class="edge">
<title>N87d2e08915454da28c17c4d47d85e01e&#45;&gt;Manifestation</title>
<path fill="none" stroke="black" stroke-dasharray="1,5" d="M181.2,-85.6C153.26,-72.64 114.5,-54.66 84.29,-40.65"/>
<polygon fill="black" stroke="black" points="85.91,-37.54 75.37,-36.51 82.97,-43.89 85.91,-37.54"/>
<text xml:space="preserve" text-anchor="middle" x="158.28" y="-57.05" font-family="Arial" font-size="11.00">member</text>
</g>
<!-- Nfa00236129ac4b49b3e9d5252a560884 -->
<g id="node5" class="node">
<title>Nfa00236129ac4b49b3e9d5252a560884</title>
<polygon fill="lightyellow" stroke="none" points="254.62,-8.88 254.62,-27.12 288.62,-27.12 288.62,-8.88 254.62,-8.88"/>
<text xml:space="preserve" text-anchor="start" x="256.62" y="-13.72" font-family="Arial" font-size="12.00">«not»</text>
<polygon fill="none" stroke="black" points="254.62,-8.88 254.62,-27.12 288.62,-27.12 288.62,-8.88 254.62,-8.88"/>
</g>
<!-- N87d2e08915454da28c17c4d47d85e01e&#45;&gt;Nfa00236129ac4b49b3e9d5252a560884 -->
<g id="edge3" class="edge">
<title>N87d2e08915454da28c17c4d47d85e01e&#45;&gt;Nfa00236129ac4b49b3e9d5252a560884</title>
<path fill="none" stroke="black" stroke-dasharray="1,5" d="M226.87,-85.62C232.19,-76.17 239.14,-64.26 245.88,-54 247.8,-51.07 249.88,-48.05 251.98,-45.06"/>
<polygon fill="black" stroke="black" points="254.75,-47.21 257.79,-37.06 249.09,-43.1 254.75,-47.21"/>
<text xml:space="preserve" text-anchor="middle" x="265.75" y="-57.05" font-family="Arial" font-size="11.00">member</text>
</g>
<!-- Nfa00236129ac4b49b3e9d5252a560884&#45;&gt;FirstManifestation -->
<g id="edge2" class="edge">
<title>Nfa00236129ac4b49b3e9d5252a560884&#45;&gt;FirstManifestation</title>
<path fill="none" stroke="black" stroke-dasharray="1,5" d="M279.98,-35.87C293.79,-66.46 316.66,-131.19 282.62,-166.5 271.11,-178.45 149.71,-172.45 133.62,-176.5 129.57,-177.52 125.45,-178.83 121.38,-180.31"/>
<polygon fill="black" stroke="black" points="120.17,-177.02 112.19,-184 122.78,-183.52 120.17,-177.02"/>
<text xml:space="preserve" text-anchor="middle" x="304.9" y="-99.8" font-family="Arial" font-size="11.00">of</text>
</g>
</g>
</svg>
