<?xml version="1.0" encoding="UTF-8" standalone="no"?>
<!DOCTYPE svg PUBLIC "-//W3C//DTD SVG 1.1//EN"
 "http://www.w3.org/Graphics/SVG/1.1/DTD/svg11.dtd">
<!-- Generated by graphviz version 14.1.3 (20260303.0454)
 -->
<!-- Pages: 1 -->
<svg width="294pt" height="323pt"
 viewBox="0.00 0.00 294.00 323.00" xmlns="http://www.w3.org/2000/svg" xmlns:xlink="http://www.w3.org/1999/xlink">
<g id="graph0" class="graph" transform="scale(1 1) rotate(0) translate(4 319)">
<polygon fill="white" stroke="none" points="-4,4 -4,-319 290.25,-319 290.25,4 -4,4"/>
<g id="clust3" class="cluster">
<title>cluster_associated</title>
</g>
<!-- Manifestation -->
<g id="node1" class="node">
<title>Manifestation</title>
<g id="a_node1"><a xlink:href="../Manifestation" xlink:title="&lt;TABLE&gt;">
<polygon fill="lightgray" stroke="none" points="28.62,-288.88 28.62,-305.12 101.88,-305.12 101.88,-288.88 28.62,-288.88"/>
<text xml:space="preserve" text-anchor="start" x="29.62" y="-292.88" font-family="Arial" font-size="12.00">Manifestation</text>
<polygon fill="none" stroke="black" points="27.62,-287.88 27.62,-306.12 102.88,-306.12 102.88,-287.88 27.62,-287.88"/>
</a>
</g>
</g>
<!-- FirstManifestation -->
<g id="node2" class="node">
<title>FirstManifestation</title>
<g id="a_node2"><a xlink:href="../FirstManifestation" xlink:title="&lt;TABLE&gt;">
<polygon fill="lightgray" stroke="none" points="1,-180.88 1,-197.12 97.5,-197.12 97.5,-180.88 1,-180.88"/>
<text xml:space="preserve" text-anchor="start" x="2" y="-184.88" font-family="Arial" font-size="12.00">FirstManifestation</text>
<polygon fill="none" stroke="black" points="0,-179.88 0,-198.12 98.5,-198.12 98.5,-179.88 0,-179.88"/>
</a>
</g>
</g>
<!-- FirstManifestation&#45;&gt;Manifestation -->
<g id="edge1" class="edge">
<title>FirstManifestation&#45;&gt;Manifestation</title>
<path fill="none" stroke="black" d="M45.39,-206.78C42.75,-221.1 40.36,-242.34 47.55,-268.18"/>
<polygon fill="none" stroke="black" points="44.21,-269.24 50.62,-277.68 50.87,-267.09 44.21,-269.24"/>
</g>
<!-- FirstManifestation&#45;&gt;Manifestation -->
<g id="edge6" class="edge">
<title>FirstManifestation&#45;&gt;Manifestation</title>
<path fill="none" stroke="black" d="M51.79,-206.8C54.27,-223.28 58.11,-248.7 61.05,-268.2"/>
<polygon fill="black" stroke="black" points="57.57,-268.58 62.52,-277.94 64.49,-267.53 57.57,-268.58"/>
<text xml:space="preserve" text-anchor="middle" x="116.08" y="-246.05" font-family="Arial" font-size="11.00">hasLatestManifestation</text>
<text xml:space="preserve" text-anchor="middle" x="116.08" y="-232.55" font-family="Arial" font-size="11.00">1</text>
</g>
<!-- n63b6c00723f243a496d57ea2b4990be9b6 -->
<g id="node4" class="node">
<title>n63b6c00723f243a496d57ea2b4990be9b6</title>
<polygon fill="lightyellow" stroke="none" points="61.75,-94.38 61.75,-112.62 152.75,-112.62 152.75,-94.38 61.75,-94.38"/>
<text xml:space="preserve" text-anchor="start" x="63.75" y="-99.38" font-family="Arial" font-size="12.00">«intersectionOf»</text>
<polygon fill="none" stroke="black" points="61.75,-94.38 61.75,-112.62 152.75,-112.62 152.75,-94.38 61.75,-94.38"/>
</g>
<!-- FirstManifestation&#45;&gt;n63b6c00723f243a496d57ea2b4990be9b6 -->
<g id="edge5" class="edge">
<title>FirstManifestation&#45;&gt;n63b6c00723f243a496d57ea2b4990be9b6</title>
<path fill="none" stroke="black" d="M53.66,-171.34C56.76,-161.52 61.55,-149.16 68.25,-139.5 70.67,-136.01 73.51,-132.62 76.54,-129.42"/>
<polygon fill="black" stroke="black" points="78.95,-131.95 83.71,-122.49 74.09,-126.92 78.95,-131.95"/>
<text xml:space="preserve" text-anchor="middle" x="122.25" y="-142.55" font-family="Arial" font-size="11.00">precedesManifestation</text>
</g>
<!-- Invis -->
<!-- n63b6c00723f243a496d57ea2b4990be9b6&#45;&gt;Manifestation -->
<g id="edge2" class="edge">
<title>n63b6c00723f243a496d57ea2b4990be9b6&#45;&gt;Manifestation</title>
<path fill="none" stroke="black" stroke-dasharray="1,5" d="M152.63,-118.59C162,-123.66 170.7,-130.46 176.25,-139.5 206.37,-188.55 210.96,-223.86 175.25,-269 167.38,-278.94 139.54,-285.72 113.84,-289.99"/>
<polygon fill="black" stroke="black" points="113.48,-286.51 104.14,-291.5 114.56,-293.42 113.48,-286.51"/>
<text xml:space="preserve" text-anchor="middle" x="220.31" y="-185.3" font-family="Arial" font-size="11.00">member</text>
</g>
<!-- n63b6c00723f243a496d57ea2b4990be9b9 -->
<g id="node5" class="node">
<title>n63b6c00723f243a496d57ea2b4990be9b9</title>
<polygon fill="lightyellow" stroke="none" points="33.25,-8.88 33.25,-27.12 67.25,-27.12 67.25,-8.88 33.25,-8.88"/>
<text xml:space="preserve" text-anchor="start" x="35.25" y="-13.88" font-family="Arial" font-size="12.00">«not»</text>
<polygon fill="none" stroke="black" points="33.25,-8.88 33.25,-27.12 67.25,-27.12 67.25,-8.88 33.25,-8.88"/>
</g>
<!-- n63b6c00723f243a496d57ea2b4990be9b6&#45;&gt;n63b6c00723f243a496d57ea2b4990be9b9 -->
<g id="edge4" class="edge">
<title>n63b6c00723f243a496d57ea2b4990be9b6&#45;&gt;n63b6c00723f243a496d57ea2b4990be9b9</title>
<path fill="none" stroke="black" stroke-dasharray="1,5" d="M95.72,-85.6C87.83,-74.06 77.23,-58.53 68.25,-45.37"/>
<polygon fill="black" stroke="black" points="71.15,-43.41 62.62,-37.12 65.37,-47.35 71.15,-43.41"/>
<text xml:space="preserve" text-anchor="middle" x="102.04" y="-57.05" font-family="Arial" font-size="11.00">member</text>
</g>
<!-- n63b6c00723f243a496d57ea2b4990be9b9&#45;&gt;FirstManifestation -->
<g id="edge3" class="edge">
<title>n63b6c00723f243a496d57ea2b4990be9b9&#45;&gt;FirstManifestation</title>
<path fill="none" stroke="black" stroke-dasharray="1,5" d="M48.3,-35.92C46.86,-49.34 45.01,-68.59 44.25,-85.5 43.12,-110.67 44.76,-139.32 46.46,-159.92"/>
<polygon fill="black" stroke="black" points="42.97,-160.16 47.34,-169.81 49.94,-159.53 42.97,-160.16"/>
<text xml:space="preserve" text-anchor="middle" x="48.75" y="-99.8" font-family="Arial" font-size="11.00">of</text>
</g>
</g>
</svg>
