<?xml version="1.0" encoding="UTF-8" standalone="no"?>
<!DOCTYPE svg PUBLIC "-//W3C//DTD SVG 1.1//EN"
 "http://www.w3.org/Graphics/SVG/1.1/DTD/svg11.dtd">
<!-- Generated by graphviz version 14.0.2 (20251019.1705)
 -->
<!-- Pages: 1 -->
<svg width="226pt" height="132pt"
 viewBox="0.00 0.00 226.00 132.00" xmlns="http://www.w3.org/2000/svg" xmlns:xlink="http://www.w3.org/1999/xlink">
<g id="graph0" class="graph" transform="scale(1 1) rotate(0) translate(4 128)">
<polygon fill="white" stroke="none" points="-4,4 -4,-128 222.38,-128 222.38,4 -4,4"/>
<g id="clust2" class="cluster">
<title>cluster_associated</title>
</g>
<!-- FoundationalCdmThing -->
<g id="node1" class="node">
<title>FoundationalCdmThing</title>
<g id="a_node1"><a xlink:href="../FoundationalCdmThing.md" xlink:title="&lt;TABLE&gt;">
<polygon fill="lightgray" stroke="none" points="1,-25.88 1,-42.12 129.75,-42.12 129.75,-25.88 1,-25.88"/>
<text xml:space="preserve" text-anchor="start" x="2" y="-29.73" font-family="Arial" font-size="12.00">FoundationalCdmThing</text>
<polygon fill="none" stroke="black" points="0,-24.88 0,-43.12 130.75,-43.12 130.75,-24.88 0,-24.88"/>
</a>
</g>
</g>
<!-- CdmThing -->
<g id="node3" class="node">
<title>CdmThing</title>
<g id="a_node3"><a xlink:href="../CdmThing.md" xlink:title="&lt;TABLE&gt;">
<polygon fill="lightgray" stroke="none" points="36.25,-97.88 36.25,-114.12 94.5,-114.12 94.5,-97.88 36.25,-97.88"/>
<text xml:space="preserve" text-anchor="start" x="37.25" y="-101.72" font-family="Arial" font-size="12.00">CdmThing</text>
<polygon fill="none" stroke="black" points="35.25,-96.88 35.25,-115.12 95.5,-115.12 95.5,-96.88 35.25,-96.88"/>
</a>
</g>
</g>
<!-- FoundationalCdmThing&#45;&gt;CdmThing -->
<g id="edge1" class="edge">
<title>FoundationalCdmThing&#45;&gt;CdmThing</title>
<path fill="none" stroke="black" d="M65.38,-51.79C65.38,-59.25 65.38,-68.24 65.38,-76.69"/>
<polygon fill="none" stroke="black" points="61.88,-76.54 65.38,-86.54 68.88,-76.54 61.88,-76.54"/>
</g>
<!-- Invis -->
</g>
</svg>
