<?xml version="1.0" encoding="UTF-8" standalone="no"?>
<!DOCTYPE svg PUBLIC "-//W3C//DTD SVG 1.1//EN"
 "http://www.w3.org/Graphics/SVG/1.1/DTD/svg11.dtd">
<!-- Generated by graphviz version 14.0.2 (20251019.1705)
 -->
<!-- Pages: 1 -->
<svg width="644pt" height="232pt"
 viewBox="0.00 0.00 644.00 232.00" xmlns="http://www.w3.org/2000/svg" xmlns:xlink="http://www.w3.org/1999/xlink">
<g id="graph0" class="graph" transform="scale(1 1) rotate(0) translate(4 228)">
<polygon fill="white" stroke="none" points="-4,4 -4,-228 640.12,-228 640.12,4 -4,4"/>
<g id="clust2" class="cluster">
<title>cluster_associated</title>
</g>
<!-- Manifestation -->
<g id="node1" class="node">
<title>Manifestation</title>
<g id="a_node1"><a xlink:href="../Manifestation.md" xlink:title="&lt;TABLE&gt;">
<polygon fill="lightgray" stroke="none" points="143.38,-124.88 143.38,-141.12 216.62,-141.12 216.62,-124.88 143.38,-124.88"/>
<text xml:space="preserve" text-anchor="start" x="144.38" y="-128.72" font-family="Arial" font-size="12.00">Manifestation</text>
<polygon fill="none" stroke="black" points="142.38,-123.88 142.38,-142.12 217.62,-142.12 217.62,-123.88 142.38,-123.88"/>
</a>
</g>
</g>
<!-- Manifestation&#45;&gt;Manifestation -->
<g id="edge5" class="edge">
<title>Manifestation&#45;&gt;Manifestation</title>
<path fill="none" stroke="black" d="M217.44,-135.27C227.75,-135.16 235.62,-134.4 235.62,-133 235.62,-132.19 232.99,-131.59 228.78,-131.22"/>
<polygon fill="black" stroke="black" points="229.09,-127.73 218.95,-130.8 228.79,-134.72 229.09,-127.73"/>
<text xml:space="preserve" text-anchor="middle" x="289.62" y="-136.05" font-family="Arial" font-size="11.00"> hasFirstManifestation </text>
<text xml:space="preserve" text-anchor="middle" x="289.62" y="-122.55" font-family="Arial" font-size="11.00"> «exactly 1» &#160;</text>
</g>
<!-- Manifestation&#45;&gt;Manifestation -->
<g id="edge6" class="edge">
<title>Manifestation&#45;&gt;Manifestation</title>
<path fill="none" stroke="black" d="M217.48,-136.49C267.01,-138.68 343.62,-137.51 343.62,-133 343.62,-128.82 277.96,-127.51 228.91,-129.08"/>
<polygon fill="black" stroke="black" points="228.85,-125.58 218.99,-129.45 229.11,-132.57 228.85,-125.58"/>
<text xml:space="preserve" text-anchor="middle" x="398.38" y="-136.05" font-family="Arial" font-size="11.00"> hasNextManifestation </text>
<text xml:space="preserve" text-anchor="middle" x="398.38" y="-122.55" font-family="Arial" font-size="11.00"> «max 1» &#160;</text>
</g>
<!-- Manifestation&#45;&gt;Manifestation -->
<g id="edge7" class="edge">
<title>Manifestation&#45;&gt;Manifestation</title>
<path fill="none" stroke="black" d="M217.38,-137.22C294.13,-141.79 453.12,-140.39 453.12,-133 453.12,-125.93 307.5,-124.34 227.71,-128.22"/>
<polygon fill="black" stroke="black" points="217.69,-125.26 227.86,-128.21 218.06,-132.25 217.69,-125.26"/>
<text xml:space="preserve" text-anchor="middle" x="526.62" y="-136.05" font-family="Arial" font-size="11.00"> inverse hasNextManifestation </text>
<text xml:space="preserve" text-anchor="middle" x="526.62" y="-122.55" font-family="Arial" font-size="11.00"> «max 1» &#160;</text>
</g>
<!-- Invis -->
<!-- Manifestation&#45;&gt;Invis -->
<!-- time_TemporalEntity -->
<g id="node3" class="node">
<title>time_TemporalEntity</title>
<polygon fill="lightgray" stroke="none" points="17.5,-25.88 17.5,-42.12 124.5,-42.12 124.5,-25.88 17.5,-25.88"/>
<text xml:space="preserve" text-anchor="start" x="18.5" y="-29.73" font-family="Arial" font-size="12.00">time:TemporalEntity</text>
<polygon fill="none" stroke="black" points="16.5,-24.88 16.5,-43.12 125.5,-43.12 125.5,-24.88 16.5,-24.88"/>
</g>
<!-- Manifestation&#45;&gt;time_TemporalEntity -->
<g id="edge4" class="edge">
<title>Manifestation&#45;&gt;time_TemporalEntity</title>
<path fill="none" stroke="black" d="M161.01,-115.1C143.66,-99.66 117.81,-76.66 98.26,-59.26"/>
<polygon fill="black" stroke="black" points="100.7,-56.74 90.9,-52.71 96.04,-61.97 100.7,-56.74"/>
<text xml:space="preserve" text-anchor="middle" x="169.97" y="-86.55" font-family="Arial" font-size="11.00"> existsAt </text>
<text xml:space="preserve" text-anchor="middle" x="169.97" y="-73.05" font-family="Arial" font-size="11.00"> «exactly 1» &#160;</text>
</g>
<!-- ChangeThing -->
<g id="node4" class="node">
<title>ChangeThing</title>
<g id="a_node4"><a xlink:href="../ChangeThing.md" xlink:title="&lt;TABLE&gt;">
<polygon fill="lightgray" stroke="none" points="142.25,-197.88 142.25,-214.12 217.75,-214.12 217.75,-197.88 142.25,-197.88"/>
<text xml:space="preserve" text-anchor="start" x="143.25" y="-201.72" font-family="Arial" font-size="12.00">ChangeThing</text>
<polygon fill="none" stroke="black" points="141.25,-196.88 141.25,-215.12 218.75,-215.12 218.75,-196.88 141.25,-196.88"/>
</a>
</g>
</g>
<!-- Manifestation&#45;&gt;ChangeThing -->
<g id="edge1" class="edge">
<title>Manifestation&#45;&gt;ChangeThing</title>
<path fill="none" stroke="black" d="M180,-150.71C180,-158.47 180,-167.92 180,-176.74"/>
<polygon fill="none" stroke="black" points="176.5,-176.66 180,-186.66 183.5,-176.66 176.5,-176.66"/>
</g>
<!-- Invis&#45;&gt;time_TemporalEntity -->
</g>
</svg>
