<?xml version="1.0" encoding="UTF-8" standalone="no"?>
<!DOCTYPE svg PUBLIC "-//W3C//DTD SVG 1.1//EN"
 "http://www.w3.org/Graphics/SVG/1.1/DTD/svg11.dtd">
<!-- Generated by graphviz version 14.1.3 (20260303.0454)
 -->
<!-- Pages: 1 -->
<svg width="707pt" height="293pt"
 viewBox="0.00 0.00 707.00 293.00" xmlns="http://www.w3.org/2000/svg" xmlns:xlink="http://www.w3.org/1999/xlink">
<g id="graph0" class="graph" transform="scale(1 1) rotate(0) translate(4 289)">
<polygon fill="white" stroke="none" points="-4,4 -4,-289 703.12,-289 703.12,4 -4,4"/>
<g id="clust3" class="cluster">
<title>cluster_associated</title>
</g>
<!-- ChangeThing -->
<g id="node1" class="node">
<title>ChangeThing</title>
<g id="a_node1"><a xlink:href="../ChangeThing" xlink:title="&lt;TABLE&gt;">
<polygon fill="lightgray" stroke="none" points="50.25,-258.88 50.25,-275.12 125.75,-275.12 125.75,-258.88 50.25,-258.88"/>
<text xml:space="preserve" text-anchor="start" x="51.25" y="-262.88" font-family="Arial" font-size="12.00">ChangeThing</text>
<polygon fill="none" stroke="black" points="49.25,-257.88 49.25,-276.12 126.75,-276.12 126.75,-257.88 49.25,-257.88"/>
</a>
</g>
</g>
<!-- Manifestation -->
<g id="node2" class="node">
<title>Manifestation</title>
<g id="a_node2"><a xlink:href="../Manifestation" xlink:title="&lt;TABLE&gt;">
<polygon fill="lightgray" stroke="none" points="51.38,-182.38 51.38,-198.62 124.62,-198.62 124.62,-182.38 51.38,-182.38"/>
<text xml:space="preserve" text-anchor="start" x="52.38" y="-186.38" font-family="Arial" font-size="12.00">Manifestation</text>
<polygon fill="none" stroke="black" points="50.38,-181.38 50.38,-199.62 125.62,-199.62 125.62,-181.38 50.38,-181.38"/>
</a>
</g>
</g>
<!-- Manifestation&#45;&gt;ChangeThing -->
<g id="edge1" class="edge">
<title>Manifestation&#45;&gt;ChangeThing</title>
<path fill="none" stroke="black" d="M88,-208.34C88,-217 88,-227.78 88,-237.67"/>
<polygon fill="none" stroke="black" points="84.5,-237.58 88,-247.58 91.5,-237.58 84.5,-237.58"/>
</g>
<!-- Manifestation&#45;&gt;Manifestation -->
<g id="edge4" class="edge">
<title>Manifestation&#45;&gt;Manifestation</title>
<path fill="none" stroke="black" d="M125.44,-192.36C135.75,-192.27 143.62,-191.65 143.62,-190.5 143.62,-189.83 140.99,-189.35 136.78,-189.03"/>
<polygon fill="black" stroke="black" points="137.07,-185.54 126.95,-188.69 136.82,-192.54 137.07,-185.54"/>
<polygon fill="white" stroke="none" points="143.62,-169 143.62,-212 255.12,-212 255.12,-169 143.62,-169"/>
<text xml:space="preserve" text-anchor="start" x="147.62" y="-197.5" font-family="Arial" font-size="11.00">hasNextManifestation</text>
<text xml:space="preserve" text-anchor="start" x="190.38" y="-176" font-family="Arial" font-size="11.00">0..1</text>
</g>
<!-- Manifestation&#45;&gt;Manifestation -->
<g id="edge5" class="edge">
<title>Manifestation&#45;&gt;Manifestation</title>
<path fill="none" stroke="black" d="M125.26,-193.34C175.76,-195.18 255.12,-194.23 255.12,-190.5 255.12,-187.04 186.81,-185.97 136.62,-187.3"/>
<polygon fill="black" stroke="black" points="136.66,-183.8 126.77,-187.61 136.87,-190.8 136.66,-183.8"/>
<polygon fill="white" stroke="none" points="255.12,-169 255.12,-212 365.12,-212 365.12,-169 255.12,-169"/>
<text xml:space="preserve" text-anchor="start" x="259.12" y="-197.5" font-family="Arial" font-size="11.00">hasFirstManifestation</text>
<text xml:space="preserve" text-anchor="start" x="307.12" y="-176" font-family="Arial" font-size="11.00">1</text>
</g>
<!-- Manifestation&#45;&gt;Manifestation -->
<g id="edge7" class="edge">
<title>Manifestation&#45;&gt;Manifestation</title>
<path fill="none" stroke="black" d="M125.48,-193.96C203.12,-197.73 365.12,-196.58 365.12,-190.5 365.12,-184.68 216.75,-183.38 135.93,-186.59"/>
<polygon fill="black" stroke="black" points="125.82,-183.53 135.97,-186.58 126.13,-190.52 125.82,-183.53"/>
<polygon fill="white" stroke="none" points="365.12,-169 365.12,-212 514.12,-212 514.12,-169 365.12,-169"/>
<text xml:space="preserve" text-anchor="start" x="369.12" y="-197.5" font-family="Arial" font-size="11.00">inverse hasNextManifestation</text>
<text xml:space="preserve" text-anchor="start" x="430.62" y="-176" font-family="Arial" font-size="11.00">0..1</text>
</g>
<!-- Manifestation&#45;&gt;Manifestation -->
<g id="edge8" class="edge">
<title>Manifestation&#45;&gt;Manifestation</title>
<path fill="none" stroke="black" d="M125.55,-194.31C232.26,-200.28 514.12,-199.01 514.12,-190.5 514.12,-182.28 250.67,-180.82 136.74,-186.12"/>
<polygon fill="black" stroke="black" points="136.87,-182.61 127.06,-186.61 137.22,-189.6 136.87,-182.61"/>
<polygon fill="white" stroke="none" points="514.12,-169 514.12,-212 645.12,-212 645.12,-169 514.12,-169"/>
<text xml:space="preserve" text-anchor="start" x="518.12" y="-197.5" font-family="Arial" font-size="11.00">hasPreviousManifestation</text>
<text xml:space="preserve" text-anchor="start" x="570.62" y="-176" font-family="Arial" font-size="11.00">0..1</text>
</g>
<!-- Invis -->
<!-- Manifestation&#45;&gt;Invis -->
<!-- time_TemporalEntity -->
<g id="node4" class="node">
<title>time_TemporalEntity</title>
<g id="a_node4"><a xlink:href="https://w3id.org/citydata/imported/time/latest/TemporalEntity" xlink:title="&lt;TABLE&gt;">
<polygon fill="lightgray" stroke="none" points="17.5,-25.88 17.5,-42.12 124.5,-42.12 124.5,-25.88 17.5,-25.88"/>
<text xml:space="preserve" text-anchor="start" x="18.5" y="-29.88" font-family="Arial" font-size="12.00">time:TemporalEntity</text>
<polygon fill="none" stroke="black" points="16.5,-24.88 16.5,-43.12 125.5,-43.12 125.5,-24.88 16.5,-24.88"/>
</a>
</g>
</g>
<!-- Manifestation&#45;&gt;time_TemporalEntity -->
<g id="edge6" class="edge">
<title>Manifestation&#45;&gt;time_TemporalEntity</title>
<path fill="none" stroke="black" d="M91.31,-172.61C94.68,-152.49 98.68,-117.97 93,-89 91.24,-80.02 87.98,-70.65 84.5,-62.28"/>
<polygon fill="black" stroke="black" points="87.79,-61.07 80.52,-53.36 81.4,-63.92 87.79,-61.07"/>
<polygon fill="white" stroke="none" points="95.85,-89 95.85,-132 141.35,-132 141.35,-89 95.85,-89"/>
<text xml:space="preserve" text-anchor="start" x="99.85" y="-117.5" font-family="Arial" font-size="11.00">existsAt</text>
<text xml:space="preserve" text-anchor="start" x="115.6" y="-96" font-family="Arial" font-size="11.00">1</text>
</g>
<!-- Invis&#45;&gt;time_TemporalEntity -->
</g>
</svg>
