<?xml version="1.0" encoding="UTF-8" standalone="no"?>
<!DOCTYPE svg PUBLIC "-//W3C//DTD SVG 1.1//EN"
 "http://www.w3.org/Graphics/SVG/1.1/DTD/svg11.dtd">
<!-- Generated by graphviz version 14.0.2 (20251019.1705)
 -->
<!-- Pages: 1 -->
<svg width="224pt" height="232pt"
 viewBox="0.00 0.00 224.00 232.00" xmlns="http://www.w3.org/2000/svg" xmlns:xlink="http://www.w3.org/1999/xlink">
<g id="graph0" class="graph" transform="scale(1 1) rotate(0) translate(4 228)">
<polygon fill="white" stroke="none" points="-4,4 -4,-228 219.5,-228 219.5,4 -4,4"/>
<g id="clust2" class="cluster">
<title>cluster_associated</title>
</g>
<!-- ManifestationState -->
<g id="node1" class="node">
<title>ManifestationState</title>
<g id="a_node1"><a xlink:href="../ManifestationState.md" xlink:title="&lt;TABLE&gt;">
<polygon fill="lightgray" stroke="none" points="113.5,-124.88 113.5,-141.12 214.5,-141.12 214.5,-124.88 113.5,-124.88"/>
<text xml:space="preserve" text-anchor="start" x="114.5" y="-128.72" font-family="Arial" font-size="12.00">ManifestationState</text>
<polygon fill="none" stroke="black" points="112.5,-123.88 112.5,-142.12 215.5,-142.12 215.5,-123.88 112.5,-123.88"/>
</a>
</g>
</g>
<!-- Invis -->
<!-- ManifestationState&#45;&gt;Invis -->
<!-- Manifestation -->
<g id="node3" class="node">
<title>Manifestation</title>
<g id="a_node3"><a xlink:href="../Manifestation.md" xlink:title="&lt;TABLE&gt;">
<polygon fill="lightgray" stroke="none" points="17.38,-25.88 17.38,-42.12 90.62,-42.12 90.62,-25.88 17.38,-25.88"/>
<text xml:space="preserve" text-anchor="start" x="18.38" y="-29.73" font-family="Arial" font-size="12.00">Manifestation</text>
<polygon fill="none" stroke="black" points="16.38,-24.88 16.38,-43.12 91.62,-43.12 91.62,-24.88 16.38,-24.88"/>
</a>
</g>
</g>
<!-- ManifestationState&#45;&gt;Manifestation -->
<g id="edge4" class="edge">
<title>ManifestationState&#45;&gt;Manifestation</title>
<path fill="none" stroke="black" d="M144.84,-115.1C127.33,-99.66 101.24,-76.66 81.51,-59.26"/>
<polygon fill="black" stroke="black" points="83.89,-56.69 74.08,-52.7 79.26,-61.94 83.89,-56.69"/>
<text xml:space="preserve" text-anchor="middle" x="150.96" y="-86.55" font-family="Arial" font-size="11.00"> satisfiedBy </text>
<text xml:space="preserve" text-anchor="middle" x="150.96" y="-73.05" font-family="Arial" font-size="11.00"> «only» &#160;</text>
</g>
<!-- TerminalState -->
<g id="node4" class="node">
<title>TerminalState</title>
<g id="a_node4"><a xlink:href="../TerminalState.md" xlink:title="&lt;TABLE&gt;">
<polygon fill="lightgray" stroke="none" points="126.25,-197.88 126.25,-214.12 201.75,-214.12 201.75,-197.88 126.25,-197.88"/>
<text xml:space="preserve" text-anchor="start" x="127.25" y="-201.72" font-family="Arial" font-size="12.00">TerminalState</text>
<polygon fill="none" stroke="black" points="125.25,-196.88 125.25,-215.12 202.75,-215.12 202.75,-196.88 125.25,-196.88"/>
</a>
</g>
</g>
<!-- ManifestationState&#45;&gt;TerminalState -->
<g id="edge1" class="edge">
<title>ManifestationState&#45;&gt;TerminalState</title>
<path fill="none" stroke="black" d="M164,-150.71C164,-158.47 164,-167.92 164,-176.74"/>
<polygon fill="none" stroke="black" points="160.5,-176.66 164,-186.66 167.5,-176.66 160.5,-176.66"/>
</g>
<!-- Invis&#45;&gt;Manifestation -->
</g>
</svg>
