<?xml version="1.0" encoding="UTF-8" standalone="no"?>
<!DOCTYPE svg PUBLIC "-//W3C//DTD SVG 1.1//EN"
 "http://www.w3.org/Graphics/SVG/1.1/DTD/svg11.dtd">
<!-- Generated by graphviz version 14.1.3 (20260303.0454)
 -->
<!-- Pages: 1 -->
<svg width="155pt" height="279pt"
 viewBox="0.00 0.00 155.00 279.00" xmlns="http://www.w3.org/2000/svg" xmlns:xlink="http://www.w3.org/1999/xlink">
<g id="graph0" class="graph" transform="scale(1 1) rotate(0) translate(4 275)">
<polygon fill="white" stroke="none" points="-4,4 -4,-275 151.21,-275 151.21,4 -4,4"/>
<g id="clust3" class="cluster">
<title>cluster_associated</title>
</g>
<!-- TerminalState -->
<g id="node1" class="node">
<title>TerminalState</title>
<g id="a_node1"><a xlink:href="../TerminalState" xlink:title="&lt;TABLE&gt;">
<polygon fill="lightgray" stroke="none" points="41.25,-244.88 41.25,-261.12 116.75,-261.12 116.75,-244.88 41.25,-244.88"/>
<text xml:space="preserve" text-anchor="start" x="42.25" y="-248.88" font-family="Arial" font-size="12.00">TerminalState</text>
<polygon fill="none" stroke="black" points="40.25,-243.88 40.25,-262.12 117.75,-262.12 117.75,-243.88 40.25,-243.88"/>
</a>
</g>
</g>
<!-- ManifestationState -->
<g id="node2" class="node">
<title>ManifestationState</title>
<g id="a_node2"><a xlink:href="../ManifestationState" xlink:title="&lt;TABLE&gt;">
<polygon fill="lightgray" stroke="none" points="28.5,-171.88 28.5,-188.12 129.5,-188.12 129.5,-171.88 28.5,-171.88"/>
<text xml:space="preserve" text-anchor="start" x="29.5" y="-175.88" font-family="Arial" font-size="12.00">ManifestationState</text>
<polygon fill="none" stroke="black" points="27.5,-170.88 27.5,-189.12 130.5,-189.12 130.5,-170.88 27.5,-170.88"/>
</a>
</g>
</g>
<!-- ManifestationState&#45;&gt;TerminalState -->
<g id="edge1" class="edge">
<title>ManifestationState&#45;&gt;TerminalState</title>
<path fill="none" stroke="black" d="M79,-197.71C79,-205.47 79,-214.92 79,-223.74"/>
<polygon fill="none" stroke="black" points="75.5,-223.66 79,-233.66 82.5,-223.66 75.5,-223.66"/>
</g>
<!-- Invis -->
<!-- ManifestationState&#45;&gt;Invis -->
<!-- Manifestation -->
<g id="node4" class="node">
<title>Manifestation</title>
<g id="a_node4"><a xlink:href="../Manifestation" xlink:title="&lt;TABLE&gt;">
<polygon fill="lightgray" stroke="none" points="17.38,-25.88 17.38,-42.12 90.62,-42.12 90.62,-25.88 17.38,-25.88"/>
<text xml:space="preserve" text-anchor="start" x="18.38" y="-29.88" font-family="Arial" font-size="12.00">Manifestation</text>
<polygon fill="none" stroke="black" points="16.38,-24.88 16.38,-43.12 91.62,-43.12 91.62,-24.88 16.38,-24.88"/>
</a>
</g>
</g>
<!-- ManifestationState&#45;&gt;Manifestation -->
<g id="edge4" class="edge">
<title>ManifestationState&#45;&gt;Manifestation</title>
<path fill="none" stroke="black" d="M82.97,-162.11C86.58,-143.79 90.44,-113.84 84,-89 81.51,-79.41 76.91,-69.7 72.05,-61.21"/>
<polygon fill="black" stroke="black" points="75.12,-59.53 66.9,-52.85 69.16,-63.2 75.12,-59.53"/>
<polygon fill="white" stroke="none" points="87.46,-96.25 87.46,-117.75 147.21,-117.75 147.21,-96.25 87.46,-96.25"/>
<text xml:space="preserve" text-anchor="start" x="91.46" y="-103.25" font-family="Arial" font-size="11.00">satisfiedBy</text>
</g>
<!-- Invis&#45;&gt;Manifestation -->
</g>
</svg>
