<?xml version="1.0" encoding="UTF-8" standalone="no"?>
<!DOCTYPE svg PUBLIC "-//W3C//DTD SVG 1.1//EN"
 "http://www.w3.org/Graphics/SVG/1.1/DTD/svg11.dtd">
<!-- Generated by graphviz version 14.1.3 (20260303.0454)
 -->
<!-- Pages: 1 -->
<svg width="534pt" height="279pt"
 viewBox="0.00 0.00 534.00 279.00" xmlns="http://www.w3.org/2000/svg" xmlns:xlink="http://www.w3.org/1999/xlink">
<g id="graph0" class="graph" transform="scale(1 1) rotate(0) translate(4 275)">
<polygon fill="white" stroke="none" points="-4,4 -4,-275 530.12,-275 530.12,4 -4,4"/>
<g id="clust3" class="cluster">
<title>cluster_associated</title>
</g>
<!-- ChangeThing -->
<g id="node1" class="node">
<title>ChangeThing</title>
<g id="a_node1"><a xlink:href="../ChangeThing" xlink:title="&lt;TABLE&gt;">
<polygon fill="lightgray" stroke="none" points="50.25,-244.88 50.25,-261.12 125.75,-261.12 125.75,-244.88 50.25,-244.88"/>
<text xml:space="preserve" text-anchor="start" x="51.25" y="-248.88" font-family="Arial" font-size="12.00">ChangeThing</text>
<polygon fill="none" stroke="black" points="49.25,-243.88 49.25,-262.12 126.75,-262.12 126.75,-243.88 49.25,-243.88"/>
</a>
</g>
</g>
<!-- Manifestation -->
<g id="node2" class="node">
<title>Manifestation</title>
<g id="a_node2"><a xlink:href="../Manifestation" xlink:title="&lt;TABLE&gt;">
<polygon fill="lightgray" stroke="none" points="51.38,-171.88 51.38,-188.12 124.62,-188.12 124.62,-171.88 51.38,-171.88"/>
<text xml:space="preserve" text-anchor="start" x="52.38" y="-175.88" font-family="Arial" font-size="12.00">Manifestation</text>
<polygon fill="none" stroke="black" points="50.38,-170.88 50.38,-189.12 125.62,-189.12 125.62,-170.88 50.38,-170.88"/>
</a>
</g>
</g>
<!-- Manifestation&#45;&gt;ChangeThing -->
<g id="edge1" class="edge">
<title>Manifestation&#45;&gt;ChangeThing</title>
<path fill="none" stroke="black" d="M88,-197.71C88,-205.47 88,-214.92 88,-223.74"/>
<polygon fill="none" stroke="black" points="84.5,-223.66 88,-233.66 91.5,-223.66 84.5,-223.66"/>
</g>
<!-- Manifestation&#45;&gt;Manifestation -->
<g id="edge5" class="edge">
<title>Manifestation&#45;&gt;Manifestation</title>
<path fill="none" stroke="black" d="M125.44,-182.27C135.75,-182.16 143.62,-181.4 143.62,-180 143.62,-179.19 140.99,-178.59 136.78,-178.22"/>
<polygon fill="black" stroke="black" points="137.09,-174.73 126.95,-177.8 136.79,-181.72 137.09,-174.73"/>
<text xml:space="preserve" text-anchor="middle" x="194.62" y="-183.05" font-family="Arial" font-size="11.00">hasFirstManifestation</text>
<text xml:space="preserve" text-anchor="middle" x="194.62" y="-169.55" font-family="Arial" font-size="11.00">1</text>
</g>
<!-- Manifestation&#45;&gt;Manifestation -->
<g id="edge6" class="edge">
<title>Manifestation&#45;&gt;Manifestation</title>
<path fill="none" stroke="black" d="M125.62,-183.54C173.47,-185.66 245.62,-184.48 245.62,-180 245.62,-175.86 184.04,-174.54 136.94,-176.03"/>
<polygon fill="black" stroke="black" points="137,-172.53 127.13,-176.4 137.26,-179.52 137,-172.53"/>
<text xml:space="preserve" text-anchor="middle" x="297.38" y="-183.05" font-family="Arial" font-size="11.00">hasNextManifestation</text>
<text xml:space="preserve" text-anchor="middle" x="297.38" y="-169.55" font-family="Arial" font-size="11.00">0..1</text>
</g>
<!-- Manifestation&#45;&gt;Manifestation -->
<g id="edge7" class="edge">
<title>Manifestation&#45;&gt;Manifestation</title>
<path fill="none" stroke="black" d="M125.58,-184.3C199.82,-188.78 349.12,-187.34 349.12,-180 349.12,-172.99 212.93,-171.36 136.02,-175.13"/>
<polygon fill="black" stroke="black" points="125.89,-172.18 136.06,-175.13 126.27,-179.17 125.89,-172.18"/>
<text xml:space="preserve" text-anchor="middle" x="419.62" y="-183.05" font-family="Arial" font-size="11.00">inverse hasNextManifestation</text>
<text xml:space="preserve" text-anchor="middle" x="419.62" y="-169.55" font-family="Arial" font-size="11.00">0..1</text>
</g>
<!-- Invis -->
<!-- Manifestation&#45;&gt;Invis -->
<!-- time_TemporalEntity -->
<g id="node4" class="node">
<title>time_TemporalEntity</title>
<g id="a_node4"><a xlink:href="https://w3id.org/citydata/imported/time/latest/TemporalEntity" xlink:title="&lt;TABLE&gt;">
<polygon fill="lightgray" stroke="none" points="17.5,-25.88 17.5,-42.12 124.5,-42.12 124.5,-25.88 17.5,-25.88"/>
<text xml:space="preserve" text-anchor="start" x="18.5" y="-29.88" font-family="Arial" font-size="12.00">time:TemporalEntity</text>
<polygon fill="none" stroke="black" points="16.5,-24.88 16.5,-43.12 125.5,-43.12 125.5,-24.88 16.5,-24.88"/>
</a>
</g>
</g>
<!-- Manifestation&#45;&gt;time_TemporalEntity -->
<g id="edge4" class="edge">
<title>Manifestation&#45;&gt;time_TemporalEntity</title>
<path fill="none" stroke="black" d="M91.38,-162.24C94.49,-144.04 97.93,-114.19 93,-89 91.24,-80.02 87.98,-70.65 84.5,-62.28"/>
<polygon fill="black" stroke="black" points="87.79,-61.07 80.52,-53.36 81.4,-63.92 87.79,-61.07"/>
<text xml:space="preserve" text-anchor="middle" x="114.23" y="-110.05" font-family="Arial" font-size="11.00">existsAt</text>
<text xml:space="preserve" text-anchor="middle" x="114.23" y="-96.55" font-family="Arial" font-size="11.00">1</text>
</g>
<!-- Invis&#45;&gt;time_TemporalEntity -->
</g>
</svg>
