<?xml version="1.0" encoding="UTF-8" standalone="no"?>
<!DOCTYPE svg PUBLIC "-//W3C//DTD SVG 1.1//EN"
 "http://www.w3.org/Graphics/SVG/1.1/DTD/svg11.dtd">
<!-- Generated by graphviz version 14.1.3 (20260303.0454)
 -->
<!-- Pages: 1 -->
<svg width="207pt" height="286pt"
 viewBox="0.00 0.00 207.00 286.00" xmlns="http://www.w3.org/2000/svg" xmlns:xlink="http://www.w3.org/1999/xlink">
<g id="graph0" class="graph" transform="scale(1 1) rotate(0) translate(4 282)">
<polygon fill="white" stroke="none" points="-4,4 -4,-282 202.5,-282 202.5,4 -4,4"/>
<g id="clust3" class="cluster">
<title>cluster_associated</title>
</g>
<!-- i72_Measure -->
<g id="node1" class="node">
<title>i72_Measure</title>
<g id="a_node1"><a xlink:href="https://w3id.org/citydata/21972/v1/Measure" xlink:title="&lt;TABLE&gt;">
<polygon fill="lightgray" stroke="none" points="51,-251.88 51,-268.12 119,-268.12 119,-251.88 51,-251.88"/>
<text xml:space="preserve" text-anchor="start" x="52" y="-255.88" font-family="Arial" font-size="12.00">i72:Measure</text>
<polygon fill="none" stroke="black" points="50,-250.88 50,-269.12 120,-269.12 120,-250.88 50,-250.88"/>
</a>
</g>
</g>
<!-- MonetaryValue -->
<g id="node2" class="node">
<title>MonetaryValue</title>
<g id="a_node2"><a xlink:href="../MonetaryValue" xlink:title="&lt;TABLE&gt;">
<polygon fill="lightgray" stroke="none" points="1.5,-187 1.5,-203.25 168.5,-203.25 168.5,-187 1.5,-187"/>
<text xml:space="preserve" text-anchor="start" x="45.25" y="-191" font-family="Arial" font-size="12.00">MonetaryValue</text>
<text xml:space="preserve" text-anchor="start" x="2.5" y="-174.75" font-family="Arial" font-size="12.00">hasRelativeYear : xsd:gYear [1]</text>
<polygon fill="none" stroke="black" points="0.5,-169.75 0.5,-204.25 169.5,-204.25 169.5,-169.75 0.5,-169.75"/>
</a>
</g>
</g>
<!-- MonetaryValue&#45;&gt;i72_Measure -->
<g id="edge1" class="edge">
<title>MonetaryValue&#45;&gt;i72_Measure</title>
<path fill="none" stroke="black" d="M85,-204.71C85,-212.47 85,-221.92 85,-230.74"/>
<polygon fill="none" stroke="black" points="81.5,-230.66 85,-240.66 88.5,-230.66 81.5,-230.66"/>
</g>
<!-- Invis -->
<!-- MonetaryValue&#45;&gt;Invis -->
<!-- i72_Monetary_unit -->
<g id="node4" class="node">
<title>i72_Monetary_unit</title>
<g id="a_node4"><a xlink:href="https://w3id.org/citydata/21972/v1/Monetary_unit" xlink:title="&lt;TABLE&gt;">
<polygon fill="lightgray" stroke="none" points="17.38,-25.88 17.38,-42.12 114.62,-42.12 114.62,-25.88 17.38,-25.88"/>
<text xml:space="preserve" text-anchor="start" x="18.38" y="-29.88" font-family="Arial" font-size="12.00">i72:Monetary_unit</text>
<polygon fill="none" stroke="black" points="16.38,-24.88 16.38,-43.12 115.62,-43.12 115.62,-24.88 16.38,-24.88"/>
</a>
</g>
</g>
<!-- MonetaryValue&#45;&gt;i72_Monetary_unit -->
<g id="edge4" class="edge">
<title>MonetaryValue&#45;&gt;i72_Monetary_unit</title>
<path fill="none" stroke="black" stroke-dasharray="5,2" d="M88.45,-169.32C91.89,-149.83 95.88,-116.71 90,-89 88.07,-79.93 84.52,-70.53 80.72,-62.17"/>
<polygon fill="black" stroke="black" points="83.9,-60.7 76.37,-53.25 77.61,-63.77 83.9,-60.7"/>
<polygon fill="white" stroke="none" points="93,-89 93,-132 198.5,-132 198.5,-89 93,-89"/>
<text xml:space="preserve" text-anchor="start" x="123.63" y="-117.5" font-family="Arial" font-size="11.00">redefines</text>
<text xml:space="preserve" text-anchor="start" x="97" y="-96" font-family="Arial" font-size="11.00">i72:unit_of_measure</text>
</g>
<!-- Invis&#45;&gt;i72_Monetary_unit -->
</g>
</svg>
