<?xml version="1.0" encoding="UTF-8" standalone="no"?>
<!DOCTYPE svg PUBLIC "-//W3C//DTD SVG 1.1//EN"
 "http://www.w3.org/Graphics/SVG/1.1/DTD/svg11.dtd">
<!-- Generated by graphviz version 14.0.2 (20251019.1705)
 -->
<!-- Pages: 1 -->
<svg width="188pt" height="132pt"
 viewBox="0.00 0.00 188.00 132.00" xmlns="http://www.w3.org/2000/svg" xmlns:xlink="http://www.w3.org/1999/xlink">
<g id="graph0" class="graph" transform="scale(1 1) rotate(0) translate(4 128)">
<polygon fill="white" stroke="none" points="-4,4 -4,-128 183.88,-128 183.88,4 -4,4"/>
<g id="clust2" class="cluster">
<title>cluster_associated</title>
</g>
<!-- MonetaryValue -->
<g id="node1" class="node">
<title>MonetaryValue</title>
<g id="a_node1"><a xlink:href="../MonetaryValue" xlink:title="&lt;TABLE&gt;">
<polygon fill="lightgray" stroke="none" points="1,-90 1,-106.25 90.75,-106.25 90.75,-90 1,-90"/>
<text xml:space="preserve" text-anchor="start" x="6.12" y="-93.85" font-family="Arial" font-size="12.00">MonetaryValue</text>
<text xml:space="preserve" text-anchor="start" x="2" y="-77.6" font-family="Arial" font-size="12.00">hasRelativeYear</text>
<polygon fill="none" stroke="black" points="0,-72.75 0,-107.25 91.75,-107.25 91.75,-72.75 0,-72.75"/>
</a>
</g>
</g>
<!-- i72_Measure -->
<g id="node3" class="node">
<title>i72_Measure</title>
<g id="a_node3"><a xlink:href="https://w3id.org/citydata/21972/v1/Measure" xlink:title="&lt;TABLE&gt;">
<polygon fill="lightgray" stroke="none" points="11.88,-9.88 11.88,-26.12 79.88,-26.12 79.88,-9.88 11.88,-9.88"/>
<text xml:space="preserve" text-anchor="start" x="12.88" y="-13.72" font-family="Arial" font-size="12.00">i72:Measure</text>
<polygon fill="none" stroke="black" points="10.88,-8.88 10.88,-27.12 80.88,-27.12 80.88,-8.88 10.88,-8.88"/>
</a>
</g>
</g>
<!-- MonetaryValue&#45;&gt;i72_Measure -->
<g id="edge1" class="edge">
<title>MonetaryValue&#45;&gt;i72_Measure</title>
<path fill="none" stroke="black" d="M45.88,-72.05C45.88,-64.57 45.88,-55.58 45.88,-47.14"/>
<polygon fill="none" stroke="black" points="49.38,-47.3 45.88,-37.3 42.38,-47.3 49.38,-47.3"/>
</g>
<!-- Invis -->
</g>
</svg>
