<?xml version="1.0" encoding="UTF-8" standalone="no"?>
<!DOCTYPE svg PUBLIC "-//W3C//DTD SVG 1.1//EN"
 "http://www.w3.org/Graphics/SVG/1.1/DTD/svg11.dtd">
<!-- Generated by graphviz version 14.1.3 (20260303.0454)
 -->
<!-- Pages: 1 -->
<svg width="225pt" height="284pt"
 viewBox="0.00 0.00 225.00 284.00" xmlns="http://www.w3.org/2000/svg" xmlns:xlink="http://www.w3.org/1999/xlink">
<g id="graph0" class="graph" transform="scale(1 1) rotate(0) translate(4 279.5)">
<polygon fill="white" stroke="none" points="-4,4 -4,-279.5 221.03,-279.5 221.03,4 -4,4"/>
<g id="clust3" class="cluster">
<title>cluster_associated</title>
</g>
<!-- RecurringEvent -->
<g id="node1" class="node">
<title>RecurringEvent</title>
<g id="a_node1"><a xlink:href="../RecurringEvent" xlink:title="&lt;TABLE&gt;">
<polygon fill="lightgray" stroke="none" points="53.38,-249.38 53.38,-265.62 138.62,-265.62 138.62,-249.38 53.38,-249.38"/>
<text xml:space="preserve" text-anchor="start" x="54.38" y="-253.38" font-family="Arial" font-size="12.00">RecurringEvent</text>
<polygon fill="none" stroke="black" points="52.38,-248.38 52.38,-266.62 139.62,-266.62 139.62,-248.38 52.38,-248.38"/>
</a>
</g>
</g>
<!-- MonthlyRecurringEvent -->
<g id="node2" class="node">
<title>MonthlyRecurringEvent</title>
<g id="a_node2"><a xlink:href="../MonthlyRecurringEvent" xlink:title="&lt;TABLE&gt;">
<polygon fill="lightgray" stroke="none" points="32.38,-176.38 32.38,-192.62 159.62,-192.62 159.62,-176.38 32.38,-176.38"/>
<text xml:space="preserve" text-anchor="start" x="33.38" y="-180.38" font-family="Arial" font-size="12.00">MonthlyRecurringEvent</text>
<polygon fill="none" stroke="black" points="31.38,-175.38 31.38,-193.62 160.62,-193.62 160.62,-175.38 31.38,-175.38"/>
</a>
</g>
</g>
<!-- MonthlyRecurringEvent&#45;&gt;RecurringEvent -->
<g id="edge1" class="edge">
<title>MonthlyRecurringEvent&#45;&gt;RecurringEvent</title>
<path fill="none" stroke="black" d="M96,-202.21C96,-209.97 96,-219.42 96,-228.24"/>
<polygon fill="none" stroke="black" points="92.5,-228.16 96,-238.16 99.5,-228.16 92.5,-228.16"/>
</g>
<!-- Invis -->
<!-- MonthlyRecurringEvent&#45;&gt;Invis -->
<!-- time_GeneralDateTimeDescription -->
<g id="node4" class="node">
<title>time_GeneralDateTimeDescription</title>
<g id="a_node4"><a xlink:href="https://w3id.org/citydata/imported/time/latest/GeneralDateTimeDescription" xlink:title="&lt;TABLE&gt;">
<polygon fill="lightgray" stroke="none" points="16.62,-25.88 16.62,-42.12 199.38,-42.12 199.38,-25.88 16.62,-25.88"/>
<text xml:space="preserve" text-anchor="start" x="17.62" y="-29.88" font-family="Arial" font-size="12.00">time:GeneralDateTimeDescription</text>
<polygon fill="none" stroke="black" points="15.62,-24.88 15.62,-43.12 200.38,-43.12 200.38,-24.88 15.62,-24.88"/>
</a>
</g>
</g>
<!-- MonthlyRecurringEvent&#45;&gt;time_GeneralDateTimeDescription -->
<g id="edge4" class="edge">
<title>MonthlyRecurringEvent&#45;&gt;time_GeneralDateTimeDescription</title>
<path fill="none" stroke="black" stroke-dasharray="5,2" d="M97.9,-166.54C98.9,-157.3 100.1,-145.65 101,-135.25 103.11,-110.92 105,-83.23 106.29,-63.13"/>
<polygon fill="black" stroke="black" points="109.78,-63.4 106.91,-53.2 102.79,-62.96 109.78,-63.4"/>
<text xml:space="preserve" text-anchor="middle" x="160.78" y="-119.05" font-family="Arial" font-size="11.00">redefines</text>
<text xml:space="preserve" text-anchor="middle" x="160.78" y="-105.55" font-family="Arial" font-size="11.00">onDateTimeDescription</text>
<text xml:space="preserve" text-anchor="middle" x="160.78" y="-92.05" font-family="Arial" font-size="11.00">1</text>
</g>
<!-- Invis&#45;&gt;time_GeneralDateTimeDescription -->
</g>
</svg>
