<?xml version="1.0" encoding="UTF-8" standalone="no"?>
<!DOCTYPE svg PUBLIC "-//W3C//DTD SVG 1.1//EN"
 "http://www.w3.org/Graphics/SVG/1.1/DTD/svg11.dtd">
<!-- Generated by graphviz version 14.1.3 (20260303.0454)
 -->
<!-- Pages: 1 -->
<svg width="285pt" height="152pt"
 viewBox="0.00 0.00 285.00 152.00" xmlns="http://www.w3.org/2000/svg" xmlns:xlink="http://www.w3.org/1999/xlink">
<g id="graph0" class="graph" transform="scale(1 1) rotate(0) translate(4 148)">
<polygon fill="white" stroke="none" points="-4,4 -4,-148 281,-148 281,4 -4,4"/>
<g id="clust3" class="cluster">
<title>cluster_associated</title>
</g>
<!-- State -->
<g id="node1" class="node">
<title>State</title>
<g id="a_node1"><a xlink:href="../State" xlink:title="&lt;TABLE&gt;">
<polygon fill="lightgray" stroke="none" points="35.12,-117.88 35.12,-134.12 64.88,-134.12 64.88,-117.88 35.12,-117.88"/>
<text xml:space="preserve" text-anchor="start" x="36.12" y="-121.88" font-family="Arial" font-size="12.00">State</text>
<polygon fill="none" stroke="black" points="34.12,-116.88 34.12,-135.12 65.88,-135.12 65.88,-116.88 34.12,-116.88"/>
</a>
</g>
</g>
<!-- NonTerminalState -->
<g id="node2" class="node">
<title>NonTerminalState</title>
<g id="a_node2"><a xlink:href="../NonTerminalState" xlink:title="&lt;TABLE&gt;">
<polygon fill="lightgray" stroke="none" points="1,-9.88 1,-26.12 99,-26.12 99,-9.88 1,-9.88"/>
<text xml:space="preserve" text-anchor="start" x="2" y="-13.88" font-family="Arial" font-size="12.00">NonTerminalState</text>
<polygon fill="none" stroke="black" points="0,-8.88 0,-27.12 100,-27.12 100,-8.88 0,-8.88"/>
</a>
</g>
</g>
<!-- NonTerminalState&#45;&gt;State -->
<g id="edge1" class="edge">
<title>NonTerminalState&#45;&gt;State</title>
<path fill="none" stroke="black" d="M35.84,-35.88C33.85,-39.07 32.11,-42.5 31,-46 24.87,-65.37 24.13,-73.84 32.06,-97.44"/>
<polygon fill="none" stroke="black" points="28.7,-98.43 35.33,-106.69 35.3,-96.1 28.7,-98.43"/>
</g>
<!-- NonTerminalState&#45;&gt;State -->
<g id="edge2" class="edge">
<title>NonTerminalState&#45;&gt;State</title>
<path fill="none" stroke="black" d="M50,-35.8C50,-52.28 50,-77.7 50,-97.2"/>
<polygon fill="black" stroke="black" points="46.5,-96.92 50,-106.92 53.5,-96.92 46.5,-96.92"/>
<text xml:space="preserve" text-anchor="middle" x="78.88" y="-75.05" font-family="Arial" font-size="11.00">hasDecomp</text>
<text xml:space="preserve" text-anchor="middle" x="78.88" y="-61.55" font-family="Arial" font-size="11.00">2..*</text>
</g>
<!-- NonTerminalState&#45;&gt;State -->
<g id="edge3" class="edge">
<title>NonTerminalState&#45;&gt;State</title>
<path fill="none" stroke="black" d="M99.66,-35.92C103.3,-38.78 106.5,-42.11 109,-46 121.49,-65.45 121.49,-78.55 109,-98 103.94,-105.88 95.94,-111.5 87.44,-115.48"/>
<polygon fill="black" stroke="black" points="86.44,-112.11 78.4,-119.02 88.99,-118.63 86.44,-112.11"/>
<text xml:space="preserve" text-anchor="middle" x="148.37" y="-68.3" font-family="Arial" font-size="11.00">hasSubstate</text>
</g>
<!-- Invis -->
</g>
</svg>
