<?xml version="1.0" encoding="UTF-8" standalone="no"?>
<!DOCTYPE svg PUBLIC "-//W3C//DTD SVG 1.1//EN"
 "http://www.w3.org/Graphics/SVG/1.1/DTD/svg11.dtd">
<!-- Generated by graphviz version 14.1.3 (20260303.0454)
 -->
<!-- Pages: 1 -->
<svg width="342pt" height="159pt"
 viewBox="0.00 0.00 342.00 159.00" xmlns="http://www.w3.org/2000/svg" xmlns:xlink="http://www.w3.org/1999/xlink">
<g id="graph0" class="graph" transform="scale(1 1) rotate(0) translate(4 155)">
<polygon fill="white" stroke="none" points="-4,4 -4,-155 338,-155 338,4 -4,4"/>
<g id="clust3" class="cluster">
<title>cluster_associated</title>
</g>
<!-- State -->
<g id="node1" class="node">
<title>State</title>
<g id="a_node1"><a xlink:href="../State" xlink:title="&lt;TABLE&gt;">
<polygon fill="lightgray" stroke="none" points="35.12,-124.88 35.12,-141.12 64.88,-141.12 64.88,-124.88 35.12,-124.88"/>
<text xml:space="preserve" text-anchor="start" x="36.12" y="-128.88" font-family="Arial" font-size="12.00">State</text>
<polygon fill="none" stroke="black" points="34.12,-123.88 34.12,-142.12 65.88,-142.12 65.88,-123.88 34.12,-123.88"/>
</a>
</g>
</g>
<!-- NonTerminalState -->
<g id="node2" class="node">
<title>NonTerminalState</title>
<g id="a_node2"><a xlink:href="../NonTerminalState" xlink:title="&lt;TABLE&gt;">
<polygon fill="lightgray" stroke="none" points="1,-9.88 1,-26.12 99,-26.12 99,-9.88 1,-9.88"/>
<text xml:space="preserve" text-anchor="start" x="2" y="-13.88" font-family="Arial" font-size="12.00">NonTerminalState</text>
<polygon fill="none" stroke="black" points="0,-8.88 0,-27.12 100,-27.12 100,-8.88 0,-8.88"/>
</a>
</g>
</g>
<!-- NonTerminalState&#45;&gt;State -->
<g id="edge1" class="edge">
<title>NonTerminalState&#45;&gt;State</title>
<path fill="none" stroke="black" d="M50,-35.74C50,-53.71 50,-82.56 50,-104"/>
<polygon fill="none" stroke="black" points="46.5,-103.81 50,-113.81 53.5,-103.81 46.5,-103.81"/>
</g>
<!-- NonTerminalState&#45;&gt;State -->
<g id="edge2" class="edge">
<title>NonTerminalState:e&#45;&gt;State:e</title>
<path fill="none" stroke="black" d="M100.95,-18C108.96,-18 102.22,-28.32 99.95,-36 98,-42.63 94.58,-43 92.25,-49.5 87.24,-63.48 92.97,-107.39 86.36,-125.29"/>
<polygon fill="black" stroke="black" points="84.08,-122.63 79.09,-131.98 88.82,-127.78 84.08,-122.63"/>
<polygon fill="white" stroke="none" points="92.25,-54 92.25,-97 158,-97 158,-54 92.25,-54"/>
<text xml:space="preserve" text-anchor="start" x="96.25" y="-82.5" font-family="Arial" font-size="11.00">hasDecomp</text>
<text xml:space="preserve" text-anchor="start" x="116.88" y="-61" font-family="Arial" font-size="11.00">2..*</text>
</g>
<!-- NonTerminalState&#45;&gt;State -->
<g id="edge3" class="edge">
<title>NonTerminalState:e&#45;&gt;State:e</title>
<path fill="none" stroke="black" d="M100.95,-18C145.9,-18 183.3,-64.35 158,-101.5 148.96,-114.77 112.14,-127.97 89.26,-131.86"/>
<polygon fill="black" stroke="black" points="89.08,-128.36 79.48,-132.85 89.78,-135.32 89.08,-128.36"/>
<polygon fill="white" stroke="none" points="166.18,-64.75 166.18,-86.25 234.18,-86.25 234.18,-64.75 166.18,-64.75"/>
<text xml:space="preserve" text-anchor="start" x="170.18" y="-71.75" font-family="Arial" font-size="11.00">hasSubstate</text>
</g>
<!-- Invis -->
</g>
</svg>
