<?xml version="1.0" encoding="UTF-8" standalone="no"?>
<!DOCTYPE svg PUBLIC "-//W3C//DTD SVG 1.1//EN"
 "http://www.w3.org/Graphics/SVG/1.1/DTD/svg11.dtd">
<!-- Generated by graphviz version 14.0.2 (20251019.1705)
 -->
<!-- Pages: 1 -->
<svg width="196pt" height="159pt"
 viewBox="0.00 0.00 196.00 159.00" xmlns="http://www.w3.org/2000/svg" xmlns:xlink="http://www.w3.org/1999/xlink">
<g id="graph0" class="graph" transform="scale(1 1) rotate(0) translate(4 155)">
<polygon fill="white" stroke="none" points="-4,4 -4,-155 192,-155 192,4 -4,4"/>
<g id="clust2" class="cluster">
<title>cluster_associated</title>
</g>
<!-- NonTerminalState -->
<g id="node1" class="node">
<title>NonTerminalState</title>
<g id="a_node1"><a xlink:href="../NonTerminalState.md" xlink:title="&lt;TABLE&gt;">
<polygon fill="lightgray" stroke="none" points="1,-25.88 1,-42.12 99,-42.12 99,-25.88 1,-25.88"/>
<text xml:space="preserve" text-anchor="start" x="2" y="-29.73" font-family="Arial" font-size="12.00">NonTerminalState</text>
<polygon fill="none" stroke="black" points="0,-24.88 0,-43.12 100,-43.12 100,-24.88 0,-24.88"/>
</a>
</g>
</g>
<!-- State -->
<g id="node3" class="node">
<title>State</title>
<g id="a_node3"><a xlink:href="../State.md" xlink:title="&lt;TABLE&gt;">
<polygon fill="lightgray" stroke="none" points="35.12,-124.88 35.12,-141.12 64.88,-141.12 64.88,-124.88 35.12,-124.88"/>
<text xml:space="preserve" text-anchor="start" x="36.12" y="-128.72" font-family="Arial" font-size="12.00">State</text>
<polygon fill="none" stroke="black" points="34.12,-123.88 34.12,-142.12 65.88,-142.12 65.88,-123.88 34.12,-123.88"/>
</a>
</g>
</g>
<!-- NonTerminalState&#45;&gt;State -->
<g id="edge1" class="edge">
<title>NonTerminalState&#45;&gt;State</title>
<path fill="none" stroke="black" d="M38.73,-51.74C35.59,-57.31 32.6,-63.7 31,-70 28.05,-81.63 28.05,-85.37 31,-97 31.67,-99.66 32.6,-102.33 33.67,-104.95"/>
<polygon fill="none" stroke="black" points="30.51,-106.46 38.06,-113.9 36.8,-103.38 30.51,-106.46"/>
</g>
<!-- NonTerminalState&#45;&gt;State -->
<g id="edge2" class="edge">
<title>NonTerminalState&#45;&gt;State</title>
<path fill="none" stroke="black" d="M50,-51.7C50,-65.97 50,-86.8 50,-103.67"/>
<polygon fill="black" stroke="black" points="46.5,-103.59 50,-113.59 53.5,-103.59 46.5,-103.59"/>
<text xml:space="preserve" text-anchor="middle" x="81.88" y="-86.55" font-family="Arial" font-size="11.00"> hasDecomp </text>
<text xml:space="preserve" text-anchor="middle" x="81.88" y="-73.05" font-family="Arial" font-size="11.00"> «min 2» &#160;</text>
</g>
<!-- NonTerminalState&#45;&gt;State -->
<g id="edge3" class="edge">
<title>NonTerminalState&#45;&gt;State</title>
<path fill="none" stroke="black" d="M88.98,-51.84C100.86,-57.82 111.68,-64.44 115,-70 121.15,-80.3 121.15,-86.7 115,-97 108.72,-107.51 98.09,-115.04 87.22,-120.37"/>
<polygon fill="black" stroke="black" points="86.05,-117.06 78.25,-124.22 88.82,-123.49 86.05,-117.06"/>
<text xml:space="preserve" text-anchor="middle" x="152.62" y="-86.55" font-family="Arial" font-size="11.00"> hasSubstate </text>
<text xml:space="preserve" text-anchor="middle" x="152.62" y="-73.05" font-family="Arial" font-size="11.00"> «only» &#160;</text>
</g>
<!-- Invis -->
</g>
</svg>
