<?xml version="1.0" encoding="UTF-8" standalone="no"?>
<!DOCTYPE svg PUBLIC "-//W3C//DTD SVG 1.1//EN"
 "http://www.w3.org/Graphics/SVG/1.1/DTD/svg11.dtd">
<!-- Generated by graphviz version 14.0.2 (20251019.1705)
 -->
<!-- Pages: 1 -->
<svg width="410pt" height="132pt"
 viewBox="0.00 0.00 410.00 132.00" xmlns="http://www.w3.org/2000/svg" xmlns:xlink="http://www.w3.org/1999/xlink">
<g id="graph0" class="graph" transform="scale(1 1) rotate(0) translate(4 128)">
<polygon fill="white" stroke="none" points="-4,4 -4,-128 406.25,-128 406.25,4 -4,4"/>
<g id="clust2" class="cluster">
<title>cluster_associated</title>
</g>
<!-- Organization -->
<g id="node1" class="node">
<title>Organization</title>
<g id="a_node1"><a xlink:href="../classes/OrganizationStructure__Organization.md" xlink:title="&lt;TABLE&gt;">
<polygon fill="lightgray" stroke="none" points="102.62,-25.88 102.62,-42.12 172.88,-42.12 172.88,-25.88 102.62,-25.88"/>
<text xml:space="preserve" text-anchor="start" x="103.62" y="-29.73" font-family="Arial" font-size="12.00">Organization</text>
<polygon fill="none" stroke="black" points="101.62,-24.88 101.62,-43.12 173.88,-43.12 173.88,-24.88 101.62,-24.88"/>
</a>
</g>
</g>
<!-- agent__Agent -->
<g id="node2" class="node">
<title>agent__Agent</title>
<polygon fill="lightgray" stroke="none" points="1,-97.88 1,-114.12 70.5,-114.12 70.5,-97.88 1,-97.88"/>
<text xml:space="preserve" text-anchor="start" x="2" y="-101.72" font-family="Arial" font-size="12.00">agent::Agent</text>
<polygon fill="none" stroke="black" points="0,-96.88 0,-115.12 71.5,-115.12 71.5,-96.88 0,-96.88"/>
</g>
<!-- Organization&#45;&gt;agent__Agent -->
<g id="edge1" class="edge">
<title>Organization&#45;&gt;agent__Agent</title>
<path fill="none" stroke="black" d="M113.29,-51.79C100.29,-60.71 84.11,-71.81 69.9,-81.56"/>
<polygon fill="none" stroke="black" points="67.95,-78.65 61.69,-87.2 71.91,-84.43 67.95,-78.65"/>
</g>
<!-- org__Organization -->
<g id="node3" class="node">
<title>org__Organization</title>
<polygon fill="lightgray" stroke="none" points="91,-97.88 91,-114.12 184.5,-114.12 184.5,-97.88 91,-97.88"/>
<text xml:space="preserve" text-anchor="start" x="92" y="-101.72" font-family="Arial" font-size="12.00">org::Organization</text>
<polygon fill="none" stroke="black" points="90,-96.88 90,-115.12 185.5,-115.12 185.5,-96.88 90,-96.88"/>
</g>
<!-- Organization&#45;&gt;org__Organization -->
<g id="edge2" class="edge">
<title>Organization&#45;&gt;org__Organization</title>
<path fill="none" stroke="black" d="M137.75,-51.79C137.75,-59.25 137.75,-68.24 137.75,-76.69"/>
<polygon fill="none" stroke="black" points="134.25,-76.54 137.75,-86.54 141.25,-76.54 134.25,-76.54"/>
</g>
<!-- OrganizationStructureOntologyThing -->
<g id="node4" class="node">
<title>OrganizationStructureOntologyThing</title>
<g id="a_node4"><a xlink:href="../_counters/OrganizationStructure__OrganizationStructureOntologyThing.md" xlink:title="&lt;TABLE&gt;">
<polygon fill="lightgray" stroke="none" points="204.25,-97.88 204.25,-114.12 401.25,-114.12 401.25,-97.88 204.25,-97.88"/>
<text xml:space="preserve" text-anchor="start" x="205.25" y="-101.72" font-family="Arial" font-size="12.00">OrganizationStructureOntologyThing</text>
<polygon fill="none" stroke="black" points="203.25,-96.88 203.25,-115.12 402.25,-115.12 402.25,-96.88 203.25,-96.88"/>
</a>
</g>
</g>
<!-- Organization&#45;&gt;OrganizationStructureOntologyThing -->
<g id="edge3" class="edge">
<title>Organization&#45;&gt;OrganizationStructureOntologyThing</title>
<path fill="none" stroke="black" d="M164.46,-51.9C169.45,-54.77 174.69,-57.6 179.75,-60 198.55,-68.94 219.63,-77.24 238.96,-84.21"/>
<polygon fill="none" stroke="black" points="237.78,-87.51 248.37,-87.55 240.12,-80.91 237.78,-87.51"/>
</g>
<!-- Invis -->
</g>
</svg>
