<?xml version="1.0" encoding="UTF-8" standalone="no"?>
<!DOCTYPE svg PUBLIC "-//W3C//DTD SVG 1.1//EN"
 "http://www.w3.org/Graphics/SVG/1.1/DTD/svg11.dtd">
<!-- Generated by graphviz version 14.0.2 (20251019.1705)
 -->
<!-- Pages: 1 -->
<svg width="294pt" height="132pt"
 viewBox="0.00 0.00 294.00 132.00" xmlns="http://www.w3.org/2000/svg" xmlns:xlink="http://www.w3.org/1999/xlink">
<g id="graph0" class="graph" transform="scale(1 1) rotate(0) translate(4 128)">
<polygon fill="white" stroke="none" points="-4,4 -4,-128 289.5,-128 289.5,4 -4,4"/>
<g id="clust2" class="cluster">
<title>cluster_associated</title>
</g>
<!-- Organization -->
<g id="node1" class="node">
<title>Organization</title>
<g id="a_node1"><a xlink:href="../Organization" xlink:title="&lt;TABLE&gt;">
<polygon fill="lightgray" stroke="none" points="82.88,-81.88 82.88,-98.12 153.12,-98.12 153.12,-81.88 82.88,-81.88"/>
<text xml:space="preserve" text-anchor="start" x="83.88" y="-85.72" font-family="Arial" font-size="12.00">Organization</text>
<polygon fill="none" stroke="black" points="81.88,-80.88 81.88,-99.12 154.12,-99.12 154.12,-80.88 81.88,-80.88"/>
</a>
</g>
</g>
<!-- Agent -->
<g id="node3" class="node">
<title>Agent</title>
<g id="a_node3"><a xlink:href="../Agent" xlink:title="&lt;TABLE&gt;">
<polygon fill="lightgray" stroke="none" points="10.25,-9.88 10.25,-26.12 43.75,-26.12 43.75,-9.88 10.25,-9.88"/>
<text xml:space="preserve" text-anchor="start" x="11.25" y="-13.72" font-family="Arial" font-size="12.00">Agent</text>
<polygon fill="none" stroke="black" points="9.25,-8.88 9.25,-27.12 44.75,-27.12 44.75,-8.88 9.25,-8.88"/>
</a>
</g>
</g>
<!-- Organization&#45;&gt;Agent -->
<g id="edge1" class="edge">
<title>Organization&#45;&gt;Agent</title>
<path fill="none" stroke="black" d="M95.97,-72.05C84.46,-63.2 70.18,-52.22 57.61,-42.55"/>
<polygon fill="none" stroke="black" points="60.09,-40.03 50.03,-36.71 55.82,-45.58 60.09,-40.03"/>
</g>
<!-- org_Organization -->
<g id="node4" class="node">
<title>org_Organization</title>
<g id="a_node4"><a xlink:href="https://w3id.org/citydata/imported/org/latest/Organization" xlink:title="&lt;TABLE&gt;">
<polygon fill="lightgray" stroke="none" points="72.75,-9.88 72.75,-26.12 163.25,-26.12 163.25,-9.88 72.75,-9.88"/>
<text xml:space="preserve" text-anchor="start" x="73.75" y="-13.72" font-family="Arial" font-size="12.00">org:Organization</text>
<polygon fill="none" stroke="black" points="71.75,-8.88 71.75,-27.12 164.25,-27.12 164.25,-8.88 71.75,-8.88"/>
</a>
</g>
</g>
<!-- Organization&#45;&gt;org_Organization -->
<g id="edge2" class="edge">
<title>Organization&#45;&gt;org_Organization</title>
<path fill="none" stroke="black" d="M118,-72.05C118,-64.57 118,-55.58 118,-47.14"/>
<polygon fill="none" stroke="black" points="121.5,-47.3 118,-37.3 114.5,-47.3 121.5,-47.3"/>
</g>
<!-- OrganizationThing -->
<g id="node5" class="node">
<title>OrganizationThing</title>
<g id="a_node5"><a xlink:href="../OrganizationThing" xlink:title="&lt;TABLE&gt;">
<polygon fill="lightgray" stroke="none" points="183.5,-9.88 183.5,-26.12 284.5,-26.12 284.5,-9.88 183.5,-9.88"/>
<text xml:space="preserve" text-anchor="start" x="184.5" y="-13.72" font-family="Arial" font-size="12.00">OrganizationThing</text>
<polygon fill="none" stroke="black" points="182.5,-8.88 182.5,-27.12 285.5,-27.12 285.5,-8.88 182.5,-8.88"/>
</a>
</g>
</g>
<!-- Organization&#45;&gt;OrganizationThing -->
<g id="edge3" class="edge">
<title>Organization&#45;&gt;OrganizationThing</title>
<path fill="none" stroke="black" d="M146.08,-72.05C161.18,-62.94 180.01,-51.58 196.37,-41.71"/>
<polygon fill="none" stroke="black" points="198.13,-44.73 204.88,-36.57 194.51,-38.74 198.13,-44.73"/>
</g>
<!-- Invis -->
</g>
</svg>
