<?xml version="1.0" encoding="UTF-8" standalone="no"?>
<!DOCTYPE svg PUBLIC "-//W3C//DTD SVG 1.1//EN"
 "http://www.w3.org/Graphics/SVG/1.1/DTD/svg11.dtd">
<!-- Generated by graphviz version 14.0.2 (20251019.1705)
 -->
<!-- Pages: 1 -->
<svg width="429pt" height="347pt"
 viewBox="0.00 0.00 429.00 347.00" xmlns="http://www.w3.org/2000/svg" xmlns:xlink="http://www.w3.org/1999/xlink">
<g id="graph0" class="graph" transform="scale(1 1) rotate(0) translate(4 343)">
<polygon fill="white" stroke="none" points="-4,4 -4,-343 425.25,-343 425.25,4 -4,4"/>
<g id="clust2" class="cluster">
<title>cluster_associated</title>
</g>
<!-- PlannedAllocation -->
<g id="node1" class="node">
<title>PlannedAllocation</title>
<g id="a_node1"><a xlink:href="../PlannedAllocation" xlink:title="&lt;TABLE&gt;">
<polygon fill="lightgray" stroke="none" points="138.88,-296.88 138.88,-313.12 239.12,-313.12 239.12,-296.88 138.88,-296.88"/>
<text xml:space="preserve" text-anchor="start" x="139.88" y="-300.73" font-family="Arial" font-size="12.00">PlannedAllocation</text>
<polygon fill="none" stroke="black" points="137.88,-295.88 137.88,-314.12 240.12,-314.12 240.12,-295.88 137.88,-295.88"/>
</a>
</g>
</g>
<!-- Invis -->
<!-- PlannedAllocation&#45;&gt;Invis -->
<!-- i72_Quantity -->
<g id="node3" class="node">
<title>i72_Quantity</title>
<g id="a_node3"><a xlink:href="https://w3id.org/citydata/21972/v1/Quantity" xlink:title="&lt;TABLE&gt;">
<polygon fill="lightgray" stroke="none" points="17.12,-197.88 17.12,-214.12 82.88,-214.12 82.88,-197.88 17.12,-197.88"/>
<text xml:space="preserve" text-anchor="start" x="18.12" y="-201.72" font-family="Arial" font-size="12.00">i72:Quantity</text>
<polygon fill="none" stroke="black" points="16.12,-196.88 16.12,-215.12 83.88,-215.12 83.88,-196.88 16.12,-196.88"/>
</a>
</g>
</g>
<!-- PlannedAllocation&#45;&gt;i72_Quantity -->
<g id="edge9" class="edge">
<title>PlannedAllocation&#45;&gt;i72_Quantity</title>
<path fill="none" stroke="black" d="M137.94,-294.16C101,-286.54 56.62,-276.1 51,-269 43.54,-259.57 42.4,-246.55 43.49,-234.88"/>
<polygon fill="black" stroke="black" points="46.89,-235.76 44.94,-225.34 39.97,-234.7 46.89,-235.76"/>
<text xml:space="preserve" text-anchor="middle" x="82.5" y="-258.55" font-family="Arial" font-size="11.00"> hasQuantity </text>
<text xml:space="preserve" text-anchor="middle" x="82.5" y="-245.05" font-family="Arial" font-size="11.00"> «exactly 1» &#160;</text>
</g>
<!-- Resource -->
<g id="node4" class="node">
<title>Resource</title>
<g id="a_node4"><a xlink:href="../Resource" xlink:title="&lt;TABLE&gt;">
<polygon fill="lightgray" stroke="none" points="29.12,-98.88 29.12,-115.12 82.88,-115.12 82.88,-98.88 29.12,-98.88"/>
<text xml:space="preserve" text-anchor="start" x="30.12" y="-102.72" font-family="Arial" font-size="12.00">Resource</text>
<polygon fill="none" stroke="black" points="28.12,-97.88 28.12,-116.12 83.88,-116.12 83.88,-97.88 28.12,-97.88"/>
</a>
</g>
</g>
<!-- PlannedAllocation&#45;&gt;Resource -->
<g id="edge7" class="edge">
<title>PlannedAllocation&#45;&gt;Resource</title>
<path fill="none" stroke="black" d="M177.29,-287.19C166.06,-271.04 148.66,-245.91 133.75,-224 112.87,-193.31 89.15,-157.83 73.46,-134.27"/>
<polygon fill="black" stroke="black" points="76.55,-132.6 68.1,-126.22 70.72,-136.48 76.55,-132.6"/>
<text xml:space="preserve" text-anchor="middle" x="166.38" y="-209.05" font-family="Arial" font-size="11.00"> forResource </text>
<text xml:space="preserve" text-anchor="middle" x="166.38" y="-195.55" font-family="Arial" font-size="11.00"> «exactly 1» &#160;</text>
</g>
<!-- Manifestation -->
<g id="node6" class="node">
<title>Manifestation</title>
<g id="a_node6"><a xlink:href="../Manifestation" xlink:title="&lt;TABLE&gt;">
<polygon fill="lightgray" stroke="none" points="242.38,-197.88 242.38,-214.12 315.62,-214.12 315.62,-197.88 242.38,-197.88"/>
<text xml:space="preserve" text-anchor="start" x="243.38" y="-201.72" font-family="Arial" font-size="12.00">Manifestation</text>
<polygon fill="none" stroke="black" points="241.38,-196.88 241.38,-215.12 316.62,-215.12 316.62,-196.88 241.38,-196.88"/>
</a>
</g>
</g>
<!-- PlannedAllocation&#45;&gt;Manifestation -->
<g id="edge1" class="edge">
<title>PlannedAllocation&#45;&gt;Manifestation</title>
<path fill="none" stroke="black" d="M208.4,-287.02C214.51,-281.44 221.18,-275.1 227,-269 238.02,-257.45 249.5,-243.94 258.87,-232.49"/>
<polygon fill="none" stroke="black" points="261.36,-234.97 264.92,-224.99 255.91,-230.57 261.36,-234.97"/>
</g>
<!-- ResourceThing -->
<g id="node7" class="node">
<title>ResourceThing</title>
<g id="a_node7"><a xlink:href="../ResourceThing" xlink:title="&lt;TABLE&gt;">
<polygon fill="lightgray" stroke="none" points="335.75,-197.88 335.75,-214.12 420.25,-214.12 420.25,-197.88 335.75,-197.88"/>
<text xml:space="preserve" text-anchor="start" x="336.75" y="-201.72" font-family="Arial" font-size="12.00">ResourceThing</text>
<polygon fill="none" stroke="black" points="334.75,-196.88 334.75,-215.12 421.25,-215.12 421.25,-196.88 334.75,-196.88"/>
</a>
</g>
</g>
<!-- PlannedAllocation&#45;&gt;ResourceThing -->
<g id="edge2" class="edge">
<title>PlannedAllocation&#45;&gt;ResourceThing</title>
<path fill="none" stroke="black" d="M221.92,-287.1C253.26,-271.02 300.61,-246.72 334.94,-229.1"/>
<polygon fill="none" stroke="black" points="336.49,-232.24 343.79,-224.56 333.3,-226.01 336.49,-232.24"/>
</g>
<!-- Invis&#45;&gt;i72_Quantity -->
<!-- i72_Quantity&#45;&gt;Resource -->
<!-- State -->
<g id="node5" class="node">
<title>State</title>
<g id="a_node5"><a xlink:href="../State" xlink:title="&lt;TABLE&gt;">
<polygon fill="lightgray" stroke="none" points="42.12,-25.88 42.12,-42.12 71.88,-42.12 71.88,-25.88 42.12,-25.88"/>
<text xml:space="preserve" text-anchor="start" x="43.12" y="-29.73" font-family="Arial" font-size="12.00">State</text>
<polygon fill="none" stroke="black" points="41.12,-24.88 41.12,-43.12 72.88,-43.12 72.88,-24.88 41.12,-24.88"/>
</a>
</g>
</g>
<!-- Resource&#45;&gt;State -->
<!-- State&#45;&gt;PlannedAllocation -->
<g id="edge8" class="edge">
<title>State&#45;&gt;PlannedAllocation</title>
<path fill="none" stroke="black" d="M81.38,-51.81C115.32,-76.87 175.3,-127.62 199,-188 210.39,-217.01 204.43,-253.15 197.89,-277.32"/>
<polygon fill="black" stroke="black" points="191.78,-285.73 197.95,-277.11 198.5,-287.69 191.78,-285.73"/>
<text xml:space="preserve" text-anchor="middle" x="243.57" y="-159.55" font-family="Arial" font-size="11.00"> inverse hasAllocation </text>
<text xml:space="preserve" text-anchor="middle" x="243.57" y="-146.05" font-family="Arial" font-size="11.00"> «exactly 1» &#160;</text>
</g>
</g>
</svg>
