<?xml version="1.0" encoding="UTF-8" standalone="no"?>
<!DOCTYPE svg PUBLIC "-//W3C//DTD SVG 1.1//EN"
 "http://www.w3.org/Graphics/SVG/1.1/DTD/svg11.dtd">
<!-- Generated by graphviz version 14.1.3 (20260303.0454)
 -->
<!-- Pages: 1 -->
<svg width="457pt" height="523pt"
 viewBox="0.00 0.00 457.00 523.00" xmlns="http://www.w3.org/2000/svg" xmlns:xlink="http://www.w3.org/1999/xlink">
<g id="graph0" class="graph" transform="scale(1 1) rotate(0) translate(4 519)">
<polygon fill="white" stroke="none" points="-4,4 -4,-519 452.75,-519 452.75,4 -4,4"/>
<g id="clust3" class="cluster">
<title>cluster_associated</title>
</g>
<!-- Manifestation -->
<g id="node1" class="node">
<title>Manifestation</title>
<g id="a_node1"><a xlink:href="../Manifestation" xlink:title="&lt;TABLE&gt;">
<polygon fill="lightgray" stroke="none" points="117.38,-488.88 117.38,-505.12 190.62,-505.12 190.62,-488.88 117.38,-488.88"/>
<text xml:space="preserve" text-anchor="start" x="118.38" y="-492.88" font-family="Arial" font-size="12.00">Manifestation</text>
<polygon fill="none" stroke="black" points="116.38,-487.88 116.38,-506.12 191.62,-506.12 191.62,-487.88 116.38,-487.88"/>
</a>
</g>
</g>
<!-- ResourceThing -->
<g id="node2" class="node">
<title>ResourceThing</title>
<g id="a_node2"><a xlink:href="../ResourceThing" xlink:title="&lt;TABLE&gt;">
<polygon fill="lightgray" stroke="none" points="210.75,-488.88 210.75,-505.12 295.25,-505.12 295.25,-488.88 210.75,-488.88"/>
<text xml:space="preserve" text-anchor="start" x="211.75" y="-492.88" font-family="Arial" font-size="12.00">ResourceThing</text>
<polygon fill="none" stroke="black" points="209.75,-487.88 209.75,-506.12 296.25,-506.12 296.25,-487.88 209.75,-487.88"/>
</a>
</g>
</g>
<!-- PlannedAllocation -->
<g id="node3" class="node">
<title>PlannedAllocation</title>
<g id="a_node3"><a xlink:href="../PlannedAllocation" xlink:title="&lt;TABLE&gt;">
<polygon fill="lightgray" stroke="none" points="153.88,-415.88 153.88,-432.12 254.12,-432.12 254.12,-415.88 153.88,-415.88"/>
<text xml:space="preserve" text-anchor="start" x="154.88" y="-419.88" font-family="Arial" font-size="12.00">PlannedAllocation</text>
<polygon fill="none" stroke="black" points="152.88,-414.88 152.88,-433.12 255.12,-433.12 255.12,-414.88 152.88,-414.88"/>
</a>
</g>
</g>
<!-- PlannedAllocation&#45;&gt;Manifestation -->
<g id="edge1" class="edge">
<title>PlannedAllocation&#45;&gt;Manifestation</title>
<path fill="none" stroke="black" d="M192.24,-441.71C186.33,-450.09 179.05,-460.43 172.43,-469.84"/>
<polygon fill="none" stroke="black" points="169.62,-467.75 166.72,-477.94 175.34,-471.78 169.62,-467.75"/>
</g>
<!-- PlannedAllocation&#45;&gt;ResourceThing -->
<g id="edge2" class="edge">
<title>PlannedAllocation&#45;&gt;ResourceThing</title>
<path fill="none" stroke="black" d="M215.53,-441.71C221.31,-450.09 228.45,-460.43 234.94,-469.84"/>
<polygon fill="none" stroke="black" points="231.97,-471.69 240.53,-477.93 237.73,-467.71 231.97,-471.69"/>
</g>
<!-- Invis -->
<!-- PlannedAllocation&#45;&gt;Invis -->
<!-- i72_Quantity -->
<g id="node5" class="node">
<title>i72_Quantity</title>
<g id="a_node5"><a xlink:href="https://w3id.org/citydata/21972/v1/Quantity" xlink:title="&lt;TABLE&gt;">
<polygon fill="lightgray" stroke="none" points="17.12,-297.38 17.12,-313.62 82.88,-313.62 82.88,-297.38 17.12,-297.38"/>
<text xml:space="preserve" text-anchor="start" x="18.12" y="-301.38" font-family="Arial" font-size="12.00">i72:Quantity</text>
<polygon fill="none" stroke="black" points="16.12,-296.38 16.12,-314.62 83.88,-314.62 83.88,-296.38 16.12,-296.38"/>
</a>
</g>
</g>
<!-- PlannedAllocation&#45;&gt;i72_Quantity -->
<g id="edge8" class="edge">
<title>PlannedAllocation&#45;&gt;i72_Quantity</title>
<path fill="none" stroke="black" d="M152.89,-409.58C147.87,-408.34 142.84,-407.12 138,-406 99.54,-397.07 76.12,-418.47 51,-388 38.93,-373.36 39.23,-351.71 42.25,-334.39"/>
<polygon fill="black" stroke="black" points="45.65,-335.24 44.34,-324.72 38.81,-333.76 45.65,-335.24"/>
<polygon fill="white" stroke="none" points="51,-345 51,-388 116,-388 116,-345 51,-345"/>
<text xml:space="preserve" text-anchor="start" x="55" y="-373.5" font-family="Arial" font-size="11.00">hasQuantity</text>
<text xml:space="preserve" text-anchor="start" x="80.5" y="-352" font-family="Arial" font-size="11.00">1</text>
</g>
<!-- Resource -->
<g id="node6" class="node">
<title>Resource</title>
<g id="a_node6"><a xlink:href="../Resource" xlink:title="&lt;TABLE&gt;">
<polygon fill="lightgray" stroke="none" points="71.12,-175.38 71.12,-191.62 124.88,-191.62 124.88,-175.38 71.12,-175.38"/>
<text xml:space="preserve" text-anchor="start" x="72.12" y="-179.38" font-family="Arial" font-size="12.00">Resource</text>
<polygon fill="none" stroke="black" points="70.12,-174.38 70.12,-192.62 125.88,-192.62 125.88,-174.38 70.12,-174.38"/>
</a>
</g>
</g>
<!-- PlannedAllocation&#45;&gt;Resource -->
<g id="edge10" class="edge">
<title>PlannedAllocation&#45;&gt;Resource</title>
<path fill="none" stroke="black" d="M188.58,-406.26C172.62,-388.06 148.05,-357.47 133.75,-327 116.13,-289.46 106.47,-242.12 101.77,-212.57"/>
<polygon fill="black" stroke="black" points="105.27,-212.31 100.32,-202.94 98.35,-213.35 105.27,-212.31"/>
<polygon fill="white" stroke="none" points="133.75,-284 133.75,-327 201,-327 201,-284 133.75,-284"/>
<text xml:space="preserve" text-anchor="start" x="137.75" y="-312.5" font-family="Arial" font-size="11.00">forResource</text>
<text xml:space="preserve" text-anchor="start" x="164.38" y="-291" font-family="Arial" font-size="11.00">1</text>
</g>
<!-- State -->
<g id="node7" class="node">
<title>State</title>
<g id="a_node7"><a xlink:href="../State" xlink:title="&lt;TABLE&gt;">
<polygon fill="lightgray" stroke="none" points="84.12,-98.88 84.12,-115.12 113.88,-115.12 113.88,-98.88 84.12,-98.88"/>
<text xml:space="preserve" text-anchor="start" x="85.12" y="-102.88" font-family="Arial" font-size="12.00">State</text>
<polygon fill="none" stroke="black" points="83.12,-97.88 83.12,-116.12 114.88,-116.12 114.88,-97.88 83.12,-97.88"/>
</a>
</g>
</g>
<!-- PlannedAllocation&#45;&gt;State -->
<g id="edge12" class="edge">
<title>PlannedAllocation&#45;&gt;State</title>
<path fill="none" stroke="black" d="M207.76,-406.21C212.96,-379.07 219.73,-324.54 201,-284 195.95,-273.07 187.84,-275.73 180.75,-266 151.03,-225.18 159.26,-206.29 135,-162 129.81,-152.52 123.45,-142.57 117.54,-133.82"/>
<polygon fill="black" stroke="black" points="120.55,-132.03 111.99,-125.8 114.8,-136.01 120.55,-132.03"/>
<polygon fill="white" stroke="none" points="180.75,-223 180.75,-266 227,-266 227,-223 180.75,-223"/>
<text xml:space="preserve" text-anchor="start" x="184.75" y="-251.5" font-family="Arial" font-size="11.00">forState</text>
<text xml:space="preserve" text-anchor="start" x="200.88" y="-230" font-family="Arial" font-size="11.00">1</text>
</g>
<!-- time_TemporalEntity -->
<g id="node8" class="node">
<title>time_TemporalEntity</title>
<g id="a_node8"><a xlink:href="https://w3id.org/citydata/imported/time/latest/TemporalEntity" xlink:title="&lt;TABLE&gt;">
<polygon fill="lightgray" stroke="none" points="17.5,-25.88 17.5,-42.12 124.5,-42.12 124.5,-25.88 17.5,-25.88"/>
<text xml:space="preserve" text-anchor="start" x="18.5" y="-29.88" font-family="Arial" font-size="12.00">time:TemporalEntity</text>
<polygon fill="none" stroke="black" points="16.5,-24.88 16.5,-43.12 125.5,-43.12 125.5,-24.88 16.5,-24.88"/>
</a>
</g>
</g>
<!-- PlannedAllocation&#45;&gt;time_TemporalEntity -->
<g id="edge9" class="edge">
<title>PlannedAllocation&#45;&gt;time_TemporalEntity</title>
<path fill="none" stroke="black" d="M254.97,-411.68C306,-396.99 377,-365.88 377,-306.5 377,-306.5 377,-306.5 377,-106 377,-57.08 226.75,-41.86 136.81,-37.13"/>
<polygon fill="black" stroke="black" points="137.03,-33.63 126.87,-36.64 136.68,-40.63 137.03,-33.63"/>
<polygon fill="white" stroke="none" points="377,-162 377,-205 448.75,-205 448.75,-162 377,-162"/>
<text xml:space="preserve" text-anchor="start" x="381" y="-190.5" font-family="Arial" font-size="11.00">time:hasTime</text>
<text xml:space="preserve" text-anchor="start" x="409.88" y="-169" font-family="Arial" font-size="11.00">1</text>
</g>
<!-- Invis&#45;&gt;i72_Quantity -->
<!-- i72_Quantity&#45;&gt;Resource -->
<!-- Resource&#45;&gt;State -->
<!-- State&#45;&gt;PlannedAllocation -->
<g id="edge11" class="edge">
<title>State&#45;&gt;PlannedAllocation</title>
<path fill="none" stroke="black" d="M125.67,-111.35C147.59,-115.39 178.17,-124.17 198,-143 225.89,-169.49 223.52,-185.27 231,-223 245.26,-294.94 251.95,-318.35 229,-388 227.92,-391.26 226.43,-394.48 224.7,-397.57"/>
<polygon fill="black" stroke="black" points="216.33,-404.02 224.71,-397.54 222.19,-407.84 216.33,-404.02"/>
<polygon fill="white" stroke="none" points="239.17,-223 239.17,-266 348.42,-266 348.42,-223 239.17,-223"/>
<text xml:space="preserve" text-anchor="start" x="243.17" y="-251.5" font-family="Arial" font-size="11.00">inverse hasAllocation</text>
<text xml:space="preserve" text-anchor="start" x="290.79" y="-230" font-family="Arial" font-size="11.00">1</text>
</g>
<!-- State&#45;&gt;time_TemporalEntity -->
</g>
</svg>
