<?xml version="1.0" encoding="UTF-8" standalone="no"?>
<!DOCTYPE svg PUBLIC "-//W3C//DTD SVG 1.1//EN"
 "http://www.w3.org/Graphics/SVG/1.1/DTD/svg11.dtd">
<!-- Generated by graphviz version 14.0.2 (20251019.1705)
 -->
<!-- Pages: 1 -->
<svg width="291pt" height="404pt"
 viewBox="0.00 0.00 291.00 404.00" xmlns="http://www.w3.org/2000/svg" xmlns:xlink="http://www.w3.org/1999/xlink">
<g id="graph0" class="graph" transform="scale(1 1) rotate(0) translate(4 400)">
<polygon fill="white" stroke="none" points="-4,4 -4,-400 287.21,-400 287.21,4 -4,4"/>
<g id="clust2" class="cluster">
<title>cluster_associated</title>
</g>
<!-- PlannedAllocation -->
<g id="node1" class="node">
<title>PlannedAllocation</title>
<g id="a_node1"><a xlink:href="../PlannedAllocation.md" xlink:title="&lt;TABLE&gt;">
<polygon fill="lightgray" stroke="none" points="106.88,-296.88 106.88,-313.12 207.12,-313.12 207.12,-296.88 106.88,-296.88"/>
<text xml:space="preserve" text-anchor="start" x="107.88" y="-300.73" font-family="Arial" font-size="12.00">PlannedAllocation</text>
<polygon fill="none" stroke="black" points="105.88,-295.88 105.88,-314.12 208.12,-314.12 208.12,-295.88 105.88,-295.88"/>
</a>
</g>
</g>
<!-- Invis -->
<!-- PlannedAllocation&#45;&gt;Invis -->
<!-- i72_Quantity -->
<g id="node3" class="node">
<title>i72_Quantity</title>
<polygon fill="lightgray" stroke="none" points="17.12,-197.88 17.12,-214.12 82.88,-214.12 82.88,-197.88 17.12,-197.88"/>
<text xml:space="preserve" text-anchor="start" x="18.12" y="-201.72" font-family="Arial" font-size="12.00">i72:Quantity</text>
<polygon fill="none" stroke="black" points="16.12,-196.88 16.12,-215.12 83.88,-215.12 83.88,-196.88 16.12,-196.88"/>
</g>
<!-- PlannedAllocation&#45;&gt;i72_Quantity -->
<g id="edge9" class="edge">
<title>PlannedAllocation&#45;&gt;i72_Quantity</title>
<path fill="none" stroke="black" d="M106.04,-288.32C84,-281.08 62.42,-273.18 59,-269 51.38,-259.69 48.67,-246.86 48.04,-235.28"/>
<polygon fill="black" stroke="black" points="51.54,-235.38 48.02,-225.38 44.54,-235.39 51.54,-235.38"/>
<text xml:space="preserve" text-anchor="middle" x="90.5" y="-258.55" font-family="Arial" font-size="11.00"> hasQuantity </text>
<text xml:space="preserve" text-anchor="middle" x="90.5" y="-245.05" font-family="Arial" font-size="11.00"> «exactly 1» &#160;</text>
</g>
<!-- Resource -->
<g id="node4" class="node">
<title>Resource</title>
<g id="a_node4"><a xlink:href="../Resource.md" xlink:title="&lt;TABLE&gt;">
<polygon fill="lightgray" stroke="none" points="29.12,-98.88 29.12,-115.12 82.88,-115.12 82.88,-98.88 29.12,-98.88"/>
<text xml:space="preserve" text-anchor="start" x="30.12" y="-102.72" font-family="Arial" font-size="12.00">Resource</text>
<polygon fill="none" stroke="black" points="28.12,-97.88 28.12,-116.12 83.88,-116.12 83.88,-97.88 28.12,-97.88"/>
</a>
</g>
</g>
<!-- PlannedAllocation&#45;&gt;Resource -->
<g id="edge7" class="edge">
<title>PlannedAllocation&#45;&gt;Resource</title>
<path fill="none" stroke="black" d="M148.39,-287.29C130.92,-253.38 91.16,-176.24 69.95,-135.07"/>
<polygon fill="black" stroke="black" points="73.12,-133.58 65.43,-126.29 66.9,-136.78 73.12,-133.58"/>
<text xml:space="preserve" text-anchor="middle" x="147.51" y="-209.05" font-family="Arial" font-size="11.00"> forResource </text>
<text xml:space="preserve" text-anchor="middle" x="147.51" y="-195.55" font-family="Arial" font-size="11.00"> «exactly 1» &#160;</text>
</g>
<!-- Manifestation -->
<g id="node6" class="node">
<title>Manifestation</title>
<g id="a_node6"><a xlink:href="../Manifestation.md" xlink:title="&lt;TABLE&gt;">
<polygon fill="lightgray" stroke="none" points="70.38,-369.88 70.38,-386.12 143.62,-386.12 143.62,-369.88 70.38,-369.88"/>
<text xml:space="preserve" text-anchor="start" x="71.38" y="-373.73" font-family="Arial" font-size="12.00">Manifestation</text>
<polygon fill="none" stroke="black" points="69.38,-368.88 69.38,-387.12 144.62,-387.12 144.62,-368.88 69.38,-368.88"/>
</a>
</g>
</g>
<!-- PlannedAllocation&#45;&gt;Manifestation -->
<g id="edge1" class="edge">
<title>PlannedAllocation&#45;&gt;Manifestation</title>
<path fill="none" stroke="black" d="M145.24,-322.71C139.33,-331.09 132.05,-341.43 125.43,-350.84"/>
<polygon fill="none" stroke="black" points="122.62,-348.75 119.72,-358.94 128.34,-352.78 122.62,-348.75"/>
</g>
<!-- ResourceThing -->
<g id="node7" class="node">
<title>ResourceThing</title>
<g id="a_node7"><a xlink:href="../ResourceThing.md" xlink:title="&lt;TABLE&gt;">
<polygon fill="lightgray" stroke="none" points="163.75,-369.88 163.75,-386.12 248.25,-386.12 248.25,-369.88 163.75,-369.88"/>
<text xml:space="preserve" text-anchor="start" x="164.75" y="-373.73" font-family="Arial" font-size="12.00">ResourceThing</text>
<polygon fill="none" stroke="black" points="162.75,-368.88 162.75,-387.12 249.25,-387.12 249.25,-368.88 162.75,-368.88"/>
</a>
</g>
</g>
<!-- PlannedAllocation&#45;&gt;ResourceThing -->
<g id="edge2" class="edge">
<title>PlannedAllocation&#45;&gt;ResourceThing</title>
<path fill="none" stroke="black" d="M168.53,-322.71C174.31,-331.09 181.45,-341.43 187.94,-350.84"/>
<polygon fill="none" stroke="black" points="184.97,-352.69 193.53,-358.93 190.73,-348.71 184.97,-352.69"/>
</g>
<!-- Invis&#45;&gt;i72_Quantity -->
<!-- i72_Quantity&#45;&gt;Resource -->
<!-- State -->
<g id="node5" class="node">
<title>State</title>
<g id="a_node5"><a xlink:href="../State.md" xlink:title="&lt;TABLE&gt;">
<polygon fill="lightgray" stroke="none" points="42.12,-25.88 42.12,-42.12 71.88,-42.12 71.88,-25.88 42.12,-25.88"/>
<text xml:space="preserve" text-anchor="start" x="43.12" y="-29.73" font-family="Arial" font-size="12.00">State</text>
<polygon fill="none" stroke="black" points="41.12,-24.88 41.12,-43.12 72.88,-43.12 72.88,-24.88 41.12,-24.88"/>
</a>
</g>
</g>
<!-- Resource&#45;&gt;State -->
<!-- State&#45;&gt;PlannedAllocation -->
<g id="edge8" class="edge">
<title>State&#45;&gt;PlannedAllocation</title>
<path fill="none" stroke="black" d="M78.36,-51.99C108.69,-77.66 162.9,-129.55 184,-188 194.81,-217.95 182.84,-253.85 171.59,-277.69"/>
<polygon fill="black" stroke="black" points="163.97,-285.11 171.57,-277.73 170.24,-288.24 163.97,-285.11"/>
<text xml:space="preserve" text-anchor="middle" x="229.59" y="-159.55" font-family="Arial" font-size="11.00"> inverse hasAllocation </text>
<text xml:space="preserve" text-anchor="middle" x="229.59" y="-146.05" font-family="Arial" font-size="11.00"> «exactly 1» &#160;</text>
</g>
</g>
</svg>
