<?xml version="1.0" encoding="UTF-8" standalone="no"?>
<!DOCTYPE svg PUBLIC "-//W3C//DTD SVG 1.1//EN"
 "http://www.w3.org/Graphics/SVG/1.1/DTD/svg11.dtd">
<!-- Generated by graphviz version 14.0.2 (20251019.1705)
 -->
<!-- Pages: 1 -->
<svg width="214pt" height="132pt"
 viewBox="0.00 0.00 214.00 132.00" xmlns="http://www.w3.org/2000/svg" xmlns:xlink="http://www.w3.org/1999/xlink">
<g id="graph0" class="graph" transform="scale(1 1) rotate(0) translate(4 128)">
<polygon fill="white" stroke="none" points="-4,4 -4,-128 209.5,-128 209.5,4 -4,4"/>
<g id="clust2" class="cluster">
<title>cluster_associated</title>
</g>
<!-- Activity -->
<g id="node1" class="node">
<title>Activity</title>
<g id="a_node1"><a xlink:href="../classes/Prov__Activity.md" xlink:title="&lt;TABLE&gt;">
<polygon fill="lightgray" stroke="none" points="70.38,-25.88 70.38,-42.12 110.62,-42.12 110.62,-25.88 70.38,-25.88"/>
<text xml:space="preserve" text-anchor="start" x="71.38" y="-29.73" font-family="Arial" font-size="12.00">Activity</text>
<polygon fill="none" stroke="black" points="69.38,-24.88 69.38,-43.12 111.62,-43.12 111.62,-24.88 69.38,-24.88"/>
</a>
</g>
</g>
<!-- activity__Activity -->
<g id="node2" class="node">
<title>activity__Activity</title>
<polygon fill="lightgray" stroke="none" points="1,-97.88 1,-114.12 84,-114.12 84,-97.88 1,-97.88"/>
<text xml:space="preserve" text-anchor="start" x="2" y="-101.72" font-family="Arial" font-size="12.00">activity::Activity</text>
<polygon fill="none" stroke="black" points="0,-96.88 0,-115.12 85,-115.12 85,-96.88 0,-96.88"/>
</g>
<!-- Activity&#45;&gt;activity__Activity -->
<g id="edge1" class="edge">
<title>Activity&#45;&gt;activity__Activity</title>
<path fill="none" stroke="black" d="M78.99,-51.79C73.46,-59.85 66.71,-69.69 60.52,-78.71"/>
<polygon fill="none" stroke="black" points="57.74,-76.58 54.98,-86.81 63.52,-80.54 57.74,-76.58"/>
</g>
<!-- prov__Activity -->
<g id="node3" class="node">
<title>prov__Activity</title>
<polygon fill="lightgray" stroke="none" points="103.75,-97.88 103.75,-114.12 173.25,-114.12 173.25,-97.88 103.75,-97.88"/>
<text xml:space="preserve" text-anchor="start" x="104.75" y="-101.72" font-family="Arial" font-size="12.00">prov::Activity</text>
<polygon fill="none" stroke="black" points="102.75,-96.88 102.75,-115.12 174.25,-115.12 174.25,-96.88 102.75,-96.88"/>
</g>
<!-- Activity&#45;&gt;prov__Activity -->
<g id="edge2" class="edge">
<title>Activity&#45;&gt;prov__Activity</title>
<path fill="none" stroke="black" d="M102.01,-51.79C107.54,-59.85 114.29,-69.69 120.48,-78.71"/>
<polygon fill="none" stroke="black" points="117.48,-80.54 126.02,-86.81 123.26,-76.58 117.48,-80.54"/>
</g>
<!-- Invis -->
</g>
</svg>
