<?xml version="1.0" encoding="UTF-8" standalone="no"?>
<!DOCTYPE svg PUBLIC "-//W3C//DTD SVG 1.1//EN"
 "http://www.w3.org/Graphics/SVG/1.1/DTD/svg11.dtd">
<!-- Generated by graphviz version 14.0.2 (20251019.1705)
 -->
<!-- Pages: 1 -->
<svg width="157pt" height="132pt"
 viewBox="0.00 0.00 157.00 132.00" xmlns="http://www.w3.org/2000/svg" xmlns:xlink="http://www.w3.org/1999/xlink">
<g id="graph0" class="graph" transform="scale(1 1) rotate(0) translate(4 128)">
<polygon fill="white" stroke="none" points="-4,4 -4,-128 152.88,-128 152.88,4 -4,4"/>
<g id="clust2" class="cluster">
<title>cluster_associated</title>
</g>
<!-- Ratio -->
<g id="node1" class="node">
<title>Ratio</title>
<g id="a_node1"><a xlink:href="../Ratio" xlink:title="&lt;TABLE&gt;">
<polygon fill="lightgray" stroke="none" points="18.62,-81.88 18.62,-98.12 49.12,-98.12 49.12,-81.88 18.62,-81.88"/>
<text xml:space="preserve" text-anchor="start" x="19.62" y="-85.72" font-family="Arial" font-size="12.00">Ratio</text>
<polygon fill="none" stroke="black" points="17.62,-80.88 17.62,-99.12 50.12,-99.12 50.12,-80.88 17.62,-80.88"/>
</a>
</g>
</g>
<!-- i72_Quantity -->
<g id="node3" class="node">
<title>i72_Quantity</title>
<g id="a_node3"><a xlink:href="https://w3id.org/citydata/21972/v1/Quantity" xlink:title="&lt;TABLE&gt;">
<polygon fill="lightgray" stroke="none" points="1,-9.88 1,-26.12 66.75,-26.12 66.75,-9.88 1,-9.88"/>
<text xml:space="preserve" text-anchor="start" x="2" y="-13.72" font-family="Arial" font-size="12.00">i72:Quantity</text>
<polygon fill="none" stroke="black" points="0,-8.88 0,-27.12 67.75,-27.12 67.75,-8.88 0,-8.88"/>
</a>
</g>
</g>
<!-- Ratio&#45;&gt;i72_Quantity -->
<g id="edge1" class="edge">
<title>Ratio&#45;&gt;i72_Quantity</title>
<path fill="none" stroke="black" d="M33.88,-72.05C33.88,-64.57 33.88,-55.58 33.88,-47.14"/>
<polygon fill="none" stroke="black" points="37.38,-47.3 33.88,-37.3 30.38,-47.3 37.38,-47.3"/>
</g>
<!-- Invis -->
</g>
</svg>
