<?xml version="1.0" encoding="UTF-8" standalone="no"?>
<!DOCTYPE svg PUBLIC "-//W3C//DTD SVG 1.1//EN"
 "http://www.w3.org/Graphics/SVG/1.1/DTD/svg11.dtd">
<!-- Generated by graphviz version 14.0.2 (20251019.1705)
 -->
<!-- Pages: 1 -->
<svg width="396pt" height="232pt"
 viewBox="0.00 0.00 396.00 232.00" xmlns="http://www.w3.org/2000/svg" xmlns:xlink="http://www.w3.org/1999/xlink">
<g id="graph0" class="graph" transform="scale(1 1) rotate(0) translate(4 228)">
<polygon fill="white" stroke="none" points="-4,4 -4,-228 391.75,-228 391.75,4 -4,4"/>
<g id="clust2" class="cluster">
<title>cluster_associated</title>
</g>
<!-- ExceptionDay -->
<g id="node1" class="node">
<title>ExceptionDay</title>
<g id="a_node1"><a xlink:href="../classes/RecurringEvent__ExceptionDay.md" xlink:title="&lt;TABLE&gt;">
<polygon fill="lightgray" stroke="none" points="221.25,-133 221.25,-149.25 386.75,-149.25 386.75,-133 221.25,-133"/>
<text xml:space="preserve" text-anchor="start" x="266.5" y="-136.85" font-family="Arial" font-size="12.00">ExceptionDay</text>
<text xml:space="preserve" text-anchor="start" x="222.25" y="-120.6" font-family="Arial" font-size="12.00">genProp::hasName: xsd::string</text>
<polygon fill="none" stroke="black" points="220.25,-115.75 220.25,-150.25 387.75,-150.25 387.75,-115.75 220.25,-115.75"/>
</a>
</g>
</g>
<!-- RecurringEventThing -->
<g id="node2" class="node">
<title>RecurringEventThing</title>
<g id="a_node2"><a xlink:href="../_counters/RecurringEvent__RecurringEventThing.md" xlink:title="&lt;TABLE&gt;">
<polygon fill="lightgray" stroke="none" points="246,-197.88 246,-214.12 362,-214.12 362,-197.88 246,-197.88"/>
<text xml:space="preserve" text-anchor="start" x="247" y="-201.72" font-family="Arial" font-size="12.00">RecurringEventThing</text>
<polygon fill="none" stroke="black" points="245,-196.88 245,-215.12 363,-215.12 363,-196.88 245,-196.88"/>
</a>
</g>
</g>
<!-- ExceptionDay&#45;&gt;RecurringEventThing -->
<g id="edge1" class="edge">
<title>ExceptionDay&#45;&gt;RecurringEventThing</title>
<path fill="none" stroke="black" d="M304,-150.71C304,-158.47 304,-167.92 304,-176.74"/>
<polygon fill="none" stroke="black" points="300.5,-176.66 304,-186.66 307.5,-176.66 300.5,-176.66"/>
</g>
<!-- Invis -->
<!-- ExceptionDay&#45;&gt;Invis -->
<!-- time__GeneralDateTimeDescription -->
<g id="node4" class="node">
<title>time__GeneralDateTimeDescription</title>
<polygon fill="lightgray" stroke="none" points="17.12,-25.88 17.12,-42.12 202.88,-42.12 202.88,-25.88 17.12,-25.88"/>
<text xml:space="preserve" text-anchor="start" x="18.12" y="-29.73" font-family="Arial" font-size="12.00">time::GeneralDateTimeDescription</text>
<polygon fill="none" stroke="black" points="16.12,-24.88 16.12,-43.12 203.88,-43.12 203.88,-24.88 16.12,-24.88"/>
</g>
<!-- ExceptionDay&#45;&gt;time__GeneralDateTimeDescription -->
<g id="edge4" class="edge">
<title>ExceptionDay&#45;&gt;time__GeneralDateTimeDescription</title>
<path fill="none" stroke="black" d="M270.21,-115.1C237.9,-98.95 189.02,-74.51 153.75,-56.87"/>
<polygon fill="black" stroke="black" points="155.59,-53.88 145.08,-52.54 152.46,-60.14 155.59,-53.88"/>
<text xml:space="preserve" text-anchor="middle" x="289.33" y="-86.55" font-family="Arial" font-size="11.00"> onDateTimeDescription </text>
<text xml:space="preserve" text-anchor="middle" x="289.33" y="-73.05" font-family="Arial" font-size="11.00"> «some» &#160;</text>
</g>
<!-- Invis&#45;&gt;time__GeneralDateTimeDescription -->
</g>
</svg>
