<?xml version="1.0" encoding="UTF-8" standalone="no"?>
<!DOCTYPE svg PUBLIC "-//W3C//DTD SVG 1.1//EN"
 "http://www.w3.org/Graphics/SVG/1.1/DTD/svg11.dtd">
<!-- Generated by graphviz version 14.0.2 (20251019.1705)
 -->
<!-- Pages: 1 -->
<svg width="810pt" height="675pt"
 viewBox="0.00 0.00 810.00 675.00" xmlns="http://www.w3.org/2000/svg" xmlns:xlink="http://www.w3.org/1999/xlink">
<g id="graph0" class="graph" transform="scale(1 1) rotate(0) translate(4 671)">
<polygon fill="white" stroke="none" points="-4,4 -4,-671 805.75,-671 805.75,4 -4,4"/>
<g id="clust2" class="cluster">
<title>cluster_associated</title>
</g>
<!-- RecurringEvent -->
<g id="node1" class="node">
<title>RecurringEvent</title>
<g id="a_node1"><a xlink:href="../RecurringEvent.md" xlink:title="&lt;TABLE&gt;">
<polygon fill="lightgray" stroke="none" points="292.38,-541.88 292.38,-558.12 377.62,-558.12 377.62,-541.88 292.38,-541.88"/>
<text xml:space="preserve" text-anchor="start" x="293.38" y="-545.73" font-family="Arial" font-size="12.00">RecurringEvent</text>
<polygon fill="none" stroke="black" points="291.38,-540.88 291.38,-559.12 378.62,-559.12 378.62,-540.88 291.38,-540.88"/>
</a>
</g>
</g>
<!-- RecurringEvent&#45;&gt;RecurringEvent -->
<g id="edge15" class="edge">
<title>RecurringEvent&#45;&gt;RecurringEvent</title>
<path fill="none" stroke="black" d="M378.48,-559.12C388.9,-558.4 396.62,-555.37 396.62,-550 396.62,-546.81 393.9,-544.45 389.51,-542.9"/>
<polygon fill="black" stroke="black" points="390.43,-539.51 379.97,-541.16 389.17,-546.4 390.43,-539.51"/>
<text xml:space="preserve" text-anchor="middle" x="455.5" y="-553.05" font-family="Arial" font-size="11.00"> hasSubRecurringEvent </text>
<text xml:space="preserve" text-anchor="middle" x="455.5" y="-539.55" font-family="Arial" font-size="11.00"> «only» &#160;</text>
</g>
<!-- Invis -->
<!-- RecurringEvent&#45;&gt;Invis -->
<!-- Activity -->
<g id="node3" class="node">
<title>Activity</title>
<g id="a_node3"><a xlink:href="../Activity.md" xlink:title="&lt;TABLE&gt;">
<polygon fill="lightgray" stroke="none" points="22.88,-442.88 22.88,-459.12 63.12,-459.12 63.12,-442.88 22.88,-442.88"/>
<text xml:space="preserve" text-anchor="start" x="23.88" y="-446.73" font-family="Arial" font-size="12.00">Activity</text>
<polygon fill="none" stroke="black" points="21.88,-441.88 21.88,-460.12 64.12,-460.12 64.12,-441.88 21.88,-441.88"/>
</a>
</g>
</g>
<!-- RecurringEvent&#45;&gt;Activity -->
<g id="edge14" class="edge">
<title>RecurringEvent&#45;&gt;Activity</title>
<path fill="none" stroke="black" d="M291.49,-542.66C267.98,-539.31 238.42,-535.24 212,-532 174.79,-527.43 69.59,-541.64 44.25,-514 36.06,-505.07 34.83,-492.02 36.02,-480.19"/>
<polygon fill="black" stroke="black" points="39.45,-480.89 37.61,-470.46 32.55,-479.76 39.45,-480.89"/>
<text xml:space="preserve" text-anchor="middle" x="83.62" y="-503.55" font-family="Arial" font-size="11.00"> hasOccurrence </text>
<text xml:space="preserve" text-anchor="middle" x="83.62" y="-490.05" font-family="Arial" font-size="11.00"> «only» &#160;</text>
</g>
<!-- Location -->
<g id="node4" class="node">
<title>Location</title>
<g id="a_node4"><a xlink:href="../Location.md" xlink:title="&lt;TABLE&gt;">
<polygon fill="lightgray" stroke="none" points="19.12,-343.88 19.12,-360.12 66.88,-360.12 66.88,-343.88 19.12,-343.88"/>
<text xml:space="preserve" text-anchor="start" x="20.12" y="-347.73" font-family="Arial" font-size="12.00">Location</text>
<polygon fill="none" stroke="black" points="18.12,-342.88 18.12,-361.12 67.88,-361.12 67.88,-342.88 18.12,-342.88"/>
</a>
</g>
</g>
<!-- RecurringEvent&#45;&gt;Location -->
<g id="edge23" class="edge">
<title>RecurringEvent&#45;&gt;Location</title>
<path fill="none" stroke="black" d="M291.54,-541.19C245.14,-531.07 171.43,-509.68 120.5,-469 90.53,-445.06 67.98,-406.34 55.14,-380.3"/>
<polygon fill="black" stroke="black" points="58.34,-378.89 50.89,-371.36 52.02,-381.89 58.34,-378.89"/>
<text xml:space="preserve" text-anchor="middle" x="169.25" y="-454.05" font-family="Arial" font-size="11.00"> associatedLocation </text>
<text xml:space="preserve" text-anchor="middle" x="169.25" y="-440.55" font-family="Arial" font-size="11.00"> «only» &#160;</text>
</g>
<!-- State -->
<g id="node5" class="node">
<title>State</title>
<g id="a_node5"><a xlink:href="../State.md" xlink:title="&lt;TABLE&gt;">
<polygon fill="lightgray" stroke="none" points="97.12,-244.88 97.12,-261.12 126.88,-261.12 126.88,-244.88 97.12,-244.88"/>
<text xml:space="preserve" text-anchor="start" x="98.12" y="-248.72" font-family="Arial" font-size="12.00">State</text>
<polygon fill="none" stroke="black" points="96.12,-243.88 96.12,-262.12 127.88,-262.12 127.88,-243.88 96.12,-243.88"/>
</a>
</g>
</g>
<!-- RecurringEvent&#45;&gt;State -->
<g id="edge9" class="edge">
<title>RecurringEvent&#45;&gt;State</title>
<path fill="none" stroke="black" d="M291.42,-536.2C278.84,-530.89 265.86,-523.65 256,-514 227.58,-486.19 249.87,-456.78 218,-433 175.04,-400.95 133.71,-455.63 98.75,-415 66.89,-377.98 84.51,-316.82 99.03,-281.49"/>
<polygon fill="black" stroke="black" points="102.22,-282.95 102.97,-272.39 95.79,-280.18 102.22,-282.95"/>
<text xml:space="preserve" text-anchor="middle" x="153.88" y="-404.55" font-family="Arial" font-size="11.00"> beginsRecurringState </text>
<text xml:space="preserve" text-anchor="middle" x="153.88" y="-391.05" font-family="Arial" font-size="11.00"> «only» &#160;</text>
</g>
<!-- RecurringEvent&#45;&gt;State -->
<g id="edge11" class="edge">
<title>RecurringEvent&#45;&gt;State</title>
<path fill="none" stroke="black" d="M321.91,-532.14C302.27,-506.8 264.05,-457.35 232,-415 196.15,-367.64 154.87,-312.01 131.26,-280.09"/>
<polygon fill="black" stroke="black" points="134.19,-278.16 125.43,-272.2 128.56,-282.32 134.19,-278.16"/>
<text xml:space="preserve" text-anchor="middle" x="283" y="-404.55" font-family="Arial" font-size="11.00"> endsRecurringState </text>
<text xml:space="preserve" text-anchor="middle" x="283" y="-391.05" font-family="Arial" font-size="11.00"> «only» &#160;</text>
</g>
<!-- time_DayOfWeek -->
<g id="node6" class="node">
<title>time_DayOfWeek</title>
<polygon fill="lightgray" stroke="none" points="107,-171.88 107,-188.12 199,-188.12 199,-171.88 107,-171.88"/>
<text xml:space="preserve" text-anchor="start" x="108" y="-175.72" font-family="Arial" font-size="12.00">time:DayOfWeek</text>
<polygon fill="none" stroke="black" points="106,-170.88 106,-189.12 200,-189.12 200,-170.88 106,-170.88"/>
</g>
<!-- RecurringEvent&#45;&gt;time_DayOfWeek -->
<g id="edge13" class="edge">
<title>RecurringEvent&#45;&gt;time_DayOfWeek</title>
<path fill="none" stroke="black" d="M340.66,-532.44C350.32,-500.89 366,-431.43 334,-388 318.31,-366.7 298.34,-385.98 277.25,-370 220.31,-326.88 181.56,-249.61 163.89,-208.5"/>
<polygon fill="black" stroke="black" points="167.14,-207.19 160.06,-199.32 160.68,-209.89 167.14,-207.19"/>
<text xml:space="preserve" text-anchor="middle" x="318.12" y="-355.05" font-family="Arial" font-size="11.00"> hasDayOfWeek </text>
<text xml:space="preserve" text-anchor="middle" x="318.12" y="-341.55" font-family="Arial" font-size="11.00"> «only» &#160;</text>
</g>
<!-- time_GeneralDateTimeDescription -->
<g id="node7" class="node">
<title>time_GeneralDateTimeDescription</title>
<polygon fill="lightgray" stroke="none" points="16.62,-98.88 16.62,-115.12 199.38,-115.12 199.38,-98.88 16.62,-98.88"/>
<text xml:space="preserve" text-anchor="start" x="17.62" y="-102.72" font-family="Arial" font-size="12.00">time:GeneralDateTimeDescription</text>
<polygon fill="none" stroke="black" points="15.62,-97.88 15.62,-116.12 200.38,-116.12 200.38,-97.88 15.62,-97.88"/>
</g>
<!-- RecurringEvent&#45;&gt;time_GeneralDateTimeDescription -->
<g id="edge16" class="edge">
<title>RecurringEvent&#45;&gt;time_GeneralDateTimeDescription</title>
<path fill="none" stroke="black" d="M349.46,-532.28C353.33,-526.82 356.99,-520.47 359,-514 382.68,-437.59 409.02,-396.44 359,-334 336.08,-305.39 306.93,-339.15 278.5,-316 220.27,-268.58 260.29,-216.85 209,-162 196.69,-148.84 180.43,-138.22 164.57,-130.01"/>
<polygon fill="black" stroke="black" points="166.13,-126.87 155.61,-125.62 163.05,-133.16 166.13,-126.87"/>
<text xml:space="preserve" text-anchor="middle" x="337.75" y="-305.55" font-family="Arial" font-size="11.00"> onDateTimeDescription </text>
<text xml:space="preserve" text-anchor="middle" x="337.75" y="-292.05" font-family="Arial" font-size="11.00"> «only» &#160;</text>
</g>
<!-- time_TemporalEntity -->
<g id="node8" class="node">
<title>time_TemporalEntity</title>
<polygon fill="lightgray" stroke="none" points="91.5,-25.88 91.5,-42.12 198.5,-42.12 198.5,-25.88 91.5,-25.88"/>
<text xml:space="preserve" text-anchor="start" x="92.5" y="-29.73" font-family="Arial" font-size="12.00">time:TemporalEntity</text>
<polygon fill="none" stroke="black" points="90.5,-24.88 90.5,-43.12 199.5,-43.12 199.5,-24.88 90.5,-24.88"/>
</g>
<!-- RecurringEvent&#45;&gt;time_TemporalEntity -->
<g id="edge10" class="edge">
<title>RecurringEvent&#45;&gt;time_TemporalEntity</title>
<path fill="none" stroke="black" d="M359.79,-532.05C366.06,-526.84 372.33,-520.7 377,-514 402.67,-477.18 395.34,-459.86 397,-415 399.07,-359.04 430.43,-333.93 397,-289 380.38,-266.66 356.31,-291.05 337,-271 319.8,-253.14 323,-241.79 323,-217 323,-217 323,-217 323,-106 323,-55.89 261.39,-40.17 210.66,-35.71"/>
<polygon fill="black" stroke="black" points="211.11,-32.24 200.88,-35 210.6,-39.22 211.11,-32.24"/>
<text xml:space="preserve" text-anchor="middle" x="391" y="-256.05" font-family="Arial" font-size="11.00"> beginsRecurringTime </text>
<text xml:space="preserve" text-anchor="middle" x="391" y="-242.55" font-family="Arial" font-size="11.00"> «only» &#160;</text>
</g>
<!-- RecurringEvent&#45;&gt;time_TemporalEntity -->
<g id="edge12" class="edge">
<title>RecurringEvent&#45;&gt;time_TemporalEntity</title>
<path fill="none" stroke="black" d="M378.59,-536.86C417.04,-523.18 467,-496.79 467,-452 467,-452 467,-452 467,-106 467,-54 304.84,-40.05 210.67,-36.33"/>
<polygon fill="black" stroke="black" points="210.89,-32.84 200.77,-35.97 210.64,-39.83 210.89,-32.84"/>
<text xml:space="preserve" text-anchor="middle" x="516.88" y="-256.05" font-family="Arial" font-size="11.00"> endsRecurringTime </text>
<text xml:space="preserve" text-anchor="middle" x="516.88" y="-242.55" font-family="Arial" font-size="11.00"> «only» &#160;</text>
</g>
<!-- RecurringEventThing -->
<g id="node9" class="node">
<title>RecurringEventThing</title>
<g id="a_node9"><a xlink:href="../RecurringEventThing.md" xlink:title="&lt;TABLE&gt;">
<polygon fill="lightgray" stroke="none" points="277,-640.88 277,-657.12 393,-657.12 393,-640.88 277,-640.88"/>
<text xml:space="preserve" text-anchor="start" x="278" y="-644.73" font-family="Arial" font-size="12.00">RecurringEventThing</text>
<polygon fill="none" stroke="black" points="276,-639.88 276,-658.12 394,-658.12 394,-639.88 276,-639.88"/>
</a>
</g>
</g>
<!-- RecurringEvent&#45;&gt;RecurringEventThing -->
<g id="edge1" class="edge">
<title>RecurringEvent&#45;&gt;RecurringEventThing</title>
<path fill="none" stroke="black" d="M335,-567.7C335,-581.97 335,-602.8 335,-619.67"/>
<polygon fill="none" stroke="black" points="331.5,-619.59 335,-629.59 338.5,-619.59 331.5,-619.59"/>
</g>
<!-- Nffd2aac40eb441b38cae0653240851d2 -->
<g id="node10" class="node">
<title>Nffd2aac40eb441b38cae0653240851d2</title>
<polygon fill="lightyellow" stroke="none" points="565.25,-639.88 565.25,-658.12 624.75,-658.12 624.75,-639.88 565.25,-639.88"/>
<text xml:space="preserve" text-anchor="start" x="567.25" y="-644.73" font-family="Arial" font-size="12.00">«unionOf»</text>
<polygon fill="none" stroke="black" points="565.25,-639.88 565.25,-658.12 624.75,-658.12 624.75,-639.88 565.25,-639.88"/>
</g>
<!-- RecurringEvent&#45;&gt;Nffd2aac40eb441b38cae0653240851d2 -->
<g id="edge19" class="edge">
<title>RecurringEvent&#45;&gt;Nffd2aac40eb441b38cae0653240851d2</title>
<path fill="none" stroke="black" d="M378.36,-567.18C427.53,-585.52 507.07,-615.19 554.87,-633.03"/>
<polygon fill="black" stroke="black" points="553.42,-636.22 564.01,-636.44 555.86,-629.66 553.42,-636.22"/>
<text xml:space="preserve" text-anchor="middle" x="533.43" y="-602.55" font-family="Arial" font-size="11.00"> recursAddition </text>
<text xml:space="preserve" text-anchor="middle" x="533.43" y="-589.05" font-family="Arial" font-size="11.00"> «only» &#160;</text>
</g>
<!-- N0aa2933ab45f435088ff389e562bbf30 -->
<g id="node11" class="node">
<title>N0aa2933ab45f435088ff389e562bbf30</title>
<polygon fill="lightyellow" stroke="none" points="707.25,-639.88 707.25,-658.12 766.75,-658.12 766.75,-639.88 707.25,-639.88"/>
<text xml:space="preserve" text-anchor="start" x="709.25" y="-644.73" font-family="Arial" font-size="12.00">«unionOf»</text>
<polygon fill="none" stroke="black" points="707.25,-639.88 707.25,-658.12 766.75,-658.12 766.75,-639.88 707.25,-639.88"/>
</g>
<!-- RecurringEvent&#45;&gt;N0aa2933ab45f435088ff389e562bbf30 -->
<g id="edge22" class="edge">
<title>RecurringEvent&#45;&gt;N0aa2933ab45f435088ff389e562bbf30</title>
<path fill="none" stroke="black" d="M378.49,-554.43C427.02,-558.94 507.57,-568.41 575,-586 598.56,-592.14 656.97,-615.26 696.82,-631.45"/>
<polygon fill="black" stroke="black" points="695.29,-634.61 705.87,-635.15 697.93,-628.13 695.29,-634.61"/>
<text xml:space="preserve" text-anchor="middle" x="682.64" y="-602.55" font-family="Arial" font-size="11.00"> recursExcept </text>
<text xml:space="preserve" text-anchor="middle" x="682.64" y="-589.05" font-family="Arial" font-size="11.00"> «only» &#160;</text>
</g>
<!-- Invis&#45;&gt;Activity -->
<!-- Activity&#45;&gt;Location -->
<!-- Location&#45;&gt;State -->
<!-- State&#45;&gt;time_DayOfWeek -->
<!-- time_DayOfWeek&#45;&gt;time_GeneralDateTimeDescription -->
<!-- time_GeneralDateTimeDescription&#45;&gt;time_TemporalEntity -->
<!-- Nffd2aac40eb441b38cae0653240851d2&#45;&gt;time_DayOfWeek -->
<g id="edge17" class="edge">
<title>Nffd2aac40eb441b38cae0653240851d2&#45;&gt;time_DayOfWeek</title>
<path fill="none" stroke="black" stroke-dasharray="1,5" d="M595,-631.18C595,-611.83 595,-579.12 595,-551 595,-551 595,-551 595,-301.5 595,-270.08 595.53,-254.63 571,-235 545.99,-214.99 459.77,-221.08 428,-217 353.09,-207.38 266.75,-196.04 211.1,-188.69"/>
<polygon fill="black" stroke="black" points="211.58,-185.22 201.2,-187.38 210.66,-192.16 211.58,-185.22"/>
<text xml:space="preserve" text-anchor="middle" x="614.88" y="-397.8" font-family="Arial" font-size="11.00">member</text>
</g>
<!-- Nffd2aac40eb441b38cae0653240851d2&#45;&gt;time_TemporalEntity -->
<g id="edge18" class="edge">
<title>Nffd2aac40eb441b38cae0653240851d2&#45;&gt;time_TemporalEntity</title>
<path fill="none" stroke="black" stroke-dasharray="1,5" d="M600.86,-631.05C602.68,-625.36 604.58,-618.95 606,-613 647.29,-439.49 671,-395.36 671,-217 671,-217 671,-217 671,-106 671,-60.07 351.9,-42.61 210.78,-37.14"/>
<polygon fill="black" stroke="black" points="210.95,-33.65 200.82,-36.77 210.68,-40.64 210.95,-33.65"/>
<text xml:space="preserve" text-anchor="middle" x="689.24" y="-298.8" font-family="Arial" font-size="11.00">member</text>
</g>
<!-- N0aa2933ab45f435088ff389e562bbf30&#45;&gt;time_DayOfWeek -->
<g id="edge20" class="edge">
<title>N0aa2933ab45f435088ff389e562bbf30&#45;&gt;time_DayOfWeek</title>
<path fill="none" stroke="black" stroke-dasharray="1,5" d="M734.89,-631.05C730.12,-592.61 718.14,-495.91 708.25,-415 701.41,-359.01 724.46,-335.82 693,-289 639.61,-209.55 339.34,-188.31 211.08,-182.83"/>
<polygon fill="black" stroke="black" points="211.23,-179.33 201.1,-182.42 210.95,-186.33 211.23,-179.33"/>
<text xml:space="preserve" text-anchor="middle" x="728.12" y="-397.8" font-family="Arial" font-size="11.00">member</text>
</g>
<!-- N0aa2933ab45f435088ff389e562bbf30&#45;&gt;time_TemporalEntity -->
<g id="edge21" class="edge">
<title>N0aa2933ab45f435088ff389e562bbf30&#45;&gt;time_TemporalEntity</title>
<path fill="none" stroke="black" stroke-dasharray="1,5" d="M744.1,-631.17C751.49,-612.08 762,-579.87 762,-551 762,-551 762,-551 762,-106 762,-51 370.12,-38.57 210.98,-35.79"/>
<polygon fill="black" stroke="black" points="211.05,-32.29 201,-35.62 210.94,-39.29 211.05,-32.29"/>
<text xml:space="preserve" text-anchor="middle" x="781.88" y="-298.8" font-family="Arial" font-size="11.00">member</text>
</g>
</g>
</svg>
