<?xml version="1.0" encoding="UTF-8" standalone="no"?>
<!DOCTYPE svg PUBLIC "-//W3C//DTD SVG 1.1//EN"
 "http://www.w3.org/Graphics/SVG/1.1/DTD/svg11.dtd">
<!-- Generated by graphviz version 14.0.2 (20251019.1705)
 -->
<!-- Pages: 1 -->
<svg width="294pt" height="232pt"
 viewBox="0.00 0.00 294.00 232.00" xmlns="http://www.w3.org/2000/svg" xmlns:xlink="http://www.w3.org/1999/xlink">
<g id="graph0" class="graph" transform="scale(1 1) rotate(0) translate(4 228)">
<polygon fill="white" stroke="none" points="-4,4 -4,-228 289.85,-228 289.85,4 -4,4"/>
<g id="clust2" class="cluster">
<title>cluster_associated</title>
</g>
<!-- WeeklyRecurringEvent -->
<g id="node1" class="node">
<title>WeeklyRecurringEvent</title>
<g id="a_node1"><a xlink:href="../classes/RecurringEvent__WeeklyRecurringEvent.md" xlink:title="&lt;TABLE&gt;">
<polygon fill="lightgray" stroke="none" points="131.5,-124.88 131.5,-141.12 256.5,-141.12 256.5,-124.88 131.5,-124.88"/>
<text xml:space="preserve" text-anchor="start" x="132.5" y="-128.72" font-family="Arial" font-size="12.00">WeeklyRecurringEvent</text>
<polygon fill="none" stroke="black" points="130.5,-123.88 130.5,-142.12 257.5,-142.12 257.5,-123.88 130.5,-123.88"/>
</a>
</g>
</g>
<!-- RecurringEvent -->
<g id="node2" class="node">
<title>RecurringEvent</title>
<g id="a_node2"><a xlink:href="../_counters/RecurringEvent__RecurringEvent.md" xlink:title="&lt;TABLE&gt;">
<polygon fill="lightgray" stroke="none" points="151.38,-197.88 151.38,-214.12 236.62,-214.12 236.62,-197.88 151.38,-197.88"/>
<text xml:space="preserve" text-anchor="start" x="152.38" y="-201.72" font-family="Arial" font-size="12.00">RecurringEvent</text>
<polygon fill="none" stroke="black" points="150.38,-196.88 150.38,-215.12 237.62,-215.12 237.62,-196.88 150.38,-196.88"/>
</a>
</g>
</g>
<!-- WeeklyRecurringEvent&#45;&gt;RecurringEvent -->
<g id="edge1" class="edge">
<title>WeeklyRecurringEvent&#45;&gt;RecurringEvent</title>
<path fill="none" stroke="black" d="M194,-150.71C194,-158.47 194,-167.92 194,-176.74"/>
<polygon fill="none" stroke="black" points="190.5,-176.66 194,-186.66 197.5,-176.66 190.5,-176.66"/>
</g>
<!-- Invis -->
<!-- WeeklyRecurringEvent&#45;&gt;Invis -->
<!-- time__DayOfWeek -->
<g id="node4" class="node">
<title>time__DayOfWeek</title>
<polygon fill="lightgray" stroke="none" points="17.5,-25.88 17.5,-42.12 112.5,-42.12 112.5,-25.88 17.5,-25.88"/>
<text xml:space="preserve" text-anchor="start" x="18.5" y="-29.73" font-family="Arial" font-size="12.00">time::DayOfWeek</text>
<polygon fill="none" stroke="black" points="16.5,-24.88 16.5,-43.12 113.5,-43.12 113.5,-24.88 16.5,-24.88"/>
</g>
<!-- WeeklyRecurringEvent&#45;&gt;time__DayOfWeek -->
<g id="edge4" class="edge">
<title>WeeklyRecurringEvent&#45;&gt;time__DayOfWeek</title>
<path fill="none" stroke="black" stroke-dasharray="5,2" d="M171.53,-115.1C150.72,-99.46 119.57,-76.03 96.32,-58.55"/>
<polygon fill="black" stroke="black" points="98.52,-55.82 88.42,-52.61 94.31,-61.42 98.52,-55.82"/>
<text xml:space="preserve" text-anchor="middle" x="215.35" y="-86.55" font-family="Arial" font-size="11.00"> onProperty: hasDayOfWeek </text>
<text xml:space="preserve" text-anchor="middle" x="215.35" y="-73.05" font-family="Arial" font-size="11.00"> «exactly 1» &#160;</text>
</g>
<!-- Invis&#45;&gt;time__DayOfWeek -->
</g>
</svg>
