<?xml version="1.0" encoding="UTF-8" standalone="no"?>
<!DOCTYPE svg PUBLIC "-//W3C//DTD SVG 1.1//EN"
 "http://www.w3.org/Graphics/SVG/1.1/DTD/svg11.dtd">
<!-- Generated by graphviz version 14.0.2 (20251019.1705)
 -->
<!-- Pages: 1 -->
<svg width="927pt" height="675pt"
 viewBox="0.00 0.00 927.00 675.00" xmlns="http://www.w3.org/2000/svg" xmlns:xlink="http://www.w3.org/1999/xlink">
<g id="graph0" class="graph" transform="scale(1 1) rotate(0) translate(4 671)">
<polygon fill="white" stroke="none" points="-4,4 -4,-671 922.75,-671 922.75,4 -4,4"/>
<g id="clust2" class="cluster">
<title>cluster_associated</title>
</g>
<!-- RecurringEvent -->
<g id="node1" class="node">
<title>RecurringEvent</title>
<g id="a_node1"><a xlink:href="../_counters/RecurringEvent__RecurringEvent.md" xlink:title="&lt;TABLE&gt;">
<polygon fill="lightgray" stroke="none" points="409.38,-541.88 409.38,-558.12 494.62,-558.12 494.62,-541.88 409.38,-541.88"/>
<text xml:space="preserve" text-anchor="start" x="410.38" y="-545.73" font-family="Arial" font-size="12.00">RecurringEvent</text>
<polygon fill="none" stroke="black" points="408.38,-540.88 408.38,-559.12 495.62,-559.12 495.62,-540.88 408.38,-540.88"/>
</a>
</g>
</g>
<!-- RecurringEvent&#45;&gt;RecurringEvent -->
<g id="edge15" class="edge">
<title>RecurringEvent&#45;&gt;RecurringEvent</title>
<path fill="none" stroke="black" d="M495.48,-559.12C505.9,-558.4 513.62,-555.37 513.62,-550 513.62,-546.81 510.9,-544.45 506.51,-542.9"/>
<polygon fill="black" stroke="black" points="507.43,-539.51 496.97,-541.16 506.17,-546.4 507.43,-539.51"/>
<text xml:space="preserve" text-anchor="middle" x="572.5" y="-553.05" font-family="Arial" font-size="11.00"> hasSubRecurringEvent </text>
<text xml:space="preserve" text-anchor="middle" x="572.5" y="-539.55" font-family="Arial" font-size="11.00"> «only» &#160;</text>
</g>
<!-- RecurringEventThing -->
<g id="node2" class="node">
<title>RecurringEventThing</title>
<g id="a_node2"><a xlink:href="../_counters/RecurringEvent__RecurringEventThing.md" xlink:title="&lt;TABLE&gt;">
<polygon fill="lightgray" stroke="none" points="394,-640.88 394,-657.12 510,-657.12 510,-640.88 394,-640.88"/>
<text xml:space="preserve" text-anchor="start" x="395" y="-644.73" font-family="Arial" font-size="12.00">RecurringEventThing</text>
<polygon fill="none" stroke="black" points="393,-639.88 393,-658.12 511,-658.12 511,-639.88 393,-639.88"/>
</a>
</g>
</g>
<!-- RecurringEvent&#45;&gt;RecurringEventThing -->
<g id="edge1" class="edge">
<title>RecurringEvent&#45;&gt;RecurringEventThing</title>
<path fill="none" stroke="black" d="M452,-567.7C452,-581.97 452,-602.8 452,-619.67"/>
<polygon fill="none" stroke="black" points="448.5,-619.59 452,-629.59 455.5,-619.59 448.5,-619.59"/>
</g>
<!-- Invis -->
<!-- RecurringEvent&#45;&gt;Invis -->
<!-- activity__Activity -->
<g id="node4" class="node">
<title>activity__Activity</title>
<polygon fill="lightgray" stroke="none" points="17.5,-442.88 17.5,-459.12 100.5,-459.12 100.5,-442.88 17.5,-442.88"/>
<text xml:space="preserve" text-anchor="start" x="18.5" y="-446.73" font-family="Arial" font-size="12.00">activity::Activity</text>
<polygon fill="none" stroke="black" points="16.5,-441.88 16.5,-460.12 101.5,-460.12 101.5,-441.88 16.5,-441.88"/>
</g>
<!-- RecurringEvent&#45;&gt;activity__Activity -->
<g id="edge14" class="edge">
<title>RecurringEvent&#45;&gt;activity__Activity</title>
<path fill="none" stroke="black" d="M408.6,-545.88C307.83,-538.54 66.15,-520.32 60.25,-514 51.93,-505.09 50.73,-491.93 51.97,-480.02"/>
<polygon fill="black" stroke="black" points="55.41,-480.67 53.61,-470.23 48.51,-479.51 55.41,-480.67"/>
<text xml:space="preserve" text-anchor="middle" x="99.62" y="-503.55" font-family="Arial" font-size="11.00"> hasOccurrence </text>
<text xml:space="preserve" text-anchor="middle" x="99.62" y="-490.05" font-family="Arial" font-size="11.00"> «only» &#160;</text>
</g>
<!-- activity__State -->
<g id="node5" class="node">
<title>activity__State</title>
<polygon fill="lightgray" stroke="none" points="106.75,-343.88 106.75,-360.12 179.25,-360.12 179.25,-343.88 106.75,-343.88"/>
<text xml:space="preserve" text-anchor="start" x="107.75" y="-347.73" font-family="Arial" font-size="12.00">activity::State</text>
<polygon fill="none" stroke="black" points="105.75,-342.88 105.75,-361.12 180.25,-361.12 180.25,-342.88 105.75,-342.88"/>
</g>
<!-- RecurringEvent&#45;&gt;activity__State -->
<g id="edge9" class="edge">
<title>RecurringEvent&#45;&gt;activity__State</title>
<path fill="none" stroke="black" d="M408.53,-543.98C332.95,-534.24 182.41,-510.07 151.75,-469 132.98,-443.85 133.77,-406.49 137.29,-381.01"/>
<polygon fill="black" stroke="black" points="140.71,-381.82 138.86,-371.39 133.8,-380.7 140.71,-381.82"/>
<text xml:space="preserve" text-anchor="middle" x="206.88" y="-454.05" font-family="Arial" font-size="11.00"> beginsRecurringState </text>
<text xml:space="preserve" text-anchor="middle" x="206.88" y="-440.55" font-family="Arial" font-size="11.00"> «only» &#160;</text>
</g>
<!-- RecurringEvent&#45;&gt;activity__State -->
<g id="edge11" class="edge">
<title>RecurringEvent&#45;&gt;activity__State</title>
<path fill="none" stroke="black" d="M411.45,-532.08C379.2,-517.67 333.73,-495.17 298,-469 279.75,-455.63 279.47,-447.38 262,-433 236.32,-411.87 205.04,-391 180.99,-375.88"/>
<polygon fill="black" stroke="black" points="183.12,-373.09 172.78,-370.78 179.42,-379.03 183.12,-373.09"/>
<text xml:space="preserve" text-anchor="middle" x="349" y="-454.05" font-family="Arial" font-size="11.00"> endsRecurringState </text>
<text xml:space="preserve" text-anchor="middle" x="349" y="-440.55" font-family="Arial" font-size="11.00"> «only» &#160;</text>
</g>
<!-- spatialLoc__Location -->
<g id="node6" class="node">
<title>spatialLoc__Location</title>
<polygon fill="lightgray" stroke="none" points="94.75,-244.88 94.75,-261.12 203.25,-261.12 203.25,-244.88 94.75,-244.88"/>
<text xml:space="preserve" text-anchor="start" x="95.75" y="-248.72" font-family="Arial" font-size="12.00">spatialLoc::Location</text>
<polygon fill="none" stroke="black" points="93.75,-243.88 93.75,-262.12 204.25,-262.12 204.25,-243.88 93.75,-243.88"/>
</g>
<!-- RecurringEvent&#45;&gt;spatialLoc__Location -->
<g id="edge23" class="edge">
<title>RecurringEvent&#45;&gt;spatialLoc__Location</title>
<path fill="none" stroke="black" d="M445.08,-532.46C431.92,-501.19 404.25,-436.25 400,-433 359.44,-401.96 331.06,-439.96 286.5,-415 229.19,-382.9 184.89,-317.16 163.36,-280.39"/>
<polygon fill="black" stroke="black" points="166.66,-279.1 158.66,-272.16 160.58,-282.57 166.66,-279.1"/>
<text xml:space="preserve" text-anchor="middle" x="362.25" y="-404.55" font-family="Arial" font-size="11.00"> spatialLoc::associatedLocation </text>
<text xml:space="preserve" text-anchor="middle" x="362.25" y="-391.05" font-family="Arial" font-size="11.00"> «only» &#160;</text>
</g>
<!-- time__DayOfWeek -->
<g id="node7" class="node">
<title>time__DayOfWeek</title>
<polygon fill="lightgray" stroke="none" points="107.5,-171.88 107.5,-188.12 202.5,-188.12 202.5,-171.88 107.5,-171.88"/>
<text xml:space="preserve" text-anchor="start" x="108.5" y="-175.72" font-family="Arial" font-size="12.00">time::DayOfWeek</text>
<polygon fill="none" stroke="black" points="106.5,-170.88 106.5,-189.12 203.5,-189.12 203.5,-170.88 106.5,-170.88"/>
</g>
<!-- RecurringEvent&#45;&gt;time__DayOfWeek -->
<g id="edge13" class="edge">
<title>RecurringEvent&#45;&gt;time__DayOfWeek</title>
<path fill="none" stroke="black" d="M455.84,-532.37C462.13,-500.69 470.85,-431.04 438,-388 423.99,-369.64 409.34,-381.4 389.25,-370 345.43,-345.13 234.7,-250.48 182.74,-205.29"/>
<polygon fill="black" stroke="black" points="185.31,-202.89 175.47,-198.96 180.71,-208.17 185.31,-202.89"/>
<text xml:space="preserve" text-anchor="middle" x="430.12" y="-355.05" font-family="Arial" font-size="11.00"> hasDayOfWeek </text>
<text xml:space="preserve" text-anchor="middle" x="430.12" y="-341.55" font-family="Arial" font-size="11.00"> «only» &#160;</text>
</g>
<!-- time__GeneralDateTimeDescription -->
<g id="node8" class="node">
<title>time__GeneralDateTimeDescription</title>
<polygon fill="lightgray" stroke="none" points="17.12,-98.88 17.12,-115.12 202.88,-115.12 202.88,-98.88 17.12,-98.88"/>
<text xml:space="preserve" text-anchor="start" x="18.12" y="-102.72" font-family="Arial" font-size="12.00">time::GeneralDateTimeDescription</text>
<polygon fill="none" stroke="black" points="16.12,-97.88 16.12,-116.12 203.88,-116.12 203.88,-97.88 16.12,-97.88"/>
</g>
<!-- RecurringEvent&#45;&gt;time__GeneralDateTimeDescription -->
<g id="edge16" class="edge">
<title>RecurringEvent&#45;&gt;time__GeneralDateTimeDescription</title>
<path fill="none" stroke="black" d="M465.27,-532.12C468.82,-526.65 472.17,-520.34 474,-514 478.2,-499.41 471.05,-334.06 471,-334 449.21,-307.25 426.29,-331.55 395.5,-316 300.76,-268.17 301.08,-221.21 213,-162 195.49,-150.23 175.12,-139.07 157.13,-129.99"/>
<polygon fill="black" stroke="black" points="158.73,-126.87 148.21,-125.56 155.61,-133.14 158.73,-126.87"/>
<text xml:space="preserve" text-anchor="middle" x="454.75" y="-305.55" font-family="Arial" font-size="11.00"> onDateTimeDescription </text>
<text xml:space="preserve" text-anchor="middle" x="454.75" y="-292.05" font-family="Arial" font-size="11.00"> «only» &#160;</text>
</g>
<!-- time__TemporalEntity -->
<g id="node9" class="node">
<title>time__TemporalEntity</title>
<polygon fill="lightgray" stroke="none" points="93,-25.88 93,-42.12 203,-42.12 203,-25.88 93,-25.88"/>
<text xml:space="preserve" text-anchor="start" x="94" y="-29.73" font-family="Arial" font-size="12.00">time::TemporalEntity</text>
<polygon fill="none" stroke="black" points="92,-24.88 92,-43.12 204,-43.12 204,-24.88 92,-24.88"/>
</g>
<!-- RecurringEvent&#45;&gt;time__TemporalEntity -->
<g id="edge10" class="edge">
<title>RecurringEvent&#45;&gt;time__TemporalEntity</title>
<path fill="none" stroke="black" d="M474.73,-532.17C480.26,-526.96 485.56,-520.78 489,-514 534.51,-424.27 574.06,-369.72 514,-289 497.38,-266.66 473.31,-291.05 454,-271 436.8,-253.14 440,-241.79 440,-217 440,-217 440,-217 440,-106 440,-60 301.46,-43.69 215.24,-37.98"/>
<polygon fill="black" stroke="black" points="215.66,-34.5 205.47,-37.37 215.23,-41.49 215.66,-34.5"/>
<text xml:space="preserve" text-anchor="middle" x="508" y="-256.05" font-family="Arial" font-size="11.00"> beginsRecurringTime </text>
<text xml:space="preserve" text-anchor="middle" x="508" y="-242.55" font-family="Arial" font-size="11.00"> «only» &#160;</text>
</g>
<!-- RecurringEvent&#45;&gt;time__TemporalEntity -->
<g id="edge12" class="edge">
<title>RecurringEvent&#45;&gt;time__TemporalEntity</title>
<path fill="none" stroke="black" d="M495.59,-536.86C534.04,-523.18 584,-496.79 584,-452 584,-452 584,-452 584,-106 584,-69.08 337.37,-47.54 215.1,-39.12"/>
<polygon fill="black" stroke="black" points="215.39,-35.63 205.17,-38.45 214.91,-42.62 215.39,-35.63"/>
<text xml:space="preserve" text-anchor="middle" x="633.88" y="-256.05" font-family="Arial" font-size="11.00"> endsRecurringTime </text>
<text xml:space="preserve" text-anchor="middle" x="633.88" y="-242.55" font-family="Arial" font-size="11.00"> «only» &#160;</text>
</g>
<!-- Ne7c04b7f8e9e4555b5d2c9192de9e5a5 -->
<g id="node10" class="node">
<title>Ne7c04b7f8e9e4555b5d2c9192de9e5a5</title>
<polygon fill="lightyellow" stroke="none" points="682.25,-639.88 682.25,-658.12 741.75,-658.12 741.75,-639.88 682.25,-639.88"/>
<text xml:space="preserve" text-anchor="start" x="684.25" y="-644.73" font-family="Arial" font-size="12.00">«unionOf»</text>
<polygon fill="none" stroke="black" points="682.25,-639.88 682.25,-658.12 741.75,-658.12 741.75,-639.88 682.25,-639.88"/>
</g>
<!-- RecurringEvent&#45;&gt;Ne7c04b7f8e9e4555b5d2c9192de9e5a5 -->
<g id="edge19" class="edge">
<title>RecurringEvent&#45;&gt;Ne7c04b7f8e9e4555b5d2c9192de9e5a5</title>
<path fill="none" stroke="black" d="M495.36,-567.18C544.53,-585.52 624.07,-615.19 671.87,-633.03"/>
<polygon fill="black" stroke="black" points="670.42,-636.22 681.01,-636.44 672.86,-629.66 670.42,-636.22"/>
<text xml:space="preserve" text-anchor="middle" x="650.43" y="-602.55" font-family="Arial" font-size="11.00"> recursAddition </text>
<text xml:space="preserve" text-anchor="middle" x="650.43" y="-589.05" font-family="Arial" font-size="11.00"> «only» &#160;</text>
</g>
<!-- Nf4b446c4d2184fa6b50b15f1b633f812 -->
<g id="node11" class="node">
<title>Nf4b446c4d2184fa6b50b15f1b633f812</title>
<polygon fill="lightyellow" stroke="none" points="824.25,-639.88 824.25,-658.12 883.75,-658.12 883.75,-639.88 824.25,-639.88"/>
<text xml:space="preserve" text-anchor="start" x="826.25" y="-644.73" font-family="Arial" font-size="12.00">«unionOf»</text>
<polygon fill="none" stroke="black" points="824.25,-639.88 824.25,-658.12 883.75,-658.12 883.75,-639.88 824.25,-639.88"/>
</g>
<!-- RecurringEvent&#45;&gt;Nf4b446c4d2184fa6b50b15f1b633f812 -->
<g id="edge22" class="edge">
<title>RecurringEvent&#45;&gt;Nf4b446c4d2184fa6b50b15f1b633f812</title>
<path fill="none" stroke="black" d="M495.49,-554.43C544.02,-558.94 624.57,-568.41 692,-586 715.56,-592.14 773.97,-615.26 813.82,-631.45"/>
<polygon fill="black" stroke="black" points="812.29,-634.61 822.87,-635.15 814.93,-628.13 812.29,-634.61"/>
<text xml:space="preserve" text-anchor="middle" x="799.64" y="-602.55" font-family="Arial" font-size="11.00"> recursExcept </text>
<text xml:space="preserve" text-anchor="middle" x="799.64" y="-589.05" font-family="Arial" font-size="11.00"> «only» &#160;</text>
</g>
<!-- Invis&#45;&gt;activity__Activity -->
<!-- activity__Activity&#45;&gt;activity__State -->
<!-- activity__State&#45;&gt;spatialLoc__Location -->
<!-- spatialLoc__Location&#45;&gt;time__DayOfWeek -->
<!-- time__DayOfWeek&#45;&gt;time__GeneralDateTimeDescription -->
<!-- time__GeneralDateTimeDescription&#45;&gt;time__TemporalEntity -->
<!-- Ne7c04b7f8e9e4555b5d2c9192de9e5a5&#45;&gt;time__DayOfWeek -->
<g id="edge17" class="edge">
<title>Ne7c04b7f8e9e4555b5d2c9192de9e5a5&#45;&gt;time__DayOfWeek</title>
<path fill="none" stroke="black" stroke-dasharray="1,5" d="M712,-631.18C712,-611.83 712,-579.12 712,-551 712,-551 712,-551 712,-301.5 712,-270.08 712.77,-254.33 688,-235 683.36,-231.38 352.38,-199.68 214.38,-186.6"/>
<polygon fill="black" stroke="black" points="215.01,-183.15 204.72,-185.69 214.35,-190.12 215.01,-183.15"/>
<text xml:space="preserve" text-anchor="middle" x="731.88" y="-397.8" font-family="Arial" font-size="11.00">member</text>
</g>
<!-- Ne7c04b7f8e9e4555b5d2c9192de9e5a5&#45;&gt;time__TemporalEntity -->
<g id="edge18" class="edge">
<title>Ne7c04b7f8e9e4555b5d2c9192de9e5a5&#45;&gt;time__TemporalEntity</title>
<path fill="none" stroke="black" stroke-dasharray="1,5" d="M717.86,-631.05C719.68,-625.36 721.58,-618.95 723,-613 764.29,-439.49 788,-395.36 788,-217 788,-217 788,-217 788,-106 788,-48.85 379.73,-37.7 215.36,-35.53"/>
<polygon fill="black" stroke="black" points="215.51,-32.03 205.47,-35.4 215.42,-39.03 215.51,-32.03"/>
<text xml:space="preserve" text-anchor="middle" x="806.24" y="-298.8" font-family="Arial" font-size="11.00">member</text>
</g>
<!-- Nf4b446c4d2184fa6b50b15f1b633f812&#45;&gt;time__DayOfWeek -->
<g id="edge20" class="edge">
<title>Nf4b446c4d2184fa6b50b15f1b633f812&#45;&gt;time__DayOfWeek</title>
<path fill="none" stroke="black" stroke-dasharray="1,5" d="M851.92,-631.21C843.15,-560.43 809.61,-289.91 809,-289 743.17,-191.01 362.84,-180.72 214.36,-180.49"/>
<polygon fill="black" stroke="black" points="214.75,-176.99 204.75,-180.49 214.75,-183.99 214.75,-176.99"/>
<text xml:space="preserve" text-anchor="middle" x="844.71" y="-397.8" font-family="Arial" font-size="11.00">member</text>
</g>
<!-- Nf4b446c4d2184fa6b50b15f1b633f812&#45;&gt;time__TemporalEntity -->
<g id="edge21" class="edge">
<title>Nf4b446c4d2184fa6b50b15f1b633f812&#45;&gt;time__TemporalEntity</title>
<path fill="none" stroke="black" stroke-dasharray="1,5" d="M861.1,-631.17C868.49,-612.08 879,-579.87 879,-551 879,-551 879,-551 879,-106 879,-39.68 396.16,-34.26 215.31,-34.56"/>
<polygon fill="black" stroke="black" points="215.35,-31.06 205.36,-34.58 215.37,-38.06 215.35,-31.06"/>
<text xml:space="preserve" text-anchor="middle" x="898.88" y="-298.8" font-family="Arial" font-size="11.00">member</text>
</g>
</g>
</svg>
