<?xml version="1.0" encoding="UTF-8" standalone="no"?>
<!DOCTYPE svg PUBLIC "-//W3C//DTD SVG 1.1//EN"
 "http://www.w3.org/Graphics/SVG/1.1/DTD/svg11.dtd">
<!-- Generated by graphviz version 14.0.2 (20251019.1705)
 -->
<!-- Pages: 1 -->
<svg width="401pt" height="232pt"
 viewBox="0.00 0.00 401.00 232.00" xmlns="http://www.w3.org/2000/svg" xmlns:xlink="http://www.w3.org/1999/xlink">
<g id="graph0" class="graph" transform="scale(1 1) rotate(0) translate(4 228)">
<polygon fill="white" stroke="none" points="-4,4 -4,-228 396.98,-228 396.98,4 -4,4"/>
<g id="clust2" class="cluster">
<title>cluster_associated</title>
</g>
<!-- YearlyRecurringEvent -->
<g id="node1" class="node">
<title>YearlyRecurringEvent</title>
<g id="a_node1"><a xlink:href="../classes/RecurringEvent__YearlyRecurringEvent.md" xlink:title="&lt;TABLE&gt;">
<polygon fill="lightgray" stroke="none" points="220.88,-124.88 220.88,-141.12 339.12,-141.12 339.12,-124.88 220.88,-124.88"/>
<text xml:space="preserve" text-anchor="start" x="221.88" y="-128.72" font-family="Arial" font-size="12.00">YearlyRecurringEvent</text>
<polygon fill="none" stroke="black" points="219.88,-123.88 219.88,-142.12 340.12,-142.12 340.12,-123.88 219.88,-123.88"/>
</a>
</g>
</g>
<!-- RecurringEvent -->
<g id="node2" class="node">
<title>RecurringEvent</title>
<g id="a_node2"><a xlink:href="../_counters/RecurringEvent__RecurringEvent.md" xlink:title="&lt;TABLE&gt;">
<polygon fill="lightgray" stroke="none" points="237.38,-197.88 237.38,-214.12 322.62,-214.12 322.62,-197.88 237.38,-197.88"/>
<text xml:space="preserve" text-anchor="start" x="238.38" y="-201.72" font-family="Arial" font-size="12.00">RecurringEvent</text>
<polygon fill="none" stroke="black" points="236.38,-196.88 236.38,-215.12 323.62,-215.12 323.62,-196.88 236.38,-196.88"/>
</a>
</g>
</g>
<!-- YearlyRecurringEvent&#45;&gt;RecurringEvent -->
<g id="edge1" class="edge">
<title>YearlyRecurringEvent&#45;&gt;RecurringEvent</title>
<path fill="none" stroke="black" d="M280,-150.71C280,-158.47 280,-167.92 280,-176.74"/>
<polygon fill="none" stroke="black" points="276.5,-176.66 280,-186.66 283.5,-176.66 276.5,-176.66"/>
</g>
<!-- Invis -->
<!-- YearlyRecurringEvent&#45;&gt;Invis -->
<!-- time__GeneralDateTimeDescription -->
<g id="node4" class="node">
<title>time__GeneralDateTimeDescription</title>
<polygon fill="lightgray" stroke="none" points="17.12,-25.88 17.12,-42.12 202.88,-42.12 202.88,-25.88 17.12,-25.88"/>
<text xml:space="preserve" text-anchor="start" x="18.12" y="-29.73" font-family="Arial" font-size="12.00">time::GeneralDateTimeDescription</text>
<polygon fill="none" stroke="black" points="16.12,-24.88 16.12,-43.12 203.88,-43.12 203.88,-24.88 16.12,-24.88"/>
</g>
<!-- YearlyRecurringEvent&#45;&gt;time__GeneralDateTimeDescription -->
<g id="edge4" class="edge">
<title>YearlyRecurringEvent&#45;&gt;time__GeneralDateTimeDescription</title>
<path fill="none" stroke="black" stroke-dasharray="5,2" d="M250.39,-115.1C222.44,-99.16 180.34,-75.14 149.54,-57.56"/>
<polygon fill="black" stroke="black" points="151.29,-54.53 140.87,-52.62 147.82,-60.61 151.29,-54.53"/>
<text xml:space="preserve" text-anchor="middle" x="304.1" y="-86.55" font-family="Arial" font-size="11.00"> onProperty: onDateTimeDescription </text>
<text xml:space="preserve" text-anchor="middle" x="304.1" y="-73.05" font-family="Arial" font-size="11.00"> «exactly 1» &#160;</text>
</g>
<!-- Invis&#45;&gt;time__GeneralDateTimeDescription -->
</g>
</svg>
