<?xml version="1.0" encoding="UTF-8" standalone="no"?>
<!DOCTYPE svg PUBLIC "-//W3C//DTD SVG 1.1//EN"
 "http://www.w3.org/Graphics/SVG/1.1/DTD/svg11.dtd">
<!-- Generated by graphviz version 14.0.2 (20251019.1705)
 -->
<!-- Pages: 1 -->
<svg width="404pt" height="232pt"
 viewBox="0.00 0.00 404.00 232.00" xmlns="http://www.w3.org/2000/svg" xmlns:xlink="http://www.w3.org/1999/xlink">
<g id="graph0" class="graph" transform="scale(1 1) rotate(0) translate(4 228)">
<polygon fill="white" stroke="none" points="-4,4 -4,-228 400.07,-228 400.07,4 -4,4"/>
<g id="clust2" class="cluster">
<title>cluster_associated</title>
</g>
<!-- MonthlyRecurringEvent -->
<g id="node1" class="node">
<title>MonthlyRecurringEvent</title>
<g id="a_node1"><a xlink:href="../classes/RecurringEvent__MonthlyRecurringEvent.md" xlink:title="&lt;TABLE&gt;">
<polygon fill="lightgray" stroke="none" points="221.38,-124.88 221.38,-141.12 348.62,-141.12 348.62,-124.88 221.38,-124.88"/>
<text xml:space="preserve" text-anchor="start" x="222.38" y="-128.72" font-family="Arial" font-size="12.00">MonthlyRecurringEvent</text>
<polygon fill="none" stroke="black" points="220.38,-123.88 220.38,-142.12 349.62,-142.12 349.62,-123.88 220.38,-123.88"/>
</a>
</g>
</g>
<!-- RecurringEvent -->
<g id="node2" class="node">
<title>RecurringEvent</title>
<g id="a_node2"><a xlink:href="../_counters/RecurringEvent__RecurringEvent.md" xlink:title="&lt;TABLE&gt;">
<polygon fill="lightgray" stroke="none" points="242.38,-197.88 242.38,-214.12 327.62,-214.12 327.62,-197.88 242.38,-197.88"/>
<text xml:space="preserve" text-anchor="start" x="243.38" y="-201.72" font-family="Arial" font-size="12.00">RecurringEvent</text>
<polygon fill="none" stroke="black" points="241.38,-196.88 241.38,-215.12 328.62,-215.12 328.62,-196.88 241.38,-196.88"/>
</a>
</g>
</g>
<!-- MonthlyRecurringEvent&#45;&gt;RecurringEvent -->
<g id="edge1" class="edge">
<title>MonthlyRecurringEvent&#45;&gt;RecurringEvent</title>
<path fill="none" stroke="black" d="M285,-150.71C285,-158.47 285,-167.92 285,-176.74"/>
<polygon fill="none" stroke="black" points="281.5,-176.66 285,-186.66 288.5,-176.66 281.5,-176.66"/>
</g>
<!-- Invis -->
<!-- MonthlyRecurringEvent&#45;&gt;Invis -->
<!-- time__GeneralDateTimeDescription -->
<g id="node4" class="node">
<title>time__GeneralDateTimeDescription</title>
<polygon fill="lightgray" stroke="none" points="17.12,-25.88 17.12,-42.12 202.88,-42.12 202.88,-25.88 17.12,-25.88"/>
<text xml:space="preserve" text-anchor="start" x="18.12" y="-29.73" font-family="Arial" font-size="12.00">time::GeneralDateTimeDescription</text>
<polygon fill="none" stroke="black" points="16.12,-24.88 16.12,-43.12 203.88,-43.12 203.88,-24.88 16.12,-24.88"/>
</g>
<!-- MonthlyRecurringEvent&#45;&gt;time__GeneralDateTimeDescription -->
<g id="edge4" class="edge">
<title>MonthlyRecurringEvent&#45;&gt;time__GeneralDateTimeDescription</title>
<path fill="none" stroke="black" stroke-dasharray="5,2" d="M254.52,-115.1C225.62,-99.09 182.03,-74.93 150.28,-57.33"/>
<polygon fill="black" stroke="black" points="152.19,-54.39 141.75,-52.6 148.8,-60.51 152.19,-54.39"/>
<text xml:space="preserve" text-anchor="middle" x="307.2" y="-86.55" font-family="Arial" font-size="11.00"> onProperty: onDateTimeDescription </text>
<text xml:space="preserve" text-anchor="middle" x="307.2" y="-73.05" font-family="Arial" font-size="11.00"> «exactly 1» &#160;</text>
</g>
<!-- Invis&#45;&gt;time__GeneralDateTimeDescription -->
</g>
</svg>
