<?xml version="1.0" encoding="UTF-8" standalone="no"?>
<!DOCTYPE svg PUBLIC "-//W3C//DTD SVG 1.1//EN"
 "http://www.w3.org/Graphics/SVG/1.1/DTD/svg11.dtd">
<!-- Generated by graphviz version 14.1.3 (20260303.0454)
 -->
<!-- Pages: 1 -->
<svg width="857pt" height="658pt"
 viewBox="0.00 0.00 857.00 658.00" xmlns="http://www.w3.org/2000/svg" xmlns:xlink="http://www.w3.org/1999/xlink">
<g id="graph0" class="graph" transform="scale(1 1) rotate(0) translate(4 653.5)">
<polygon fill="white" stroke="none" points="-4,4 -4,-653.5 852.75,-653.5 852.75,4 -4,4"/>
<g id="clust3" class="cluster">
<title>cluster_associated</title>
</g>
<!-- RecurringEventThing -->
<g id="node1" class="node">
<title>RecurringEventThing</title>
<g id="a_node1"><a xlink:href="../RecurringEventThing" xlink:title="&lt;TABLE&gt;">
<polygon fill="lightgray" stroke="none" points="289,-623.38 289,-639.62 405,-639.62 405,-623.38 289,-623.38"/>
<text xml:space="preserve" text-anchor="start" x="290" y="-627.38" font-family="Arial" font-size="12.00">RecurringEventThing</text>
<polygon fill="none" stroke="black" points="288,-622.38 288,-640.62 406,-640.62 406,-622.38 288,-622.38"/>
</a>
</g>
</g>
<!-- RecurringEvent -->
<g id="node2" class="node">
<title>RecurringEvent</title>
<g id="a_node2"><a xlink:href="../RecurringEvent" xlink:title="&lt;TABLE&gt;">
<polygon fill="lightgray" stroke="none" points="304.38,-550.38 304.38,-566.62 389.62,-566.62 389.62,-550.38 304.38,-550.38"/>
<text xml:space="preserve" text-anchor="start" x="305.38" y="-554.38" font-family="Arial" font-size="12.00">RecurringEvent</text>
<polygon fill="none" stroke="black" points="303.38,-549.38 303.38,-567.62 390.62,-567.62 390.62,-549.38 303.38,-549.38"/>
</a>
</g>
</g>
<!-- RecurringEvent&#45;&gt;RecurringEventThing -->
<g id="edge1" class="edge">
<title>RecurringEvent&#45;&gt;RecurringEventThing</title>
<path fill="none" stroke="black" d="M347,-576.21C347,-583.97 347,-593.42 347,-602.24"/>
<polygon fill="none" stroke="black" points="343.5,-602.16 347,-612.16 350.5,-602.16 343.5,-602.16"/>
</g>
<!-- RecurringEvent&#45;&gt;RecurringEvent -->
<g id="edge22" class="edge">
<title>RecurringEvent&#45;&gt;RecurringEvent</title>
<path fill="none" stroke="black" d="M390.48,-565.22C400.9,-564.7 408.62,-562.46 408.62,-558.5 408.62,-556.21 406.04,-554.5 401.85,-553.36"/>
<polygon fill="black" stroke="black" points="402.36,-549.9 391.98,-551.99 401.4,-556.83 402.36,-549.9"/>
<polygon fill="white" stroke="none" points="408.62,-547.75 408.62,-569.25 528.38,-569.25 528.38,-547.75 408.62,-547.75"/>
<text xml:space="preserve" text-anchor="start" x="412.62" y="-554.75" font-family="Arial" font-size="11.00">hasSubRecurringEvent</text>
</g>
<!-- Invis -->
<!-- RecurringEvent&#45;&gt;Invis -->
<!-- Activity -->
<g id="node4" class="node">
<title>Activity</title>
<g id="a_node4"><a xlink:href="../Activity" xlink:title="&lt;TABLE&gt;">
<polygon fill="lightgray" stroke="none" points="22.88,-456.88 22.88,-473.12 63.12,-473.12 63.12,-456.88 22.88,-456.88"/>
<text xml:space="preserve" text-anchor="start" x="23.88" y="-460.88" font-family="Arial" font-size="12.00">Activity</text>
<polygon fill="none" stroke="black" points="21.88,-455.88 21.88,-474.12 64.12,-474.12 64.12,-455.88 21.88,-455.88"/>
</a>
</g>
</g>
<!-- RecurringEvent&#45;&gt;Activity -->
<g id="edge14" class="edge">
<title>RecurringEvent&#45;&gt;Activity</title>
<path fill="none" stroke="black" d="M303.55,-551.82C277.1,-548.42 242.62,-544.07 212,-540.5 174.76,-536.16 69.61,-550.11 44.25,-522.5 37.33,-514.97 35.84,-504.21 36.5,-494.09"/>
<polygon fill="black" stroke="black" points="39.96,-494.63 37.87,-484.25 33.03,-493.67 39.96,-494.63"/>
<polygon fill="white" stroke="none" points="44.25,-501 44.25,-522.5 125,-522.5 125,-501 44.25,-501"/>
<text xml:space="preserve" text-anchor="start" x="48.25" y="-508" font-family="Arial" font-size="11.00">hasOccurrence</text>
</g>
<!-- Location -->
<g id="node5" class="node">
<title>Location</title>
<g id="a_node5"><a xlink:href="../Location" xlink:title="&lt;TABLE&gt;">
<polygon fill="lightgray" stroke="none" points="19.12,-363.38 19.12,-379.62 66.88,-379.62 66.88,-363.38 19.12,-363.38"/>
<text xml:space="preserve" text-anchor="start" x="20.12" y="-367.38" font-family="Arial" font-size="12.00">Location</text>
<polygon fill="none" stroke="black" points="18.12,-362.38 18.12,-380.62 67.88,-380.62 67.88,-362.38 18.12,-362.38"/>
</a>
</g>
</g>
<!-- RecurringEvent&#45;&gt;Location -->
<g id="edge13" class="edge">
<title>RecurringEvent&#45;&gt;Location</title>
<path fill="none" stroke="black" d="M303.47,-551.78C254.77,-543.55 175.51,-524.53 120.5,-483 91.18,-460.86 68.7,-424.39 55.68,-399.45"/>
<polygon fill="black" stroke="black" points="58.84,-397.93 51.22,-390.57 52.58,-401.07 58.84,-397.93"/>
<polygon fill="white" stroke="none" points="120.5,-454.25 120.5,-475.75 220,-475.75 220,-454.25 120.5,-454.25"/>
<text xml:space="preserve" text-anchor="start" x="124.5" y="-461.25" font-family="Arial" font-size="11.00">associatedLocation</text>
</g>
<!-- State -->
<g id="node6" class="node">
<title>State</title>
<g id="a_node6"><a xlink:href="../State" xlink:title="&lt;TABLE&gt;">
<polygon fill="lightgray" stroke="none" points="97.12,-269.88 97.12,-286.12 126.88,-286.12 126.88,-269.88 97.12,-269.88"/>
<text xml:space="preserve" text-anchor="start" x="98.12" y="-273.88" font-family="Arial" font-size="12.00">State</text>
<polygon fill="none" stroke="black" points="96.12,-268.88 96.12,-287.12 127.88,-287.12 127.88,-268.88 96.12,-268.88"/>
</a>
</g>
</g>
<!-- RecurringEvent&#45;&gt;State -->
<g id="edge12" class="edge">
<title>RecurringEvent&#45;&gt;State</title>
<path fill="none" stroke="black" d="M303.62,-547.44C287.84,-542.1 270.76,-534.14 258,-522.5 230.25,-497.18 250.44,-469.01 220,-447 175.94,-415.14 134.5,-470.18 99,-429 69.71,-395.03 85.53,-339.2 99.14,-306.08"/>
<polygon fill="black" stroke="black" points="102.24,-307.74 103,-297.18 95.81,-304.96 102.24,-307.74"/>
<polygon fill="white" stroke="none" points="99,-407.5 99,-429 203,-429 203,-407.5 99,-407.5"/>
<text xml:space="preserve" text-anchor="start" x="103" y="-414.5" font-family="Arial" font-size="11.00">endsRecurringState</text>
</g>
<!-- RecurringEvent&#45;&gt;State -->
<g id="edge15" class="edge">
<title>RecurringEvent&#45;&gt;State</title>
<path fill="none" stroke="black" d="M331.86,-540.82C311.96,-519.01 275.81,-479.72 244,-447 236.06,-438.83 233.27,-437.56 225.75,-429 189.36,-387.56 151.52,-335.58 129.96,-304.96"/>
<polygon fill="black" stroke="black" points="133.02,-303.23 124.42,-297.05 127.29,-307.25 133.02,-303.23"/>
<polygon fill="white" stroke="none" points="225.75,-407.5 225.75,-429 338,-429 338,-407.5 225.75,-407.5"/>
<text xml:space="preserve" text-anchor="start" x="229.75" y="-414.5" font-family="Arial" font-size="11.00">beginsRecurringState</text>
</g>
<!-- time_DayOfWeek -->
<g id="node7" class="node">
<title>time_DayOfWeek</title>
<g id="a_node7"><a xlink:href="https://w3id.org/citydata/imported/time/latest/DayOfWeek" xlink:title="&lt;TABLE&gt;">
<polygon fill="lightgray" stroke="none" points="107,-184.38 107,-200.62 199,-200.62 199,-184.38 107,-184.38"/>
<text xml:space="preserve" text-anchor="start" x="108" y="-188.38" font-family="Arial" font-size="12.00">time:DayOfWeek</text>
<polygon fill="none" stroke="black" points="106,-183.38 106,-201.62 200,-201.62 200,-183.38 106,-183.38"/>
</a>
</g>
</g>
<!-- RecurringEvent&#45;&gt;time_DayOfWeek -->
<g id="edge20" class="edge">
<title>RecurringEvent&#45;&gt;time_DayOfWeek</title>
<path fill="none" stroke="black" d="M351.61,-540.51C358.71,-510.25 368.56,-446.53 338,-407.5 321.43,-386.33 301.68,-405.74 280.25,-389.5 221.02,-344.6 181.39,-263.59 163.65,-221.14"/>
<polygon fill="black" stroke="black" points="166.9,-219.85 159.89,-211.9 160.41,-222.48 166.9,-219.85"/>
<polygon fill="white" stroke="none" points="280.25,-360.75 280.25,-382.25 364,-382.25 364,-360.75 280.25,-360.75"/>
<text xml:space="preserve" text-anchor="start" x="284.25" y="-367.75" font-family="Arial" font-size="11.00">hasDayOfWeek</text>
</g>
<!-- time_GeneralDateTimeDescription -->
<g id="node8" class="node">
<title>time_GeneralDateTimeDescription</title>
<g id="a_node8"><a xlink:href="https://w3id.org/citydata/imported/time/latest/GeneralDateTimeDescription" xlink:title="&lt;TABLE&gt;">
<polygon fill="lightgray" stroke="none" points="16.62,-98.88 16.62,-115.12 199.38,-115.12 199.38,-98.88 16.62,-98.88"/>
<text xml:space="preserve" text-anchor="start" x="17.62" y="-102.88" font-family="Arial" font-size="12.00">time:GeneralDateTimeDescription</text>
<polygon fill="none" stroke="black" points="15.62,-97.88 15.62,-116.12 200.38,-116.12 200.38,-97.88 15.62,-97.88"/>
</a>
</g>
</g>
<!-- RecurringEvent&#45;&gt;time_GeneralDateTimeDescription -->
<g id="edge23" class="edge">
<title>RecurringEvent&#45;&gt;time_GeneralDateTimeDescription</title>
<path fill="none" stroke="black" d="M367.56,-540.52C392.93,-518.09 434.69,-475.9 451,-429 465.6,-387.02 430.18,-377.46 415.5,-335.5 404.16,-303.08 410.92,-292.21 399,-260 378.5,-204.61 384.25,-177.05 336,-143 315.77,-128.72 261.89,-120.07 211.59,-114.94"/>
<polygon fill="black" stroke="black" points="212.05,-111.47 201.76,-113.99 211.38,-118.44 212.05,-111.47"/>
<polygon fill="white" stroke="none" points="415.5,-314 415.5,-335.5 536,-335.5 536,-314 415.5,-314"/>
<text xml:space="preserve" text-anchor="start" x="419.5" y="-321" font-family="Arial" font-size="11.00">onDateTimeDescription</text>
</g>
<!-- time_TemporalEntity -->
<g id="node9" class="node">
<title>time_TemporalEntity</title>
<g id="a_node9"><a xlink:href="https://w3id.org/citydata/imported/time/latest/TemporalEntity" xlink:title="&lt;TABLE&gt;">
<polygon fill="lightgray" stroke="none" points="91.5,-25.88 91.5,-42.12 198.5,-42.12 198.5,-25.88 91.5,-25.88"/>
<text xml:space="preserve" text-anchor="start" x="92.5" y="-29.88" font-family="Arial" font-size="12.00">time:TemporalEntity</text>
<polygon fill="none" stroke="black" points="90.5,-24.88 90.5,-43.12 199.5,-43.12 199.5,-24.88 90.5,-24.88"/>
</a>
</g>
</g>
<!-- RecurringEvent&#45;&gt;time_TemporalEntity -->
<g id="edge19" class="edge">
<title>RecurringEvent&#45;&gt;time_TemporalEntity</title>
<path fill="none" stroke="black" d="M390.38,-551.03C462.92,-538.98 601,-510.23 601,-466 601,-466 601,-466 601,-106 601,-66.96 336.65,-46.21 210.5,-38.53"/>
<polygon fill="black" stroke="black" points="210.8,-35.04 200.61,-37.94 210.38,-42.03 210.8,-35.04"/>
<polygon fill="white" stroke="none" points="601,-267.25 601,-288.75 711,-288.75 711,-267.25 601,-267.25"/>
<text xml:space="preserve" text-anchor="start" x="605" y="-274.25" font-family="Arial" font-size="11.00">beginsRecurringTime</text>
</g>
<!-- RecurringEvent&#45;&gt;time_TemporalEntity -->
<g id="edge21" class="edge">
<title>RecurringEvent&#45;&gt;time_TemporalEntity</title>
<path fill="none" stroke="black" d="M390.57,-556.68C494.24,-553.55 747,-538.48 747,-466 747,-466 747,-466 747,-106 747,-52.48 366.93,-39.19 210.78,-35.98"/>
<polygon fill="black" stroke="black" points="211.07,-32.49 201,-35.79 210.93,-39.49 211.07,-32.49"/>
<polygon fill="white" stroke="none" points="747,-267.25 747,-288.75 848.75,-288.75 848.75,-267.25 747,-267.25"/>
<text xml:space="preserve" text-anchor="start" x="751" y="-274.25" font-family="Arial" font-size="11.00">endsRecurringTime</text>
</g>
<!-- n3444a948a9c64faf81d4b7a6799806b1b12 -->
<g id="node10" class="node">
<title>n3444a948a9c64faf81d4b7a6799806b1b12</title>
<polygon fill="lightyellow" stroke="none" points="330.25,-268.88 330.25,-287.12 389.75,-287.12 389.75,-268.88 330.25,-268.88"/>
<text xml:space="preserve" text-anchor="start" x="332.25" y="-273.88" font-family="Arial" font-size="12.00">«unionOf»</text>
<polygon fill="none" stroke="black" points="330.25,-268.88 330.25,-287.12 389.75,-287.12 389.75,-268.88 330.25,-268.88"/>
</g>
<!-- RecurringEvent&#45;&gt;n3444a948a9c64faf81d4b7a6799806b1b12 -->
<g id="edge11" class="edge">
<title>RecurringEvent&#45;&gt;n3444a948a9c64faf81d4b7a6799806b1b12</title>
<path fill="none" stroke="black" d="M355.1,-540.79C357.46,-535.12 359.75,-528.66 361,-522.5 376.61,-445.85 369.13,-352.79 363.79,-307.09"/>
<polygon fill="black" stroke="black" points="367.27,-306.76 362.58,-297.27 360.33,-307.62 367.27,-306.76"/>
<polygon fill="white" stroke="none" points="370.35,-407.5 370.35,-429 447.35,-429 447.35,-407.5 370.35,-407.5"/>
<text xml:space="preserve" text-anchor="start" x="374.35" y="-414.5" font-family="Arial" font-size="11.00">recursAddition</text>
</g>
<!-- n3444a948a9c64faf81d4b7a6799806b1b21 -->
<g id="node11" class="node">
<title>n3444a948a9c64faf81d4b7a6799806b1b21</title>
<polygon fill="lightyellow" stroke="none" points="476.25,-268.88 476.25,-287.12 535.75,-287.12 535.75,-268.88 476.25,-268.88"/>
<text xml:space="preserve" text-anchor="start" x="478.25" y="-273.88" font-family="Arial" font-size="12.00">«unionOf»</text>
<polygon fill="none" stroke="black" points="476.25,-268.88 476.25,-287.12 535.75,-287.12 535.75,-268.88 476.25,-268.88"/>
</g>
<!-- RecurringEvent&#45;&gt;n3444a948a9c64faf81d4b7a6799806b1b21 -->
<g id="edge18" class="edge">
<title>RecurringEvent&#45;&gt;n3444a948a9c64faf81d4b7a6799806b1b21</title>
<path fill="none" stroke="black" d="M390.41,-552.06C427.54,-546.53 477.12,-536.72 491,-522.5 527.53,-485.07 502.15,-457.94 516,-407.5 524.93,-374.97 534.6,-368.8 540,-335.5 541.53,-326.07 543.59,-322.85 540,-314 538.67,-310.73 536.88,-307.6 534.8,-304.64"/>
<polygon fill="black" stroke="black" points="537.52,-302.44 528.42,-297.03 532.16,-306.94 537.52,-302.44"/>
<polygon fill="white" stroke="none" points="516,-407.5 516,-429 587,-429 587,-407.5 516,-407.5"/>
<text xml:space="preserve" text-anchor="start" x="520" y="-414.5" font-family="Arial" font-size="11.00">recursExcept</text>
</g>
<!-- Invis&#45;&gt;Activity -->
<!-- Activity&#45;&gt;Location -->
<!-- Location&#45;&gt;State -->
<!-- State&#45;&gt;time_DayOfWeek -->
<!-- time_DayOfWeek&#45;&gt;time_GeneralDateTimeDescription -->
<!-- time_GeneralDateTimeDescription&#45;&gt;time_TemporalEntity -->
<!-- n3444a948a9c64faf81d4b7a6799806b1b12&#45;&gt;time_DayOfWeek -->
<g id="edge9" class="edge">
<title>n3444a948a9c64faf81d4b7a6799806b1b12&#45;&gt;time_DayOfWeek</title>
<path fill="none" stroke="black" stroke-dasharray="1,5" d="M334.46,-260.16C314.54,-247.11 289.37,-230.86 284,-228.5 260.95,-218.36 234.28,-210.58 211.05,-204.96"/>
<polygon fill="black" stroke="black" points="211.96,-201.58 201.43,-202.72 210.37,-208.39 211.96,-201.58"/>
<text xml:space="preserve" text-anchor="middle" x="324.33" y="-231.55" font-family="Arial" font-size="11.00">member</text>
</g>
<!-- n3444a948a9c64faf81d4b7a6799806b1b12&#45;&gt;time_TemporalEntity -->
<g id="edge10" class="edge">
<title>n3444a948a9c64faf81d4b7a6799806b1b12&#45;&gt;time_TemporalEntity</title>
<path fill="none" stroke="black" stroke-dasharray="1,5" d="M357.67,-260.01C355.8,-250.3 352.55,-238.18 347,-228.5 304.58,-154.57 225.37,-91.06 179.76,-58.43"/>
<polygon fill="black" stroke="black" points="181.99,-55.72 171.8,-52.82 177.96,-61.44 181.99,-55.72"/>
<text xml:space="preserve" text-anchor="middle" x="312.22" y="-146.05" font-family="Arial" font-size="11.00">member</text>
</g>
<!-- n3444a948a9c64faf81d4b7a6799806b1b21&#45;&gt;time_DayOfWeek -->
<g id="edge16" class="edge">
<title>n3444a948a9c64faf81d4b7a6799806b1b21&#45;&gt;time_DayOfWeek</title>
<path fill="none" stroke="black" stroke-dasharray="1,5" d="M476.3,-266.71C444.76,-256.06 393.32,-239.48 348,-228.5 302.36,-217.44 249.94,-208.22 210.95,-202.03"/>
<polygon fill="black" stroke="black" points="211.74,-198.61 201.32,-200.52 210.65,-205.52 211.74,-198.61"/>
<text xml:space="preserve" text-anchor="middle" x="416.12" y="-231.55" font-family="Arial" font-size="11.00">member</text>
</g>
<!-- n3444a948a9c64faf81d4b7a6799806b1b21&#45;&gt;time_TemporalEntity -->
<g id="edge17" class="edge">
<title>n3444a948a9c64faf81d4b7a6799806b1b21&#45;&gt;time_TemporalEntity</title>
<path fill="none" stroke="black" stroke-dasharray="1,5" d="M500.96,-260.13C491.75,-232.02 469.59,-175.51 432,-143 368.18,-87.81 273.39,-59.56 210.43,-46.05"/>
<polygon fill="black" stroke="black" points="211.43,-42.68 200.93,-44.08 210.01,-49.54 211.43,-42.68"/>
<text xml:space="preserve" text-anchor="middle" x="465.39" y="-146.05" font-family="Arial" font-size="11.00">member</text>
</g>
</g>
</svg>
