<?xml version="1.0" encoding="UTF-8" standalone="no"?>
<!DOCTYPE svg PUBLIC "-//W3C//DTD SVG 1.1//EN"
 "http://www.w3.org/Graphics/SVG/1.1/DTD/svg11.dtd">
<!-- Generated by graphviz version 14.1.3 (20260303.0454)
 -->
<!-- Pages: 1 -->
<svg width="809pt" height="634pt"
 viewBox="0.00 0.00 809.00 634.00" xmlns="http://www.w3.org/2000/svg" xmlns:xlink="http://www.w3.org/1999/xlink">
<g id="graph0" class="graph" transform="scale(1 1) rotate(0) translate(4 629.5)">
<polygon fill="white" stroke="none" points="-4,4 -4,-629.5 804.75,-629.5 804.75,4 -4,4"/>
<g id="clust3" class="cluster">
<title>cluster_associated</title>
</g>
<!-- RecurringEventThing -->
<g id="node1" class="node">
<title>RecurringEventThing</title>
<g id="a_node1"><a xlink:href="../RecurringEventThing" xlink:title="&lt;TABLE&gt;">
<polygon fill="lightgray" stroke="none" points="273,-599.38 273,-615.62 389,-615.62 389,-599.38 273,-599.38"/>
<text xml:space="preserve" text-anchor="start" x="274" y="-603.38" font-family="Arial" font-size="12.00">RecurringEventThing</text>
<polygon fill="none" stroke="black" points="272,-598.38 272,-616.62 390,-616.62 390,-598.38 272,-598.38"/>
</a>
</g>
</g>
<!-- RecurringEvent -->
<g id="node2" class="node">
<title>RecurringEvent</title>
<g id="a_node2"><a xlink:href="../RecurringEvent" xlink:title="&lt;TABLE&gt;">
<polygon fill="lightgray" stroke="none" points="288.38,-526.38 288.38,-542.62 373.62,-542.62 373.62,-526.38 288.38,-526.38"/>
<text xml:space="preserve" text-anchor="start" x="289.38" y="-530.38" font-family="Arial" font-size="12.00">RecurringEvent</text>
<polygon fill="none" stroke="black" points="287.38,-525.38 287.38,-543.62 374.62,-543.62 374.62,-525.38 287.38,-525.38"/>
</a>
</g>
</g>
<!-- RecurringEvent&#45;&gt;RecurringEventThing -->
<g id="edge1" class="edge">
<title>RecurringEvent&#45;&gt;RecurringEventThing</title>
<path fill="none" stroke="black" d="M331,-552.21C331,-559.97 331,-569.42 331,-578.24"/>
<polygon fill="none" stroke="black" points="327.5,-578.16 331,-588.16 334.5,-578.16 327.5,-578.16"/>
</g>
<!-- RecurringEvent&#45;&gt;RecurringEvent -->
<g id="edge15" class="edge">
<title>RecurringEvent&#45;&gt;RecurringEvent</title>
<path fill="none" stroke="black" d="M374.48,-541.22C384.9,-540.7 392.62,-538.46 392.62,-534.5 392.62,-532.21 390.04,-530.5 385.85,-529.36"/>
<polygon fill="black" stroke="black" points="386.36,-525.9 375.98,-527.99 385.4,-532.83 386.36,-525.9"/>
<text xml:space="preserve" text-anchor="middle" x="448.5" y="-530.8" font-family="Arial" font-size="11.00">hasSubRecurringEvent</text>
</g>
<!-- Invis -->
<!-- RecurringEvent&#45;&gt;Invis -->
<!-- Activity -->
<g id="node4" class="node">
<title>Activity</title>
<g id="a_node4"><a xlink:href="../Activity" xlink:title="&lt;TABLE&gt;">
<polygon fill="lightgray" stroke="none" points="22.88,-440.88 22.88,-457.12 63.12,-457.12 63.12,-440.88 22.88,-440.88"/>
<text xml:space="preserve" text-anchor="start" x="23.88" y="-444.88" font-family="Arial" font-size="12.00">Activity</text>
<polygon fill="none" stroke="black" points="21.88,-439.88 21.88,-458.12 64.12,-458.12 64.12,-439.88 21.88,-439.88"/>
</a>
</g>
</g>
<!-- RecurringEvent&#45;&gt;Activity -->
<g id="edge14" class="edge">
<title>RecurringEvent&#45;&gt;Activity</title>
<path fill="none" stroke="black" d="M287.53,-526.92C265.01,-523.6 237.06,-519.63 212,-516.5 174.8,-511.85 69.66,-526.06 44.25,-498.5 39.23,-493.05 37.51,-485.63 37.42,-478.22"/>
<polygon fill="black" stroke="black" points="40.89,-478.66 38.24,-468.4 33.92,-478.07 40.89,-478.66"/>
<text xml:space="preserve" text-anchor="middle" x="80.62" y="-488.05" font-family="Arial" font-size="11.00">hasOccurrence</text>
</g>
<!-- Location -->
<g id="node5" class="node">
<title>Location</title>
<g id="a_node5"><a xlink:href="../Location" xlink:title="&lt;TABLE&gt;">
<polygon fill="lightgray" stroke="none" points="19.12,-355.38 19.12,-371.62 66.88,-371.62 66.88,-355.38 19.12,-355.38"/>
<text xml:space="preserve" text-anchor="start" x="20.12" y="-359.38" font-family="Arial" font-size="12.00">Location</text>
<polygon fill="none" stroke="black" points="18.12,-354.38 18.12,-372.62 67.88,-372.62 67.88,-354.38 18.12,-354.38"/>
</a>
</g>
</g>
<!-- RecurringEvent&#45;&gt;Location -->
<g id="edge23" class="edge">
<title>RecurringEvent&#45;&gt;Location</title>
<path fill="none" stroke="black" d="M287.5,-527.92C242.25,-520.36 171.06,-503.37 120.5,-467 92.7,-447 70.38,-414.14 56.96,-391.02"/>
<polygon fill="black" stroke="black" points="60.11,-389.5 52.17,-382.49 54.01,-392.93 60.11,-389.5"/>
<text xml:space="preserve" text-anchor="middle" x="166.25" y="-445.3" font-family="Arial" font-size="11.00">associatedLocation</text>
</g>
<!-- State -->
<g id="node6" class="node">
<title>State</title>
<g id="a_node6"><a xlink:href="../State" xlink:title="&lt;TABLE&gt;">
<polygon fill="lightgray" stroke="none" points="97.12,-269.88 97.12,-286.12 126.88,-286.12 126.88,-269.88 97.12,-269.88"/>
<text xml:space="preserve" text-anchor="start" x="98.12" y="-273.88" font-family="Arial" font-size="12.00">State</text>
<polygon fill="none" stroke="black" points="96.12,-268.88 96.12,-287.12 127.88,-287.12 127.88,-268.88 96.12,-268.88"/>
</a>
</g>
</g>
<!-- RecurringEvent&#45;&gt;State -->
<g id="edge9" class="edge">
<title>RecurringEvent&#45;&gt;State</title>
<path fill="none" stroke="black" d="M287.6,-520.77C274.47,-515.41 260.7,-508.13 250,-498.5 224.41,-475.47 240.26,-450.66 212,-431 170.16,-401.89 131.84,-451.76 98.75,-413 73.58,-383.52 86.58,-336.01 98.86,-306.2"/>
<polygon fill="black" stroke="black" points="102.03,-307.66 102.84,-297.1 95.62,-304.85 102.03,-307.66"/>
<text xml:space="preserve" text-anchor="middle" x="150.88" y="-402.55" font-family="Arial" font-size="11.00">beginsRecurringState</text>
</g>
<!-- RecurringEvent&#45;&gt;State -->
<g id="edge11" class="edge">
<title>RecurringEvent&#45;&gt;State</title>
<path fill="none" stroke="black" d="M316.33,-516.79C295.97,-493.58 258.05,-450.22 226,-413 193.59,-375.36 156.36,-331.47 133.5,-304.46"/>
<polygon fill="black" stroke="black" points="136.44,-302.51 127.31,-297.13 131.09,-307.03 136.44,-302.51"/>
<text xml:space="preserve" text-anchor="middle" x="274" y="-402.55" font-family="Arial" font-size="11.00">endsRecurringState</text>
</g>
<!-- time_DayOfWeek -->
<g id="node7" class="node">
<title>time_DayOfWeek</title>
<g id="a_node7"><a xlink:href="https://w3id.org/citydata/imported/time/latest/DayOfWeek" xlink:title="&lt;TABLE&gt;">
<polygon fill="lightgray" stroke="none" points="107,-184.38 107,-200.62 199,-200.62 199,-184.38 107,-184.38"/>
<text xml:space="preserve" text-anchor="start" x="108" y="-188.38" font-family="Arial" font-size="12.00">time:DayOfWeek</text>
<polygon fill="none" stroke="black" points="106,-183.38 106,-201.62 200,-201.62 200,-183.38 106,-183.38"/>
</a>
</g>
</g>
<!-- RecurringEvent&#45;&gt;time_DayOfWeek -->
<g id="edge13" class="edge">
<title>RecurringEvent&#45;&gt;time_DayOfWeek</title>
<path fill="none" stroke="black" d="M335.22,-516.68C341.08,-489.14 348.19,-434.06 322,-399.5 307.54,-380.43 289.93,-396.46 271.25,-381.5 216.63,-337.78 180.04,-261.59 163.35,-220.93"/>
<polygon fill="black" stroke="black" points="166.69,-219.85 159.73,-211.86 160.19,-222.44 166.69,-219.85"/>
<text xml:space="preserve" text-anchor="middle" x="309.12" y="-359.8" font-family="Arial" font-size="11.00">hasDayOfWeek</text>
</g>
<!-- time_GeneralDateTimeDescription -->
<g id="node8" class="node">
<title>time_GeneralDateTimeDescription</title>
<g id="a_node8"><a xlink:href="https://w3id.org/citydata/imported/time/latest/GeneralDateTimeDescription" xlink:title="&lt;TABLE&gt;">
<polygon fill="lightgray" stroke="none" points="16.62,-98.88 16.62,-115.12 199.38,-115.12 199.38,-98.88 16.62,-98.88"/>
<text xml:space="preserve" text-anchor="start" x="17.62" y="-102.88" font-family="Arial" font-size="12.00">time:GeneralDateTimeDescription</text>
<polygon fill="none" stroke="black" points="15.62,-97.88 15.62,-116.12 200.38,-116.12 200.38,-97.88 15.62,-97.88"/>
</a>
</g>
</g>
<!-- RecurringEvent&#45;&gt;time_GeneralDateTimeDescription -->
<g id="edge16" class="edge">
<title>RecurringEvent&#45;&gt;time_GeneralDateTimeDescription</title>
<path fill="none" stroke="black" d="M350.6,-516.73C373.85,-495.4 411.29,-456.12 426,-413 434.98,-386.66 413.15,-372.24 399.5,-327.5 373.74,-243.08 396.89,-195.59 326,-143 307.51,-129.28 258.38,-120.73 211.43,-115.52"/>
<polygon fill="black" stroke="black" points="212.01,-112.06 201.7,-114.49 211.27,-119.02 212.01,-112.06"/>
<text xml:space="preserve" text-anchor="middle" x="455.75" y="-317.05" font-family="Arial" font-size="11.00">onDateTimeDescription</text>
</g>
<!-- time_TemporalEntity -->
<g id="node9" class="node">
<title>time_TemporalEntity</title>
<g id="a_node9"><a xlink:href="https://w3id.org/citydata/imported/time/latest/TemporalEntity" xlink:title="&lt;TABLE&gt;">
<polygon fill="lightgray" stroke="none" points="91.5,-25.88 91.5,-42.12 198.5,-42.12 198.5,-25.88 91.5,-25.88"/>
<text xml:space="preserve" text-anchor="start" x="92.5" y="-29.88" font-family="Arial" font-size="12.00">time:TemporalEntity</text>
<polygon fill="none" stroke="black" points="90.5,-24.88 90.5,-43.12 199.5,-43.12 199.5,-24.88 90.5,-24.88"/>
</a>
</g>
</g>
<!-- RecurringEvent&#45;&gt;time_TemporalEntity -->
<g id="edge10" class="edge">
<title>RecurringEvent&#45;&gt;time_TemporalEntity</title>
<path fill="none" stroke="black" d="M374.38,-527.36C443.02,-516.42 569,-490.78 569,-450 569,-450 569,-450 569,-106 569,-70.11 329.64,-48.07 210.61,-39.33"/>
<polygon fill="black" stroke="black" points="210.87,-35.84 200.64,-38.61 210.36,-42.82 210.87,-35.84"/>
<text xml:space="preserve" text-anchor="middle" x="620" y="-274.3" font-family="Arial" font-size="11.00">beginsRecurringTime</text>
</g>
<!-- RecurringEvent&#45;&gt;time_TemporalEntity -->
<g id="edge12" class="edge">
<title>RecurringEvent&#45;&gt;time_TemporalEntity</title>
<path fill="none" stroke="black" d="M374.5,-532.93C473.47,-530.45 707,-517.45 707,-450 707,-450 707,-450 707,-106 707,-56.46 358.82,-40.92 210.57,-36.55"/>
<polygon fill="black" stroke="black" points="211.01,-33.06 200.91,-36.27 210.81,-40.06 211.01,-33.06"/>
<text xml:space="preserve" text-anchor="middle" x="753.88" y="-274.3" font-family="Arial" font-size="11.00">endsRecurringTime</text>
</g>
<!-- n0ad0eb95ba0b4e29ae8e6824f635a381b20 -->
<g id="node10" class="node">
<title>n0ad0eb95ba0b4e29ae8e6824f635a381b20</title>
<polygon fill="lightyellow" stroke="none" points="314.25,-268.88 314.25,-287.12 373.75,-287.12 373.75,-268.88 314.25,-268.88"/>
<text xml:space="preserve" text-anchor="start" x="316.25" y="-273.88" font-family="Arial" font-size="12.00">«unionOf»</text>
<polygon fill="none" stroke="black" points="314.25,-268.88 314.25,-287.12 373.75,-287.12 373.75,-268.88 314.25,-268.88"/>
</g>
<!-- RecurringEvent&#45;&gt;n0ad0eb95ba0b4e29ae8e6824f635a381b20 -->
<g id="edge19" class="edge">
<title>RecurringEvent&#45;&gt;n0ad0eb95ba0b4e29ae8e6824f635a381b20</title>
<path fill="none" stroke="black" d="M339.09,-516.79C341.46,-511.12 343.74,-504.66 345,-498.5 358.84,-430.88 352.6,-349.07 347.76,-307"/>
<polygon fill="black" stroke="black" points="351.26,-306.76 346.57,-297.25 344.31,-307.6 351.26,-306.76"/>
<text xml:space="preserve" text-anchor="middle" x="387.94" y="-402.55" font-family="Arial" font-size="11.00">recursAddition</text>
</g>
<!-- n0ad0eb95ba0b4e29ae8e6824f635a381b24 -->
<g id="node11" class="node">
<title>n0ad0eb95ba0b4e29ae8e6824f635a381b24</title>
<polygon fill="lightyellow" stroke="none" points="460.25,-268.88 460.25,-287.12 519.75,-287.12 519.75,-268.88 460.25,-268.88"/>
<text xml:space="preserve" text-anchor="start" x="462.25" y="-273.88" font-family="Arial" font-size="12.00">«unionOf»</text>
<polygon fill="none" stroke="black" points="460.25,-268.88 460.25,-287.12 519.75,-287.12 519.75,-268.88 460.25,-268.88"/>
</g>
<!-- RecurringEvent&#45;&gt;n0ad0eb95ba0b4e29ae8e6824f635a381b24 -->
<g id="edge22" class="edge">
<title>RecurringEvent&#45;&gt;n0ad0eb95ba0b4e29ae8e6824f635a381b24</title>
<path fill="none" stroke="black" d="M374.31,-533.38C404.23,-530.95 442.83,-522.78 467,-498.5 499.02,-466.34 479.26,-443.06 492,-399.5 501.47,-367.13 510.6,-360.8 516,-327.5 516.96,-321.58 517.88,-319.7 516,-314 515.03,-311.07 513.71,-308.18 512.18,-305.4"/>
<polygon fill="black" stroke="black" points="515.18,-303.6 506.75,-297.17 509.33,-307.45 515.18,-303.6"/>
<text xml:space="preserve" text-anchor="middle" x="523.5" y="-402.55" font-family="Arial" font-size="11.00">recursExcept</text>
</g>
<!-- Invis&#45;&gt;Activity -->
<!-- Activity&#45;&gt;Location -->
<!-- Location&#45;&gt;State -->
<!-- State&#45;&gt;time_DayOfWeek -->
<!-- time_DayOfWeek&#45;&gt;time_GeneralDateTimeDescription -->
<!-- time_GeneralDateTimeDescription&#45;&gt;time_TemporalEntity -->
<!-- n0ad0eb95ba0b4e29ae8e6824f635a381b20&#45;&gt;time_DayOfWeek -->
<g id="edge17" class="edge">
<title>n0ad0eb95ba0b4e29ae8e6824f635a381b20&#45;&gt;time_DayOfWeek</title>
<path fill="none" stroke="black" stroke-dasharray="1,5" d="M320.02,-260.2C302.5,-248.13 280.1,-233.2 270,-228.5 251.44,-219.87 230.24,-212.77 211.02,-207.27"/>
<polygon fill="black" stroke="black" points="212.01,-203.91 201.44,-204.62 210.15,-210.66 212.01,-203.91"/>
<text xml:space="preserve" text-anchor="middle" x="311.79" y="-231.55" font-family="Arial" font-size="11.00">member</text>
</g>
<!-- n0ad0eb95ba0b4e29ae8e6824f635a381b20&#45;&gt;time_TemporalEntity -->
<g id="edge18" class="edge">
<title>n0ad0eb95ba0b4e29ae8e6824f635a381b20&#45;&gt;time_TemporalEntity</title>
<path fill="none" stroke="black" stroke-dasharray="1,5" d="M342.29,-260.12C340.8,-250.45 338.05,-238.33 333,-228.5 295.07,-154.72 268.41,-146.9 209,-89 198.43,-78.7 186.17,-68.07 175.23,-59"/>
<polygon fill="black" stroke="black" points="177.54,-56.36 167.58,-52.74 173.11,-61.78 177.54,-56.36"/>
<text xml:space="preserve" text-anchor="middle" x="302.38" y="-146.05" font-family="Arial" font-size="11.00">member</text>
</g>
<!-- n0ad0eb95ba0b4e29ae8e6824f635a381b24&#45;&gt;time_DayOfWeek -->
<g id="edge20" class="edge">
<title>n0ad0eb95ba0b4e29ae8e6824f635a381b24&#45;&gt;time_DayOfWeek</title>
<path fill="none" stroke="black" stroke-dasharray="1,5" d="M460.48,-266.58C429.7,-255.97 379.9,-239.57 336,-228.5 294.68,-218.08 247.42,-209.11 211.28,-202.87"/>
<polygon fill="black" stroke="black" points="211.9,-199.42 201.45,-201.19 210.72,-206.32 211.9,-199.42"/>
<text xml:space="preserve" text-anchor="middle" x="402.9" y="-231.55" font-family="Arial" font-size="11.00">member</text>
</g>
<!-- n0ad0eb95ba0b4e29ae8e6824f635a381b24&#45;&gt;time_TemporalEntity -->
<g id="edge21" class="edge">
<title>n0ad0eb95ba0b4e29ae8e6824f635a381b24&#45;&gt;time_TemporalEntity</title>
<path fill="none" stroke="black" stroke-dasharray="1,5" d="M484.89,-260.21C475.58,-232.22 453.27,-175.87 416,-143 357.03,-90.99 269.92,-62.35 210.49,-47.85"/>
<polygon fill="black" stroke="black" points="211.37,-44.46 200.83,-45.57 209.76,-51.28 211.37,-44.46"/>
<text xml:space="preserve" text-anchor="middle" x="449.29" y="-146.05" font-family="Arial" font-size="11.00">member</text>
</g>
</g>
</svg>
