<?xml version="1.0" encoding="UTF-8" standalone="no"?>
<!DOCTYPE svg PUBLIC "-//W3C//DTD SVG 1.1//EN"
 "http://www.w3.org/Graphics/SVG/1.1/DTD/svg11.dtd">
<!-- Generated by graphviz version 14.0.2 (20251019.1705)
 -->
<!-- Pages: 1 -->
<svg width="873pt" height="617pt"
 viewBox="0.00 0.00 873.00 617.00" xmlns="http://www.w3.org/2000/svg" xmlns:xlink="http://www.w3.org/1999/xlink">
<g id="graph0" class="graph" transform="scale(1 1) rotate(0) translate(4 613)">
<polygon fill="white" stroke="none" points="-4,4 -4,-613 869,-613 869,4 -4,4"/>
<g id="clust2" class="cluster">
<title>cluster_associated</title>
</g>
<!-- RecurringEvent -->
<g id="node1" class="node">
<title>RecurringEvent</title>
<g id="a_node1"><a xlink:href="../RecurringEvent" xlink:title="&lt;TABLE&gt;">
<polygon fill="lightgray" stroke="none" points="321.38,-566.88 321.38,-583.12 406.62,-583.12 406.62,-566.88 321.38,-566.88"/>
<text xml:space="preserve" text-anchor="start" x="322.38" y="-570.73" font-family="Arial" font-size="12.00">RecurringEvent</text>
<polygon fill="none" stroke="black" points="320.38,-565.88 320.38,-584.12 407.62,-584.12 407.62,-565.88 320.38,-565.88"/>
</a>
</g>
</g>
<!-- RecurringEvent&#45;&gt;RecurringEvent -->
<g id="edge15" class="edge">
<title>RecurringEvent&#45;&gt;RecurringEvent</title>
<path fill="none" stroke="black" d="M407.48,-584.12C417.9,-583.4 425.62,-580.37 425.62,-575 425.62,-571.81 422.9,-569.45 418.51,-567.9"/>
<polygon fill="black" stroke="black" points="419.43,-564.51 408.97,-566.16 418.17,-571.4 419.43,-564.51"/>
<text xml:space="preserve" text-anchor="middle" x="484.5" y="-578.05" font-family="Arial" font-size="11.00"> hasSubRecurringEvent </text>
<text xml:space="preserve" text-anchor="middle" x="484.5" y="-564.55" font-family="Arial" font-size="11.00"> «only» &#160;</text>
</g>
<!-- Invis -->
<!-- RecurringEvent&#45;&gt;Invis -->
<!-- Activity -->
<g id="node3" class="node">
<title>Activity</title>
<g id="a_node3"><a xlink:href="../Activity" xlink:title="&lt;TABLE&gt;">
<polygon fill="lightgray" stroke="none" points="22.88,-467.88 22.88,-484.12 63.12,-484.12 63.12,-467.88 22.88,-467.88"/>
<text xml:space="preserve" text-anchor="start" x="23.88" y="-471.73" font-family="Arial" font-size="12.00">Activity</text>
<polygon fill="none" stroke="black" points="21.88,-466.88 21.88,-485.12 64.12,-485.12 64.12,-466.88 21.88,-466.88"/>
</a>
</g>
</g>
<!-- RecurringEvent&#45;&gt;Activity -->
<g id="edge14" class="edge">
<title>RecurringEvent&#45;&gt;Activity</title>
<path fill="none" stroke="black" d="M320.44,-569.08C290.05,-565.65 248.56,-561.01 212,-557 174.73,-552.92 69.59,-566.64 44.25,-539 36.06,-530.07 34.83,-517.02 36.02,-505.19"/>
<polygon fill="black" stroke="black" points="39.45,-505.89 37.61,-495.46 32.55,-504.76 39.45,-505.89"/>
<text xml:space="preserve" text-anchor="middle" x="83.62" y="-528.55" font-family="Arial" font-size="11.00"> hasOccurrence </text>
<text xml:space="preserve" text-anchor="middle" x="83.62" y="-515.05" font-family="Arial" font-size="11.00"> «only» &#160;</text>
</g>
<!-- Location -->
<g id="node4" class="node">
<title>Location</title>
<g id="a_node4"><a xlink:href="../Location" xlink:title="&lt;TABLE&gt;">
<polygon fill="lightgray" stroke="none" points="19.12,-368.88 19.12,-385.12 66.88,-385.12 66.88,-368.88 19.12,-368.88"/>
<text xml:space="preserve" text-anchor="start" x="20.12" y="-372.73" font-family="Arial" font-size="12.00">Location</text>
<polygon fill="none" stroke="black" points="18.12,-367.88 18.12,-386.12 67.88,-386.12 67.88,-367.88 18.12,-367.88"/>
</a>
</g>
</g>
<!-- RecurringEvent&#45;&gt;Location -->
<g id="edge23" class="edge">
<title>RecurringEvent&#45;&gt;Location</title>
<path fill="none" stroke="black" d="M320.5,-569.03C268.11,-561.11 179.78,-541.35 120.5,-494 90.53,-470.06 67.98,-431.34 55.14,-405.3"/>
<polygon fill="black" stroke="black" points="58.34,-403.89 50.89,-396.36 52.02,-406.89 58.34,-403.89"/>
<text xml:space="preserve" text-anchor="middle" x="169.25" y="-479.05" font-family="Arial" font-size="11.00"> associatedLocation </text>
<text xml:space="preserve" text-anchor="middle" x="169.25" y="-465.55" font-family="Arial" font-size="11.00"> «only» &#160;</text>
</g>
<!-- State -->
<g id="node5" class="node">
<title>State</title>
<g id="a_node5"><a xlink:href="../State" xlink:title="&lt;TABLE&gt;">
<polygon fill="lightgray" stroke="none" points="97.12,-269.88 97.12,-286.12 126.88,-286.12 126.88,-269.88 97.12,-269.88"/>
<text xml:space="preserve" text-anchor="start" x="98.12" y="-273.73" font-family="Arial" font-size="12.00">State</text>
<polygon fill="none" stroke="black" points="96.12,-268.88 96.12,-287.12 127.88,-287.12 127.88,-268.88 96.12,-268.88"/>
</a>
</g>
</g>
<!-- RecurringEvent&#45;&gt;State -->
<g id="edge9" class="edge">
<title>RecurringEvent&#45;&gt;State</title>
<path fill="none" stroke="black" d="M320.5,-568.23C298.99,-563.46 273.89,-554.78 256,-539 226.18,-512.7 249.87,-481.78 218,-458 175.04,-425.95 133.71,-480.63 98.75,-440 66.89,-402.98 84.51,-341.82 99.03,-306.49"/>
<polygon fill="black" stroke="black" points="102.22,-307.95 102.97,-297.39 95.79,-305.18 102.22,-307.95"/>
<text xml:space="preserve" text-anchor="middle" x="153.88" y="-429.55" font-family="Arial" font-size="11.00"> beginsRecurringState </text>
<text xml:space="preserve" text-anchor="middle" x="153.88" y="-416.05" font-family="Arial" font-size="11.00"> «only» &#160;</text>
</g>
<!-- RecurringEvent&#45;&gt;State -->
<g id="edge11" class="edge">
<title>RecurringEvent&#45;&gt;State</title>
<path fill="none" stroke="black" d="M346.13,-557.38C319.99,-532.73 270.28,-484.61 232,-440 192.91,-394.45 152.12,-337.34 129.59,-304.82"/>
<polygon fill="black" stroke="black" points="132.63,-303.06 124.07,-296.81 126.86,-307.03 132.63,-303.06"/>
<text xml:space="preserve" text-anchor="middle" x="283" y="-429.55" font-family="Arial" font-size="11.00"> endsRecurringState </text>
<text xml:space="preserve" text-anchor="middle" x="283" y="-416.05" font-family="Arial" font-size="11.00"> «only» &#160;</text>
</g>
<!-- time_DayOfWeek -->
<g id="node6" class="node">
<title>time_DayOfWeek</title>
<g id="a_node6"><a xlink:href="https://w3id.org/citydata/imported/time/latest/DayOfWeek" xlink:title="&lt;TABLE&gt;">
<polygon fill="lightgray" stroke="none" points="107,-184.38 107,-200.62 199,-200.62 199,-184.38 107,-184.38"/>
<text xml:space="preserve" text-anchor="start" x="108" y="-188.22" font-family="Arial" font-size="12.00">time:DayOfWeek</text>
<polygon fill="none" stroke="black" points="106,-183.38 106,-201.62 200,-201.62 200,-183.38 106,-183.38"/>
</a>
</g>
</g>
<!-- RecurringEvent&#45;&gt;time_DayOfWeek -->
<g id="edge13" class="edge">
<title>RecurringEvent&#45;&gt;time_DayOfWeek</title>
<path fill="none" stroke="black" d="M361.34,-557.14C354.95,-516.94 338.85,-418.36 334,-413 314.82,-391.81 294.83,-412.53 272.25,-395 213,-349.01 177.21,-264.64 161.84,-221.11"/>
<polygon fill="black" stroke="black" points="165.24,-220.23 158.7,-211.9 158.62,-222.5 165.24,-220.23"/>
<text xml:space="preserve" text-anchor="middle" x="313.12" y="-380.05" font-family="Arial" font-size="11.00"> hasDayOfWeek </text>
<text xml:space="preserve" text-anchor="middle" x="313.12" y="-366.55" font-family="Arial" font-size="11.00"> «only» &#160;</text>
</g>
<!-- time_GeneralDateTimeDescription -->
<g id="node7" class="node">
<title>time_GeneralDateTimeDescription</title>
<g id="a_node7"><a xlink:href="https://w3id.org/citydata/imported/time/latest/GeneralDateTimeDescription" xlink:title="&lt;TABLE&gt;">
<polygon fill="lightgray" stroke="none" points="16.62,-98.88 16.62,-115.12 199.38,-115.12 199.38,-98.88 16.62,-98.88"/>
<text xml:space="preserve" text-anchor="start" x="17.62" y="-102.72" font-family="Arial" font-size="12.00">time:GeneralDateTimeDescription</text>
<polygon fill="none" stroke="black" points="15.62,-97.88 15.62,-116.12 200.38,-116.12 200.38,-97.88 15.62,-97.88"/>
</a>
</g>
</g>
<!-- RecurringEvent&#45;&gt;time_GeneralDateTimeDescription -->
<g id="edge16" class="edge">
<title>RecurringEvent&#45;&gt;time_GeneralDateTimeDescription</title>
<path fill="none" stroke="black" d="M377.31,-557.05C395.44,-532.77 427.02,-485.92 439,-440 450.52,-395.81 424.25,-384.85 411.5,-341 385.21,-250.56 412.21,-198.34 336,-143 315.93,-128.43 261.89,-119.76 211.46,-114.7"/>
<polygon fill="black" stroke="black" points="211.89,-111.22 201.61,-113.76 211.23,-118.19 211.89,-111.22"/>
<text xml:space="preserve" text-anchor="middle" x="470.75" y="-330.55" font-family="Arial" font-size="11.00"> onDateTimeDescription </text>
<text xml:space="preserve" text-anchor="middle" x="470.75" y="-317.05" font-family="Arial" font-size="11.00"> «only» &#160;</text>
</g>
<!-- time_TemporalEntity -->
<g id="node8" class="node">
<title>time_TemporalEntity</title>
<g id="a_node8"><a xlink:href="https://w3id.org/citydata/imported/time/latest/TemporalEntity" xlink:title="&lt;TABLE&gt;">
<polygon fill="lightgray" stroke="none" points="91.5,-25.88 91.5,-42.12 198.5,-42.12 198.5,-25.88 91.5,-25.88"/>
<text xml:space="preserve" text-anchor="start" x="92.5" y="-29.73" font-family="Arial" font-size="12.00">time:TemporalEntity</text>
<polygon fill="none" stroke="black" points="90.5,-24.88 90.5,-43.12 199.5,-43.12 199.5,-24.88 90.5,-24.88"/>
</a>
</g>
</g>
<!-- RecurringEvent&#45;&gt;time_TemporalEntity -->
<g id="edge10" class="edge">
<title>RecurringEvent&#45;&gt;time_TemporalEntity</title>
<path fill="none" stroke="black" d="M407.51,-571.36C437.87,-567.72 478.14,-559.15 508,-539 552.89,-508.72 562.43,-491.55 579,-440 582.67,-428.58 579.14,-425 579,-413 578.11,-334.43 575,-314.83 575,-236.25 575,-236.25 575,-236.25 575,-106 575,-69.53 331.15,-47.73 210.72,-39.18"/>
<polygon fill="black" stroke="black" points="211.19,-35.7 200.97,-38.5 210.7,-42.69 211.19,-35.7"/>
<text xml:space="preserve" text-anchor="middle" x="629.72" y="-281.05" font-family="Arial" font-size="11.00"> beginsRecurringTime </text>
<text xml:space="preserve" text-anchor="middle" x="629.72" y="-267.55" font-family="Arial" font-size="11.00"> «only» &#160;</text>
</g>
<!-- RecurringEvent&#45;&gt;time_TemporalEntity -->
<g id="edge12" class="edge">
<title>RecurringEvent&#45;&gt;time_TemporalEntity</title>
<path fill="none" stroke="black" d="M407.53,-571.28C502.33,-564.16 719,-540.89 719,-477 719,-477 719,-477 719,-106 719,-55.26 361.23,-40.39 210.6,-36.37"/>
<polygon fill="black" stroke="black" points="210.86,-32.87 200.77,-36.12 210.68,-39.87 210.86,-32.87"/>
<text xml:space="preserve" text-anchor="middle" x="768.88" y="-281.05" font-family="Arial" font-size="11.00"> endsRecurringTime </text>
<text xml:space="preserve" text-anchor="middle" x="768.88" y="-267.55" font-family="Arial" font-size="11.00"> «only» &#160;</text>
</g>
<!-- RecurringEventThing -->
<g id="node9" class="node">
<title>RecurringEventThing</title>
<g id="a_node9"><a xlink:href="../RecurringEventThing" xlink:title="&lt;TABLE&gt;">
<polygon fill="lightgray" stroke="none" points="748,-467.88 748,-484.12 864,-484.12 864,-467.88 748,-467.88"/>
<text xml:space="preserve" text-anchor="start" x="749" y="-471.73" font-family="Arial" font-size="12.00">RecurringEventThing</text>
<polygon fill="none" stroke="black" points="747,-466.88 747,-485.12 865,-485.12 865,-466.88 747,-466.88"/>
</a>
</g>
</g>
<!-- RecurringEvent&#45;&gt;RecurringEventThing -->
<g id="edge1" class="edge">
<title>RecurringEvent&#45;&gt;RecurringEventThing</title>
<path fill="none" stroke="black" d="M407.35,-573.13C491.82,-570.91 675.27,-563.36 733,-539 752.54,-530.76 770.73,-515.34 784.06,-501.94"/>
<polygon fill="none" stroke="black" points="786.28,-504.68 790.66,-495.04 781.22,-499.85 786.28,-504.68"/>
</g>
<!-- N1c8ac2d31e084478ab295b0be4131bc1 -->
<g id="node10" class="node">
<title>N1c8ac2d31e084478ab295b0be4131bc1</title>
<polygon fill="lightyellow" stroke="none" points="326.25,-268.88 326.25,-287.12 385.75,-287.12 385.75,-268.88 326.25,-268.88"/>
<text xml:space="preserve" text-anchor="start" x="328.25" y="-273.73" font-family="Arial" font-size="12.00">«unionOf»</text>
<polygon fill="none" stroke="black" points="326.25,-268.88 326.25,-287.12 385.75,-287.12 385.75,-268.88 326.25,-268.88"/>
</g>
<!-- RecurringEvent&#45;&gt;N1c8ac2d31e084478ab295b0be4131bc1 -->
<g id="edge19" class="edge">
<title>RecurringEvent&#45;&gt;N1c8ac2d31e084478ab295b0be4131bc1</title>
<path fill="none" stroke="black" d="M363.55,-557.29C362.23,-508.83 358.41,-367.81 356.77,-307.21"/>
<polygon fill="black" stroke="black" points="360.27,-307.3 356.5,-297.4 353.27,-307.49 360.27,-307.3"/>
<text xml:space="preserve" text-anchor="middle" x="397.78" y="-429.55" font-family="Arial" font-size="11.00"> recursAddition </text>
<text xml:space="preserve" text-anchor="middle" x="397.78" y="-416.05" font-family="Arial" font-size="11.00"> «only» &#160;</text>
</g>
<!-- Nd968794748834b8aa4ee5bc4980112bb -->
<g id="node11" class="node">
<title>Nd968794748834b8aa4ee5bc4980112bb</title>
<polygon fill="lightyellow" stroke="none" points="472.25,-268.88 472.25,-287.12 531.75,-287.12 531.75,-268.88 472.25,-268.88"/>
<text xml:space="preserve" text-anchor="start" x="474.25" y="-273.73" font-family="Arial" font-size="12.00">«unionOf»</text>
<polygon fill="none" stroke="black" points="472.25,-268.88 472.25,-287.12 531.75,-287.12 531.75,-268.88 472.25,-268.88"/>
</g>
<!-- RecurringEvent&#45;&gt;Nd968794748834b8aa4ee5bc4980112bb -->
<g id="edge22" class="edge">
<title>RecurringEvent&#45;&gt;Nd968794748834b8aa4ee5bc4980112bb</title>
<path fill="none" stroke="black" d="M407.34,-572.36C433.44,-569.04 465.33,-560.43 485,-539 523.6,-496.94 495.39,-468.19 510,-413 518.63,-380.39 528.6,-374.3 534,-341 535.92,-329.15 538.34,-325.19 534,-314 532.73,-310.73 531,-307.58 528.99,-304.59"/>
<polygon fill="black" stroke="black" points="531.8,-302.51 522.81,-296.89 526.34,-306.88 531.8,-302.51"/>
<text xml:space="preserve" text-anchor="middle" x="544.5" y="-429.55" font-family="Arial" font-size="11.00"> recursExcept </text>
<text xml:space="preserve" text-anchor="middle" x="544.5" y="-416.05" font-family="Arial" font-size="11.00"> «only» &#160;</text>
</g>
<!-- Invis&#45;&gt;Activity -->
<!-- Activity&#45;&gt;Location -->
<!-- Location&#45;&gt;State -->
<!-- State&#45;&gt;time_DayOfWeek -->
<!-- time_DayOfWeek&#45;&gt;time_GeneralDateTimeDescription -->
<!-- time_GeneralDateTimeDescription&#45;&gt;time_TemporalEntity -->
<!-- N1c8ac2d31e084478ab295b0be4131bc1&#45;&gt;time_DayOfWeek -->
<g id="edge17" class="edge">
<title>N1c8ac2d31e084478ab295b0be4131bc1&#45;&gt;time_DayOfWeek</title>
<path fill="none" stroke="black" stroke-dasharray="1,5" d="M332.06,-260.13C314.55,-248.02 292.16,-233.07 282,-228.5 259.64,-218.45 233.76,-210.73 211.08,-205.13"/>
<polygon fill="black" stroke="black" points="211.9,-201.73 201.37,-202.83 210.29,-208.54 211.9,-201.73"/>
<text xml:space="preserve" text-anchor="middle" x="323.84" y="-231.55" font-family="Arial" font-size="11.00">member</text>
</g>
<!-- N1c8ac2d31e084478ab295b0be4131bc1&#45;&gt;time_TemporalEntity -->
<g id="edge18" class="edge">
<title>N1c8ac2d31e084478ab295b0be4131bc1&#45;&gt;time_TemporalEntity</title>
<path fill="none" stroke="black" stroke-dasharray="1,5" d="M354.46,-260.03C353.03,-250.33 350.28,-238.21 345,-228.5 304.51,-154 225.53,-90.7 179.87,-58.26"/>
<polygon fill="black" stroke="black" points="182.1,-55.55 171.9,-52.68 178.08,-61.28 182.1,-55.55"/>
<text xml:space="preserve" text-anchor="middle" x="311.68" y="-146.05" font-family="Arial" font-size="11.00">member</text>
</g>
<!-- Nd968794748834b8aa4ee5bc4980112bb&#45;&gt;time_DayOfWeek -->
<g id="edge20" class="edge">
<title>Nd968794748834b8aa4ee5bc4980112bb&#45;&gt;time_DayOfWeek</title>
<path fill="none" stroke="black" stroke-dasharray="1,5" d="M472.51,-266.48C441.74,-255.79 391.96,-239.32 348,-228.5 302.4,-217.28 249.98,-208.07 210.98,-201.92"/>
<polygon fill="black" stroke="black" points="211.76,-198.5 201.34,-200.42 210.68,-205.42 211.76,-198.5"/>
<text xml:space="preserve" text-anchor="middle" x="414.94" y="-231.55" font-family="Arial" font-size="11.00">member</text>
</g>
<!-- Nd968794748834b8aa4ee5bc4980112bb&#45;&gt;time_TemporalEntity -->
<g id="edge21" class="edge">
<title>Nd968794748834b8aa4ee5bc4980112bb&#45;&gt;time_TemporalEntity</title>
<path fill="none" stroke="black" stroke-dasharray="1,5" d="M496.95,-260.15C487.71,-232.07 465.51,-175.6 428,-143 365.41,-88.61 272.55,-60.25 210.46,-46.49"/>
<polygon fill="black" stroke="black" points="211.23,-43.07 200.72,-44.4 209.77,-49.92 211.23,-43.07"/>
<text xml:space="preserve" text-anchor="middle" x="461.37" y="-146.05" font-family="Arial" font-size="11.00">member</text>
</g>
</g>
</svg>
