<?xml version="1.0" encoding="UTF-8" standalone="no"?>
<!DOCTYPE svg PUBLIC "-//W3C//DTD SVG 1.1//EN"
 "http://www.w3.org/Graphics/SVG/1.1/DTD/svg11.dtd">
<!-- Generated by graphviz version 14.0.2 (20251019.1705)
 -->
<!-- Pages: 1 -->
<svg width="294pt" height="132pt"
 viewBox="0.00 0.00 294.00 132.00" xmlns="http://www.w3.org/2000/svg" xmlns:xlink="http://www.w3.org/1999/xlink">
<g id="graph0" class="graph" transform="scale(1 1) rotate(0) translate(4 128)">
<polygon fill="white" stroke="none" points="-4,4 -4,-128 289.75,-128 289.75,4 -4,4"/>
<g id="clust2" class="cluster">
<title>cluster_associated</title>
</g>
<!-- DailyRecurringEvent -->
<g id="node1" class="node">
<title>DailyRecurringEvent</title>
<g id="a_node1"><a xlink:href="../classes/RecurringEvent__DailyRecurringEvent.md" xlink:title="&lt;TABLE&gt;">
<polygon fill="lightgray" stroke="none" points="1,-34 1,-50.25 196.5,-50.25 196.5,-34 1,-34"/>
<text xml:space="preserve" text-anchor="start" x="43.25" y="-37.85" font-family="Arial" font-size="12.00">DailyRecurringEvent</text>
<text xml:space="preserve" text-anchor="start" x="2" y="-21.6" font-family="Arial" font-size="12.00">startTime: xsd::time «max 1, refined»</text>
<polygon fill="none" stroke="black" points="0,-16.75 0,-51.25 197.5,-51.25 197.5,-16.75 0,-16.75"/>
</a>
</g>
</g>
<!-- RecurringEvent -->
<g id="node2" class="node">
<title>RecurringEvent</title>
<g id="a_node2"><a xlink:href="../_counters/RecurringEvent__RecurringEvent.md" xlink:title="&lt;TABLE&gt;">
<polygon fill="lightgray" stroke="none" points="56.12,-97.88 56.12,-114.12 141.38,-114.12 141.38,-97.88 56.12,-97.88"/>
<text xml:space="preserve" text-anchor="start" x="57.12" y="-101.72" font-family="Arial" font-size="12.00">RecurringEvent</text>
<polygon fill="none" stroke="black" points="55.12,-96.88 55.12,-115.12 142.38,-115.12 142.38,-96.88 55.12,-96.88"/>
</a>
</g>
</g>
<!-- DailyRecurringEvent&#45;&gt;RecurringEvent -->
<g id="edge1" class="edge">
<title>DailyRecurringEvent&#45;&gt;RecurringEvent</title>
<path fill="none" stroke="black" d="M98.75,-51.79C98.75,-59.25 98.75,-68.24 98.75,-76.69"/>
<polygon fill="none" stroke="black" points="95.25,-76.54 98.75,-86.54 102.25,-76.54 95.25,-76.54"/>
</g>
<!-- Invis -->
</g>
</svg>
