<?xml version="1.0" encoding="UTF-8" standalone="no"?>
<!DOCTYPE svg PUBLIC "-//W3C//DTD SVG 1.1//EN"
 "http://www.w3.org/Graphics/SVG/1.1/DTD/svg11.dtd">
<!-- Generated by graphviz version 14.0.2 (20251019.1705)
 -->
<!-- Pages: 1 -->
<svg width="611pt" height="477pt"
 viewBox="0.00 0.00 611.00 477.00" xmlns="http://www.w3.org/2000/svg" xmlns:xlink="http://www.w3.org/1999/xlink">
<g id="graph0" class="graph" transform="scale(1 1) rotate(0) translate(4 473)">
<polygon fill="white" stroke="none" points="-4,4 -4,-473 606.75,-473 606.75,4 -4,4"/>
<g id="clust2" class="cluster">
<title>cluster_associated</title>
</g>
<!-- Resource -->
<g id="node1" class="node">
<title>Resource</title>
<g id="a_node1"><a xlink:href="../Resource.md" xlink:title="&lt;TABLE&gt;">
<polygon fill="lightgray" stroke="none" points="189.12,-369.88 189.12,-386.12 242.88,-386.12 242.88,-369.88 189.12,-369.88"/>
<text xml:space="preserve" text-anchor="start" x="190.12" y="-373.73" font-family="Arial" font-size="12.00">Resource</text>
<polygon fill="none" stroke="black" points="188.12,-368.88 188.12,-387.12 243.88,-387.12 243.88,-368.88 188.12,-368.88"/>
</a>
</g>
</g>
<!-- Invis -->
<!-- Resource&#45;&gt;Invis -->
<!-- Activity -->
<g id="node3" class="node">
<title>Activity</title>
<g id="a_node3"><a xlink:href="../Activity.md" xlink:title="&lt;TABLE&gt;">
<polygon fill="lightgray" stroke="none" points="22.88,-270.88 22.88,-287.12 63.12,-287.12 63.12,-270.88 22.88,-270.88"/>
<text xml:space="preserve" text-anchor="start" x="23.88" y="-274.73" font-family="Arial" font-size="12.00">Activity</text>
<polygon fill="none" stroke="black" points="21.88,-269.88 21.88,-288.12 64.12,-288.12 64.12,-269.88 21.88,-269.88"/>
</a>
</g>
</g>
<!-- Resource&#45;&gt;Activity -->
<g id="edge9" class="edge">
<title>Resource&#45;&gt;Activity</title>
<path fill="none" stroke="black" d="M188.14,-371.44C139.65,-361.74 44.83,-342.7 44.25,-342 36.55,-332.76 35.33,-319.77 36.41,-308.07"/>
<polygon fill="black" stroke="black" points="39.82,-308.89 37.86,-298.48 32.9,-307.84 39.82,-308.89"/>
<text xml:space="preserve" text-anchor="middle" x="79.12" y="-331.55" font-family="Arial" font-size="11.00"> participatesIn </text>
<text xml:space="preserve" text-anchor="middle" x="79.12" y="-318.05" font-family="Arial" font-size="11.00"> «min 1» &#160;</text>
</g>
<!-- i72_Quantity -->
<g id="node4" class="node">
<title>i72_Quantity</title>
<polygon fill="lightgray" stroke="none" points="51.12,-171.88 51.12,-188.12 116.88,-188.12 116.88,-171.88 51.12,-171.88"/>
<text xml:space="preserve" text-anchor="start" x="52.12" y="-175.72" font-family="Arial" font-size="12.00">i72:Quantity</text>
<polygon fill="none" stroke="black" points="50.12,-170.88 50.12,-189.12 117.88,-189.12 117.88,-170.88 50.12,-170.88"/>
</g>
<!-- Resource&#45;&gt;i72_Quantity -->
<g id="edge10" class="edge">
<title>Resource&#45;&gt;i72_Quantity</title>
<path fill="none" stroke="black" d="M188.41,-360.22C167.03,-345.89 138.17,-323.43 120.5,-297 102.45,-270 92.92,-233.56 88.18,-208.78"/>
<polygon fill="black" stroke="black" points="91.66,-208.38 86.48,-199.13 84.77,-209.59 91.66,-208.38"/>
<text xml:space="preserve" text-anchor="middle" x="157.25" y="-282.05" font-family="Arial" font-size="11.00"> capacityInUse </text>
<text xml:space="preserve" text-anchor="middle" x="157.25" y="-268.55" font-family="Arial" font-size="11.00"> «exactly 1» &#160;</text>
</g>
<!-- Resource&#45;&gt;i72_Quantity -->
<g id="edge11" class="edge">
<title>Resource&#45;&gt;i72_Quantity</title>
<path fill="none" stroke="black" d="M216.56,-360.24C216.57,-336.36 213.64,-291.99 194,-261 178.04,-235.8 151.05,-216 127.8,-202.39"/>
<polygon fill="black" stroke="black" points="129.53,-199.35 119.09,-197.51 126.1,-205.45 129.53,-199.35"/>
<text xml:space="preserve" text-anchor="middle" x="263.43" y="-282.05" font-family="Arial" font-size="11.00"> hasAvailableCapacity </text>
<text xml:space="preserve" text-anchor="middle" x="263.43" y="-268.55" font-family="Arial" font-size="11.00"> «exactly 1» &#160;</text>
</g>
<!-- Resource&#45;&gt;i72_Quantity -->
<g id="edge12" class="edge">
<title>Resource&#45;&gt;i72_Quantity</title>
<path fill="none" stroke="black" d="M243.72,-364.14C284.09,-343.62 351.22,-301.65 322,-261 277.94,-199.7 184.57,-184.73 128.77,-181.45"/>
<polygon fill="black" stroke="black" points="129.14,-177.97 118.98,-180.99 128.81,-184.96 129.14,-177.97"/>
<text xml:space="preserve" text-anchor="middle" x="361.78" y="-282.05" font-family="Arial" font-size="11.00"> hasCapacity </text>
<text xml:space="preserve" text-anchor="middle" x="361.78" y="-268.55" font-family="Arial" font-size="11.00"> «exactly 1» &#160;</text>
</g>
<!-- Location -->
<g id="node5" class="node">
<title>Location</title>
<g id="a_node5"><a xlink:href="../Location.md" xlink:title="&lt;TABLE&gt;">
<polygon fill="lightgray" stroke="none" points="60.12,-98.88 60.12,-115.12 107.88,-115.12 107.88,-98.88 60.12,-98.88"/>
<text xml:space="preserve" text-anchor="start" x="61.12" y="-102.72" font-family="Arial" font-size="12.00">Location</text>
<polygon fill="none" stroke="black" points="59.12,-97.88 59.12,-116.12 108.88,-116.12 108.88,-97.88 59.12,-97.88"/>
</a>
</g>
</g>
<!-- Resource&#45;&gt;Location -->
<g id="edge7" class="edge">
<title>Resource&#45;&gt;Location</title>
<path fill="none" stroke="black" d="M243.57,-371.99C303.63,-359.78 437.82,-324.7 398,-261 336.47,-162.57 191.39,-125.79 122.11,-113.5"/>
<polygon fill="black" stroke="black" points="122.82,-110.07 112.37,-111.86 121.65,-116.98 122.82,-110.07"/>
<text xml:space="preserve" text-anchor="middle" x="415.34" y="-232.55" font-family="Arial" font-size="11.00"> hasLocation </text>
<text xml:space="preserve" text-anchor="middle" x="415.34" y="-219.05" font-family="Arial" font-size="11.00"> «only» &#160;</text>
</g>
<!-- PlannedAllocation -->
<g id="node6" class="node">
<title>PlannedAllocation</title>
<g id="a_node6"><a xlink:href="../PlannedAllocation.md" xlink:title="&lt;TABLE&gt;">
<polygon fill="lightgray" stroke="none" points="16.88,-25.88 16.88,-42.12 117.12,-42.12 117.12,-25.88 16.88,-25.88"/>
<text xml:space="preserve" text-anchor="start" x="17.88" y="-29.73" font-family="Arial" font-size="12.00">PlannedAllocation</text>
<polygon fill="none" stroke="black" points="15.88,-24.88 15.88,-43.12 118.12,-43.12 118.12,-24.88 15.88,-24.88"/>
</a>
</g>
</g>
<!-- Resource&#45;&gt;PlannedAllocation -->
<g id="edge8" class="edge">
<title>Resource&#45;&gt;PlannedAllocation</title>
<path fill="none" stroke="black" d="M243.85,-374.5C321.21,-366.8 533,-340.22 533,-280 533,-280 533,-280 533,-106 533,-65.63 256.09,-45.31 129.19,-38.12"/>
<polygon fill="black" stroke="black" points="129.45,-34.62 119.27,-37.56 129.06,-41.61 129.45,-34.62"/>
<text xml:space="preserve" text-anchor="middle" x="567.88" y="-183.05" font-family="Arial" font-size="11.00"> hasAllocation </text>
<text xml:space="preserve" text-anchor="middle" x="567.88" y="-169.55" font-family="Arial" font-size="11.00"> «only» &#160;</text>
</g>
<!-- ResourceThing -->
<g id="node7" class="node">
<title>ResourceThing</title>
<g id="a_node7"><a xlink:href="../ResourceThing.md" xlink:title="&lt;TABLE&gt;">
<polygon fill="lightgray" stroke="none" points="173.75,-442.88 173.75,-459.12 258.25,-459.12 258.25,-442.88 173.75,-442.88"/>
<text xml:space="preserve" text-anchor="start" x="174.75" y="-446.73" font-family="Arial" font-size="12.00">ResourceThing</text>
<polygon fill="none" stroke="black" points="172.75,-441.88 172.75,-460.12 259.25,-460.12 259.25,-441.88 172.75,-441.88"/>
</a>
</g>
</g>
<!-- Resource&#45;&gt;ResourceThing -->
<g id="edge1" class="edge">
<title>Resource&#45;&gt;ResourceThing</title>
<path fill="none" stroke="black" d="M216,-395.71C216,-403.47 216,-412.92 216,-421.74"/>
<polygon fill="none" stroke="black" points="212.5,-421.66 216,-431.66 219.5,-421.66 212.5,-421.66"/>
</g>
<!-- Invis&#45;&gt;Activity -->
<!-- Activity&#45;&gt;i72_Quantity -->
<!-- i72_Quantity&#45;&gt;Location -->
<!-- Location&#45;&gt;PlannedAllocation -->
</g>
</svg>
