<?xml version="1.0" encoding="UTF-8" standalone="no"?>
<!DOCTYPE svg PUBLIC "-//W3C//DTD SVG 1.1//EN"
 "http://www.w3.org/Graphics/SVG/1.1/DTD/svg11.dtd">
<!-- Generated by graphviz version 14.0.2 (20251019.1705)
 -->
<!-- Pages: 1 -->
<svg width="358pt" height="404pt"
 viewBox="0.00 0.00 358.00 404.00" xmlns="http://www.w3.org/2000/svg" xmlns:xlink="http://www.w3.org/1999/xlink">
<g id="graph0" class="graph" transform="scale(1 1) rotate(0) translate(4 400)">
<polygon fill="white" stroke="none" points="-4,4 -4,-400 354.25,-400 354.25,4 -4,4"/>
<g id="clust2" class="cluster">
<title>cluster_associated</title>
</g>
<!-- PlannedAllocation -->
<g id="node1" class="node">
<title>PlannedAllocation</title>
<g id="a_node1"><a xlink:href="../classes/Resource__PlannedAllocation.md" xlink:title="&lt;TABLE&gt;">
<polygon fill="lightgray" stroke="none" points="106.62,-305 106.62,-321.25 313.38,-321.25 313.38,-305 106.62,-305"/>
<text xml:space="preserve" text-anchor="start" x="160.88" y="-308.85" font-family="Arial" font-size="12.00">PlannedAllocation</text>
<text xml:space="preserve" text-anchor="start" x="107.62" y="-292.6" font-family="Arial" font-size="12.00">otime::hasTime: xsd::string «exactly 1»</text>
<polygon fill="none" stroke="black" points="105.62,-287.75 105.62,-322.25 314.38,-322.25 314.38,-287.75 105.62,-287.75"/>
</a>
</g>
</g>
<!-- change__Manifestation -->
<g id="node2" class="node">
<title>change__Manifestation</title>
<polygon fill="lightgray" stroke="none" points="77.5,-369.88 77.5,-386.12 196.5,-386.12 196.5,-369.88 77.5,-369.88"/>
<text xml:space="preserve" text-anchor="start" x="78.5" y="-373.73" font-family="Arial" font-size="12.00">change::Manifestation</text>
<polygon fill="none" stroke="black" points="76.5,-368.88 76.5,-387.12 197.5,-387.12 197.5,-368.88 76.5,-368.88"/>
</g>
<!-- PlannedAllocation&#45;&gt;change__Manifestation -->
<g id="edge1" class="edge">
<title>PlannedAllocation&#45;&gt;change__Manifestation</title>
<path fill="none" stroke="black" d="M192.57,-322.95C183.53,-331.75 172.31,-342.66 162.32,-352.37"/>
<polygon fill="none" stroke="black" points="160.11,-349.64 155.38,-359.12 164.99,-354.66 160.11,-349.64"/>
</g>
<!-- ResourceOntologyThing -->
<g id="node3" class="node">
<title>ResourceOntologyThing</title>
<g id="a_node3"><a xlink:href="../_counters/Resource__ResourceOntologyThing.md" xlink:title="&lt;TABLE&gt;">
<polygon fill="lightgray" stroke="none" points="216.75,-369.88 216.75,-386.12 349.25,-386.12 349.25,-369.88 216.75,-369.88"/>
<text xml:space="preserve" text-anchor="start" x="217.75" y="-373.73" font-family="Arial" font-size="12.00">ResourceOntologyThing</text>
<polygon fill="none" stroke="black" points="215.75,-368.88 215.75,-387.12 350.25,-387.12 350.25,-368.88 215.75,-368.88"/>
</a>
</g>
</g>
<!-- PlannedAllocation&#45;&gt;ResourceOntologyThing -->
<g id="edge2" class="edge">
<title>PlannedAllocation&#45;&gt;ResourceOntologyThing</title>
<path fill="none" stroke="black" d="M227.43,-322.95C236.47,-331.75 247.69,-342.66 257.68,-352.37"/>
<polygon fill="none" stroke="black" points="255.01,-354.66 264.62,-359.12 259.89,-349.64 255.01,-354.66"/>
</g>
<!-- Invis -->
<!-- PlannedAllocation&#45;&gt;Invis -->
<!-- activity__State -->
<g id="node5" class="node">
<title>activity__State</title>
<polygon fill="lightgray" stroke="none" points="16.75,-197.88 16.75,-214.12 89.25,-214.12 89.25,-197.88 16.75,-197.88"/>
<text xml:space="preserve" text-anchor="start" x="17.75" y="-201.72" font-family="Arial" font-size="12.00">activity::State</text>
<polygon fill="none" stroke="black" points="15.75,-196.88 15.75,-215.12 90.25,-215.12 90.25,-196.88 15.75,-196.88"/>
</g>
<!-- PlannedAllocation&#45;&gt;activity__State -->
<g id="edge8" class="edge">
<title>PlannedAllocation&#45;&gt;activity__State</title>
<path fill="none" stroke="black" d="M119.69,-287.06C91.09,-280.87 65.63,-274.13 61,-269 52.82,-259.94 50.28,-246.86 50.01,-235.06"/>
<polygon fill="black" stroke="black" points="53.5,-235.49 50.32,-225.38 46.5,-235.27 53.5,-235.49"/>
<text xml:space="preserve" text-anchor="middle" x="92.5" y="-258.55" font-family="Arial" font-size="11.00"> forState </text>
<text xml:space="preserve" text-anchor="middle" x="92.5" y="-245.05" font-family="Arial" font-size="11.00"> «exactly 1» &#160;</text>
</g>
<!-- i72__Quantity -->
<g id="node6" class="node">
<title>i72__Quantity</title>
<polygon fill="lightgray" stroke="none" points="20.62,-98.88 20.62,-115.12 89.38,-115.12 89.38,-98.88 20.62,-98.88"/>
<text xml:space="preserve" text-anchor="start" x="21.62" y="-102.72" font-family="Arial" font-size="12.00">i72::Quantity</text>
<polygon fill="none" stroke="black" points="19.62,-97.88 19.62,-116.12 90.38,-116.12 90.38,-97.88 19.62,-97.88"/>
</g>
<!-- PlannedAllocation&#45;&gt;i72__Quantity -->
<g id="edge9" class="edge">
<title>PlannedAllocation&#45;&gt;i72__Quantity</title>
<path fill="none" stroke="black" d="M196.78,-287.29C169.69,-253.02 107.66,-174.59 75.37,-133.76"/>
<polygon fill="black" stroke="black" points="78.29,-131.81 69.34,-126.13 72.8,-136.15 78.29,-131.81"/>
<text xml:space="preserve" text-anchor="middle" x="176.86" y="-209.05" font-family="Arial" font-size="11.00"> hasQuantity </text>
<text xml:space="preserve" text-anchor="middle" x="176.86" y="-195.55" font-family="Arial" font-size="11.00"> «exactly 1» &#160;</text>
</g>
<!-- Resource -->
<g id="node7" class="node">
<title>Resource</title>
<g id="a_node7"><a xlink:href="../_counters/Resource__Resource.md" xlink:title="&lt;TABLE&gt;">
<polygon fill="lightgray" stroke="none" points="32.12,-25.88 32.12,-42.12 85.88,-42.12 85.88,-25.88 32.12,-25.88"/>
<text xml:space="preserve" text-anchor="start" x="33.12" y="-29.73" font-family="Arial" font-size="12.00">Resource</text>
<polygon fill="none" stroke="black" points="31.12,-24.88 31.12,-43.12 86.88,-43.12 86.88,-24.88 31.12,-24.88"/>
</a>
</g>
</g>
<!-- PlannedAllocation&#45;&gt;Resource -->
<g id="edge7" class="edge">
<title>PlannedAllocation&#45;&gt;Resource</title>
<path fill="none" stroke="black" d="M214.35,-287.09C219.46,-263.78 225.64,-220.94 212,-188 188.48,-131.21 132.51,-84.51 95.19,-58.2"/>
<polygon fill="black" stroke="black" points="97.6,-55.61 87.38,-52.82 93.63,-61.38 97.6,-55.61"/>
<text xml:space="preserve" text-anchor="middle" x="235.9" y="-159.55" font-family="Arial" font-size="11.00"> forResource </text>
<text xml:space="preserve" text-anchor="middle" x="235.9" y="-146.05" font-family="Arial" font-size="11.00"> «exactly 1» &#160;</text>
</g>
<!-- Invis&#45;&gt;activity__State -->
<!-- activity__State&#45;&gt;i72__Quantity -->
<!-- i72__Quantity&#45;&gt;Resource -->
</g>
</svg>
