<?xml version="1.0" encoding="UTF-8" standalone="no"?>
<!DOCTYPE svg PUBLIC "-//W3C//DTD SVG 1.1//EN"
 "http://www.w3.org/Graphics/SVG/1.1/DTD/svg11.dtd">
<!-- Generated by graphviz version 14.1.3 (20260303.0454)
 -->
<!-- Pages: 1 -->
<svg width="591pt" height="537pt"
 viewBox="0.00 0.00 591.00 537.00" xmlns="http://www.w3.org/2000/svg" xmlns:xlink="http://www.w3.org/1999/xlink">
<g id="graph0" class="graph" transform="scale(1 1) rotate(0) translate(4 532.5)">
<polygon fill="white" stroke="none" points="-4,4 -4,-532.5 586.75,-532.5 586.75,4 -4,4"/>
<g id="clust3" class="cluster">
<title>cluster_associated</title>
</g>
<!-- ResourceThing -->
<g id="node1" class="node">
<title>ResourceThing</title>
<g id="a_node1"><a xlink:href="../ResourceThing" xlink:title="&lt;TABLE&gt;">
<polygon fill="lightgray" stroke="none" points="193.75,-502.38 193.75,-518.62 278.25,-518.62 278.25,-502.38 193.75,-502.38"/>
<text xml:space="preserve" text-anchor="start" x="194.75" y="-506.38" font-family="Arial" font-size="12.00">ResourceThing</text>
<polygon fill="none" stroke="black" points="192.75,-501.38 192.75,-519.62 279.25,-519.62 279.25,-501.38 192.75,-501.38"/>
</a>
</g>
</g>
<!-- Resource -->
<g id="node2" class="node">
<title>Resource</title>
<g id="a_node2"><a xlink:href="../Resource" xlink:title="&lt;TABLE&gt;">
<polygon fill="lightgray" stroke="none" points="209.12,-429.38 209.12,-445.62 262.88,-445.62 262.88,-429.38 209.12,-429.38"/>
<text xml:space="preserve" text-anchor="start" x="210.12" y="-433.38" font-family="Arial" font-size="12.00">Resource</text>
<polygon fill="none" stroke="black" points="208.12,-428.38 208.12,-446.62 263.88,-446.62 263.88,-428.38 208.12,-428.38"/>
</a>
</g>
</g>
<!-- Resource&#45;&gt;ResourceThing -->
<g id="edge1" class="edge">
<title>Resource&#45;&gt;ResourceThing</title>
<path fill="none" stroke="black" d="M236,-455.21C236,-462.97 236,-472.42 236,-481.24"/>
<polygon fill="none" stroke="black" points="232.5,-481.16 236,-491.16 239.5,-481.16 232.5,-481.16"/>
</g>
<!-- Invis -->
<!-- Resource&#45;&gt;Invis -->
<!-- Activity -->
<g id="node4" class="node">
<title>Activity</title>
<g id="a_node4"><a xlink:href="../Activity" xlink:title="&lt;TABLE&gt;">
<polygon fill="lightgray" stroke="none" points="63.88,-257.38 63.88,-273.62 104.12,-273.62 104.12,-257.38 63.88,-257.38"/>
<text xml:space="preserve" text-anchor="start" x="64.88" y="-261.38" font-family="Arial" font-size="12.00">Activity</text>
<polygon fill="none" stroke="black" points="62.88,-256.38 62.88,-274.62 105.12,-274.62 105.12,-256.38 62.88,-256.38"/>
</a>
</g>
</g>
<!-- Resource&#45;&gt;Activity -->
<g id="edge9" class="edge">
<title>Resource&#45;&gt;Activity</title>
<path fill="none" stroke="black" d="M208.21,-432.55C181.95,-427.37 143.25,-415.77 120.25,-390.5 96.05,-363.92 87.94,-322.01 85.26,-294.39"/>
<polygon fill="black" stroke="black" points="88.77,-294.38 84.51,-284.68 81.79,-294.92 88.77,-294.38"/>
<text xml:space="preserve" text-anchor="middle" x="152.12" y="-367.55" font-family="Arial" font-size="11.00">participatesIn</text>
<text xml:space="preserve" text-anchor="middle" x="152.12" y="-354.05" font-family="Arial" font-size="11.00">1..*</text>
</g>
<!-- i72_Quantity -->
<g id="node5" class="node">
<title>i72_Quantity</title>
<g id="a_node5"><a xlink:href="https://w3id.org/citydata/21972/v1/Quantity" xlink:title="&lt;TABLE&gt;">
<polygon fill="lightgray" stroke="none" points="51.12,-171.88 51.12,-188.12 116.88,-188.12 116.88,-171.88 51.12,-171.88"/>
<text xml:space="preserve" text-anchor="start" x="52.12" y="-175.88" font-family="Arial" font-size="12.00">i72:Quantity</text>
<polygon fill="none" stroke="black" points="50.12,-170.88 50.12,-189.12 117.88,-189.12 117.88,-170.88 50.12,-170.88"/>
</a>
</g>
</g>
<!-- Resource&#45;&gt;i72_Quantity -->
<g id="edge10" class="edge">
<title>Resource&#45;&gt;i72_Quantity</title>
<path fill="none" stroke="black" d="M227.78,-419.52C216.42,-396.56 195.94,-357.24 184,-346.5 169.36,-333.33 156.45,-343.34 143.5,-328.5 118.85,-300.26 134.23,-282.18 120,-247.5 114.41,-233.88 106.81,-219.43 100.03,-207.49"/>
<polygon fill="black" stroke="black" points="103.17,-205.93 95.12,-199.04 97.12,-209.44 103.17,-205.93"/>
<text xml:space="preserve" text-anchor="middle" x="177.25" y="-318.05" font-family="Arial" font-size="11.00">capacityInUse</text>
<text xml:space="preserve" text-anchor="middle" x="177.25" y="-304.55" font-family="Arial" font-size="11.00">1</text>
</g>
<!-- Resource&#45;&gt;i72_Quantity -->
<g id="edge11" class="edge">
<title>Resource&#45;&gt;i72_Quantity</title>
<path fill="none" stroke="black" d="M236.12,-419.63C235.62,-392.96 231.81,-340.11 211,-301.5 189.14,-260.94 148.64,-226.16 119.23,-204.54"/>
<polygon fill="black" stroke="black" points="121.51,-201.87 111.35,-198.88 117.43,-207.55 121.51,-201.87"/>
<text xml:space="preserve" text-anchor="middle" x="273.53" y="-318.05" font-family="Arial" font-size="11.00">hasAvailableCapacity</text>
<text xml:space="preserve" text-anchor="middle" x="273.53" y="-304.55" font-family="Arial" font-size="11.00">1</text>
</g>
<!-- Resource&#45;&gt;i72_Quantity -->
<g id="edge12" class="edge">
<title>Resource&#45;&gt;i72_Quantity</title>
<path fill="none" stroke="black" d="M262.56,-419.59C298.73,-394.37 356.06,-345.17 329,-301.5 285.23,-230.86 186.51,-200.46 128.63,-188.31"/>
<polygon fill="black" stroke="black" points="129.6,-184.94 119.11,-186.42 128.23,-191.8 129.6,-184.94"/>
<text xml:space="preserve" text-anchor="middle" x="365.65" y="-318.05" font-family="Arial" font-size="11.00">hasCapacity</text>
<text xml:space="preserve" text-anchor="middle" x="365.65" y="-304.55" font-family="Arial" font-size="11.00">1</text>
</g>
<!-- Location -->
<g id="node6" class="node">
<title>Location</title>
<g id="a_node6"><a xlink:href="../Location" xlink:title="&lt;TABLE&gt;">
<polygon fill="lightgray" stroke="none" points="60.12,-98.88 60.12,-115.12 107.88,-115.12 107.88,-98.88 60.12,-98.88"/>
<text xml:space="preserve" text-anchor="start" x="61.12" y="-102.88" font-family="Arial" font-size="12.00">Location</text>
<polygon fill="none" stroke="black" points="59.12,-97.88 59.12,-116.12 108.88,-116.12 108.88,-97.88 59.12,-97.88"/>
</a>
</g>
</g>
<!-- Resource&#45;&gt;Location -->
<g id="edge7" class="edge">
<title>Resource&#45;&gt;Location</title>
<path fill="none" stroke="black" d="M263.81,-432.43C318.11,-423.7 433,-401.04 433,-365.5 433,-365.5 433,-365.5 433,-179 433,-116.13 212.75,-108.34 122.19,-107.8"/>
<polygon fill="black" stroke="black" points="122.33,-104.3 112.32,-107.77 122.31,-111.3 122.33,-104.3"/>
<text xml:space="preserve" text-anchor="middle" x="461.88" y="-261.8" font-family="Arial" font-size="11.00">hasLocation</text>
</g>
<!-- PlannedAllocation -->
<g id="node7" class="node">
<title>PlannedAllocation</title>
<g id="a_node7"><a xlink:href="../PlannedAllocation" xlink:title="&lt;TABLE&gt;">
<polygon fill="lightgray" stroke="none" points="16.88,-25.88 16.88,-42.12 117.12,-42.12 117.12,-25.88 16.88,-25.88"/>
<text xml:space="preserve" text-anchor="start" x="17.88" y="-29.88" font-family="Arial" font-size="12.00">PlannedAllocation</text>
<polygon fill="none" stroke="black" points="15.88,-24.88 15.88,-43.12 118.12,-43.12 118.12,-24.88 15.88,-24.88"/>
</a>
</g>
</g>
<!-- Resource&#45;&gt;PlannedAllocation -->
<g id="edge8" class="edge">
<title>Resource&#45;&gt;PlannedAllocation</title>
<path fill="none" stroke="black" d="M263.65,-435.43C334.86,-431.92 519,-417.8 519,-365.5 519,-365.5 519,-365.5 519,-106 519,-67 253.05,-46.06 129.15,-38.41"/>
<polygon fill="black" stroke="black" points="129.68,-34.94 119.48,-37.83 129.25,-41.93 129.68,-34.94"/>
<text xml:space="preserve" text-anchor="middle" x="550.88" y="-219.05" font-family="Arial" font-size="11.00">hasAllocation</text>
</g>
<!-- Invis&#45;&gt;Activity -->
<!-- Activity&#45;&gt;i72_Quantity -->
<!-- i72_Quantity&#45;&gt;Location -->
<!-- Location&#45;&gt;PlannedAllocation -->
</g>
</svg>
