<?xml version="1.0" encoding="UTF-8" standalone="no"?>
<!DOCTYPE svg PUBLIC "-//W3C//DTD SVG 1.1//EN"
 "http://www.w3.org/Graphics/SVG/1.1/DTD/svg11.dtd">
<!-- Generated by graphviz version 14.0.2 (20251019.1705)
 -->
<!-- Pages: 1 -->
<svg width="346pt" height="404pt"
 viewBox="0.00 0.00 346.00 404.00" xmlns="http://www.w3.org/2000/svg" xmlns:xlink="http://www.w3.org/1999/xlink">
<g id="graph0" class="graph" transform="scale(1 1) rotate(0) translate(4 400)">
<polygon fill="white" stroke="none" points="-4,4 -4,-400 342.25,-400 342.25,4 -4,4"/>
<g id="clust2" class="cluster">
<title>cluster_associated</title>
</g>
<!-- TerminalResourceState -->
<g id="node1" class="node">
<title>TerminalResourceState</title>
<g id="a_node1"><a xlink:href="../classes/Resource__TerminalResourceState.md" xlink:title="&lt;TABLE&gt;">
<polygon fill="lightgray" stroke="none" points="135.38,-296.88 135.38,-313.12 262.62,-313.12 262.62,-296.88 135.38,-296.88"/>
<text xml:space="preserve" text-anchor="start" x="136.38" y="-300.73" font-family="Arial" font-size="12.00">TerminalResourceState</text>
<polygon fill="none" stroke="black" points="134.38,-295.88 134.38,-314.12 263.62,-314.12 263.62,-295.88 134.38,-295.88"/>
</a>
</g>
</g>
<!-- activity__TerminalState -->
<g id="node2" class="node">
<title>activity__TerminalState</title>
<polygon fill="lightgray" stroke="none" points="66.88,-369.88 66.88,-386.12 185.12,-386.12 185.12,-369.88 66.88,-369.88"/>
<text xml:space="preserve" text-anchor="start" x="67.88" y="-373.73" font-family="Arial" font-size="12.00">activity::TerminalState</text>
<polygon fill="none" stroke="black" points="65.88,-368.88 65.88,-387.12 186.12,-387.12 186.12,-368.88 65.88,-368.88"/>
</g>
<!-- TerminalResourceState&#45;&gt;activity__TerminalState -->
<g id="edge1" class="edge">
<title>TerminalResourceState&#45;&gt;activity__TerminalState</title>
<path fill="none" stroke="black" d="M181.57,-322.95C172.53,-331.75 161.31,-342.66 151.32,-352.37"/>
<polygon fill="none" stroke="black" points="149.11,-349.64 144.38,-359.12 153.99,-354.66 149.11,-349.64"/>
</g>
<!-- ResourceOntologyThing -->
<g id="node3" class="node">
<title>ResourceOntologyThing</title>
<g id="a_node3"><a xlink:href="../_counters/Resource__ResourceOntologyThing.md" xlink:title="&lt;TABLE&gt;">
<polygon fill="lightgray" stroke="none" points="204.75,-369.88 204.75,-386.12 337.25,-386.12 337.25,-369.88 204.75,-369.88"/>
<text xml:space="preserve" text-anchor="start" x="205.75" y="-373.73" font-family="Arial" font-size="12.00">ResourceOntologyThing</text>
<polygon fill="none" stroke="black" points="203.75,-368.88 203.75,-387.12 338.25,-387.12 338.25,-368.88 203.75,-368.88"/>
</a>
</g>
</g>
<!-- TerminalResourceState&#45;&gt;ResourceOntologyThing -->
<g id="edge2" class="edge">
<title>TerminalResourceState&#45;&gt;ResourceOntologyThing</title>
<path fill="none" stroke="black" d="M215.94,-322.71C224.89,-331.53 236.04,-342.53 245.97,-352.31"/>
<polygon fill="none" stroke="black" points="243.28,-354.58 252.86,-359.11 248.2,-349.6 243.28,-354.58"/>
</g>
<!-- Invis -->
<!-- TerminalResourceState&#45;&gt;Invis -->
<!-- i72__Quantity -->
<g id="node5" class="node">
<title>i72__Quantity</title>
<polygon fill="lightgray" stroke="none" points="32.62,-197.88 32.62,-214.12 101.38,-214.12 101.38,-197.88 32.62,-197.88"/>
<text xml:space="preserve" text-anchor="start" x="33.62" y="-201.72" font-family="Arial" font-size="12.00">i72::Quantity</text>
<polygon fill="none" stroke="black" points="31.62,-196.88 31.62,-215.12 102.38,-215.12 102.38,-196.88 31.62,-196.88"/>
</g>
<!-- TerminalResourceState&#45;&gt;i72__Quantity -->
<g id="edge8" class="edge">
<title>TerminalResourceState&#45;&gt;i72__Quantity</title>
<path fill="none" stroke="black" d="M134.48,-287.39C105.5,-279.65 77.23,-271.58 75,-269 67.02,-259.76 64.51,-246.66 64.2,-234.89"/>
<polygon fill="black" stroke="black" points="67.69,-235.35 64.47,-225.26 60.69,-235.16 67.69,-235.35"/>
<text xml:space="preserve" text-anchor="middle" x="106.5" y="-258.55" font-family="Arial" font-size="11.00"> hasQuantity </text>
<text xml:space="preserve" text-anchor="middle" x="106.5" y="-245.05" font-family="Arial" font-size="11.00"> «only» &#160;</text>
</g>
<!-- PlannedAllocation -->
<g id="node6" class="node">
<title>PlannedAllocation</title>
<g id="a_node6"><a xlink:href="../_counters/Resource__PlannedAllocation.md" xlink:title="&lt;TABLE&gt;">
<polygon fill="lightgray" stroke="none" points="16.88,-98.88 16.88,-115.12 117.12,-115.12 117.12,-98.88 16.88,-98.88"/>
<text xml:space="preserve" text-anchor="start" x="17.88" y="-102.72" font-family="Arial" font-size="12.00">PlannedAllocation</text>
<polygon fill="none" stroke="black" points="15.88,-97.88 15.88,-116.12 118.12,-116.12 118.12,-97.88 15.88,-97.88"/>
</a>
</g>
</g>
<!-- TerminalResourceState&#45;&gt;PlannedAllocation -->
<g id="edge7" class="edge">
<title>TerminalResourceState&#45;&gt;PlannedAllocation</title>
<path fill="none" stroke="black" d="M187.75,-287.29C164.76,-253.17 112.29,-175.25 84.7,-134.28"/>
<polygon fill="black" stroke="black" points="87.75,-132.54 79.26,-126.2 81.94,-136.45 87.75,-132.54"/>
<text xml:space="preserve" text-anchor="middle" x="178.83" y="-209.05" font-family="Arial" font-size="11.00"> hasAllocation </text>
<text xml:space="preserve" text-anchor="middle" x="178.83" y="-195.55" font-family="Arial" font-size="11.00"> «only» &#160;</text>
</g>
<!-- Invis&#45;&gt;i72__Quantity -->
<!-- i72__Quantity&#45;&gt;PlannedAllocation -->
<!-- Resource -->
<g id="node7" class="node">
<title>Resource</title>
<g id="a_node7"><a xlink:href="../_counters/Resource__Resource.md" xlink:title="&lt;TABLE&gt;">
<polygon fill="lightgray" stroke="none" points="52.12,-25.88 52.12,-42.12 105.88,-42.12 105.88,-25.88 52.12,-25.88"/>
<text xml:space="preserve" text-anchor="start" x="53.12" y="-29.73" font-family="Arial" font-size="12.00">Resource</text>
<polygon fill="none" stroke="black" points="51.12,-24.88 51.12,-43.12 106.88,-43.12 106.88,-24.88 51.12,-24.88"/>
</a>
</g>
</g>
<!-- PlannedAllocation&#45;&gt;Resource -->
<!-- Resource&#45;&gt;TerminalResourceState -->
<g id="edge9" class="edge">
<title>Resource&#45;&gt;TerminalResourceState</title>
<path fill="none" stroke="black" d="M102.88,-51.94C136.11,-77.15 194.85,-128.08 218,-188 229.39,-217.48 220.05,-253.75 210.88,-277.8"/>
<polygon fill="black" stroke="black" points="203.98,-285.52 210.98,-277.57 210.46,-288.16 203.98,-285.52"/>
<text xml:space="preserve" text-anchor="middle" x="257.52" y="-159.55" font-family="Arial" font-size="11.00"> inverse resourceOf </text>
<text xml:space="preserve" text-anchor="middle" x="257.52" y="-146.05" font-family="Arial" font-size="11.00"> «only» &#160;</text>
</g>
</g>
</svg>
