<?xml version="1.0" encoding="UTF-8" standalone="no"?>
<!DOCTYPE svg PUBLIC "-//W3C//DTD SVG 1.1//EN"
 "http://www.w3.org/Graphics/SVG/1.1/DTD/svg11.dtd">
<!-- Generated by graphviz version 14.1.3 (20260303.0454)
 -->
<!-- Pages: 1 -->
<svg width="613pt" height="568pt"
 viewBox="0.00 0.00 613.00 568.00" xmlns="http://www.w3.org/2000/svg" xmlns:xlink="http://www.w3.org/1999/xlink">
<g id="graph0" class="graph" transform="scale(1 1) rotate(0) translate(4 563.5)">
<polygon fill="white" stroke="none" points="-4,4 -4,-563.5 608.75,-563.5 608.75,4 -4,4"/>
<g id="clust3" class="cluster">
<title>cluster_associated</title>
</g>
<!-- ResourceThing -->
<g id="node1" class="node">
<title>ResourceThing</title>
<g id="a_node1"><a xlink:href="../ResourceThing" xlink:title="&lt;TABLE&gt;">
<polygon fill="lightgray" stroke="none" points="215.75,-533.38 215.75,-549.62 300.25,-549.62 300.25,-533.38 215.75,-533.38"/>
<text xml:space="preserve" text-anchor="start" x="216.75" y="-537.38" font-family="Arial" font-size="12.00">ResourceThing</text>
<polygon fill="none" stroke="black" points="214.75,-532.38 214.75,-550.62 301.25,-550.62 301.25,-532.38 214.75,-532.38"/>
</a>
</g>
</g>
<!-- Resource -->
<g id="node2" class="node">
<title>Resource</title>
<g id="a_node2"><a xlink:href="../Resource" xlink:title="&lt;TABLE&gt;">
<polygon fill="lightgray" stroke="none" points="231.12,-460.38 231.12,-476.62 284.88,-476.62 284.88,-460.38 231.12,-460.38"/>
<text xml:space="preserve" text-anchor="start" x="232.12" y="-464.38" font-family="Arial" font-size="12.00">Resource</text>
<polygon fill="none" stroke="black" points="230.12,-459.38 230.12,-477.62 285.88,-477.62 285.88,-459.38 230.12,-459.38"/>
</a>
</g>
</g>
<!-- Resource&#45;&gt;ResourceThing -->
<g id="edge1" class="edge">
<title>Resource&#45;&gt;ResourceThing</title>
<path fill="none" stroke="black" d="M258,-486.21C258,-493.97 258,-503.42 258,-512.24"/>
<polygon fill="none" stroke="black" points="254.5,-512.16 258,-522.16 261.5,-512.16 254.5,-512.16"/>
</g>
<!-- Invis -->
<!-- Resource&#45;&gt;Invis -->
<!-- Activity -->
<g id="node4" class="node">
<title>Activity</title>
<g id="a_node4"><a xlink:href="../Activity" xlink:title="&lt;TABLE&gt;">
<polygon fill="lightgray" stroke="none" points="48.88,-265.38 48.88,-281.62 89.12,-281.62 89.12,-265.38 48.88,-265.38"/>
<text xml:space="preserve" text-anchor="start" x="49.88" y="-269.38" font-family="Arial" font-size="12.00">Activity</text>
<polygon fill="none" stroke="black" points="47.88,-264.38 47.88,-282.62 90.12,-282.62 90.12,-264.38 47.88,-264.38"/>
</a>
</g>
</g>
<!-- Resource&#45;&gt;Activity -->
<g id="edge11" class="edge">
<title>Resource&#45;&gt;Activity</title>
<path fill="none" stroke="black" d="M230.22,-464.56C199.42,-459.88 150.14,-447.95 120.25,-418 88.77,-386.45 76.52,-334.28 71.83,-302.29"/>
<polygon fill="black" stroke="black" points="75.34,-302.07 70.58,-292.6 68.39,-302.97 75.34,-302.07"/>
<polygon fill="white" stroke="none" points="120.25,-370.5 120.25,-413.5 192,-413.5 192,-370.5 120.25,-370.5"/>
<text xml:space="preserve" text-anchor="start" x="124.25" y="-399" font-family="Arial" font-size="11.00">participatesIn</text>
<text xml:space="preserve" text-anchor="start" x="147.88" y="-377.5" font-family="Arial" font-size="11.00">1..*</text>
</g>
<!-- i72_Quantity -->
<g id="node5" class="node">
<title>i72_Quantity</title>
<g id="a_node5"><a xlink:href="https://w3id.org/citydata/21972/v1/Quantity" xlink:title="&lt;TABLE&gt;">
<polygon fill="lightgray" stroke="none" points="51.12,-171.88 51.12,-188.12 116.88,-188.12 116.88,-171.88 51.12,-171.88"/>
<text xml:space="preserve" text-anchor="start" x="52.12" y="-175.88" font-family="Arial" font-size="12.00">i72:Quantity</text>
<polygon fill="none" stroke="black" points="50.12,-170.88 50.12,-189.12 117.88,-189.12 117.88,-170.88 50.12,-170.88"/>
</a>
</g>
</g>
<!-- Resource&#45;&gt;i72_Quantity -->
<g id="edge8" class="edge">
<title>Resource&#45;&gt;i72_Quantity</title>
<path fill="none" stroke="black" d="M251.08,-450.72C241.22,-428.9 221.04,-391.16 192,-370.5 166.96,-352.69 146.34,-374.84 125.25,-352.5 95.02,-320.47 115.48,-298.28 105,-255.5 101.18,-239.9 96.35,-222.62 92.28,-208.64"/>
<polygon fill="black" stroke="black" points="95.69,-207.84 89.51,-199.23 88.98,-209.81 95.69,-207.84"/>
<polygon fill="white" stroke="none" points="125.25,-309.5 125.25,-352.5 236,-352.5 236,-309.5 125.25,-309.5"/>
<text xml:space="preserve" text-anchor="start" x="129.25" y="-338" font-family="Arial" font-size="11.00">hasAvailableCapacity</text>
<text xml:space="preserve" text-anchor="start" x="177.62" y="-316.5" font-family="Arial" font-size="11.00">1</text>
</g>
<!-- Resource&#45;&gt;i72_Quantity -->
<g id="edge9" class="edge">
<title>Resource&#45;&gt;i72_Quantity</title>
<path fill="none" stroke="black" d="M259.43,-450.6C261.21,-420.3 261.4,-355.59 236,-309.5 210.31,-262.89 160.52,-225.85 124.92,-203.74"/>
<polygon fill="black" stroke="black" points="126.95,-200.87 116.58,-198.69 123.32,-206.86 126.95,-200.87"/>
<polygon fill="white" stroke="none" points="251.84,-309.5 251.84,-352.5 319.09,-352.5 319.09,-309.5 251.84,-309.5"/>
<text xml:space="preserve" text-anchor="start" x="255.84" y="-338" font-family="Arial" font-size="11.00">hasCapacity</text>
<text xml:space="preserve" text-anchor="start" x="282.46" y="-316.5" font-family="Arial" font-size="11.00">1</text>
</g>
<!-- Resource&#45;&gt;i72_Quantity -->
<g id="edge10" class="edge">
<title>Resource&#45;&gt;i72_Quantity</title>
<path fill="none" stroke="black" d="M274.63,-450.76C301.85,-421.25 350.28,-358.48 323,-309.5 282.92,-237.54 186.1,-203.93 128.74,-189.86"/>
<polygon fill="black" stroke="black" points="129.84,-186.52 119.3,-187.64 128.24,-193.33 129.84,-186.52"/>
<polygon fill="white" stroke="none" points="331.07,-309.5 331.07,-352.5 406.57,-352.5 406.57,-309.5 331.07,-309.5"/>
<text xml:space="preserve" text-anchor="start" x="335.07" y="-338" font-family="Arial" font-size="11.00">capacityInUse</text>
<text xml:space="preserve" text-anchor="start" x="365.82" y="-316.5" font-family="Arial" font-size="11.00">1</text>
</g>
<!-- Location -->
<g id="node6" class="node">
<title>Location</title>
<g id="a_node6"><a xlink:href="../Location" xlink:title="&lt;TABLE&gt;">
<polygon fill="lightgray" stroke="none" points="60.12,-98.88 60.12,-115.12 107.88,-115.12 107.88,-98.88 60.12,-98.88"/>
<text xml:space="preserve" text-anchor="start" x="61.12" y="-102.88" font-family="Arial" font-size="12.00">Location</text>
<polygon fill="none" stroke="black" points="59.12,-97.88 59.12,-116.12 108.88,-116.12 108.88,-97.88 59.12,-97.88"/>
</a>
</g>
</g>
<!-- Resource&#45;&gt;Location -->
<g id="edge7" class="edge">
<title>Resource&#45;&gt;Location</title>
<path fill="none" stroke="black" d="M285.49,-468.1C336.12,-467.62 439,-458.58 439,-393 439,-393 439,-393 439,-179 439,-114.95 213.98,-107.88 122.24,-107.66"/>
<polygon fill="black" stroke="black" points="122.49,-104.16 112.49,-107.67 122.49,-111.16 122.49,-104.16"/>
<polygon fill="white" stroke="none" points="439,-262.75 439,-284.25 504.75,-284.25 504.75,-262.75 439,-262.75"/>
<text xml:space="preserve" text-anchor="start" x="443" y="-269.75" font-family="Arial" font-size="11.00">hasLocation</text>
</g>
<!-- PlannedAllocation -->
<g id="node7" class="node">
<title>PlannedAllocation</title>
<g id="a_node7"><a xlink:href="../PlannedAllocation" xlink:title="&lt;TABLE&gt;">
<polygon fill="lightgray" stroke="none" points="16.88,-25.88 16.88,-42.12 117.12,-42.12 117.12,-25.88 16.88,-25.88"/>
<text xml:space="preserve" text-anchor="start" x="17.88" y="-29.88" font-family="Arial" font-size="12.00">PlannedAllocation</text>
<polygon fill="none" stroke="black" points="15.88,-24.88 15.88,-43.12 118.12,-43.12 118.12,-24.88 15.88,-24.88"/>
</a>
</g>
</g>
<!-- Resource&#45;&gt;PlannedAllocation -->
<g id="edge12" class="edge">
<title>Resource&#45;&gt;PlannedAllocation</title>
<path fill="none" stroke="black" d="M285.63,-465.9C355.36,-461.1 533,-443.89 533,-393 533,-393 533,-393 533,-106 533,-65.63 256.09,-45.31 129.19,-38.12"/>
<polygon fill="black" stroke="black" points="129.45,-34.62 119.27,-37.56 129.06,-41.61 129.45,-34.62"/>
<polygon fill="white" stroke="none" points="533,-216 533,-237.5 604.75,-237.5 604.75,-216 533,-216"/>
<text xml:space="preserve" text-anchor="start" x="537" y="-223" font-family="Arial" font-size="11.00">hasAllocation</text>
</g>
<!-- Invis&#45;&gt;Activity -->
<!-- Activity&#45;&gt;i72_Quantity -->
<!-- i72_Quantity&#45;&gt;Location -->
<!-- Location&#45;&gt;PlannedAllocation -->
</g>
</svg>
