<?xml version="1.0" encoding="UTF-8" standalone="no"?>
<!DOCTYPE svg PUBLIC "-//W3C//DTD SVG 1.1//EN"
 "http://www.w3.org/Graphics/SVG/1.1/DTD/svg11.dtd">
<!-- Generated by graphviz version 14.0.2 (20251019.1705)
 -->
<!-- Pages: 1 -->
<svg width="691pt" height="477pt"
 viewBox="0.00 0.00 691.00 477.00" xmlns="http://www.w3.org/2000/svg" xmlns:xlink="http://www.w3.org/1999/xlink">
<g id="graph0" class="graph" transform="scale(1 1) rotate(0) translate(4 473)">
<polygon fill="white" stroke="none" points="-4,4 -4,-473 686.75,-473 686.75,4 -4,4"/>
<g id="clust2" class="cluster">
<title>cluster_associated</title>
</g>
<!-- Resource -->
<g id="node1" class="node">
<title>Resource</title>
<g id="a_node1"><a xlink:href="../classes/Resource__Resource.md" xlink:title="&lt;TABLE&gt;">
<polygon fill="lightgray" stroke="none" points="221.12,-369.88 221.12,-386.12 274.88,-386.12 274.88,-369.88 221.12,-369.88"/>
<text xml:space="preserve" text-anchor="start" x="222.12" y="-373.73" font-family="Arial" font-size="12.00">Resource</text>
<polygon fill="none" stroke="black" points="220.12,-368.88 220.12,-387.12 275.88,-387.12 275.88,-368.88 220.12,-368.88"/>
</a>
</g>
</g>
<!-- ResourceOntologyThing -->
<g id="node2" class="node">
<title>ResourceOntologyThing</title>
<g id="a_node2"><a xlink:href="../_counters/Resource__ResourceOntologyThing.md" xlink:title="&lt;TABLE&gt;">
<polygon fill="lightgray" stroke="none" points="181.75,-442.88 181.75,-459.12 314.25,-459.12 314.25,-442.88 181.75,-442.88"/>
<text xml:space="preserve" text-anchor="start" x="182.75" y="-446.73" font-family="Arial" font-size="12.00">ResourceOntologyThing</text>
<polygon fill="none" stroke="black" points="180.75,-441.88 180.75,-460.12 315.25,-460.12 315.25,-441.88 180.75,-441.88"/>
</a>
</g>
</g>
<!-- Resource&#45;&gt;ResourceOntologyThing -->
<g id="edge1" class="edge">
<title>Resource&#45;&gt;ResourceOntologyThing</title>
<path fill="none" stroke="black" d="M248,-395.71C248,-403.47 248,-412.92 248,-421.74"/>
<polygon fill="none" stroke="black" points="244.5,-421.66 248,-431.66 251.5,-421.66 244.5,-421.66"/>
</g>
<!-- Invis -->
<!-- Resource&#45;&gt;Invis -->
<!-- activity__Activity -->
<g id="node4" class="node">
<title>activity__Activity</title>
<polygon fill="lightgray" stroke="none" points="17.5,-270.88 17.5,-287.12 100.5,-287.12 100.5,-270.88 17.5,-270.88"/>
<text xml:space="preserve" text-anchor="start" x="18.5" y="-274.73" font-family="Arial" font-size="12.00">activity::Activity</text>
<polygon fill="none" stroke="black" points="16.5,-269.88 16.5,-288.12 101.5,-288.12 101.5,-269.88 16.5,-269.88"/>
</g>
<!-- Resource&#45;&gt;activity__Activity -->
<g id="edge9" class="edge">
<title>Resource&#45;&gt;activity__Activity</title>
<path fill="none" stroke="black" d="M220.42,-372.79C169.51,-364.9 65.42,-348.1 60.25,-342 52.42,-332.76 51.23,-319.67 52.35,-307.9"/>
<polygon fill="black" stroke="black" points="55.78,-308.67 53.86,-298.25 48.86,-307.59 55.78,-308.67"/>
<text xml:space="preserve" text-anchor="middle" x="95.12" y="-331.55" font-family="Arial" font-size="11.00"> participatesIn </text>
<text xml:space="preserve" text-anchor="middle" x="95.12" y="-318.05" font-family="Arial" font-size="11.00"> «min 1» &#160;</text>
</g>
<!-- i72__Quantity -->
<g id="node5" class="node">
<title>i72__Quantity</title>
<polygon fill="lightgray" stroke="none" points="50.62,-171.88 50.62,-188.12 119.38,-188.12 119.38,-171.88 50.62,-171.88"/>
<text xml:space="preserve" text-anchor="start" x="51.62" y="-175.72" font-family="Arial" font-size="12.00">i72::Quantity</text>
<polygon fill="none" stroke="black" points="49.62,-170.88 49.62,-189.12 120.38,-189.12 120.38,-170.88 49.62,-170.88"/>
</g>
<!-- Resource&#45;&gt;i72__Quantity -->
<g id="edge10" class="edge">
<title>Resource&#45;&gt;i72__Quantity</title>
<path fill="none" stroke="black" d="M223.6,-360.27C202.99,-345.32 173.55,-321.97 152.5,-297 129.22,-269.37 109.38,-232.66 97.35,-208"/>
<polygon fill="black" stroke="black" points="100.65,-206.8 93.19,-199.28 94.34,-209.81 100.65,-206.8"/>
<text xml:space="preserve" text-anchor="middle" x="189.25" y="-282.05" font-family="Arial" font-size="11.00"> capacityInUse </text>
<text xml:space="preserve" text-anchor="middle" x="189.25" y="-268.55" font-family="Arial" font-size="11.00"> «exactly 1» &#160;</text>
</g>
<!-- Resource&#45;&gt;i72__Quantity -->
<g id="edge11" class="edge">
<title>Resource&#45;&gt;i72__Quantity</title>
<path fill="none" stroke="black" d="M249.01,-360.33C249.62,-336.16 247.47,-291.01 226,-261 202.93,-228.75 162.54,-207.77 130.89,-195.42"/>
<polygon fill="black" stroke="black" points="132.11,-192.14 121.52,-191.93 129.67,-198.7 132.11,-192.14"/>
<text xml:space="preserve" text-anchor="middle" x="296.46" y="-282.05" font-family="Arial" font-size="11.00"> hasAvailableCapacity </text>
<text xml:space="preserve" text-anchor="middle" x="296.46" y="-268.55" font-family="Arial" font-size="11.00"> «exactly 1» &#160;</text>
</g>
<!-- Resource&#45;&gt;i72__Quantity -->
<g id="edge12" class="edge">
<title>Resource&#45;&gt;i72__Quantity</title>
<path fill="none" stroke="black" d="M275.75,-364.25C316.61,-343.71 385.02,-301.5 355,-261 328.29,-224.96 201.1,-199.48 131.24,-187.94"/>
<polygon fill="black" stroke="black" points="132.05,-184.52 121.62,-186.38 130.93,-191.43 132.05,-184.52"/>
<text xml:space="preserve" text-anchor="middle" x="395.02" y="-282.05" font-family="Arial" font-size="11.00"> hasCapacity </text>
<text xml:space="preserve" text-anchor="middle" x="395.02" y="-268.55" font-family="Arial" font-size="11.00"> «exactly 1» &#160;</text>
</g>
<!-- PlannedAllocation -->
<g id="node6" class="node">
<title>PlannedAllocation</title>
<g id="a_node6"><a xlink:href="../_counters/Resource__PlannedAllocation.md" xlink:title="&lt;TABLE&gt;">
<polygon fill="lightgray" stroke="none" points="18.88,-98.88 18.88,-115.12 119.12,-115.12 119.12,-98.88 18.88,-98.88"/>
<text xml:space="preserve" text-anchor="start" x="19.88" y="-102.72" font-family="Arial" font-size="12.00">PlannedAllocation</text>
<polygon fill="none" stroke="black" points="17.88,-97.88 17.88,-116.12 120.12,-116.12 120.12,-97.88 17.88,-97.88"/>
</a>
</g>
</g>
<!-- Resource&#45;&gt;PlannedAllocation -->
<g id="edge8" class="edge">
<title>Resource&#45;&gt;PlannedAllocation</title>
<path fill="none" stroke="black" d="M275.64,-372C336.61,-359.68 473.97,-324.24 432,-261 364.75,-159.67 215.77,-125.29 131.06,-113.74"/>
<polygon fill="black" stroke="black" points="131.67,-110.29 121.3,-112.48 130.77,-117.23 131.67,-110.29"/>
<text xml:space="preserve" text-anchor="middle" x="452.43" y="-232.55" font-family="Arial" font-size="11.00"> hasAllocation </text>
<text xml:space="preserve" text-anchor="middle" x="452.43" y="-219.05" font-family="Arial" font-size="11.00"> «only» &#160;</text>
</g>
<!-- spatialLoc__ocation -->
<g id="node7" class="node">
<title>spatialLoc__ocation</title>
<polygon fill="lightgray" stroke="none" points="17.12,-25.88 17.12,-42.12 118.88,-42.12 118.88,-25.88 17.12,-25.88"/>
<text xml:space="preserve" text-anchor="start" x="18.12" y="-29.73" font-family="Arial" font-size="12.00">spatialLoc::ocation</text>
<polygon fill="none" stroke="black" points="16.12,-24.88 16.12,-43.12 119.88,-43.12 119.88,-24.88 16.12,-24.88"/>
</g>
<!-- Resource&#45;&gt;spatialLoc__ocation -->
<g id="edge7" class="edge">
<title>Resource&#45;&gt;spatialLoc__ocation</title>
<path fill="none" stroke="black" d="M275.82,-374.66C354.17,-367.3 571,-341.4 571,-280 571,-280 571,-280 571,-106 571,-62.03 265.72,-43.48 130.82,-37.43"/>
<polygon fill="black" stroke="black" points="131.12,-33.94 120.98,-37 130.82,-40.93 131.12,-33.94"/>
<text xml:space="preserve" text-anchor="middle" x="626.88" y="-183.05" font-family="Arial" font-size="11.00"> spatialLoc::asLocation </text>
<text xml:space="preserve" text-anchor="middle" x="626.88" y="-169.55" font-family="Arial" font-size="11.00"> «only» &#160;</text>
</g>
<!-- Invis&#45;&gt;activity__Activity -->
<!-- activity__Activity&#45;&gt;i72__Quantity -->
<!-- i72__Quantity&#45;&gt;PlannedAllocation -->
<!-- PlannedAllocation&#45;&gt;spatialLoc__ocation -->
</g>
</svg>
