<?xml version="1.0" encoding="UTF-8" standalone="no"?>
<!DOCTYPE svg PUBLIC "-//W3C//DTD SVG 1.1//EN"
 "http://www.w3.org/Graphics/SVG/1.1/DTD/svg11.dtd">
<!-- Generated by graphviz version 14.0.2 (20251019.1705)
 -->
<!-- Pages: 1 -->
<svg width="220pt" height="132pt"
 viewBox="0.00 0.00 220.00 132.00" xmlns="http://www.w3.org/2000/svg" xmlns:xlink="http://www.w3.org/1999/xlink">
<g id="graph0" class="graph" transform="scale(1 1) rotate(0) translate(4 128)">
<polygon fill="white" stroke="none" points="-4,4 -4,-128 216.38,-128 216.38,4 -4,4"/>
<g id="clust2" class="cluster">
<title>cluster_associated</title>
</g>
<!-- NonDivisibleResource -->
<g id="node1" class="node">
<title>NonDivisibleResource</title>
<g id="a_node1"><a xlink:href="../classes/Resource__NonDivisibleResource.md" xlink:title="&lt;TABLE&gt;">
<polygon fill="lightgray" stroke="none" points="1,-25.88 1,-42.12 123.75,-42.12 123.75,-25.88 1,-25.88"/>
<text xml:space="preserve" text-anchor="start" x="2" y="-29.73" font-family="Arial" font-size="12.00">NonDivisibleResource</text>
<polygon fill="none" stroke="black" points="0,-24.88 0,-43.12 124.75,-43.12 124.75,-24.88 0,-24.88"/>
</a>
</g>
</g>
<!-- Resource -->
<g id="node2" class="node">
<title>Resource</title>
<g id="a_node2"><a xlink:href="../_counters/Resource__Resource.md" xlink:title="&lt;TABLE&gt;">
<polygon fill="lightgray" stroke="none" points="35.5,-97.88 35.5,-114.12 89.25,-114.12 89.25,-97.88 35.5,-97.88"/>
<text xml:space="preserve" text-anchor="start" x="36.5" y="-101.72" font-family="Arial" font-size="12.00">Resource</text>
<polygon fill="none" stroke="black" points="34.5,-96.88 34.5,-115.12 90.25,-115.12 90.25,-96.88 34.5,-96.88"/>
</a>
</g>
</g>
<!-- NonDivisibleResource&#45;&gt;Resource -->
<g id="edge1" class="edge">
<title>NonDivisibleResource&#45;&gt;Resource</title>
<path fill="none" stroke="black" d="M62.38,-51.79C62.38,-59.25 62.38,-68.24 62.38,-76.69"/>
<polygon fill="none" stroke="black" points="58.88,-76.54 62.38,-86.54 65.88,-76.54 58.88,-76.54"/>
</g>
<!-- Invis -->
</g>
</svg>
