<?xml version="1.0" encoding="UTF-8" standalone="no"?>
<!DOCTYPE svg PUBLIC "-//W3C//DTD SVG 1.1//EN"
 "http://www.w3.org/Graphics/SVG/1.1/DTD/svg11.dtd">
<!-- Generated by graphviz version 14.0.2 (20251019.1705)
 -->
<!-- Pages: 1 -->
<svg width="162pt" height="132pt"
 viewBox="0.00 0.00 162.00 132.00" xmlns="http://www.w3.org/2000/svg" xmlns:xlink="http://www.w3.org/1999/xlink">
<g id="graph0" class="graph" transform="scale(1 1) rotate(0) translate(4 128)">
<polygon fill="white" stroke="none" points="-4,4 -4,-128 157.75,-128 157.75,4 -4,4"/>
<g id="clust2" class="cluster">
<title>cluster_associated</title>
</g>
<!-- Location -->
<g id="node1" class="node">
<title>Location</title>
<g id="a_node1"><a xlink:href="../classes/SpatialLoc__Location.md" xlink:title="&lt;TABLE&gt;">
<polygon fill="lightgray" stroke="none" points="14.88,-25.88 14.88,-42.12 62.62,-42.12 62.62,-25.88 14.88,-25.88"/>
<text xml:space="preserve" text-anchor="start" x="15.88" y="-29.73" font-family="Arial" font-size="12.00">Location</text>
<polygon fill="none" stroke="black" points="13.88,-24.88 13.88,-43.12 63.62,-43.12 63.62,-24.88 13.88,-24.88"/>
</a>
</g>
</g>
<!-- gis__Geometry -->
<g id="node2" class="node">
<title>gis__Geometry</title>
<polygon fill="lightgray" stroke="none" points="1,-97.88 1,-114.12 76.5,-114.12 76.5,-97.88 1,-97.88"/>
<text xml:space="preserve" text-anchor="start" x="2" y="-101.72" font-family="Arial" font-size="12.00">gis::Geometry</text>
<polygon fill="none" stroke="black" points="0,-96.88 0,-115.12 77.5,-115.12 77.5,-96.88 0,-96.88"/>
</g>
<!-- Location&#45;&gt;gis__Geometry -->
<g id="edge1" class="edge">
<title>Location&#45;&gt;gis__Geometry</title>
<path fill="none" stroke="black" d="M38.75,-51.79C38.75,-59.25 38.75,-68.24 38.75,-76.69"/>
<polygon fill="none" stroke="black" points="35.25,-76.54 38.75,-86.54 42.25,-76.54 35.25,-76.54"/>
</g>
<!-- Invis -->
</g>
</svg>
