<?xml version="1.0" encoding="UTF-8" standalone="no"?>
<!DOCTYPE svg PUBLIC "-//W3C//DTD SVG 1.1//EN"
 "http://www.w3.org/Graphics/SVG/1.1/DTD/svg11.dtd">
<!-- Generated by graphviz version 14.0.2 (20251019.1705)
 -->
<!-- Pages: 1 -->
<svg width="667pt" height="420pt"
 viewBox="0.00 0.00 667.00 420.00" xmlns="http://www.w3.org/2000/svg" xmlns:xlink="http://www.w3.org/1999/xlink">
<g id="graph0" class="graph" transform="scale(1 1) rotate(0) translate(4 416)">
<polygon fill="white" stroke="none" points="-4,4 -4,-416 662.5,-416 662.5,4 -4,4"/>
<g id="clust2" class="cluster">
<title>cluster_associated</title>
</g>
<!-- State -->
<g id="node1" class="node">
<title>State</title>
<g id="a_node1"><a xlink:href="../State" xlink:title="&lt;TABLE&gt;">
<polygon fill="lightgray" stroke="none" points="337.12,-369.88 337.12,-386.12 366.88,-386.12 366.88,-369.88 337.12,-369.88"/>
<text xml:space="preserve" text-anchor="start" x="338.12" y="-373.73" font-family="Arial" font-size="12.00">State</text>
<polygon fill="none" stroke="black" points="336.12,-368.88 336.12,-387.12 367.88,-387.12 367.88,-368.88 336.12,-368.88"/>
</a>
</g>
</g>
<!-- Invis -->
<!-- State&#45;&gt;Invis -->
<!-- Activity -->
<g id="node3" class="node">
<title>Activity</title>
<g id="a_node3"><a xlink:href="../Activity" xlink:title="&lt;TABLE&gt;">
<polygon fill="lightgray" stroke="none" points="75.88,-270.88 75.88,-287.12 116.12,-287.12 116.12,-270.88 75.88,-270.88"/>
<text xml:space="preserve" text-anchor="start" x="76.88" y="-274.73" font-family="Arial" font-size="12.00">Activity</text>
<polygon fill="none" stroke="black" points="74.88,-269.88 74.88,-288.12 117.12,-288.12 117.12,-269.88 74.88,-269.88"/>
</a>
</g>
</g>
<!-- State&#45;&gt;Activity -->
<g id="edge7" class="edge">
<title>State&#45;&gt;Activity</title>
<path fill="none" stroke="black" d="M325.2,-374.94C251.68,-369.16 51.66,-352.53 42.25,-342 34.26,-333.05 36.53,-325.55 42.25,-315 46.26,-307.6 52.6,-301.51 59.53,-296.62"/>
<polygon fill="black" stroke="black" points="61.23,-299.68 67.9,-291.45 57.55,-293.72 61.23,-299.68"/>
<text xml:space="preserve" text-anchor="middle" x="80.12" y="-331.55" font-family="Arial" font-size="11.00"> preconditionOf </text>
<text xml:space="preserve" text-anchor="middle" x="80.12" y="-318.05" font-family="Arial" font-size="11.00"> «only» &#160;</text>
</g>
<!-- State&#45;&gt;Activity -->
<g id="edge8" class="edge">
<title>State&#45;&gt;Activity</title>
<path fill="none" stroke="black" d="M325.07,-375.09C275.29,-371.14 171.16,-360.85 140.75,-342 136.9,-339.61 124.41,-322.11 113.6,-306.31"/>
<polygon fill="black" stroke="black" points="116.54,-304.4 108.03,-298.09 110.74,-308.33 116.54,-304.4"/>
<text xml:space="preserve" text-anchor="middle" x="179.38" y="-331.55" font-family="Arial" font-size="11.00"> enablesActivity </text>
<text xml:space="preserve" text-anchor="middle" x="179.38" y="-318.05" font-family="Arial" font-size="11.00"> «only» &#160;</text>
</g>
<!-- StateStatus -->
<g id="node4" class="node">
<title>StateStatus</title>
<g id="a_node4"><a xlink:href="../StateStatus" xlink:title="&lt;TABLE&gt;">
<polygon fill="lightgray" stroke="none" points="61.25,-171.88 61.25,-188.12 124.75,-188.12 124.75,-171.88 61.25,-171.88"/>
<text xml:space="preserve" text-anchor="start" x="62.25" y="-175.72" font-family="Arial" font-size="12.00">StateStatus</text>
<polygon fill="none" stroke="black" points="60.25,-170.88 60.25,-189.12 125.75,-189.12 125.75,-170.88 60.25,-170.88"/>
</a>
</g>
</g>
<!-- State&#45;&gt;StateStatus -->
<g id="edge13" class="edge">
<title>State&#45;&gt;StateStatus</title>
<path fill="none" stroke="black" d="M378.97,-375.9C402.81,-373.32 436.32,-365.43 453,-342 459.96,-332.22 459.85,-324.85 453,-315 443.5,-301.33 229.89,-227.49 136.29,-195.64"/>
<polygon fill="black" stroke="black" points="137.52,-192.36 126.92,-192.46 135.27,-198.99 137.52,-192.36"/>
<text xml:space="preserve" text-anchor="middle" x="446.28" y="-282.05" font-family="Arial" font-size="11.00"> hasStatus </text>
<text xml:space="preserve" text-anchor="middle" x="446.28" y="-268.55" font-family="Arial" font-size="11.00"> «exactly 1» &#160;</text>
</g>
<!-- time_Interval -->
<g id="node5" class="node">
<title>time_Interval</title>
<g id="a_node5"><a xlink:href="https://w3id.org/citydata/imported/time/latest/Interval" xlink:title="&lt;TABLE&gt;">
<polygon fill="lightgray" stroke="none" points="58.75,-98.88 58.75,-115.12 125.25,-115.12 125.25,-98.88 58.75,-98.88"/>
<text xml:space="preserve" text-anchor="start" x="59.75" y="-102.72" font-family="Arial" font-size="12.00">time:Interval</text>
<polygon fill="none" stroke="black" points="57.75,-97.88 57.75,-116.12 126.25,-116.12 126.25,-97.88 57.75,-97.88"/>
</a>
</g>
</g>
<!-- State&#45;&gt;time_Interval -->
<g id="edge11" class="edge">
<title>State&#45;&gt;time_Interval</title>
<path fill="none" stroke="black" d="M378.89,-376.41C405.72,-374.33 446.27,-366.91 470,-342 495.06,-315.69 501.45,-291.03 481,-261 402.37,-145.58 222.12,-117.23 137.48,-110.27"/>
<polygon fill="black" stroke="black" points="137.93,-106.79 127.7,-109.53 137.41,-113.77 137.93,-106.79"/>
<text xml:space="preserve" text-anchor="middle" x="501.04" y="-232.55" font-family="Arial" font-size="11.00"> scheduledFor </text>
<text xml:space="preserve" text-anchor="middle" x="501.04" y="-219.05" font-family="Arial" font-size="11.00"> «max 1» &#160;</text>
</g>
<!-- time_TemporalEntity -->
<g id="node6" class="node">
<title>time_TemporalEntity</title>
<g id="a_node6"><a xlink:href="https://w3id.org/citydata/imported/time/latest/TemporalEntity" xlink:title="&lt;TABLE&gt;">
<polygon fill="lightgray" stroke="none" points="17.5,-25.88 17.5,-42.12 124.5,-42.12 124.5,-25.88 17.5,-25.88"/>
<text xml:space="preserve" text-anchor="start" x="18.5" y="-29.73" font-family="Arial" font-size="12.00">time:TemporalEntity</text>
<polygon fill="none" stroke="black" points="16.5,-24.88 16.5,-43.12 125.5,-43.12 125.5,-24.88 16.5,-24.88"/>
</a>
</g>
</g>
<!-- State&#45;&gt;time_TemporalEntity -->
<g id="edge12" class="edge">
<title>State&#45;&gt;time_TemporalEntity</title>
<path fill="none" stroke="black" d="M378.8,-376.32C434.37,-373.35 557,-357.96 557,-280 557,-280 557,-280 557,-106 557,-64 269.18,-44.6 136.53,-37.88"/>
<polygon fill="black" stroke="black" points="137.01,-34.4 126.85,-37.4 136.66,-41.39 137.01,-34.4"/>
<text xml:space="preserve" text-anchor="middle" x="586.62" y="-183.05" font-family="Arial" font-size="11.00"> achievedAt </text>
<text xml:space="preserve" text-anchor="middle" x="586.62" y="-169.55" font-family="Arial" font-size="11.00"> «only» &#160;</text>
</g>
<!-- ActivityThing -->
<g id="node7" class="node">
<title>ActivityThing</title>
<g id="a_node7"><a xlink:href="../ActivityThing" xlink:title="&lt;TABLE&gt;">
<polygon fill="lightgray" stroke="none" points="586.5,-270.88 586.5,-287.12 657.5,-287.12 657.5,-270.88 586.5,-270.88"/>
<text xml:space="preserve" text-anchor="start" x="587.5" y="-274.73" font-family="Arial" font-size="12.00">ActivityThing</text>
<polygon fill="none" stroke="black" points="585.5,-269.88 585.5,-288.12 658.5,-288.12 658.5,-269.88 585.5,-269.88"/>
</a>
</g>
</g>
<!-- State&#45;&gt;ActivityThing -->
<g id="edge1" class="edge">
<title>State&#45;&gt;ActivityThing</title>
<path fill="none" stroke="black" d="M378.61,-375.1C429.54,-371.1 538.6,-360.57 571,-342 585.74,-333.55 598.01,-319.09 606.82,-306.25"/>
<polygon fill="none" stroke="black" points="609.56,-308.46 612.04,-298.16 603.68,-304.66 609.56,-308.46"/>
</g>
<!-- Invis&#45;&gt;Activity -->
<!-- Activity&#45;&gt;State -->
<g id="edge9" class="edge">
<title>Activity&#45;&gt;State</title>
<path fill="none" stroke="black" d="M122.54,-283.16C148.54,-287.24 188.45,-296.18 218,-315 231.42,-323.54 228.2,-333.27 241.5,-342 263.72,-356.58 292.43,-365.43 315.01,-370.59"/>
<polygon fill="black" stroke="black" points="324.01,-376.08 314.96,-370.58 325.47,-369.24 324.01,-376.08"/>
<text xml:space="preserve" text-anchor="middle" x="285.75" y="-331.55" font-family="Arial" font-size="11.00"> inverse hasEffect </text>
<text xml:space="preserve" text-anchor="middle" x="285.75" y="-318.05" font-family="Arial" font-size="11.00"> «only» &#160;</text>
</g>
<!-- Activity&#45;&gt;State -->
<g id="edge10" class="edge">
<title>Activity&#45;&gt;State</title>
<path fill="none" stroke="black" d="M123,-280.63C177.65,-282.45 298.85,-289.34 330,-315 340.36,-323.54 345.85,-337.31 348.75,-349.71"/>
<polygon fill="black" stroke="black" points="347.16,-360.23 348.76,-349.76 354.04,-358.95 347.16,-360.23"/>
<text xml:space="preserve" text-anchor="middle" x="397.86" y="-331.55" font-family="Arial" font-size="11.00"> inverse causesState </text>
<text xml:space="preserve" text-anchor="middle" x="397.86" y="-318.05" font-family="Arial" font-size="11.00"> «only» &#160;</text>
</g>
<!-- Activity&#45;&gt;StateStatus -->
<!-- StateStatus&#45;&gt;time_Interval -->
<!-- time_Interval&#45;&gt;time_TemporalEntity -->
</g>
</svg>
