<?xml version="1.0" encoding="UTF-8" standalone="no"?>
<!DOCTYPE svg PUBLIC "-//W3C//DTD SVG 1.1//EN"
 "http://www.w3.org/Graphics/SVG/1.1/DTD/svg11.dtd">
<!-- Generated by graphviz version 14.1.3 (20260303.0454)
 -->
<!-- Pages: 1 -->
<svg width="612pt" height="464pt"
 viewBox="0.00 0.00 612.00 464.00" xmlns="http://www.w3.org/2000/svg" xmlns:xlink="http://www.w3.org/1999/xlink">
<g id="graph0" class="graph" transform="scale(1 1) rotate(0) translate(4 459.5)">
<polygon fill="white" stroke="none" points="-4,4 -4,-459.5 608.25,-459.5 608.25,4 -4,4"/>
<g id="clust3" class="cluster">
<title>cluster_associated</title>
</g>
<!-- ActivityThing -->
<g id="node1" class="node">
<title>ActivityThing</title>
<g id="a_node1"><a xlink:href="../ActivityThing" xlink:title="&lt;TABLE&gt;">
<polygon fill="lightgray" stroke="none" points="245.5,-429.38 245.5,-445.62 316.5,-445.62 316.5,-429.38 245.5,-429.38"/>
<text xml:space="preserve" text-anchor="start" x="246.5" y="-433.38" font-family="Arial" font-size="12.00">ActivityThing</text>
<polygon fill="none" stroke="black" points="244.5,-428.38 244.5,-446.62 317.5,-446.62 317.5,-428.38 244.5,-428.38"/>
</a>
</g>
</g>
<!-- State -->
<g id="node2" class="node">
<title>State</title>
<g id="a_node2"><a xlink:href="../State" xlink:title="&lt;TABLE&gt;">
<polygon fill="lightgray" stroke="none" points="266.12,-356.38 266.12,-372.62 295.88,-372.62 295.88,-356.38 266.12,-356.38"/>
<text xml:space="preserve" text-anchor="start" x="267.12" y="-360.38" font-family="Arial" font-size="12.00">State</text>
<polygon fill="none" stroke="black" points="265.12,-355.38 265.12,-373.62 296.88,-373.62 296.88,-355.38 265.12,-355.38"/>
</a>
</g>
</g>
<!-- State&#45;&gt;ActivityThing -->
<g id="edge1" class="edge">
<title>State&#45;&gt;ActivityThing</title>
<path fill="none" stroke="black" d="M281,-382.21C281,-389.97 281,-399.42 281,-408.24"/>
<polygon fill="none" stroke="black" points="277.5,-408.16 281,-418.16 284.5,-408.16 277.5,-408.16"/>
</g>
<!-- Invis -->
<!-- State&#45;&gt;Invis -->
<!-- Activity -->
<g id="node4" class="node">
<title>Activity</title>
<g id="a_node4"><a xlink:href="../Activity" xlink:title="&lt;TABLE&gt;">
<polygon fill="lightgray" stroke="none" points="76.88,-270.88 76.88,-287.12 117.12,-287.12 117.12,-270.88 76.88,-270.88"/>
<text xml:space="preserve" text-anchor="start" x="77.88" y="-274.88" font-family="Arial" font-size="12.00">Activity</text>
<polygon fill="none" stroke="black" points="75.88,-269.88 75.88,-288.12 118.12,-288.12 118.12,-269.88 75.88,-269.88"/>
</a>
</g>
</g>
<!-- State&#45;&gt;Activity -->
<g id="edge7" class="edge">
<title>State&#45;&gt;Activity</title>
<path fill="none" stroke="black" d="M254.08,-360.5C193.1,-353.58 49.15,-336.48 42.25,-328.5 31.94,-316.56 44.52,-304.79 60.21,-295.84"/>
<polygon fill="black" stroke="black" points="61.6,-299.06 68.86,-291.34 58.38,-292.85 61.6,-299.06"/>
<text xml:space="preserve" text-anchor="middle" x="77.12" y="-318.05" font-family="Arial" font-size="11.00">preconditionOf</text>
</g>
<!-- State&#45;&gt;Activity -->
<g id="edge8" class="edge">
<title>State&#45;&gt;Activity</title>
<path fill="none" stroke="black" d="M254.11,-362.35C223.09,-359.9 171.63,-352.25 134.75,-328.5 125.98,-322.85 118.4,-314.45 112.39,-306.21"/>
<polygon fill="black" stroke="black" points="115.39,-304.41 106.91,-298.06 109.58,-308.31 115.39,-304.41"/>
<text xml:space="preserve" text-anchor="middle" x="170.38" y="-318.05" font-family="Arial" font-size="11.00">enablesActivity</text>
</g>
<!-- StateStatus -->
<g id="node5" class="node">
<title>StateStatus</title>
<g id="a_node5"><a xlink:href="../StateStatus" xlink:title="&lt;TABLE&gt;">
<polygon fill="lightgray" stroke="none" points="61.25,-171.88 61.25,-188.12 124.75,-188.12 124.75,-171.88 61.25,-171.88"/>
<text xml:space="preserve" text-anchor="start" x="62.25" y="-175.88" font-family="Arial" font-size="12.00">StateStatus</text>
<polygon fill="none" stroke="black" points="60.25,-170.88 60.25,-189.12 125.75,-189.12 125.75,-170.88 60.25,-170.88"/>
</a>
</g>
</g>
<!-- State&#45;&gt;StateStatus -->
<g id="edge13" class="edge">
<title>State&#45;&gt;StateStatus</title>
<path fill="none" stroke="black" d="M307.8,-363.36C354.27,-362.09 442.42,-354.56 416,-315 352.87,-220.47 209.31,-192.54 136.73,-184.35"/>
<polygon fill="black" stroke="black" points="137.53,-180.91 127.22,-183.36 136.81,-187.88 137.53,-180.91"/>
<text xml:space="preserve" text-anchor="middle" x="424.29" y="-282.05" font-family="Arial" font-size="11.00">hasStatus</text>
<text xml:space="preserve" text-anchor="middle" x="424.29" y="-268.55" font-family="Arial" font-size="11.00">1</text>
</g>
<!-- time_Interval -->
<g id="node6" class="node">
<title>time_Interval</title>
<g id="a_node6"><a xlink:href="https://w3id.org/citydata/imported/time/latest/Interval" xlink:title="&lt;TABLE&gt;">
<polygon fill="lightgray" stroke="none" points="58.75,-98.88 58.75,-115.12 125.25,-115.12 125.25,-98.88 58.75,-98.88"/>
<text xml:space="preserve" text-anchor="start" x="59.75" y="-102.88" font-family="Arial" font-size="12.00">time:Interval</text>
<polygon fill="none" stroke="black" points="57.75,-97.88 57.75,-116.12 126.25,-116.12 126.25,-97.88 57.75,-97.88"/>
</a>
</g>
</g>
<!-- State&#45;&gt;time_Interval -->
<g id="edge11" class="edge">
<title>State&#45;&gt;time_Interval</title>
<path fill="none" stroke="black" d="M307.75,-363.27C340.01,-361.74 394.56,-355.03 432,-328.5 457.53,-310.41 469.26,-287.1 452,-261 380.84,-153.44 217.14,-121.26 137.36,-111.82"/>
<polygon fill="black" stroke="black" points="138.05,-108.38 127.73,-110.75 137.28,-115.33 138.05,-108.38"/>
<text xml:space="preserve" text-anchor="middle" x="470.31" y="-232.55" font-family="Arial" font-size="11.00">scheduledFor</text>
<text xml:space="preserve" text-anchor="middle" x="470.31" y="-219.05" font-family="Arial" font-size="11.00">0..1</text>
</g>
<!-- time_TemporalEntity -->
<g id="node7" class="node">
<title>time_TemporalEntity</title>
<g id="a_node7"><a xlink:href="https://w3id.org/citydata/imported/time/latest/TemporalEntity" xlink:title="&lt;TABLE&gt;">
<polygon fill="lightgray" stroke="none" points="17.5,-25.88 17.5,-42.12 124.5,-42.12 124.5,-25.88 17.5,-25.88"/>
<text xml:space="preserve" text-anchor="start" x="18.5" y="-29.88" font-family="Arial" font-size="12.00">time:TemporalEntity</text>
<polygon fill="none" stroke="black" points="16.5,-24.88 16.5,-43.12 125.5,-43.12 125.5,-24.88 16.5,-24.88"/>
</a>
</g>
</g>
<!-- State&#45;&gt;time_TemporalEntity -->
<g id="edge12" class="edge">
<title>State&#45;&gt;time_TemporalEntity</title>
<path fill="none" stroke="black" d="M307.88,-360.97C376.17,-353.81 551,-330.54 551,-280 551,-280 551,-280 551,-106 551,-64.6 268,-44.92 136.6,-38.01"/>
<polygon fill="black" stroke="black" points="136.81,-34.52 126.64,-37.5 136.45,-41.51 136.81,-34.52"/>
<text xml:space="preserve" text-anchor="middle" x="577.62" y="-176.3" font-family="Arial" font-size="11.00">achievedAt</text>
</g>
<!-- Invis&#45;&gt;Activity -->
<!-- Activity&#45;&gt;State -->
<g id="edge9" class="edge">
<title>Activity&#45;&gt;State</title>
<path fill="none" stroke="black" d="M123.73,-286.47C146.27,-292.41 179.06,-302.24 206,-315 214.51,-319.03 231.84,-330.16 247.7,-340.74"/>
<polygon fill="black" stroke="black" points="253.92,-349.14 247.57,-340.66 257.83,-343.33 253.92,-349.14"/>
<text xml:space="preserve" text-anchor="middle" x="269.41" y="-318.05" font-family="Arial" font-size="11.00">inverse hasEffect</text>
</g>
<!-- Activity&#45;&gt;State -->
<g id="edge10" class="edge">
<title>Activity&#45;&gt;State</title>
<path fill="none" stroke="black" d="M123.74,-280.23C175.87,-281.31 288.11,-286.91 312,-315 318.21,-322.31 315.41,-330.96 309.47,-338.91"/>
<polygon fill="black" stroke="black" points="300.42,-343.87 309.67,-338.69 305.67,-348.5 300.42,-343.87"/>
<text xml:space="preserve" text-anchor="middle" x="363.87" y="-318.05" font-family="Arial" font-size="11.00">inverse causesState</text>
</g>
<!-- Activity&#45;&gt;StateStatus -->
<!-- StateStatus&#45;&gt;time_Interval -->
<!-- time_Interval&#45;&gt;time_TemporalEntity -->
</g>
</svg>
