<?xml version="1.0" encoding="UTF-8" standalone="no"?>
<!DOCTYPE svg PUBLIC "-//W3C//DTD SVG 1.1//EN"
 "http://www.w3.org/Graphics/SVG/1.1/DTD/svg11.dtd">
<!-- Generated by graphviz version 14.0.2 (20251019.1705)
 -->
<!-- Pages: 1 -->
<svg width="314pt" height="404pt"
 viewBox="0.00 0.00 314.00 404.00" xmlns="http://www.w3.org/2000/svg" xmlns:xlink="http://www.w3.org/1999/xlink">
<g id="graph0" class="graph" transform="scale(1 1) rotate(0) translate(4 400)">
<polygon fill="white" stroke="none" points="-4,4 -4,-400 309.9,-400 309.9,4 -4,4"/>
<g id="clust2" class="cluster">
<title>cluster_associated</title>
</g>
<!-- TerminalResourceState -->
<g id="node1" class="node">
<title>TerminalResourceState</title>
<g id="a_node1"><a xlink:href="../TerminalResourceState.md" xlink:title="&lt;TABLE&gt;">
<polygon fill="lightgray" stroke="none" points="135.38,-296.88 135.38,-313.12 262.62,-313.12 262.62,-296.88 135.38,-296.88"/>
<text xml:space="preserve" text-anchor="start" x="136.38" y="-300.73" font-family="Arial" font-size="12.00">TerminalResourceState</text>
<polygon fill="none" stroke="black" points="134.38,-295.88 134.38,-314.12 263.62,-314.12 263.62,-295.88 134.38,-295.88"/>
</a>
</g>
</g>
<!-- Invis -->
<!-- TerminalResourceState&#45;&gt;Invis -->
<!-- i72_Quantity -->
<g id="node3" class="node">
<title>i72_Quantity</title>
<polygon fill="lightgray" stroke="none" points="34.12,-197.88 34.12,-214.12 99.88,-214.12 99.88,-197.88 34.12,-197.88"/>
<text xml:space="preserve" text-anchor="start" x="35.12" y="-201.72" font-family="Arial" font-size="12.00">i72:Quantity</text>
<polygon fill="none" stroke="black" points="33.12,-196.88 33.12,-215.12 100.88,-215.12 100.88,-196.88 33.12,-196.88"/>
</g>
<!-- TerminalResourceState&#45;&gt;i72_Quantity -->
<g id="edge8" class="edge">
<title>TerminalResourceState&#45;&gt;i72_Quantity</title>
<path fill="none" stroke="black" d="M134.48,-287.39C105.5,-279.65 77.23,-271.58 75,-269 67.02,-259.76 64.51,-246.66 64.2,-234.89"/>
<polygon fill="black" stroke="black" points="67.69,-235.35 64.47,-225.26 60.69,-235.16 67.69,-235.35"/>
<text xml:space="preserve" text-anchor="middle" x="106.5" y="-258.55" font-family="Arial" font-size="11.00"> hasQuantity </text>
<text xml:space="preserve" text-anchor="middle" x="106.5" y="-245.05" font-family="Arial" font-size="11.00"> «only» &#160;</text>
</g>
<!-- PlannedAllocation -->
<g id="node4" class="node">
<title>PlannedAllocation</title>
<g id="a_node4"><a xlink:href="../PlannedAllocation.md" xlink:title="&lt;TABLE&gt;">
<polygon fill="lightgray" stroke="none" points="16.88,-98.88 16.88,-115.12 117.12,-115.12 117.12,-98.88 16.88,-98.88"/>
<text xml:space="preserve" text-anchor="start" x="17.88" y="-102.72" font-family="Arial" font-size="12.00">PlannedAllocation</text>
<polygon fill="none" stroke="black" points="15.88,-97.88 15.88,-116.12 118.12,-116.12 118.12,-97.88 15.88,-97.88"/>
</a>
</g>
</g>
<!-- TerminalResourceState&#45;&gt;PlannedAllocation -->
<g id="edge7" class="edge">
<title>TerminalResourceState&#45;&gt;PlannedAllocation</title>
<path fill="none" stroke="black" d="M187.75,-287.29C164.76,-253.17 112.29,-175.25 84.7,-134.28"/>
<polygon fill="black" stroke="black" points="87.75,-132.54 79.26,-126.2 81.94,-136.45 87.75,-132.54"/>
<text xml:space="preserve" text-anchor="middle" x="178.83" y="-209.05" font-family="Arial" font-size="11.00"> hasAllocation </text>
<text xml:space="preserve" text-anchor="middle" x="178.83" y="-195.55" font-family="Arial" font-size="11.00"> «only» &#160;</text>
</g>
<!-- ResourceThing -->
<g id="node6" class="node">
<title>ResourceThing</title>
<g id="a_node6"><a xlink:href="../ResourceThing.md" xlink:title="&lt;TABLE&gt;">
<polygon fill="lightgray" stroke="none" points="106.75,-369.88 106.75,-386.12 191.25,-386.12 191.25,-369.88 106.75,-369.88"/>
<text xml:space="preserve" text-anchor="start" x="107.75" y="-373.73" font-family="Arial" font-size="12.00">ResourceThing</text>
<polygon fill="none" stroke="black" points="105.75,-368.88 105.75,-387.12 192.25,-387.12 192.25,-368.88 105.75,-368.88"/>
</a>
</g>
</g>
<!-- TerminalResourceState&#45;&gt;ResourceThing -->
<g id="edge1" class="edge">
<title>TerminalResourceState&#45;&gt;ResourceThing</title>
<path fill="none" stroke="black" d="M187.24,-322.71C181.33,-331.09 174.05,-341.43 167.43,-350.84"/>
<polygon fill="none" stroke="black" points="164.62,-348.75 161.72,-358.94 170.34,-352.78 164.62,-348.75"/>
</g>
<!-- TerminalState -->
<g id="node7" class="node">
<title>TerminalState</title>
<g id="a_node7"><a xlink:href="../TerminalState.md" xlink:title="&lt;TABLE&gt;">
<polygon fill="lightgray" stroke="none" points="211.25,-369.88 211.25,-386.12 286.75,-386.12 286.75,-369.88 211.25,-369.88"/>
<text xml:space="preserve" text-anchor="start" x="212.25" y="-373.73" font-family="Arial" font-size="12.00">TerminalState</text>
<polygon fill="none" stroke="black" points="210.25,-368.88 210.25,-387.12 287.75,-387.12 287.75,-368.88 210.25,-368.88"/>
</a>
</g>
</g>
<!-- TerminalResourceState&#45;&gt;TerminalState -->
<g id="edge2" class="edge">
<title>TerminalResourceState&#45;&gt;TerminalState</title>
<path fill="none" stroke="black" d="M210.76,-322.71C216.67,-331.09 223.95,-341.43 230.57,-350.84"/>
<polygon fill="none" stroke="black" points="227.66,-352.78 236.28,-358.94 233.38,-348.75 227.66,-352.78"/>
</g>
<!-- Invis&#45;&gt;i72_Quantity -->
<!-- i72_Quantity&#45;&gt;PlannedAllocation -->
<!-- Resource -->
<g id="node5" class="node">
<title>Resource</title>
<g id="a_node5"><a xlink:href="../Resource.md" xlink:title="&lt;TABLE&gt;">
<polygon fill="lightgray" stroke="none" points="52.12,-25.88 52.12,-42.12 105.88,-42.12 105.88,-25.88 52.12,-25.88"/>
<text xml:space="preserve" text-anchor="start" x="53.12" y="-29.73" font-family="Arial" font-size="12.00">Resource</text>
<polygon fill="none" stroke="black" points="51.12,-24.88 51.12,-43.12 106.88,-43.12 106.88,-24.88 51.12,-24.88"/>
</a>
</g>
</g>
<!-- PlannedAllocation&#45;&gt;Resource -->
<!-- Resource&#45;&gt;TerminalResourceState -->
<g id="edge9" class="edge">
<title>Resource&#45;&gt;TerminalResourceState</title>
<path fill="none" stroke="black" d="M102.88,-51.94C136.11,-77.15 194.85,-128.08 218,-188 229.39,-217.48 220.05,-253.75 210.88,-277.8"/>
<polygon fill="black" stroke="black" points="203.98,-285.52 210.98,-277.57 210.46,-288.16 203.98,-285.52"/>
<text xml:space="preserve" text-anchor="middle" x="257.52" y="-159.55" font-family="Arial" font-size="11.00"> inverse resourceOf </text>
<text xml:space="preserve" text-anchor="middle" x="257.52" y="-146.05" font-family="Arial" font-size="11.00"> «only» &#160;</text>
</g>
</g>
</svg>
