<?xml version="1.0" encoding="UTF-8" standalone="no"?>
<!DOCTYPE svg PUBLIC "-//W3C//DTD SVG 1.1//EN"
 "http://www.w3.org/Graphics/SVG/1.1/DTD/svg11.dtd">
<!-- Generated by graphviz version 14.0.2 (20251019.1705)
 -->
<!-- Pages: 1 -->
<svg width="436pt" height="347pt"
 viewBox="0.00 0.00 436.00 347.00" xmlns="http://www.w3.org/2000/svg" xmlns:xlink="http://www.w3.org/1999/xlink">
<g id="graph0" class="graph" transform="scale(1 1) rotate(0) translate(4 343)">
<polygon fill="white" stroke="none" points="-4,4 -4,-343 431.75,-343 431.75,4 -4,4"/>
<g id="clust2" class="cluster">
<title>cluster_associated</title>
</g>
<!-- TerminalResourceState -->
<g id="node1" class="node">
<title>TerminalResourceState</title>
<g id="a_node1"><a xlink:href="../TerminalResourceState" xlink:title="&lt;TABLE&gt;">
<polygon fill="lightgray" stroke="none" points="145.38,-296.88 145.38,-313.12 272.62,-313.12 272.62,-296.88 145.38,-296.88"/>
<text xml:space="preserve" text-anchor="start" x="146.38" y="-300.73" font-family="Arial" font-size="12.00">TerminalResourceState</text>
<polygon fill="none" stroke="black" points="144.38,-295.88 144.38,-314.12 273.62,-314.12 273.62,-295.88 144.38,-295.88"/>
</a>
</g>
</g>
<!-- Invis -->
<!-- TerminalResourceState&#45;&gt;Invis -->
<!-- i72_Quantity -->
<g id="node3" class="node">
<title>i72_Quantity</title>
<g id="a_node3"><a xlink:href="https://w3id.org/citydata/21972/v1/Quantity" xlink:title="&lt;TABLE&gt;">
<polygon fill="lightgray" stroke="none" points="17.12,-197.88 17.12,-214.12 82.88,-214.12 82.88,-197.88 17.12,-197.88"/>
<text xml:space="preserve" text-anchor="start" x="18.12" y="-201.72" font-family="Arial" font-size="12.00">i72:Quantity</text>
<polygon fill="none" stroke="black" points="16.12,-196.88 16.12,-215.12 83.88,-215.12 83.88,-196.88 16.12,-196.88"/>
</a>
</g>
</g>
<!-- TerminalResourceState&#45;&gt;i72_Quantity -->
<g id="edge8" class="edge">
<title>TerminalResourceState&#45;&gt;i72_Quantity</title>
<path fill="none" stroke="black" d="M144.51,-289.95C101,-280.43 51.4,-269.49 51,-269 43.39,-259.68 42.24,-246.68 43.35,-234.99"/>
<polygon fill="black" stroke="black" points="46.76,-235.84 44.83,-225.42 39.84,-234.77 46.76,-235.84"/>
<text xml:space="preserve" text-anchor="middle" x="82.5" y="-258.55" font-family="Arial" font-size="11.00"> hasQuantity </text>
<text xml:space="preserve" text-anchor="middle" x="82.5" y="-245.05" font-family="Arial" font-size="11.00"> «only» &#160;</text>
</g>
<!-- PlannedAllocation -->
<g id="node4" class="node">
<title>PlannedAllocation</title>
<g id="a_node4"><a xlink:href="../PlannedAllocation" xlink:title="&lt;TABLE&gt;">
<polygon fill="lightgray" stroke="none" points="16.88,-98.88 16.88,-115.12 117.12,-115.12 117.12,-98.88 16.88,-98.88"/>
<text xml:space="preserve" text-anchor="start" x="17.88" y="-102.72" font-family="Arial" font-size="12.00">PlannedAllocation</text>
<polygon fill="none" stroke="black" points="15.88,-97.88 15.88,-116.12 118.12,-116.12 118.12,-97.88 15.88,-97.88"/>
</a>
</g>
</g>
<!-- TerminalResourceState&#45;&gt;PlannedAllocation -->
<g id="edge7" class="edge">
<title>TerminalResourceState&#45;&gt;PlannedAllocation</title>
<path fill="none" stroke="black" d="M191.16,-287.22C175.2,-271.68 151.69,-247.51 134.25,-224 112.96,-195.31 93.02,-159.32 80.47,-135.1"/>
<polygon fill="black" stroke="black" points="83.6,-133.53 75.93,-126.22 77.36,-136.72 83.6,-133.53"/>
<text xml:space="preserve" text-anchor="middle" x="169.12" y="-209.05" font-family="Arial" font-size="11.00"> hasAllocation </text>
<text xml:space="preserve" text-anchor="middle" x="169.12" y="-195.55" font-family="Arial" font-size="11.00"> «only» &#160;</text>
</g>
<!-- ResourceThing -->
<g id="node6" class="node">
<title>ResourceThing</title>
<g id="a_node6"><a xlink:href="../ResourceThing" xlink:title="&lt;TABLE&gt;">
<polygon fill="lightgray" stroke="none" points="246.75,-197.88 246.75,-214.12 331.25,-214.12 331.25,-197.88 246.75,-197.88"/>
<text xml:space="preserve" text-anchor="start" x="247.75" y="-201.72" font-family="Arial" font-size="12.00">ResourceThing</text>
<polygon fill="none" stroke="black" points="245.75,-196.88 245.75,-215.12 332.25,-215.12 332.25,-196.88 245.75,-196.88"/>
</a>
</g>
</g>
<!-- TerminalResourceState&#45;&gt;ResourceThing -->
<g id="edge1" class="edge">
<title>TerminalResourceState&#45;&gt;ResourceThing</title>
<path fill="none" stroke="black" d="M222.93,-287.1C235.44,-271.94 253.96,-249.48 268.21,-232.2"/>
<polygon fill="none" stroke="black" points="270.6,-234.81 274.26,-224.87 265.2,-230.36 270.6,-234.81"/>
</g>
<!-- TerminalState -->
<g id="node7" class="node">
<title>TerminalState</title>
<g id="a_node7"><a xlink:href="../TerminalState" xlink:title="&lt;TABLE&gt;">
<polygon fill="lightgray" stroke="none" points="351.25,-197.88 351.25,-214.12 426.75,-214.12 426.75,-197.88 351.25,-197.88"/>
<text xml:space="preserve" text-anchor="start" x="352.25" y="-201.72" font-family="Arial" font-size="12.00">TerminalState</text>
<polygon fill="none" stroke="black" points="350.25,-196.88 350.25,-215.12 427.75,-215.12 427.75,-196.88 350.25,-196.88"/>
</a>
</g>
</g>
<!-- TerminalResourceState&#45;&gt;TerminalState -->
<g id="edge2" class="edge">
<title>TerminalResourceState&#45;&gt;TerminalState</title>
<path fill="none" stroke="black" d="M240.35,-287.1C270.2,-271.02 315.3,-246.72 347.99,-229.1"/>
<polygon fill="none" stroke="black" points="349.23,-232.41 356.37,-224.58 345.91,-226.25 349.23,-232.41"/>
</g>
<!-- Invis&#45;&gt;i72_Quantity -->
<!-- i72_Quantity&#45;&gt;PlannedAllocation -->
<!-- Resource -->
<g id="node5" class="node">
<title>Resource</title>
<g id="a_node5"><a xlink:href="../Resource" xlink:title="&lt;TABLE&gt;">
<polygon fill="lightgray" stroke="none" points="52.12,-25.88 52.12,-42.12 105.88,-42.12 105.88,-25.88 52.12,-25.88"/>
<text xml:space="preserve" text-anchor="start" x="53.12" y="-29.73" font-family="Arial" font-size="12.00">Resource</text>
<polygon fill="none" stroke="black" points="51.12,-24.88 51.12,-43.12 106.88,-43.12 106.88,-24.88 51.12,-24.88"/>
</a>
</g>
</g>
<!-- PlannedAllocation&#45;&gt;Resource -->
<!-- Resource&#45;&gt;TerminalResourceState -->
<g id="edge9" class="edge">
<title>Resource&#45;&gt;TerminalResourceState</title>
<path fill="none" stroke="black" d="M99.39,-51.7C128.97,-77.37 182.59,-129.72 204,-188 214.62,-216.91 214.34,-252.64 212.4,-276.74"/>
<polygon fill="black" stroke="black" points="207.94,-286.41 212.39,-276.79 214.91,-287.08 207.94,-286.41"/>
<text xml:space="preserve" text-anchor="middle" x="244.32" y="-159.55" font-family="Arial" font-size="11.00"> inverse resourceOf </text>
<text xml:space="preserve" text-anchor="middle" x="244.32" y="-146.05" font-family="Arial" font-size="11.00"> «only» &#160;</text>
</g>
</g>
</svg>
