<?xml version="1.0" encoding="UTF-8" standalone="no"?>
<!DOCTYPE svg PUBLIC "-//W3C//DTD SVG 1.1//EN"
 "http://www.w3.org/Graphics/SVG/1.1/DTD/svg11.dtd">
<!-- Generated by graphviz version 14.1.3 (20260303.0454)
 -->
<!-- Pages: 1 -->
<svg width="304pt" height="377pt"
 viewBox="0.00 0.00 304.00 377.00" xmlns="http://www.w3.org/2000/svg" xmlns:xlink="http://www.w3.org/1999/xlink">
<g id="graph0" class="graph" transform="scale(1 1) rotate(0) translate(4 373)">
<polygon fill="white" stroke="none" points="-4,4 -4,-373 300.11,-373 300.11,4 -4,4"/>
<g id="clust3" class="cluster">
<title>cluster_associated</title>
</g>
<!-- ResourceThing -->
<g id="node1" class="node">
<title>ResourceThing</title>
<g id="a_node1"><a xlink:href="../ResourceThing" xlink:title="&lt;TABLE&gt;">
<polygon fill="lightgray" stroke="none" points="106.75,-342.88 106.75,-359.12 191.25,-359.12 191.25,-342.88 106.75,-342.88"/>
<text xml:space="preserve" text-anchor="start" x="107.75" y="-346.88" font-family="Arial" font-size="12.00">ResourceThing</text>
<polygon fill="none" stroke="black" points="105.75,-341.88 105.75,-360.12 192.25,-360.12 192.25,-341.88 105.75,-341.88"/>
</a>
</g>
</g>
<!-- TerminalState -->
<g id="node2" class="node">
<title>TerminalState</title>
<g id="a_node2"><a xlink:href="../TerminalState" xlink:title="&lt;TABLE&gt;">
<polygon fill="lightgray" stroke="none" points="211.25,-342.88 211.25,-359.12 286.75,-359.12 286.75,-342.88 211.25,-342.88"/>
<text xml:space="preserve" text-anchor="start" x="212.25" y="-346.88" font-family="Arial" font-size="12.00">TerminalState</text>
<polygon fill="none" stroke="black" points="210.25,-341.88 210.25,-360.12 287.75,-360.12 287.75,-341.88 210.25,-341.88"/>
</a>
</g>
</g>
<!-- TerminalResourceState -->
<g id="node3" class="node">
<title>TerminalResourceState</title>
<g id="a_node3"><a xlink:href="../TerminalResourceState" xlink:title="&lt;TABLE&gt;">
<polygon fill="lightgray" stroke="none" points="135.38,-269.88 135.38,-286.12 262.62,-286.12 262.62,-269.88 135.38,-269.88"/>
<text xml:space="preserve" text-anchor="start" x="136.38" y="-273.88" font-family="Arial" font-size="12.00">TerminalResourceState</text>
<polygon fill="none" stroke="black" points="134.38,-268.88 134.38,-287.12 263.62,-287.12 263.62,-268.88 134.38,-268.88"/>
</a>
</g>
</g>
<!-- TerminalResourceState&#45;&gt;ResourceThing -->
<g id="edge1" class="edge">
<title>TerminalResourceState&#45;&gt;ResourceThing</title>
<path fill="none" stroke="black" d="M187.24,-295.71C181.33,-304.09 174.05,-314.43 167.43,-323.84"/>
<polygon fill="none" stroke="black" points="164.62,-321.75 161.72,-331.94 170.34,-325.78 164.62,-321.75"/>
</g>
<!-- TerminalResourceState&#45;&gt;TerminalState -->
<g id="edge2" class="edge">
<title>TerminalResourceState&#45;&gt;TerminalState</title>
<path fill="none" stroke="black" d="M210.76,-295.71C216.67,-304.09 223.95,-314.43 230.57,-323.84"/>
<polygon fill="none" stroke="black" points="227.66,-325.78 236.28,-331.94 233.38,-321.75 227.66,-325.78"/>
</g>
<!-- Invis -->
<!-- TerminalResourceState&#45;&gt;Invis -->
<!-- i72_Quantity -->
<g id="node5" class="node">
<title>i72_Quantity</title>
<g id="a_node5"><a xlink:href="https://w3id.org/citydata/21972/v1/Quantity" xlink:title="&lt;TABLE&gt;">
<polygon fill="lightgray" stroke="none" points="34.12,-184.38 34.12,-200.62 99.88,-200.62 99.88,-184.38 34.12,-184.38"/>
<text xml:space="preserve" text-anchor="start" x="35.12" y="-188.38" font-family="Arial" font-size="12.00">i72:Quantity</text>
<polygon fill="none" stroke="black" points="33.12,-183.38 33.12,-201.62 100.88,-201.62 100.88,-183.38 33.12,-183.38"/>
</a>
</g>
</g>
<!-- TerminalResourceState&#45;&gt;i72_Quantity -->
<g id="edge8" class="edge">
<title>TerminalResourceState&#45;&gt;i72_Quantity</title>
<path fill="none" stroke="black" d="M134.51,-260.36C105.54,-252.61 77.27,-244.54 75,-242 70,-236.41 67.49,-228.93 66.35,-221.53"/>
<polygon fill="black" stroke="black" points="69.85,-221.47 65.64,-211.75 62.87,-221.98 69.85,-221.47"/>
<text xml:space="preserve" text-anchor="middle" x="103.5" y="-231.55" font-family="Arial" font-size="11.00">hasQuantity</text>
</g>
<!-- PlannedAllocation -->
<g id="node6" class="node">
<title>PlannedAllocation</title>
<g id="a_node6"><a xlink:href="../PlannedAllocation" xlink:title="&lt;TABLE&gt;">
<polygon fill="lightgray" stroke="none" points="16.88,-98.88 16.88,-115.12 117.12,-115.12 117.12,-98.88 16.88,-98.88"/>
<text xml:space="preserve" text-anchor="start" x="17.88" y="-102.88" font-family="Arial" font-size="12.00">PlannedAllocation</text>
<polygon fill="none" stroke="black" points="15.88,-97.88 15.88,-116.12 118.12,-116.12 118.12,-97.88 15.88,-97.88"/>
</a>
</g>
</g>
<!-- TerminalResourceState&#45;&gt;PlannedAllocation -->
<g id="edge7" class="edge">
<title>TerminalResourceState&#45;&gt;PlannedAllocation</title>
<path fill="none" stroke="black" d="M185.86,-260.18C162.63,-230.44 114.2,-168.43 86.87,-133.44"/>
<polygon fill="black" stroke="black" points="89.93,-131.67 81.02,-125.95 84.42,-135.98 89.93,-131.67"/>
<text xml:space="preserve" text-anchor="middle" x="178" y="-188.8" font-family="Arial" font-size="11.00">hasAllocation</text>
</g>
<!-- Invis&#45;&gt;i72_Quantity -->
<!-- i72_Quantity&#45;&gt;PlannedAllocation -->
<!-- Resource -->
<g id="node7" class="node">
<title>Resource</title>
<g id="a_node7"><a xlink:href="../Resource" xlink:title="&lt;TABLE&gt;">
<polygon fill="lightgray" stroke="none" points="52.12,-25.88 52.12,-42.12 105.88,-42.12 105.88,-25.88 52.12,-25.88"/>
<text xml:space="preserve" text-anchor="start" x="53.12" y="-29.88" font-family="Arial" font-size="12.00">Resource</text>
<polygon fill="none" stroke="black" points="51.12,-24.88 51.12,-43.12 106.88,-43.12 106.88,-24.88 51.12,-24.88"/>
</a>
</g>
</g>
<!-- PlannedAllocation&#45;&gt;Resource -->
<!-- Resource&#45;&gt;TerminalResourceState -->
<g id="edge9" class="edge">
<title>Resource&#45;&gt;TerminalResourceState</title>
<path fill="none" stroke="black" d="M104.63,-51.84C137.23,-74.97 191.94,-119.98 214,-174.5 223.91,-199 217.5,-229.15 210.24,-250.39"/>
<polygon fill="black" stroke="black" points="203.57,-258.35 210.32,-250.18 210.13,-260.78 203.57,-258.35"/>
<text xml:space="preserve" text-anchor="middle" x="250.74" y="-146.05" font-family="Arial" font-size="11.00">inverse resourceOf</text>
</g>
</g>
</svg>
