<?xml version="1.0" encoding="UTF-8" standalone="no"?>
<!DOCTYPE svg PUBLIC "-//W3C//DTD SVG 1.1//EN"
 "http://www.w3.org/Graphics/SVG/1.1/DTD/svg11.dtd">
<!-- Generated by graphviz version 14.0.2 (20251019.1705)
 -->
<!-- Pages: 1 -->
<svg width="184pt" height="132pt"
 viewBox="0.00 0.00 184.00 132.00" xmlns="http://www.w3.org/2000/svg" xmlns:xlink="http://www.w3.org/1999/xlink">
<g id="graph0" class="graph" transform="scale(1 1) rotate(0) translate(4 128)">
<polygon fill="white" stroke="none" points="-4,4 -4,-128 179.62,-128 179.62,4 -4,4"/>
<g id="clust2" class="cluster">
<title>cluster_associated</title>
</g>
<!-- ValueOfMoney -->
<g id="node1" class="node">
<title>ValueOfMoney</title>
<g id="a_node1"><a xlink:href="../ValueOfMoney.md" xlink:title="&lt;TABLE&gt;">
<polygon fill="lightgray" stroke="none" points="6.62,-25.88 6.62,-42.12 86.62,-42.12 86.62,-25.88 6.62,-25.88"/>
<text xml:space="preserve" text-anchor="start" x="7.62" y="-29.73" font-family="Arial" font-size="12.00">ValueOfMoney</text>
<polygon fill="none" stroke="black" points="5.62,-24.88 5.62,-43.12 87.62,-43.12 87.62,-24.88 5.62,-24.88"/>
</a>
</g>
</g>
<!-- AmountOfMoney -->
<g id="node3" class="node">
<title>AmountOfMoney</title>
<g id="a_node3"><a xlink:href="../AmountOfMoney.md" xlink:title="&lt;TABLE&gt;">
<polygon fill="lightgray" stroke="none" points="1,-97.88 1,-114.12 92.25,-114.12 92.25,-97.88 1,-97.88"/>
<text xml:space="preserve" text-anchor="start" x="2" y="-101.72" font-family="Arial" font-size="12.00">AmountOfMoney</text>
<polygon fill="none" stroke="black" points="0,-96.88 0,-115.12 93.25,-115.12 93.25,-96.88 0,-96.88"/>
</a>
</g>
</g>
<!-- ValueOfMoney&#45;&gt;AmountOfMoney -->
<g id="edge1" class="edge">
<title>ValueOfMoney&#45;&gt;AmountOfMoney</title>
<path fill="none" stroke="black" d="M46.62,-51.79C46.62,-59.25 46.62,-68.24 46.62,-76.69"/>
<polygon fill="none" stroke="black" points="43.13,-76.54 46.63,-86.54 50.13,-76.54 43.13,-76.54"/>
</g>
<!-- Invis -->
</g>
</svg>
