<?xml version="1.0" encoding="UTF-8" standalone="no"?>
<!DOCTYPE svg PUBLIC "-//W3C//DTD SVG 1.1//EN"
 "http://www.w3.org/Graphics/SVG/1.1/DTD/svg11.dtd">
<!-- Generated by graphviz version 14.0.2 (20251019.1705)
 -->
<!-- Pages: 1 -->
<svg width="371pt" height="206pt"
 viewBox="0.00 0.00 371.00 206.00" xmlns="http://www.w3.org/2000/svg" xmlns:xlink="http://www.w3.org/1999/xlink">
<g id="graph0" class="graph" transform="scale(1 1) rotate(0) translate(4 202)">
<polygon fill="white" stroke="none" points="-4,4 -4,-202 366.62,-202 366.62,4 -4,4"/>
<g id="clust2" class="cluster">
<title>cluster_associated</title>
</g>
<!-- WeeklyRecurringEvent -->
<g id="node1" class="node">
<title>WeeklyRecurringEvent</title>
<g id="a_node1"><a xlink:href="../WeeklyRecurringEvent" xlink:title="&lt;TABLE&gt;">
<polygon fill="lightgray" stroke="none" points="53.5,-171.88 53.5,-188.12 178.5,-188.12 178.5,-171.88 53.5,-171.88"/>
<text xml:space="preserve" text-anchor="start" x="54.5" y="-175.72" font-family="Arial" font-size="12.00">WeeklyRecurringEvent</text>
<polygon fill="none" stroke="black" points="52.5,-170.88 52.5,-189.12 179.5,-189.12 179.5,-170.88 52.5,-170.88"/>
</a>
</g>
</g>
<!-- Invis -->
<!-- WeeklyRecurringEvent&#45;&gt;Invis -->
<!-- time_DayOfWeek -->
<g id="node3" class="node">
<title>time_DayOfWeek</title>
<g id="a_node3"><a xlink:href="https://w3id.org/citydata/imported/time/latest/DayOfWeek" xlink:title="&lt;TABLE&gt;">
<polygon fill="lightgray" stroke="none" points="17,-25.88 17,-42.12 109,-42.12 109,-25.88 17,-25.88"/>
<text xml:space="preserve" text-anchor="start" x="18" y="-29.73" font-family="Arial" font-size="12.00">time:DayOfWeek</text>
<polygon fill="none" stroke="black" points="16,-24.88 16,-43.12 110,-43.12 110,-24.88 16,-24.88"/>
</a>
</g>
</g>
<!-- WeeklyRecurringEvent&#45;&gt;time_DayOfWeek -->
<g id="edge4" class="edge">
<title>WeeklyRecurringEvent&#45;&gt;time_DayOfWeek</title>
<path fill="none" stroke="black" stroke-dasharray="5,2" d="M111.79,-162.15C107.04,-143.86 98.68,-113.94 89,-89 85.51,-80 81.13,-70.42 76.97,-61.88"/>
<polygon fill="black" stroke="black" points="80.17,-60.46 72.57,-53.08 73.91,-63.59 80.17,-60.46"/>
<text xml:space="preserve" text-anchor="middle" x="174" y="-110.05" font-family="Arial" font-size="11.00"> onProperty: hasDayOfWeek </text>
<text xml:space="preserve" text-anchor="middle" x="174" y="-96.55" font-family="Arial" font-size="11.00"> «exactly 1» &#160;</text>
</g>
<!-- RecurringEvent -->
<g id="node4" class="node">
<title>RecurringEvent</title>
<g id="a_node4"><a xlink:href="../RecurringEvent" xlink:title="&lt;TABLE&gt;">
<polygon fill="lightgray" stroke="none" points="276.38,-98.88 276.38,-115.12 361.62,-115.12 361.62,-98.88 276.38,-98.88"/>
<text xml:space="preserve" text-anchor="start" x="277.38" y="-102.72" font-family="Arial" font-size="12.00">RecurringEvent</text>
<polygon fill="none" stroke="black" points="275.38,-97.88 275.38,-116.12 362.62,-116.12 362.62,-97.88 275.38,-97.88"/>
</a>
</g>
</g>
<!-- WeeklyRecurringEvent&#45;&gt;RecurringEvent -->
<g id="edge1" class="edge">
<title>WeeklyRecurringEvent&#45;&gt;RecurringEvent</title>
<path fill="none" stroke="black" d="M164.37,-162.08C194.58,-151.52 233.54,-137.89 264.79,-126.96"/>
<polygon fill="none" stroke="black" points="265.79,-130.32 274.07,-123.71 263.47,-123.71 265.79,-130.32"/>
</g>
<!-- Invis&#45;&gt;time_DayOfWeek -->
</g>
</svg>
