<?xml version="1.0" encoding="UTF-8" standalone="no"?>
<!DOCTYPE svg PUBLIC "-//W3C//DTD SVG 1.1//EN"
 "http://www.w3.org/Graphics/SVG/1.1/DTD/svg11.dtd">
<!-- Generated by graphviz version 14.0.2 (20251019.1705)
 -->
<!-- Pages: 1 -->
<svg width="291pt" height="232pt"
 viewBox="0.00 0.00 291.00 232.00" xmlns="http://www.w3.org/2000/svg" xmlns:xlink="http://www.w3.org/1999/xlink">
<g id="graph0" class="graph" transform="scale(1 1) rotate(0) translate(4 228)">
<polygon fill="white" stroke="none" points="-4,4 -4,-228 286.61,-228 286.61,4 -4,4"/>
<g id="clust2" class="cluster">
<title>cluster_associated</title>
</g>
<!-- WeeklyRecurringEvent -->
<g id="node1" class="node">
<title>WeeklyRecurringEvent</title>
<g id="a_node1"><a xlink:href="../WeeklyRecurringEvent.md" xlink:title="&lt;TABLE&gt;">
<polygon fill="lightgray" stroke="none" points="127.5,-124.88 127.5,-141.12 252.5,-141.12 252.5,-124.88 127.5,-124.88"/>
<text xml:space="preserve" text-anchor="start" x="128.5" y="-128.72" font-family="Arial" font-size="12.00">WeeklyRecurringEvent</text>
<polygon fill="none" stroke="black" points="126.5,-123.88 126.5,-142.12 253.5,-142.12 253.5,-123.88 126.5,-123.88"/>
</a>
</g>
</g>
<!-- Invis -->
<!-- WeeklyRecurringEvent&#45;&gt;Invis -->
<!-- time_DayOfWeek -->
<g id="node3" class="node">
<title>time_DayOfWeek</title>
<polygon fill="lightgray" stroke="none" points="17,-25.88 17,-42.12 109,-42.12 109,-25.88 17,-25.88"/>
<text xml:space="preserve" text-anchor="start" x="18" y="-29.73" font-family="Arial" font-size="12.00">time:DayOfWeek</text>
<polygon fill="none" stroke="black" points="16,-24.88 16,-43.12 110,-43.12 110,-24.88 16,-24.88"/>
</g>
<!-- WeeklyRecurringEvent&#45;&gt;time_DayOfWeek -->
<g id="edge4" class="edge">
<title>WeeklyRecurringEvent&#45;&gt;time_DayOfWeek</title>
<path fill="none" stroke="black" stroke-dasharray="5,2" d="M167.88,-115.1C147.39,-99.46 116.73,-76.03 93.84,-58.55"/>
<polygon fill="black" stroke="black" points="96.14,-55.91 86.07,-52.62 91.89,-61.47 96.14,-55.91"/>
<text xml:space="preserve" text-anchor="middle" x="212.11" y="-86.55" font-family="Arial" font-size="11.00"> onProperty: hasDayOfWeek </text>
<text xml:space="preserve" text-anchor="middle" x="212.11" y="-73.05" font-family="Arial" font-size="11.00"> «exactly 1» &#160;</text>
</g>
<!-- RecurringEvent -->
<g id="node4" class="node">
<title>RecurringEvent</title>
<g id="a_node4"><a xlink:href="../RecurringEvent.md" xlink:title="&lt;TABLE&gt;">
<polygon fill="lightgray" stroke="none" points="147.38,-197.88 147.38,-214.12 232.62,-214.12 232.62,-197.88 147.38,-197.88"/>
<text xml:space="preserve" text-anchor="start" x="148.38" y="-201.72" font-family="Arial" font-size="12.00">RecurringEvent</text>
<polygon fill="none" stroke="black" points="146.38,-196.88 146.38,-215.12 233.62,-215.12 233.62,-196.88 146.38,-196.88"/>
</a>
</g>
</g>
<!-- WeeklyRecurringEvent&#45;&gt;RecurringEvent -->
<g id="edge1" class="edge">
<title>WeeklyRecurringEvent&#45;&gt;RecurringEvent</title>
<path fill="none" stroke="black" d="M190,-150.71C190,-158.47 190,-167.92 190,-176.74"/>
<polygon fill="none" stroke="black" points="186.5,-176.66 190,-186.66 193.5,-176.66 186.5,-176.66"/>
</g>
<!-- Invis&#45;&gt;time_DayOfWeek -->
</g>
</svg>
