<?xml version="1.0" encoding="UTF-8" standalone="no"?>
<!DOCTYPE svg PUBLIC "-//W3C//DTD SVG 1.1//EN"
 "http://www.w3.org/Graphics/SVG/1.1/DTD/svg11.dtd">
<!-- Generated by graphviz version 14.1.3 (20260303.0454)
 -->
<!-- Pages: 1 -->
<svg width="176pt" height="284pt"
 viewBox="0.00 0.00 176.00 284.00" xmlns="http://www.w3.org/2000/svg" xmlns:xlink="http://www.w3.org/1999/xlink">
<g id="graph0" class="graph" transform="scale(1 1) rotate(0) translate(4 279.5)">
<polygon fill="white" stroke="none" points="-4,4 -4,-279.5 171.92,-279.5 171.92,4 -4,4"/>
<g id="clust3" class="cluster">
<title>cluster_associated</title>
</g>
<!-- RecurringEvent -->
<g id="node1" class="node">
<title>RecurringEvent</title>
<g id="a_node1"><a xlink:href="../RecurringEvent" xlink:title="&lt;TABLE&gt;">
<polygon fill="lightgray" stroke="none" points="41.38,-249.38 41.38,-265.62 126.62,-265.62 126.62,-249.38 41.38,-249.38"/>
<text xml:space="preserve" text-anchor="start" x="42.38" y="-253.38" font-family="Arial" font-size="12.00">RecurringEvent</text>
<polygon fill="none" stroke="black" points="40.38,-248.38 40.38,-266.62 127.62,-266.62 127.62,-248.38 40.38,-248.38"/>
</a>
</g>
</g>
<!-- WeeklyRecurringEvent -->
<g id="node2" class="node">
<title>WeeklyRecurringEvent</title>
<g id="a_node2"><a xlink:href="../WeeklyRecurringEvent" xlink:title="&lt;TABLE&gt;">
<polygon fill="lightgray" stroke="none" points="21.5,-176.38 21.5,-192.62 146.5,-192.62 146.5,-176.38 21.5,-176.38"/>
<text xml:space="preserve" text-anchor="start" x="22.5" y="-180.38" font-family="Arial" font-size="12.00">WeeklyRecurringEvent</text>
<polygon fill="none" stroke="black" points="20.5,-175.38 20.5,-193.62 147.5,-193.62 147.5,-175.38 20.5,-175.38"/>
</a>
</g>
</g>
<!-- WeeklyRecurringEvent&#45;&gt;RecurringEvent -->
<g id="edge1" class="edge">
<title>WeeklyRecurringEvent&#45;&gt;RecurringEvent</title>
<path fill="none" stroke="black" d="M84,-202.21C84,-209.97 84,-219.42 84,-228.24"/>
<polygon fill="none" stroke="black" points="80.5,-228.16 84,-238.16 87.5,-228.16 80.5,-228.16"/>
</g>
<!-- Invis -->
<!-- WeeklyRecurringEvent&#45;&gt;Invis -->
<!-- time_DayOfWeek -->
<g id="node4" class="node">
<title>time_DayOfWeek</title>
<g id="a_node4"><a xlink:href="https://w3id.org/citydata/imported/time/latest/DayOfWeek" xlink:title="&lt;TABLE&gt;">
<polygon fill="lightgray" stroke="none" points="17,-25.88 17,-42.12 109,-42.12 109,-25.88 17,-25.88"/>
<text xml:space="preserve" text-anchor="start" x="18" y="-29.88" font-family="Arial" font-size="12.00">time:DayOfWeek</text>
<polygon fill="none" stroke="black" points="16,-24.88 16,-43.12 110,-43.12 110,-24.88 16,-24.88"/>
</a>
</g>
</g>
<!-- WeeklyRecurringEvent&#45;&gt;time_DayOfWeek -->
<g id="edge4" class="edge">
<title>WeeklyRecurringEvent&#45;&gt;time_DayOfWeek</title>
<path fill="none" stroke="black" stroke-dasharray="5,2" d="M87.67,-166.53C91.16,-147.43 95.07,-115.59 89,-89 86.88,-79.73 82.96,-70.19 78.8,-61.76"/>
<polygon fill="black" stroke="black" points="81.99,-60.32 74.22,-53.12 75.81,-63.6 81.99,-60.32"/>
<text xml:space="preserve" text-anchor="middle" x="130.04" y="-119.05" font-family="Arial" font-size="11.00">redefines</text>
<text xml:space="preserve" text-anchor="middle" x="130.04" y="-105.55" font-family="Arial" font-size="11.00">hasDayOfWeek</text>
<text xml:space="preserve" text-anchor="middle" x="130.04" y="-92.05" font-family="Arial" font-size="11.00">1</text>
</g>
<!-- Invis&#45;&gt;time_DayOfWeek -->
</g>
</svg>
