<?xml version="1.0" encoding="UTF-8" standalone="no"?>
<!DOCTYPE svg PUBLIC "-//W3C//DTD SVG 1.1//EN"
 "http://www.w3.org/Graphics/SVG/1.1/DTD/svg11.dtd">
<!-- Generated by graphviz version 14.0.2 (20251019.1705)
 -->
<!-- Pages: 1 -->
<svg width="419pt" height="206pt"
 viewBox="0.00 0.00 419.00 206.00" xmlns="http://www.w3.org/2000/svg" xmlns:xlink="http://www.w3.org/1999/xlink">
<g id="graph0" class="graph" transform="scale(1 1) rotate(0) translate(4 202)">
<polygon fill="white" stroke="none" points="-4,4 -4,-202 414.62,-202 414.62,4 -4,4"/>
<g id="clust2" class="cluster">
<title>cluster_associated</title>
</g>
<!-- YearlyRecurringEvent -->
<g id="node1" class="node">
<title>YearlyRecurringEvent</title>
<g id="a_node1"><a xlink:href="../YearlyRecurringEvent" xlink:title="&lt;TABLE&gt;">
<polygon fill="lightgray" stroke="none" points="68.88,-171.88 68.88,-188.12 187.12,-188.12 187.12,-171.88 68.88,-171.88"/>
<text xml:space="preserve" text-anchor="start" x="69.88" y="-175.72" font-family="Arial" font-size="12.00">YearlyRecurringEvent</text>
<polygon fill="none" stroke="black" points="67.88,-170.88 67.88,-189.12 188.12,-189.12 188.12,-170.88 67.88,-170.88"/>
</a>
</g>
</g>
<!-- Invis -->
<!-- YearlyRecurringEvent&#45;&gt;Invis -->
<!-- time_GeneralDateTimeDescription -->
<g id="node3" class="node">
<title>time_GeneralDateTimeDescription</title>
<g id="a_node3"><a xlink:href="https://w3id.org/citydata/imported/time/latest/GeneralDateTimeDescription" xlink:title="&lt;TABLE&gt;">
<polygon fill="lightgray" stroke="none" points="16.62,-25.88 16.62,-42.12 199.38,-42.12 199.38,-25.88 16.62,-25.88"/>
<text xml:space="preserve" text-anchor="start" x="17.62" y="-29.73" font-family="Arial" font-size="12.00">time:GeneralDateTimeDescription</text>
<polygon fill="none" stroke="black" points="15.62,-24.88 15.62,-43.12 200.38,-43.12 200.38,-24.88 15.62,-24.88"/>
</a>
</g>
</g>
<!-- YearlyRecurringEvent&#45;&gt;time_GeneralDateTimeDescription -->
<g id="edge4" class="edge">
<title>YearlyRecurringEvent&#45;&gt;time_GeneralDateTimeDescription</title>
<path fill="none" stroke="black" stroke-dasharray="5,2" d="M125.67,-162.2C122.28,-137.81 115.96,-92.31 111.87,-62.86"/>
<polygon fill="black" stroke="black" points="115.37,-62.62 110.53,-53.19 108.44,-63.58 115.37,-62.62"/>
<text xml:space="preserve" text-anchor="middle" x="210.47" y="-110.05" font-family="Arial" font-size="11.00"> onProperty: onDateTimeDescription </text>
<text xml:space="preserve" text-anchor="middle" x="210.47" y="-96.55" font-family="Arial" font-size="11.00"> «exactly 1» &#160;</text>
</g>
<!-- RecurringEvent -->
<g id="node4" class="node">
<title>RecurringEvent</title>
<g id="a_node4"><a xlink:href="../RecurringEvent" xlink:title="&lt;TABLE&gt;">
<polygon fill="lightgray" stroke="none" points="324.38,-98.88 324.38,-115.12 409.62,-115.12 409.62,-98.88 324.38,-98.88"/>
<text xml:space="preserve" text-anchor="start" x="325.38" y="-102.72" font-family="Arial" font-size="12.00">RecurringEvent</text>
<polygon fill="none" stroke="black" points="323.38,-97.88 323.38,-116.12 410.62,-116.12 410.62,-97.88 323.38,-97.88"/>
</a>
</g>
</g>
<!-- YearlyRecurringEvent&#45;&gt;RecurringEvent -->
<g id="edge1" class="edge">
<title>YearlyRecurringEvent&#45;&gt;RecurringEvent</title>
<path fill="none" stroke="black" d="M184.94,-162.08C223.65,-150.59 274.55,-135.47 312.68,-124.14"/>
<polygon fill="none" stroke="black" points="313.54,-127.53 322.13,-121.33 311.54,-120.82 313.54,-127.53"/>
</g>
<!-- Invis&#45;&gt;time_GeneralDateTimeDescription -->
</g>
</svg>
